<?xml version="1.0" encoding="UTF-8"?><svg id="Layer_2" xmlns="http://www.w3.org/2000/svg" xmlns:xlink="http://www.w3.org/1999/xlink" viewBox="0 0 93.03 64.54"><defs><style>.cls-1{fill:#cbcaca;}.cls-2{fill:#fff;}.cls-3{clip-path:url(#clippath-2);}.cls-4{fill:#909090;}.cls-5{clip-path:url(#clippath-1);}.cls-6{fill:#e5e5e5;}.cls-7{clip-path:url(#clippath);}.cls-8{clip-path:url(#clippath-3);}.cls-9{fill:#9a9a9a;}</style><clipPath id="clippath"><path class="cls-6" d="m70.04,53.21l-.85-3.75c2.28-.51,4.7-1.64,7.21-3.35,2.05-1.4,4.21-3.22,6.42-5.43,2.4-2.39,5.42-6.25,6.19-11.03.33-2.05.17-4.15-.45-6.09-.64-1.98-1.74-3.66-3.19-4.84-2.07-1.69-4.94-2.46-7.7-2.06-1.38.2-2.72.67-3.99,1.4-1.23.7-2.37,1.63-3.38,2.76-1,1.1-1.84,2.36-2.5,3.72-.48.98-.85,1.98-1.1,3-.17.66-.81,1.08-1.48.97l-.41-.07c-1.21-.2-1.98-1.42-1.63-2.6.83-2.78,2.3-5.42,4.27-7.6,1.29-1.43,2.74-2.62,4.33-3.52,1.7-.97,3.5-1.6,5.36-1.87,1.85-.27,3.8-.15,5.63.33,1.86.5,3.61,1.38,5.05,2.56,2.02,1.65,3.55,3.95,4.41,6.63.81,2.51,1.01,5.24.59,7.88-.74,4.59-3.26,9.13-7.28,13.14-2.41,2.41-4.7,4.33-6.97,5.88-2.91,1.98-5.78,3.3-8.53,3.92Z"/></clipPath><clipPath id="clippath-1"><path class="cls-2" d="m72.3,58.1l-8.11-43.66h-27.33l-5.26,43.66h.05c-.03.14-.05.28-.05.42,0,3.32,9.11,6.02,20.35,6.02,11.24,0,20.35-2.7,20.35-6.02,0-.14-.02-.28-.05-.42h.05Z"/></clipPath><clipPath id="clippath-2"><path class="cls-6" d="m58.84,15.71c0-.12-.36-11.76-7.12-13-1.2-.22-2.29-.22-3.22.01-.81.2-1.5.56-2.12,1.1-1.63,1.42-2.36,3.82-2.68,5.59-.37,2.02-.3,3.7-.3,3.72l-2.79.22c-.01-.31-.06-7.83,4.08-11.44.92-.8,1.99-1.36,3.19-1.65,1.29-.32,2.73-.33,4.29-.05,2.1.38,3.91,1.48,5.37,3.26,1.12,1.35,2.03,3.1,2.71,5.2,1.14,3.48,1.26,6.73,1.26,6.87l-1.28.04-1.42.15Z"/></clipPath><clipPath id="clippath-3"><path class="cls-1" d="m37.38,44.96L15.19,27.81l-1.49-2.81-3.97-7.51-4.5,6.84L.74,31.16l8.47.67,2.4.19h0s26.25,23.08,26.25,23.08c1.02-.05,1.69-2.94,1.69-4.93,0-4.28-2.15-5.21-2.15-5.21Z"/></clipPath></defs><g id="arrssoirblanc"><g><path class="cls-6" d="m70.04,53.21l-.85-3.75c2.28-.51,4.7-1.64,7.21-3.35,2.05-1.4,4.21-3.22,6.42-5.43,2.4-2.39,5.42-6.25,6.19-11.03.33-2.05.17-4.15-.45-6.09-.64-1.98-1.74-3.66-3.19-4.84-2.07-1.69-4.94-2.46-7.7-2.06-1.38.2-2.72.67-3.99,1.4-1.23.7-2.37,1.63-3.38,2.76-1,1.1-1.84,2.36-2.5,3.72-.48.98-.85,1.98-1.1,3-.17.66-.81,1.08-1.48.97l-.41-.07c-1.21-.2-1.98-1.42-1.63-2.6.83-2.78,2.3-5.42,4.27-7.6,1.29-1.43,2.74-2.62,4.33-3.52,1.7-.97,3.5-1.6,5.36-1.87,1.85-.27,3.8-.15,5.63.33,1.86.5,3.61,1.38,5.05,2.56,2.02,1.65,3.55,3.95,4.41,6.63.81,2.51,1.01,5.24.59,7.88-.74,4.59-3.26,9.13-7.28,13.14-2.41,2.41-4.7,4.33-6.97,5.88-2.91,1.98-5.78,3.3-8.53,3.92Z"/><g class="cls-7"><path class="cls-9" d="m64.77,28.45s7.67-18.6,19.54-10.96c11.86,7.64,2.74,27.2-15.12,31.97-17.86,4.77-4.42-21.02-4.42-21.02"/></g></g><g><path class="cls-2" d="m72.3,58.1l-8.11-43.66h-27.33l-5.26,43.66h.05c-.03.14-.05.28-.05.42,0,3.32,9.11,6.02,20.35,6.02,11.24,0,20.35-2.7,20.35-6.02,0-.14-.02-.28-.05-.42h.05Z"/><g class="cls-5"><polyline class="cls-1" points="40.62 13.34 36.86 68.35 25.06 61.37 31.83 41.94 35.1 12.72"/></g></g><path class="cls-4" d="m64.19,14.44c0,.88-6.12,1.6-13.67,1.6-7.55,0-13.67-.72-13.67-1.6,0-.88,6.12-1.6,13.67-1.6s13.67.72,13.67,1.6Z"/><g><path class="cls-6" d="m58.84,15.71c0-.12-.36-11.76-7.12-13-1.2-.22-2.29-.22-3.22.01-.81.2-1.5.56-2.12,1.1-1.63,1.42-2.36,3.82-2.68,5.59-.37,2.02-.3,3.7-.3,3.72l-2.79.22c-.01-.31-.06-7.83,4.08-11.44.92-.8,1.99-1.36,3.19-1.65,1.29-.32,2.73-.33,4.29-.05,2.1.38,3.91,1.48,5.37,3.26,1.12,1.35,2.03,3.1,2.71,5.2,1.14,3.48,1.26,6.73,1.26,6.87l-1.28.04-1.42.15Z"/><g class="cls-3"><path class="cls-4" d="m56.46,11.76c0,5.08-3.16,9.21-7.06,9.21s-7.06-4.12-7.06-9.21c0-5.08,3.16-9.21,7.06-9.21s7.06,4.12,7.06,9.21Z"/></g></g><g><g><path class="cls-1" d="m37.38,44.96L15.19,27.81l-1.49-2.81-3.97-7.51-4.5,6.84L.74,31.16l8.47.67,2.4.19h0s26.25,23.08,26.25,23.08c1.02-.05,1.69-2.94,1.69-4.93,0-4.28-2.15-5.21-2.15-5.21Z"/><g class="cls-8"><path class="cls-9" d="m17.49,20.48s6.13,16.46-9.63,15.16c-13.8-1.14,26.28,27.78,26.28,27.78l17.96-23.1L17.49,20.48Z"/></g></g><ellipse class="cls-2" cx="4.9" cy="24.12" rx="8.32" ry="2.1" transform="translate(-17.94 14.95) rotate(-56.66)"/><g><path class="cls-9" d="m1.62,28.05c-.18.37-.44.62-.58.55-.14-.07-.1-.43.08-.8.18-.37.44-.62.58-.55.14.07.1.43-.08.8Z"/><ellipse class="cls-9" cx="2.07" cy="26.06" rx=".75" ry=".28" transform="translate(-22.21 16.37) rotate(-63.72)"/><path class="cls-9" d="m3.25,24.3c-.18.37-.44.62-.58.55-.14-.07-.1-.43.08-.8.18-.37.44-.62.58-.55s.1.43-.08.8Z"/><path class="cls-9" d="m4.5,22.45c-.23.35-.52.56-.65.47-.13-.09-.05-.43.18-.78.23-.35.52-.56.65-.47.13.09.05.43-.18.78Z"/><path class="cls-9" d="m5.78,20.82c-.23.35-.52.56-.65.47-.13-.09-.05-.43.18-.78s.52-.56.65-.47c.13.09.05.43-.18.78Z"/><path class="cls-9" d="m7.34,19.21c-.23.35-.52.56-.65.47-.13-.09-.05-.43.18-.78.23-.35.52-.56.65-.47.13.09.05.43-.18.78Z"/><path class="cls-9" d="m8.75,19.91c-.23.35-.52.56-.65.47-.13-.09-.05-.43.18-.78s.52-.56.65-.47c.13.09.05.43-.18.78Z"/><path class="cls-9" d="m8.87,18.29c-.23.35-.52.56-.65.47-.13-.09-.05-.43.18-.78.23-.35.52-.56.65-.47s.05.43-.18.78Z"/><path class="cls-9" d="m7.9,22.21c-.23.35-.52.56-.65.47s-.05-.43.18-.78c.23-.35.52-.56.65-.47.13.09.05.43-.18.78Z"/><path class="cls-9" d="m6.65,24.33c-.23.35-.52.56-.65.47s-.05-.43.18-.78c.23-.35.52-.56.65-.47.13.09.05.43-.18.78Z"/><path class="cls-9" d="m5.2,26.53c-.23.35-.52.56-.65.47-.13-.09-.05-.43.18-.78.23-.35.52-.56.65-.47.13.09.05.43-.18.78Z"/><path class="cls-9" d="m3.48,28.53c-.23.35-.52.56-.65.47-.13-.09-.05-.43.18-.78.23-.35.52-.56.65-.47s.05.43-.18.78Z"/><path class="cls-9" d="m1.67,29.68c-.18.37-.44.62-.58.55-.14-.07-.1-.43.08-.8.18-.37.44-.62.58-.55.14.07.1.43-.08.8Z"/><path class="cls-9" d="m3.18,27c-.18.37-.44.62-.58.55-.14-.07-.1-.43.08-.8.18-.37.44-.62.58-.55s.1.43-.08.8Z"/><path class="cls-9" d="m4.46,25c-.21.36-.48.59-.62.51-.13-.08-.08-.43.13-.79.21-.36.48-.59.62-.51.13.08.08.43-.13.79Z"/><path class="cls-9" d="m5.64,23.2c-.23.35-.52.56-.65.47-.13-.09-.05-.43.18-.78.23-.35.52-.56.65-.47s.05.43-.18.78Z"/><path class="cls-9" d="m7.08,21.09c-.23.35-.52.56-.65.47-.13-.09-.05-.43.18-.78.23-.35.52-.56.65-.47.13.09.05.43-.18.78Z"/></g></g></g></svg>