<?xml version="1.0" encoding="UTF-8"?><svg id="Calque_2" xmlns="http://www.w3.org/2000/svg" viewBox="0 0 270.72 240.62"><defs><style>.cls-1{fill:#eeeceb;}.cls-2{fill:#fff;}.cls-3{fill:#d2d2d2;}.cls-4{fill:#dadada;}.cls-5{fill:#868585;}.cls-5,.cls-6{opacity:.57;}.cls-6{fill:#938e8d;}</style></defs><g id="blancs"><path class="cls-6" d="m150.37,147.69s5.39-4.24,5.86-9.81c.47-5.58,2.66-4.99,2.66-4.99h-18.39l-8.09,17.07"/><path class="cls-3" d="m213.31,222.45s-2.45,8.21,0,11.1c.78.92,1.78,1.48,2.74,1.96,2.35,1.18,1.52,4.71-1.11,4.71h-9.19c-2.33,0-3.41-2.95-1.59-4.4.37-.3.8-.61,1.3-.94,5.93-3.99-1.92-11.61-1.92-11.61,0,0,5.34-4.59,9.77-.83Z"/><path class="cls-3" d="m66.96,222.84s-2.45,8.21,0,11.1c.78.92,1.78,1.48,2.74,1.96,2.35,1.18,1.52,4.71-1.11,4.71h-9.19c-2.33,0-3.41-2.95-1.59-4.4.37-.3.8-.61,1.3-.94,5.93-3.99-1.92-11.61-1.92-11.61,0,0,5.34-4.59,9.77-.83Z"/><path class="cls-1" d="m50.92,231.21c63.17,0,118.6,0,165.65,0,47.05,0,46.41-90.49,46.41-90.49H7.74s.96,90.49,43.18,90.49Z"/><path class="cls-1" d="m8.48,159.68c5.73,4.86,66.42,3.44,126.88,3.28,61.11-.16,121.97.91,126.88-3.28,9.77-8.32,8.37-18.56,8.37-18.56l-18.83-3.24H18.94c-10.46,0-18.94,2.84-18.94,2.84,0,0-.44,11.38,8.48,18.96Z"/><path class="cls-2" d="m0,142.13c0,5.24,8.48,9.5,18.94,9.5h232.84c10.46,0,18.93-4.25,18.93-9.5h0c0-5.24-8.48-9.49-18.93-9.49H18.94c-10.46,0-18.94,4.25-18.94,9.49H0Z"/><path class="cls-4" d="m7.74,145.68c5.15,2.26,7.99,2.64,17.86,2.64h219.54c7.08,0,14.31-1.14,17.2-3.25,1.13-.83,2.41-2.1,2.41-3.08,0-1.75-3.19-3.6-6.98-4.46-3.35-.76-12.85-1.54-17.78-1.54l-214.38-.32c-4.12,0-10,.24-13.35,1.01-4.26.98-6.34,2.45-7.51,4.06-1.32,1.82-.53,3.39,3,4.93Z"/><path class="cls-2" d="m186.91,165.94c-6.25,1.22-13.08.97-19.43,1.51-7.32.63-14.66.76-21.99,1.09-12.43.55-24.99.58-37.42.57-18.72-.02-37.35-1.63-55.99-1.73-5.39-.03-10.88-.08-16.29-.29-3.91-.15-8.16-.99-12.06-.57-1.77.19-10.01-2.62-11.5-1.51-2.6,1.94-1.25,6.45-.9,9.17,1.16,9.14,1.12,13.22,5.86,24.37s10.23,24.28,21.75,28.12c14.2,4.73,53.43-1.18,68.32-1.96,14.29-.75,28.54-.35,42.89-.35,10.72,0,21.48-.71,32.16-1.44,7.69-.53,16.49-.3,23.55-4.02,6.11-3.22,6.28-13.32,8.39-19.51,3.47-10.16,7.24-21.02,8.93-31.71l-36.28-1.73Z"/><path class="cls-4" d="m88.76,162.05s39.91-.34,66.58.3c22.58.53,68.78.35,86.8-.12,3.27-.08,5.61-.18,6.71-.28,7.19-.66,13.39-2.26,13.39-2.26,0,0-8.16,6.07-37.24,5.14-11.26-.36-108.12.56-122.15,0-14.03-.56-60.18-2.48-60.18-2.48,0,0,22.56-.21,46.09-.3Z"/><circle class="cls-5" cx="185.79" cy="16.2" r=".55"/><circle class="cls-5" cx="185.94" cy="19.68" r=".55"/><path class="cls-2" d="m244.05,151.13c-1.22,0-2.21-.99-2.21-2.21V24c0-10.79-8.78-19.58-19.58-19.58-5.23,0-10.14,2.04-13.84,5.73l-10.3,10.3c-.86.86-2.26.86-3.13,0-.86-.86-.86-2.26,0-3.13l10.3-10.3C209.82,2.5,215.85,0,222.26,0,235.49,0,246.26,10.77,246.26,24v124.91c0,1.22-.99,2.21-2.21,2.21Z"/><path class="cls-2" d="m201.68,32.09s-5.44-2.5-10.33-7.39c-4.89-4.89-7.39-10.33-7.39-10.33,4.19-4.19,11.01-3.07,15.9,1.82s6.01,11.72,1.82,15.9Z"/><ellipse class="cls-4" cx="192.82" cy="23.23" rx="5.25" ry="12.53" transform="translate(40.05 143.15) rotate(-45)"/><circle class="cls-5" cx="189.18" cy="19.59" r=".55"/><path class="cls-5" d="m192,22.41c-.21.21-.56.21-.77,0-.21-.21-.21-.56,0-.77.21-.21.56-.21.77,0s.21.56,0,.77Z"/><circle class="cls-5" cx="196.77" cy="27.17" r=".55"/><circle class="cls-5" cx="194.34" cy="24.74" r=".55"/><circle class="cls-5" cx="200.16" cy="30.57" r=".55"/><circle class="cls-5" cx="189.27" cy="16.5" r=".55"/><circle class="cls-5" cx="192.53" cy="18.39" r=".55"/><circle class="cls-5" cx="195.25" cy="21.11" r=".55"/><path class="cls-5" d="m200.25,27.47c-.21.21-.56.21-.77,0-.21-.21-.21-.56,0-.77.21-.21.56-.21.77,0s.21.56,0,.77Z"/><circle class="cls-5" cx="197.97" cy="23.83" r=".55"/><circle class="cls-5" cx="187.98" cy="22.93" r=".55"/><path class="cls-5" d="m191.09,26.04c-.21.21-.56.21-.77,0s-.21-.56,0-.77c.21-.21.56-.21.77,0,.21.21.21.56,0,.77Z"/><circle class="cls-5" cx="196.91" cy="30.34" r=".55"/><circle class="cls-5" cx="193.65" cy="28.45" r=".55"/><path class="cls-1" d="m242.71,17.04c1.76,6.78,2.2,119.32,2,123.22-.17,3.2-.68,5.95-1.62,8.13,1.02,0,2.11-.02,3.17-.05V24c0-13.23-10.77-24-24-24-6.41,0-12.44,2.5-16.97,7.03l-7.84,7.84s10.46-7.84,15.51-10.45c4.83-2.5,11.37-4.25,17.12-1.21,5.75,3.03,11.09,7.95,12.63,13.85Z"/><path class="cls-6" d="m257.76,133.12l-3.32,4.08-8.19,11.15v-5.38s5.17-6.32,5.17-6.32l2.94-3.93s1.55.03,3.39.4Z"/></g></svg>