<?xml version="1.0" encoding="UTF-8"?><svg id="Calque_2" xmlns="http://www.w3.org/2000/svg" viewBox="0 0 98.12 40.81"><defs><style>.cls-1{fill:#fff;}.cls-2{fill:#fff9f5;}.cls-3{fill:#a3b2b6;}.cls-4{fill:#dadada;}</style></defs><g id="blancs"><path class="cls-3" d="m52.81,8.22l41.64,14.71c2.15.76,1.88,2.09-.6,2.97l-40.13,14.18c-2.49.88-6.25.97-8.4.21L3.68,25.58c-2.15-.76-1.88-2.09.6-2.97l40.13-14.18c2.49-.88,6.25-.97,8.4-.21Z"/><path class="cls-4" d="m98.12,21.63v-4.33l-4.32,2.02L52.98,4.9c-2.26-.8-6.19-.7-8.8.22L4.19,19.26,0,17.3v4.34h0c-.07.54.42,1.06,1.51,1.45l43.62,15.41c2.26.8,6.19.7,8.8-.22l42.03-14.85c1.44-.51,2.17-1.16,2.15-1.78h0Z"/><path class="cls-4" d="m98.12,17.3v4.34c.02.62-.71,1.27-2.15,1.78l-40.62,14.35-.74.26V15.41h28.1l11.09,3.92,4.32-2.02Z"/><path class="cls-1" d="m55.35,31.26v6.52l-.74.26-.67.24c-2.6.92-6.55,1.02-8.8.22l-1.53-.54v-6.69h11.74Z"/><path class="cls-1" d="m52.98.54l43.62,15.41c2.26.8,1.97,2.19-.63,3.11l-42.03,14.85c-2.6.92-6.54,1.02-8.8.22L1.52,18.72c-2.26-.8-1.97-2.19.63-3.11L44.19.76c2.6-.92,6.54-1.02,8.8-.22Z"/><path class="cls-4" d="m52.66,1.91l40.05,14.15c2.07.73,1.81,2.01-.58,2.85l-38.6,13.64c-2.39.84-6.01.94-8.08.2L5.41,18.61c-2.07-.73-1.81-2.01.58-2.85L44.58,2.12c2.39-.84,6.01-.94,8.08-.21Z"/><path class="cls-1" d="m53.57,32.54h-.04c-.49.18-1.03.33-1.61.44h0L4.78,16.32c.31-.2.71-.4,1.2-.57h.03s47.56,16.79,47.56,16.79Z"/><polygon class="cls-1" points="58.06 30.95 56.62 31.46 9.07 14.66 10.51 14.15 58.06 30.95"/><polygon class="cls-1" points="62.55 29.37 61.11 29.87 13.56 13.07 15 12.57 62.55 29.37"/><polygon class="cls-1" points="67.04 27.78 65.6 28.29 18.05 11.49 19.49 10.98 67.04 27.78"/><polygon class="cls-1" points="71.53 26.19 70.09 26.7 22.54 9.9 23.98 9.39 71.53 26.19"/><polygon class="cls-1" points="76.03 24.6 74.59 25.11 27.04 8.31 28.48 7.8 76.03 24.6"/><polygon class="cls-1" points="80.52 23.02 79.08 23.53 31.53 6.73 32.97 6.22 80.52 23.02"/><polygon class="cls-1" points="85.01 21.43 83.57 21.94 36.02 5.14 37.46 4.63 85.01 21.43"/><polygon class="cls-1" points="89.51 19.84 88.07 20.35 40.51 3.55 41.96 3.04 89.51 19.84"/><path class="cls-1" d="m93.63,18.13c-.26.22-.63.43-1.1.63L45.03,1.97c.55-.17,1.15-.3,1.78-.39l46.83,16.54Z"/><path class="cls-3" d="m42.4,22.84c-.37-.76-1.43-1.49-3.11-2.09-3.09-1.09-7.58-1.45-11.18-.9l-7.06,1.09c-.53.08-.94.21-1.24.36l-.03-.05h-.5s0,.66,0,.66v.06s0,0,0,0h0c.03.32.41.65,1.17.92l12.77,4.51c1.79.63,4.6.52,5.51-.21l3.09-2.49c.53-.43.76-.89.72-1.36v-.65s-.14.15-.14.15Z"/><path class="cls-2" d="m33.22,26.77l-12.77-4.51c-1.79-.63-1.48-1.63.6-1.95l7.06-1.09c3.6-.56,8.09-.2,11.18.9,3.09,1.09,4.11,2.68,2.54,3.95l-3.09,2.49c-.91.73-3.72.84-5.51.21Z"/><path class="cls-1" d="m32.89,25.86l-10.46-3.69c-1.46-.52-1.21-1.33.49-1.59l5.78-.89c2.95-.46,6.62-.16,9.15.73,2.53.89,3.37,2.19,2.08,3.23l-2.53,2.04c-.75.6-3.05.69-4.51.17Z"/><path class="cls-3" d="m22.92,21.38l5.78-.89c2.95-.46,6.62-.16,9.15.73,1.43.51,2.32,1.14,2.59,1.79.38-.9-.55-1.88-2.59-2.6-2.53-.89-6.21-1.19-9.15-.73l-5.78.89c-1.33.21-1.77.75-1.2,1.22.24-.18.64-.32,1.2-.41Z"/></g></svg>