<?xml version="1.0" encoding="UTF-8"?><svg xmlns="http://www.w3.org/2000/svg" xmlns:xlink="http://www.w3.org/1999/xlink" viewBox="0 0 145.37 128.83"><defs><style>.cls-1{opacity:.72;}.cls-2{fill:#ddd;}.cls-3{fill:#e7d9ce;}.cls-4,.cls-5{fill:#fff;}.cls-6{fill:#a7b89c;}.cls-7{fill:#ebe6e3;}.cls-8{fill:#d8d8d8;}.cls-9,.cls-10,.cls-11{fill:#7a7a7b;}.cls-9,.cls-5,.cls-12,.cls-13,.cls-14{opacity:.3;}.cls-15,.cls-16,.cls-17{opacity:.5;}.cls-18{fill:#1a556d;}.cls-5,.cls-14,.cls-17{mix-blend-mode:screen;}.cls-19{isolation:isolate;}.cls-20{fill:#e0e0e0;}.cls-21{opacity:.36;}.cls-21,.cls-22{fill:#6b6b6b;}.cls-23{fill:#2d2d2d;opacity:.12;}.cls-24{fill:#636363;}.cls-24,.cls-13,.cls-25,.cls-26,.cls-16,.cls-27,.cls-28{mix-blend-mode:multiply;}.cls-24,.cls-27{opacity:.17;}.cls-29{fill:#fc8e67;}.cls-30{opacity:.42;}.cls-30,.cls-31{fill:#848687;}.cls-32{fill:#ffeee1;}.cls-33{fill:#f6ae21;}.cls-25{opacity:.26;}.cls-25,.cls-26,.cls-16,.cls-27{fill:#7c7777;}.cls-34{clip-path:url(#clippath);}.cls-26{opacity:.18;}.cls-35{fill:none;}.cls-36{fill:#d4d6d6;}.cls-37,.cls-11{opacity:.46;}.cls-38{fill:#142b20;opacity:.45;}.cls-39{fill:#c6c6c6;}.cls-40{fill:#2f4c27;}.cls-41{fill:#bbbcbc;}.cls-42{fill:#ededed;}</style><clipPath id="clippath"><rect class="cls-35" x="120.24" y="83.19" width="15.01" height="22.66"/></clipPath></defs><g class="cls-19"><g id="Layer_2"><g id="Bibliotheque"><path class="cls-38" d="m145.37,113.36s-6.63,13.82-10.11,14.74c-4.15,1.1-135.25.64-135.25.64l9.99-15.38"/><g><g><polygon class="cls-41" points="17.66 115.16 15.59 117.09 14.32 52.03 17.66 52.03 17.66 115.16"/><rect class="cls-10" x="12.39" y="49.32" width="3.2" height="67.78"/></g><polyline class="cls-10" points="17.66 86.15 3.42 110.81 4.42 83.05 17.7 81.33"/><g><polygon class="cls-41" points="7.99 126.16 5.79 128.09 4.44 52.03 7.99 52.03 7.99 126.16"/><rect class="cls-4" x="2.39" y="49.32" width="3.4" height="78.78"/></g><rect class="cls-41" x="141.41" y="47.44" width="2.35" height="69.61"/><rect class="cls-4" x="135.25" y="49.32" width="3.4" height="78.78" transform="translate(273.91 177.41) rotate(180)"/><polyline class="cls-4" points="16.4 103.29 10.95 103.29 8.15 105.13 8.15 107.97"/><polyline class="cls-20" points="135.25 72.82 17.88 73.33 5.39 79.85 15.07 80.49 135.25 79.85"/><rect class="cls-4" x="35" y="50.52" width="3.79" height="29.33" transform="translate(73.79 130.37) rotate(-180)"/><polygon class="cls-10" points="38.79 79.85 44.9 73.02 44.9 48.85 38.79 49.85 38.79 79.85"/><rect class="cls-4" x="5.39" y="79.85" width="129.86" height="3.2"/><polyline class="cls-20" points="138.66 48.52 145.23 42.54 14.88 43.04 2.39 48.52 16.07 49.96"/><rect class="cls-4" x="104.11" y="50.52" width="3.79" height="29.33"/><polygon class="cls-10" points="107.95 79.85 113.05 73.02 113.05 48.85 107.95 49.85 107.95 79.85"/><polygon class="cls-4" points="138.66 48.52 2.39 48.52 2.39 52.51 138.66 52.51 138.66 51.54 138.66 49.74 138.66 48.52"/><polyline class="cls-41" points="135.25 98.82 17.88 99.33 6.22 105.85 15.07 106.49 135.25 105.85"/><rect class="cls-4" x="5.39" y="105.85" width="129.86" height="3.2"/><rect class="cls-4" x="81.11" y="81.94" width="3.79" height="23.92"/><polygon class="cls-10" points="84.92 105.85 88.72 99.02 88.72 83.05 84.92 83.05 84.92 105.85"/></g><g><g><path class="cls-22" d="m23.95,46.1s-.01-.05-.01-.08,0-.05.01-.08v-.6h.72c.82-.35,2.26-.59,3.89-.59s3.07.23,3.89.59h.72v.67s0,0,0,0,0,0,0,0v.09h-.02c-.19.65-2.17,1.17-4.6,1.17s-4.41-.51-4.6-1.17h0v-.02Z"/><ellipse class="cls-4" cx="28.56" cy="45.24" rx="4.62" ry="1.24"/></g><g><ellipse class="cls-22" cx="28.56" cy="1.32" rx="8.46" ry="1.32"/><path class="cls-32" d="m16.44,25.66c0,.53,3.65,1.16,7.65,1.47l1.48-24.57c-3.44-.18-5.46-.67-5.46-1.25l-3.67,24.34Z"/><path class="cls-3" d="m40.68,25.66c0,.53-3.65,1.16-7.65,1.47l-1.48-24.57c3.44-.18,5.46-.67,5.46-1.25l3.67,24.34Z"/><path class="cls-22" d="m27.97,26.69v18.45s0,.01,0,.01c0,.05.26.09.59.09s.57-.04.58-.08c0,0,0,0,0,0,0,0,0,0,0-.01v-18.45c0-.18-.22-.33-.48-.33h-.21c-.27,0-.48.15-.48.33Z"/><path class="cls-4" d="m20.1,1.32c0,.73,3.22,1.32,8.46,1.32s8.46-.59,8.46-1.32l3.55,24.34c0,.73-6.77,1.65-12.01,1.65s-12.12-.92-12.12-1.65L20.1,1.32Z"/><path class="cls-7" d="m16.44,25.66c0,.53,3.65,1.16,7.65,1.47l1.48-24.57c-3.44-.18-5.46-.67-5.46-1.25l-3.67,24.34Z"/></g></g><path class="cls-40" d="m138.66,48.52v79.57s0-79.57,0-79.57Z"/><polygon class="cls-20" points="145.23 42.54 145.23 114.09 143.72 117.09 143.72 48.51 140.2 51.87 140.2 124.2 138.53 128.09 138.37 48.51 145.23 42.54"/><polygon class="cls-10" points="140.2 72.82 141.44 72.82 141.44 104.6 140.2 106.98 140.2 72.82"/><polygon class="cls-41" points="140.2 79.47 140.2 72.82 143.72 72.82 140.2 79.47"/><polygon class="cls-20" points="140.2 79.47 143.72 72.82 143.76 75.63 140.2 82.52 140.2 79.47"/><g><path class="cls-21" d="m55.85,45.5s-1.89.36-2.09.88,7.49,1.87,9.72,1.87,15.21-3.95,14.93-3.95-2.17-.68-5.31-.58l-6.6-.19-10.66,1.97Z"/><g><path class="cls-31" d="m64.74,47.78s1.83-1.24-.14-1.88l-9.46-1.61s.88,1.03.04,1.75c-.04.04.09.1.04.14l9.51,1.6Z"/><path class="cls-4" d="m64.6,45.9s-9.43-1.58-9.45-1.6l14.83-3.34s9.16,1.39,9.29,1.49c1.41,1.05-.02,1.81-.02,1.81l-13.72,3.21s.7-.22-.93-1.55Z"/><path class="cls-22" d="m55.23,46.01l9.78,1.56c0,.1-.27.21-.27.21l-9.62-1.58c0-.09,0-.12.06-.17"/><path class="cls-8" d="m79.35,42.52c-.54.24-14.44,3.32-14.75,3.39,1.34,1.23.14,1.88.14,1.88l14.5-3.53s1.37-.72.11-1.74Z"/></g></g><polyline class="cls-10" points="46.54 78.16 49.53 75.63 46.68 55.59 45.44 55.87"/><path class="cls-23" d="m50.87,73.26l2.89,3.68s1.06,1.26-1.43,1.52c-4.85.52-4.37-.92-4.37-.92l-.81.96-7.24.1,4.4-6.62,5.22,1.32,1.34-.05Z"/><g><rect class="cls-41" x="40.84" y="55.39" width="5.69" height="22.78"/><rect class="cls-41" x="47.83" y="54.79" width="4.54" height="23.19" transform="translate(-7.16 6.06) rotate(-6.47)"/><g class="cls-17"><rect class="cls-4" x="47.85" y="62.6" width="4.54" height="7.97" transform="translate(-7.18 6.07) rotate(-6.47)"/></g><g class="cls-17"><rect class="cls-4" x="48.29" y="54.85" width="1.48" height="4.14" transform="translate(-6.1 5.88) rotate(-6.47)"/></g><rect class="cls-4" x="40.84" y="56.59" width="5.69" height="3.62"/><rect class="cls-4" x="40.84" y="73.32" width="5.69" height="3.62"/><rect class="cls-4" x="40.84" y="71.88" width="5.69" height=".6"/><rect class="cls-4" x="40.84" y="60.95" width="5.69" height=".6"/></g><path class="cls-23" d="m104.11,78.62h-16.7l1.9-3.03c2.56-.31,10.7-2.48,10.7-2.48l4.11,2.81"/><path class="cls-23" d="m86.93,73.11l-1.93,4.01s-.69,1.89-.98,1.78c-.44-.16-1.25-.33-2.23-.66-2.59-.86-2.16-.43-2.16-.43l-.57,1.09s-4.43-.74-5.22-1.08c0,0-.28.58-.38.72-.23.36-2.66-.42-2.66-.42l-2.36-.86,2.08-1.98,1.44-.91"/><g><rect class="cls-4" x="94.13" y="58.65" width="4.31" height="19.6"/><rect class="cls-41" x="98.44" y="55.48" width="5.69" height="22.78"/><rect class="cls-4" x="88.52" y="57.35" width="5.61" height="20.91"/><rect class="cls-41" x="73.52" y="65.21" width="20.74" height="4.8" transform="translate(-.53 134.56) rotate(-77.28)"/><g class="cls-15"><rect class="cls-4" x="85.53" y="57" width=".45" height="4.8" transform="translate(8.93 129.96) rotate(-77.28)"/></g><g class="cls-15"><rect class="cls-4" x="85.31" y="57.96" width=".45" height="4.8" transform="translate(7.82 130.5) rotate(-77.28)"/></g><g class="cls-15"><rect class="cls-4" x="85.1" y="58.89" width=".45" height="4.8" transform="translate(6.75 131.02) rotate(-77.28)"/></g><rect class="cls-20" x="68.2" y="65.09" width="20.74" height="5.48" transform="translate(-4.9 129.54) rotate(-77.28)"/><rect class="cls-4" x="62.18" y="64.17" width="23.19" height="4.54" transform="translate(-7.29 123.77) rotate(-77.28)"/><g class="cls-28"><rect class="cls-41" x="74.27" y="56.92" width="2.27" height="4.54" transform="translate(1.06 119.71) rotate(-77.28)"/></g><g class="cls-28"><rect class="cls-41" x="71.49" y="64.21" width="4.54" height="4.54" transform="translate(-7.33 123.79) rotate(-77.28)"/></g><path class="cls-4" d="m80.8,62.42c-.31,1.36-1,2.35-1.54,2.23-.55-.12-.74-1.32-.43-2.68.31-1.36,1-2.35,1.54-2.23.55.12.74,1.32.43,2.68Z"/><ellipse class="cls-4" cx="101.29" cy="66.67" rx="1.8" ry="4.47"/><rect class="cls-4" x="98.43" y="59.19" width="5.71" height="1.17"/><rect class="cls-23" x="94.13" y="58.65" width="1.05" height="19.6" rx=".52" ry=".52"/></g><path class="cls-23" d="m49.93,99.06l3.88,3.84s-1.54,2.16-2.54,2.38-4.88-3.47-6.49-2.16-3.31,2.78-4.63,2.14c-.68-.33-2.21-1.23-2.93-1.71-.35-.24-1.75-1.13-1.93-1.15-.23-.03-.23.35-.41.46-.23.15,1.2.66,1.2,1.06,0,.67-1.71.84-4.14,1.09-.22.02-2.02-.89-2.25-1.25-.24-.38,0-.38-.33-.17-.39.25.37,1.22-.02,1.47-1.02.65-2.37.37-2.84.23-.37-.11-4.11-1.68-4.47-1.68-.39,0,.64-.81-.24,0-.13.12.79,1.65.65,1.62l-1.38.22-14.93.27,12.59-6.34"/><g><path class="cls-20" d="m17.92,105.1c-.4.03-.8.05-1.22.06-1.07.03-2.08,0-3.02-.06v-19.73c.63-.13,1.45-.24,2.4-.22.7.02,1.32.11,1.84.22v19.73Z"/><path class="cls-4" d="m22.15,105.1c-.53.07-1.12.13-1.76.14-.93.02-1.76-.04-2.47-.14v-21.06c.68-.17,1.61-.31,2.7-.24.58.04,1.1.13,1.54.24v21.06Z"/><rect class="cls-4" x="7.99" y="84.04" width="5.69" height="21.06"/><g class="cls-14"><path class="cls-33" d="m12.74,85.14v18.87h-3.8v-18.87h3.8Zm.18-.18h-4.17v19.23h4.17v-19.23h0Z"/></g><path class="cls-4" d="m29.96,104.42c-.35.18-.82.38-1.4.51-.61.14-1.14.17-1.54.17-1.62-7.02-3.24-14.04-4.86-21.05.31-.19.77-.42,1.38-.57.65-.16,1.2-.15,1.57-.11,1.62,7.02,3.24,14.04,4.86,21.05Z"/><path class="cls-10" d="m36.26,103.73c-.54.28-1.18.56-1.9.81-.78.27-1.5.45-2.13.57-2.18-6.38-4.35-12.76-6.53-19.14.4-.26.9-.55,1.5-.79.99-.4,1.88-.54,2.53-.59,2.18,6.38,4.35,12.76,6.53,19.14Z"/><g class="cls-14"><rect class="cls-10" x="26.52" y="86.4" width="4.26" height="3.19" transform="translate(-26.87 13.96) rotate(-18.83)"/></g><g class="cls-14"><path class="cls-10" d="m32.31,98.72c-.38.13-.78-.07-.91-.45l-2.23-6.54c-.13-.38.07-.78.45-.91.38-.13.78.07.91.45l2.23,6.54c.13.38-.07.78-.45.91Z"/></g><g class="cls-14"><rect class="cls-10" x="31.14" y="99.95" width="4.26" height="3.19" transform="translate(-31 16.18) rotate(-18.83)"/></g><path class="cls-4" d="m43.9,103.17c-.31.26-.66.53-1.06.8-.83.55-1.63.9-2.3,1.14-3.12-5.4-6.24-10.8-9.35-16.2.29-.36.8-.91,1.61-1.34.69-.38,1.32-.53,1.75-.59,3.12,5.4,6.24,10.8,9.35,16.2Z"/><g class="cls-13"><rect class="cls-10" x="31.76" y="88.54" width="3.87" height="1.63" transform="translate(-40.17 28.82) rotate(-30)"/></g><g class="cls-13"><rect class="cls-10" x="32.8" y="90.96" width="3.87" height=".42" transform="translate(-40.93 29.59) rotate(-30)"/></g><g class="cls-13"><rect class="cls-10" x="38.45" y="100.79" width="3.87" height=".32" transform="translate(-45.06 33.72) rotate(-30)"/></g><g class="cls-13"><rect class="cls-10" x="39.47" y="101.9" width="3.87" height="1.63" transform="translate(-45.81 34.47) rotate(-30)"/></g><path class="cls-4" d="m53.64,102.36c-.35.5-.82,1.08-1.43,1.66-.46.44-.91.79-1.31,1.08-4.64-4.64-9.27-9.27-13.91-13.91.23-.42.59-.99,1.15-1.56.58-.58,1.16-.95,1.59-1.18,4.64,4.64,9.27,9.27,13.91,13.91Z"/><path class="cls-10" d="m49.26,100.72c-.19.19-.5.19-.69,0l-7.2-7.2c-.19-.19-.19-.5,0-.69.19-.19.5-.19.69,0l7.2,7.2c.19.19.19.5,0,.69Z"/><g class="cls-12"><rect class="cls-10" x="9.93" y="84.04" width="1.8" height=".92"/></g><rect class="cls-10" x="9.37" y="88.11" width="2.94" height=".43"/><rect class="cls-10" x="9.37" y="89.21" width="2.94" height=".43"/><rect class="cls-10" x="9.37" y="90.31" width="2.94" height=".43"/><g class="cls-13"><rect class="cls-10" x="15" y="86.55" width="1.59" height="5.07"/></g><g class="cls-13"><rect class="cls-10" x="15" y="92.74" width="1.59" height="5.07"/></g><g class="cls-13"><rect class="cls-10" x="15" y="98.94" width="1.59" height="5.07"/></g><g class="cls-37"><g class="cls-28"><rect class="cls-10" x="17.92" y="84.96" width="4.24" height=".42"/></g></g><g class="cls-28"><rect class="cls-11" x="17.92" y="86.13" width="4.24" height=".42"/></g><g class="cls-28"><rect class="cls-11" x="17.92" y="87.31" width="4.24" height=".42"/></g><g class="cls-28"><rect class="cls-11" x="17.92" y="101.47" width="4.24" height=".42"/></g><g class="cls-28"><rect class="cls-11" x="17.92" y="102.65" width="4.24" height=".42"/></g><g class="cls-28"><rect class="cls-11" x="17.92" y="103.82" width="4.24" height=".42"/></g><g class="cls-37"><g class="cls-28"><rect class="cls-10" x="18.79" y="89.63" width="2.42" height="9.88"/></g></g><g class="cls-12"><circle class="cls-10" cx="27.94" cy="102.4" r=".87"/></g><circle class="cls-10" cx="50.65" cy="102.11" r=".9"/><rect class="cls-5" x="32.08" y="84.23" width=".45" height="20.06" rx=".22" ry=".22" transform="translate(-28.7 15.48) rotate(-18.83)"/><rect class="cls-5" x="38.24" y="86" width=".45" height="18.83" rx=".22" ry=".22" transform="translate(-42.56 32.02) rotate(-30)"/><rect class="cls-9" x="43.83" y="88.1" width=".72" height="19.62" rx=".35" ry=".35" transform="translate(-56.29 59.92) rotate(-45)"/><g class="cls-13"><path class="cls-10" d="m27.33,105.17c-.14.03-.28-.05-.31-.19l-4.72-20.64c-.03-.14.05-.28.19-.31.14-.03.28.05.31.19l4.72,20.64c.03.14-.05.28-.19.31Z"/></g><g class="cls-13"><rect class="cls-10" x="7.99" y="84.04" width=".9" height="21.06"/></g></g><g><polygon class="cls-24" points="114.23 46.48 112.16 43.09 91.17 44.46 86.3 45.06 94.28 48.51 114.23 46.48"/><polygon class="cls-4" points="108.07 45.98 102.63 43.53 95.89 44.64 100.95 47.18 108.07 45.98"/></g><g><polygon class="cls-4" points="114.21 41.49 105.33 37.72 86.34 40.79 94.51 44.74 114.21 41.49"/><polygon class="cls-25" points="109.29 42.35 100.42 38.57 86.34 40.79 96.26 44.46 109.29 42.35"/><path class="cls-31" d="m86.34,40.79v.41s.35.2.35.2l-.2,2.73-.18-.09v.39s7.97,4.07,7.97,4.07c0,0,.34-.15.43-1.05.13-1.27-.2-2.71-.2-2.71l-8.17-3.95Z"/><polygon class="cls-36" points="94.51 44.74 94.28 48.51 114.08 45.38 114.21 41.49 94.51 44.74"/><polygon class="cls-41" points="100.21 43.8 97.43 44.22 97.33 47.99 100.11 47.57 100.21 43.8"/><polygon class="cls-41" points="111.59 41.91 108.54 42.42 108.44 46.28 111.49 45.77 111.59 41.91"/><polygon class="cls-18" points="100.21 43.8 97.43 44.22 88.68 40.33 91.46 39.91 100.21 43.8"/><polygon class="cls-41" points="111.59 41.91 108.54 42.42 99.79 38.62 102.84 38.11 111.59 41.91"/><polygon class="cls-4" points="86.49 44.13 93.94 47.95 94.1 45.03 86.69 41.4 86.49 44.13"/><polygon class="cls-26" points="86.62 42.42 94.04 46.09 94.1 45.03 86.69 41.4 86.62 42.42"/></g><g><polygon class="cls-4" points="84.16 36.88 93.08 33.74 110.34 38.28 102.06 41.22 84.16 36.88"/><polygon class="cls-27" points="84.16 36.88 93.08 33.74 108.8 37.88 100.06 40.74 84.16 36.88"/><polygon class="cls-41" points="110.34 38.28 110.26 38.67 109.91 38.82 109.74 41.91 109.74 41.8 109.92 41.85 109.86 42.21 101.74 45.28 102.06 41.22 110.34 38.28"/><polygon class="cls-31" points="102.06 41.22 101.74 45.28 83.95 40.73 84.16 36.88 102.06 41.22"/><g class="cls-1"><polygon class="cls-4" points="87.04 40.01 87.36 39.77 87.05 39.38 87.06 38.94 86.62 38.84 86.31 38.45 86 38.68 85.56 38.58 85.55 39.02 85.23 39.26 85.54 39.64 85.53 40.09 85.97 40.19 86.28 40.58 86.6 40.34 87.04 40.45 87.04 40.01"/><polygon class="cls-4" points="91.33 41.05 91.64 40.82 91.34 40.43 91.35 39.98 90.91 39.88 90.6 39.49 90.28 39.73 89.84 39.62 89.83 40.06 89.52 40.3 89.82 40.69 89.82 41.13 90.26 41.24 90.56 41.62 90.88 41.39 91.32 41.49 91.33 41.05"/><polygon class="cls-4" points="95.61 42.09 95.93 41.86 95.62 41.47 95.63 41.03 95.19 40.92 94.88 40.53 94.57 40.77 94.13 40.66 94.12 41.1 93.8 41.34 94.11 41.73 94.1 42.17 94.54 42.28 94.85 42.67 95.16 42.43 95.61 42.54 95.61 42.09"/><polygon class="cls-4" points="99.9 43.14 100.21 42.9 99.91 42.51 99.92 42.07 99.47 41.96 99.17 41.57 98.85 41.81 98.41 41.7 98.4 42.15 98.09 42.38 98.39 42.77 98.39 43.21 98.83 43.32 99.13 43.71 99.45 43.47 99.89 43.58 99.9 43.14"/></g><polygon class="cls-4" points="109.74 41.91 102.15 44.8 102.4 41.52 109.91 38.82 109.74 41.91"/><path class="cls-27" d="m109.9,39.02v-.2s-7.5,2.71-7.5,2.71l-.05.56s5.8-2.22,7.55-3.06Z"/></g><g><polygon class="cls-4" points="85.73 32.88 98.58 30.6 111.17 34.26 98.64 36.62 85.73 32.88"/><polygon class="cls-6" points="90.63 33.16 98.55 31.73 103.98 33.35 96.14 34.83 90.63 33.16"/><path class="cls-41" d="m111.17,34.26l-.03.38-.32.16.06,2.51v-.1s.15.09.15.09v.3s-12.35,2.48-12.35,2.48c0,0-.31-.16-.35-.99-.06-1.17.31-2.47.31-2.47l12.53-2.36Z"/><polygon class="cls-31" points="98.64 36.62 98.67 40.07 85.67 36.34 85.73 32.88 98.64 36.62"/><polygon class="cls-41" points="87.11 34.01 96.68 36.85 96.63 38.91 87.06 35.97 87.11 34.01"/><polygon class="cls-25" points="86.62 32.72 98.58 30.6 109.98 33.91 95.24 35.63 86.62 32.72"/><polygon class="cls-4" points="110.88 37.3 99.01 39.58 99.01 36.9 110.82 34.8 110.88 37.3"/><polygon class="cls-26" points="110.86 35 98.98 37.89 99.01 36.9 110.82 34.8 110.86 35"/></g><g><polygon class="cls-4" points="108.61 31.11 100.01 28.2 82.39 30.49 90.34 33.52 108.61 31.11"/><path class="cls-31" d="m82.39,30.49l.04.31.33.15-.08,1.82-.17-.07.03.3,7.77,3.13s.72-.17.68-1.13c-.05-1.14-.65-1.48-.65-1.48l-7.95-3.03Z"/><path class="cls-41" d="m90.34,33.52s.43.4.4,1.34c-.03.98-.43,1.27-.43,1.27l18.38-2.32s.56-.48.52-1.34c-.04-.89-.6-1.36-.6-1.36l-18.27,2.42Z"/><path class="cls-4" d="m82.68,32.77l7.27,2.93s.25-.28.27-.92c.02-.78-.25-1.05-.25-1.05l-7.21-2.78-.08,1.82Z"/><path class="cls-16" d="m82.75,31.12v-.16s7.21,2.78,7.21,2.78c0,0,.21.2.25.76,0,0-5.8-2.56-7.46-3.38Z"/><path class="cls-31" d="m104.83,33.09c-.1.37-2.42.93-5.2,1.25-2.77.32-4.94.28-4.85-.08.1-.37,2.42-.93,5.2-1.25,2.77-.32,4.94-.28,4.85.08Z"/><ellipse class="cls-30" cx="95.35" cy="30.76" rx="6.36" ry="1.08" transform="translate(-1.56 5.33) rotate(-3.18)"/></g><path class="cls-23" d="m34.89,74.04l-1.08-.79-10.88-2.96s-1.26,7.38-1.35,7.52c0,0,1.1.56,2.77.75s2.02-.27,2.02-.27l.27-.5c.89.03,2.99.62,4.1.73.87.09,3.1-2.04,3.1-2.04l1.15-1.04-.05-3.17"/><g><g><path class="cls-4" d="m26.16,78.11s-.99.09-2.59-.18c-1.21-.2-2.12-.61-2.12-.61l3.31-19.89s1.18-.03,2.39.17c1.23.2,2.32.61,2.32.61l-3.31,19.89Z"/><path class="cls-41" d="m27.1,59.42c.12.2.07.47.03.69-.05.25-.09.49-.14.74-.08.39-.7.29-.61-.1.06-.25.12-.49.18-.73.05-.21.11-.5.31-.63.07-.05.19-.04.24.04h0Z"/><path class="cls-41" d="m28.22,59.75c.12.2.07.47.03.69-.05.25-.09.49-.14.74-.08.39-.7.29-.61-.1.06-.25.12-.49.18-.73.05-.21.12-.5.31-.63.07-.05.19-.04.24.04h0Z"/><path class="cls-41" d="m25.94,59.25c.12.2.07.47.03.69-.05.25-.09.49-.14.74-.08.39-.7.29-.61-.1.06-.25.12-.49.18-.73.05-.21.11-.5.31-.63.07-.05.19-.04.24.04h0Z"/></g><g><path class="cls-41" d="m26.51,76.68c-.06.35.12.68.41.78.42.13,1.11.32,2.14.52.82.16,1.5.18,1.94.17.3,0,.56-.26.61-.6,0,0,1.27-6.66,1.85-9.95.42-2.35,1.33-9.51,1.33-9.51.05-.33-.1-.65-.37-.76-.42-.17-1.12-.41-2.04-.56-.92-.15-1.66-.15-2.11-.12-.29.02-.54.27-.59.6,0,0-1.38,7.19-1.77,9.6-.4,2.45-1.4,9.83-1.4,9.83Z"/><path class="cls-4" d="m27.91,75.19c-.1.63.52,1.26,1.38,1.41.87.14,1.66-.25,1.76-.89.1-.63-.52-1.26-1.38-1.41-.87-.14-1.66.25-1.76.89Z"/><g><path class="cls-29" d="m33.63,59.79c-.76,4.12-1.52,8.23-2.28,12.35l2.28-12.35Z"/><path class="cls-4" d="m33.72,59.81c-.09.81-.24,1.61-.38,2.41-.14.8-.28,1.6-.42,2.4-.28,1.6-.57,3.2-.84,4.81-.16.92-.32,1.84-.48,2.76-.06.35-.54.25-.47-.1.61-3.19,1.24-6.38,1.85-9.58.18-.91.33-1.84.57-2.74.04-.14.19-.1.18.04h0Z"/></g><g><path class="cls-29" d="m30.5,59.37c-.74,4.12-1.41,8.25-2.01,12.39l2.01-12.39Z"/><path class="cls-4" d="m30.54,59.36c.02.38-.06.78-.12,1.17-.06.41-.13.81-.19,1.22-.13.81-.26,1.62-.39,2.43-.26,1.62-.51,3.25-.75,4.87-.14.92-.27,1.83-.4,2.75-.04.3-.43.21-.39-.09.48-3.25.99-6.49,1.59-9.72.08-.44.16-.89.25-1.33.08-.44.16-.92.33-1.32.02-.04.07-.03.08.02h0Z"/></g></g></g><polyline class="cls-10" points="31.61 77.84 35 74.69 35 57.73 34.15 57.22"/><path class="cls-23" d="m103.25,102.66s.62,1.61.45,1.9-.37.45-1.52.49-2.19.19-2.34,0l-.15-.19s.22.25-.42.28-3.83-.07-3.94-.18-.22-.26-.22-.26c-.27.17-2.7.08-2.76.07s-.17-.29-.17-.29c0,0,.02.34-.17.29s-1.46,0-1.64-.07-.22-.22-.22-.22c0,0-.15.21-.37.29s-2.27.02-2.4,0-.21-.29-.21-.29v-5.49"/><g><path class="cls-10" d="m92.68,103.85c0,.27-.16.5-.4.56-.17.04-.41.07-.73.08-.33,0-.57-.01-.74-.04-.25-.04-.44-.27-.45-.55,0,0-.17-5.18-.32-8.18-.24-4.83.11-8.35.11-8.35,0-.27.16-.5.4-.56.19-.05.44-.09.75-.09.31,0,.56.03.75.07.24.05.41.28.42.55,0,0,.3,6.22.32,8.3.03,2.05-.11,8.21-.11,8.21Z"/><g><path class="cls-2" d="m96.3,103.7c0,.32-.21.6-.51.66-.31.06-.74.12-1.27.13-.54.01-.97-.03-1.27-.07-.3-.04-.53-.31-.53-.63,0,0-.24-6.45-.28-8.61-.04-2.42-.05-9.68-.05-9.68,0-.33.22-.61.53-.66.34-.06.81-.12,1.29-.13.4,0,.86.03,1.21.08.31.04.54.31.55.64,0,0,.32,7.2.36,9.6.04,2.17-.03,8.68-.03,8.68Z"/><path class="cls-39" d="m94.97,86.31s-.36-.07-.95-.07c-.58,0-.93.11-.93.11-.15,0-.28.08-.27.16l.02.79c0,.09.11.11.27.11,0,0,.34-.06.92-.07.61-.02.96.02.96.02.15,0,.3-.03.29-.12l-.02-.79c0-.09-.13-.15-.28-.15Z"/><path class="cls-39" d="m93.18,102.91c.34.17.74.19,1.11.21.39.03.78.03,1.17,0,.32-.02.19-.48-.13-.46-.36.02-.72.03-1.08.02-.34-.01-.7-.08-1.03-.03-.12.02-.16.19-.04.25h0Z"/><path class="cls-39" d="m93.18,102.09c.34.17.74.19,1.11.21.39.03.78.03,1.17,0,.32-.02.19-.48-.13-.46-.36.02-.72.03-1.08.02-.34-.01-.7-.08-1.03-.03-.12.02-.16.19-.04.25h0Z"/></g><g><path class="cls-39" d="m90.29,104.06c0,.16-.11.31-.26.34-.24.05-.82.08-1.47.09-.66,0-1.05-.05-1.27-.1-.15-.03-.26-.17-.26-.34,0,0-.13-6.36-.14-8.48-.01-2.45.04-9.8.04-9.8,0-.17.11-.31.27-.34.26-.05.7-.11,1.28-.12.45,0,.96.06,1.27.11.16.02.28.17.28.34,0,0,.21,7.19.3,9.58.14,3.95-.05,8.71-.05,8.71Z"/><path class="cls-4" d="m87.45,86.67c.24.06.49.05.73.04.25,0,.51-.02.76-.02.24,0,.21-.43-.03-.4-.25.03-.5.05-.76.07-.24.02-.48.04-.71.13-.09.04-.07.16.01.18h0Z"/><path class="cls-4" d="m87.5,87.52c.19.09.46,0,.66-.01.27-.03.55-.05.82-.1.2-.04.19-.37-.03-.35-.24.02-.48.08-.72.12-.12.02-.23.05-.34.07-.09.02-.22.07-.32.06-.11-.01-.17.15-.06.21h0Z"/><path class="cls-4" d="m87.73,88.41c.17.11.39.09.58.1.22,0,.43.02.65.04.26.03.34-.41.07-.43-.24-.02-.49-.03-.73-.02-.2.01-.44.03-.59.19-.04.04-.01.09.02.12h0Z"/><path class="cls-4" d="m87.69,103.56c.06.08.08.13.18.18.09.05.2.07.3.09.2.05.41.06.62.06.42,0,.85-.1,1.24-.28.27-.12.11-.58-.16-.45-.35.16-.71.27-1.09.3-.18.01-.36.01-.54,0-.1,0-.19-.02-.29-.02-.1,0-.14.03-.23.06-.03,0-.04.05-.02.07h0Z"/><path class="cls-4" d="m88.86,102.2c0,.1-.02.21.06.28.03.03.08.04.12.03.04-.01.07-.04.09-.08.04-.08,0-.18-.02-.26-.02-.06-.08-.1-.13-.09-.05,0-.11.05-.12.11h0Z"/><path class="cls-4" d="m88.83,100.98s0,.02,0,.02c0-.02,0-.04,0-.06,0,.05,0,.1.02.14.01.03.03.06.07.08.04.02.08.02.12,0,.06-.04.1-.14.05-.2-.01-.02-.03-.04-.05-.06-.03-.02-.05-.03-.08-.04.02.01.04.03.06.04,0,0-.01-.01-.02-.02-.03-.04-.08-.06-.12-.03-.04.02-.06.08-.05.12h0Z"/><path class="cls-4" d="m88.35,89.7c-.07.12-.1.26-.1.4,0,.18.29.2.3.01,0-.14-.01-.29-.08-.41-.02-.04-.09-.05-.12,0h0Z"/><path class="cls-4" d="m88.51,91.24s-.04.04-.05.07c.02-.02.03-.03.05-.05-.07.02-.1.14-.12.2-.01.05.02.12.07.14.04.02.12.01.15-.03.04-.06.06-.11.04-.18-.01-.06-.03-.11-.09-.13.02.01.04.02.05.04-.02-.03-.03-.05-.07-.06,0,0-.02,0-.03,0h0Z"/></g></g><g><polygon class="cls-41" points="113.43 54.38 111.23 54.38 111.81 55.87 115.66 77.13 115.72 77.67 117.23 74.44 113.43 54.38"/><g><path class="cls-41" d="m115.72,77.42c.03.15-.06.31-.21.37-.26.11-.72.27-1.45.4-.75.13-1.23.15-1.5.13-.17,0-.3-.12-.33-.27l-4.13-22.77c-.03-.16.07-.32.24-.38.33-.12.9-.3,1.43-.4.43-.08.91-.11,1.26-.12.08,0,.15,0,.22,0,.18,0,.32.11.35.27l4.13,22.77Z"/><path class="cls-4" d="m111.42,56.55c-.65-.04-1.88.19-2.51.45-.17.07-.36-.09-.39-.28-.03-.19.1-.32.27-.4.62-.3,1.8-.5,2.51-.45.18.01.36.09.39.28.03.19-.08.41-.27.4Z"/><path class="cls-4" d="m111.28,59.58l-1.17.21c-.64.12-.95-.35-1.05-.95-.11-.6.02-1.11.66-1.23l1.17-.21c.64-.12.96.36,1.07.96.11.6-.03,1.1-.68,1.21Z"/><path class="cls-4" d="m115.07,76.67c-.58.27-1.74.5-2.47.45-.19-.01-.3-.11-.34-.31-.04-.2.09-.41.28-.4.65.04,1.85-.19,2.39-.45.17-.08.31.12.35.31.04.2-.04.32-.22.4Z"/><path class="cls-4" d="m113.01,70.91h.26c.5,0,.9.4.9.9v2.71c0,.5-.4.9-.9.9h-.26c-.5,0-.9-.4-.9-.9v-2.72c0-.5.4-.9.9-.9Z" transform="translate(-11.24 21.37) rotate(-10.28)"/></g><path class="cls-4" d="m121.37,76.96c.05.19-.04.39-.22.48-.3.15-.82.37-1.55.57-.69.19-1.16.25-1.43.27-.19.01-.37-.11-.42-.3,0,0-2.22-7.28-2.9-9.73-.72-2.59-2.68-10.4-2.68-10.4-.06-.2.05-.41.24-.49.26-.11.69-.27,1.37-.45.75-.2,1.97-.25,2.02-.05,0,0,1.87,6.5,3.1,10.46,1.42,4.58,2.65,10.36,2.46,9.63Z"/><g><path class="cls-4" d="m113.52,58.83c.6.49,1.12,1.06,1.56,1.69.12-.75.2-1.51.22-2.27-.58.15-1.15.35-1.69.6l-.08-.03Z"/><path class="cls-41" d="m113.48,58.86c.49.59,1.04,1.09,1.48,1.73.06.09.23.09.25-.03.13-.76.2-1.53.24-2.31,0-.1-.1-.17-.19-.14-.6.15-1.17.35-1.74.6-.2.09-.03.39.17.3.53-.25,1.08-.44,1.64-.61-.06-.05-.13-.1-.19-.14-.01.75-.08,1.49-.2,2.23.08-.01.17-.02.25-.03-.44-.63-.97-1.29-1.65-1.67-.05-.03-.1.04-.06.08h0Z"/></g><g><path class="cls-4" d="m114.23,62.31c.56-.11,1.51-.46,2.06-.62l-2.06.62Z"/><path class="cls-41" d="m114.35,62.42c.67-.11,1.32-.39,1.97-.57.2-.06.11-.37-.09-.31-.66.2-1.3.43-1.96.62-.17.05-.1.29.07.26h0Z"/></g><g><path class="cls-4" d="m118.15,77.25c.96-.24,1.9-.58,2.79-1.02l-2.79,1.02Z"/><path class="cls-41" d="m118.15,77.35c.53-.05,1.06-.25,1.55-.43.44-.16.95-.31,1.3-.62.07-.06,0-.15-.08-.14-.51.1-.98.4-1.47.57-.44.16-.91.26-1.34.44-.08.04-.04.18.05.17h0Z"/></g><g><path class="cls-4" d="m117.88,76.56c.93-.18,1.83-.5,2.67-.93l-2.67.93Z"/><path class="cls-41" d="m117.88,76.59c.44.08.91-.11,1.32-.24.49-.16.97-.36,1.42-.6.15-.08.02-.29-.13-.22-.48.23-.95.44-1.45.61-.39.13-.83.18-1.17.41-.02.01-.02.04,0,.05h0Z"/></g><polygon class="cls-4" points="117.52 56.44 122.51 75.5 121.16 77.44 116.01 57.58 115.25 56.74 117.52 56.44"/></g><g><g><path class="cls-4" d="m106,104.16c0,.2-.13.36-.31.39-.36.06-1.02.15-1.87.15-.82,0-1.4-.08-1.73-.14-.17-.03-.29-.19-.3-.38l-.35-18.94c0-.19.12-.36.3-.39.37-.07,1.04-.17,1.79-.17.59,0,1.38.11,1.8.18.17.03.3.19.31.38l.34,18.93Z"/><path class="cls-41" d="m104.66,88.02l-2.19-.02c-.18,0-.33-.16-.33-.36v-.89c-.01-.2.14-.37.32-.37l2.19.02c.18,0,.33.16.33.36v.89c.01.2-.14.37-.32.37Z"/><path class="cls-4" d="m102.46,89.4c.34.07.71,0,1.05,0,.35,0,.71.02,1.06.05.33.03.37-.46.03-.49-.36-.03-.73-.04-1.09-.03-.35,0-.74-.01-1.07.12-.14.06-.15.3.02.33h0Z"/><path class="cls-4" d="m102.52,90.2c.1.12.33.12.48.11.2-.02.37-.04.56-.04.37,0,.73.02,1.1.05.3.03.38-.48.08-.5-.38-.03-.77-.04-1.16-.02-.18,0-.36.02-.55.04-.17.02-.4.04-.53.17-.06.06-.06.15.02.2h0Z"/><path class="cls-4" d="m102.62,103.11c-.04.06-.08.12-.1.2-.02.08,0,.17.01.24.06.24.42.17.4-.08,0-.04,0-.08,0-.11,0-.02,0-.03,0-.05,0,0,0-.06,0-.03,0-.08-.02-.16-.09-.2-.06-.04-.16-.03-.21.04h0Z"/><path class="cls-4" d="m103.51,103.11c-.07.2-.02.48.1.63.11.13.33.04.35-.12.02-.11-.01-.21-.05-.31-.04-.09-.08-.19-.15-.25-.07-.06-.21-.07-.25.05h0Z"/><path class="cls-4" d="m104.54,103.14c-.09.07-.14.19-.14.31,0,.12.05.22.13.3.09.1.26.09.34-.02.09-.11.08-.26-.02-.36-.02-.03.01.01.01.02,0,0-.01-.02-.01-.02,0,0,0-.02-.02-.02-.02-.03.01.04,0,.01,0,0,0-.02,0-.03,0,0,0-.04,0,0,0,.04,0,0,0,0,0-.01-.02-.11,0-.03,0-.07-.04-.13-.1-.16-.06-.03-.13-.03-.18,0h0Z"/></g><path class="cls-42" d="m101.89,103.7c0,.44-.27.82-.66.87-.57.08-1.42.18-2.24.2-.72.02-1.41-.03-1.89-.08-.38-.04-.68-.4-.69-.84l-.42-18.65c0-.43.27-.81.64-.87.51-.09,1.27-.19,2.08-.21.86-.02,1.59.04,2.07.09.38.05.67.4.68.83l.42,18.64Z"/></g><g class="cls-34"><g><g><path class="cls-42" d="m130.7,86.55c.05-.28.28-.48.52-.47.36.01.96.07,1.92.24.85.16,1.46.34,1.82.46.23.08.37.35.32.63,0,0-1.07,6.07-1.45,8.09-.4,2.16-1.67,8.63-1.67,8.63-.05.29-.29.49-.54.47-.49-.04-1.29-.11-1.88-.22-.54-.1-1.34-.33-1.83-.47-.24-.07-.39-.35-.34-.63,0,0,1.04-6.04,1.47-8.37.52-2.8,1.65-8.36,1.65-8.36Z"/><path class="cls-4" d="m128.76,101.5l1.85-9.91c.03-.18.19-.3.34-.27l2.44.45c.16.03.26.2.22.38l-1.82,9.77c-.03.18-.19.3-.34.27l-2.56-.48c-.06-.01-.16-.07-.13-.21Zm-.18.49l3.09.57c.16.03.31-.09.34-.27l1.95-10.42c.03-.18-.07-.35-.22-.38l-3.01-.56c-.16-.03-.31.09-.34.27l-1.97,10.52c-.02.11.05.24.16.26Z"/></g><path class="cls-4" d="m134.8,87.89c-.11-.11-.19-.22-.33-.29-.14-.07-.29-.12-.43-.17-.28-.1-.57-.18-.86-.25-.58-.13-1.21-.24-1.8-.21-.23.01-.26.44-.03.46.29.03.58.03.86.06.29.03.57.08.85.14.28.06.56.14.84.22.13.04.26.09.38.13.16.05.29.03.45.04.07,0,.12-.09.06-.14h0Z"/><path class="cls-4" d="m131.59,101.23c-.1-.14-.27-.18-.42-.22-.18-.05-.36-.1-.55-.15-.36-.09-.73-.18-1.09-.27-.23-.06-.31.36-.08.42.36.08.71.17,1.07.25.17.04.35.08.52.11.15.03.34.09.5,0,.05-.03.09-.1.05-.16h0Z"/><path class="cls-4" d="m131.55,100.4c-.06-.15-.19-.18-.32-.22-.17-.04-.35-.07-.53-.11-.34-.07-.69-.12-1.04-.17-.22-.03-.29.33-.07.39.34.08.68.16,1.03.22.17.03.33.06.5.08.14.02.3.04.41-.08.02-.03.03-.08.02-.11h0Z"/><path class="cls-4" d="m131.15,99.67c-.12-.15-.31-.18-.48-.22-.19-.04-.39-.13-.58-.05-.11.05-.14.21-.05.29.15.14.37.14.56.17.17.03.37.07.53-.03.05-.03.06-.12.03-.16h0Z"/></g><g><path class="cls-4" d="m124.61,103.38c-.06.31.11.62.4.74.23.09.54.19.9.26.39.08.69.11.92.12.32.01.61-.21.67-.53l3.9-19.68c.06-.32-.12-.64-.43-.75-.21-.07-.5-.15-.88-.23-.38-.08-.68-.11-.9-.12-.33-.02-.62.21-.68.53l-3.9,19.66Z"/><path class="cls-41" d="m131.08,85.19c-.11-.16-.33-.22-.51-.28-.21-.07-.41-.13-.63-.18-.42-.08-.89-.14-1.32-.09-.29.03-.26.46.03.45.42,0,.82-.03,1.24.03.2.03.4.06.59.11.18.04.36.13.54.08.05-.01.07-.09.04-.13h0Z"/><path class="cls-41" d="m130.89,86.02c-.15-.17-.38-.25-.58-.32-.22-.08-.44-.15-.66-.2-.23-.06-.46-.1-.69-.13-.18-.02-.51-.13-.63.05-.04.06-.05.11-.01.17.1.18.39.13.57.15.22.03.45.06.67.11.22.05.44.11.65.18.2.06.4.17.61.16.08,0,.14-.11.08-.17h0Z"/><path class="cls-41" d="m129.71,87.15c.11-.39-.46-.48-.71-.37-.19.08-.34.24-.33.46,0,.18.1.35.25.45.33.23.81-.02.9-.39.02-.09.03-.21-.05-.28-.06-.06-.15-.06-.22-.02-.14.1-.08.35-.27.42-.16.06-.34-.17-.19-.29.13-.11.34-.09.42.06.06.1.2.05.22-.04h0Z"/><path class="cls-41" d="m129.24,88.65s0-.05,0-.08c-.01.03-.03.05-.04.08.04-.03.05-.07.04-.12,0-.02-.02-.05-.03-.07,0,.02.01.04.02.05,0-.12-.16-.19-.26-.19-.12,0-.21.09-.25.2-.03.1-.02.21.04.3.05.07.11.11.2.1.09,0,.16-.06.19-.14.07-.16-.14-.32-.26-.18,0,0,.01-.01.02-.01-.05.02-.05.03,0,0,.03,0,.06.01.08.02-.03-.01.04.03,0,0,.02.01,0,.02,0,0,0,0,0,0,0,0,0,0,0,.01,0,0,0,0,0-.03,0,0,0,.02,0,0,0,0,0-.02,0,.02,0,0,0-.02-.01.03,0,0,0,0,0,0-.01,0,0,0,0,0,.01,0h-.01s0,0,.01,0c0,0-.02,0,0,0,0,0,.02,0,.02,0-.04,0,.03,0,.02,0-.02,0,.03,0,.02,0,.02,0,.04,0,.06,0-.02,0-.04,0-.06-.01.03.01,0,0,.01.01.03.02.07.03.1.02-.03,0-.06-.01-.09-.02,0,0,0,0,0,.01.03.06.11.06.13,0h0Z"/><path class="cls-41" d="m127.51,102.55c-.17-.07-.35-.08-.54-.11-.19-.03-.39-.07-.58-.12-.39-.1-.76-.24-1.12-.43-.21-.11-.37.22-.16.33.37.2.77.35,1.18.44.2.04.4.07.6.09.2.01.41.03.61-.05.06-.02.08-.12,0-.15h0Z"/><path class="cls-41" d="m127.42,103.37c-.05-.13-.27-.12-.38-.14-.2-.02-.41-.03-.61-.05-.42-.05-.84-.14-1.24-.29-.25-.09-.43.28-.18.37.45.16.92.27,1.4.31.23.02.46.02.69-.02.04,0,.37-.07.33-.18h0Z"/></g><g><path class="cls-41" d="m137.38,104.16c-.04.26-.26.44-.5.44-.44,0-1.19-.05-2.17-.22-1.08-.19-1.72-.37-2.07-.5-.23-.08-.36-.33-.32-.58,0,0,.9-6.46,1.27-8.6.4-2.3,1.82-9.17,1.82-9.17.05-.26.27-.45.52-.44.47.02,1.26.07,2.1.22.84.15,1.64.37,2.1.51.24.07.39.33.34.59,0,0-1.07,6.93-1.47,9.24-.37,2.13-1.62,8.51-1.62,8.51Z"/><path class="cls-4" d="m133.23,102.63c.79.74,2.2.86,3.22.83.21,0,.21-.34,0-.33-.58.01-1.14-.03-1.7-.16-.5-.11-.97-.33-1.48-.41-.04,0-.08.04-.04.07h0Z"/><path class="cls-4" d="m134.37,100.15c.22.73.54,1.36.63,2.14.01.11.13.16.22.09.34-.29.69-.59,1.03-.88.15-.13.46-.31.52-.52.06-.24-.14-.62-.2-.83-.14-.47-.28-.95-.42-1.42-.03-.11-.16-.14-.24-.06-.5.44-1,.89-1.5,1.33-.15.13.07.35.22.22.5-.45,1-.9,1.49-1.34-.08-.02-.16-.04-.24-.06.1.34.2.69.31,1.03.08.27.28.66.26.94.08.16.02.28-.18.35-.14.12-.27.24-.41.36-.27.24-.54.48-.82.72.07.02.14.04.21.06-.1-.74-.3-1.58-.83-2.13-.02-.02-.06,0-.05.03h0Z"/><path class="cls-4" d="m136.17,86.44c.62.16,1.27.22,1.89.36.55.13,1.09.37,1.65.41.09,0,.11-.12.04-.16-.5-.34-1.16-.45-1.74-.57-.6-.13-1.22-.24-1.83-.2-.09,0-.12.14-.02.16h0Z"/><path class="cls-4" d="m136,87.28c.55.22,1.17.3,1.74.46.58.16,1.15.37,1.71.6.16.06.27-.21.11-.27-1.06-.45-2.39-.98-3.56-.85-.04,0-.04.05,0,.06h0Z"/></g></g></g></g></g></svg>