<?xml version="1.0" encoding="UTF-8"?>
<svg id="Calque_2" data-name="Calque 2" xmlns="http://www.w3.org/2000/svg" xmlns:xlink="http://www.w3.org/1999/xlink" viewBox="0 0 43.41 13.73">
  <defs>
    <style>
      .cls-1, .cls-2 {
        fill: #fff;
      }

      .cls-3 {
        fill: url(#linear-gradient-4);
      }

      .cls-3, .cls-4 {
        mix-blend-mode: multiply;
      }

      .cls-5 {
        mask: url(#mask-2);
      }

      .cls-6 {
        mask: url(#mask-3);
      }

      .cls-7 {
        opacity: .4;
      }

      .cls-8 {
        fill: url(#linear-gradient-5);
      }

      .cls-9 {
        fill: #6f6f6e;
      }

      .cls-2 {
        opacity: .2;
      }

      .cls-4 {
        fill: url(#linear-gradient-2);
      }

      .cls-10 {
        fill: #b1b1b1;
      }

      .cls-11 {
        filter: url(#luminosity-noclip);
      }

      .cls-12 {
        mask: url(#mask-1);
      }

      .cls-13 {
        mask: url(#mask);
      }

      .cls-14 {
        fill: url(#linear-gradient-3);
      }

      .cls-15 {
        fill: url(#linear-gradient);
      }

      .cls-16 {
        filter: url(#luminosity-noclip-3);
      }
    </style>
    <linearGradient id="linear-gradient" x1="23.25" y1="13.06" x2="23.25" y2="4.98" gradientUnits="userSpaceOnUse">
      <stop offset=".22" stop-color="#d6d6d6"/>
      <stop offset="1" stop-color="#ededed"/>
    </linearGradient>
    <filter id="luminosity-noclip" x="24.17" y="5.65" width="13.57" height="6.25" color-interpolation-filters="sRGB" filterUnits="userSpaceOnUse">
      <feFlood flood-color="#fff" result="bg"/>
      <feBlend in="SourceGraphic" in2="bg"/>
    </filter>
    <filter id="luminosity-noclip-2" x="24.17" y="-8100.46" width="13.57" height="32766" color-interpolation-filters="sRGB" filterUnits="userSpaceOnUse">
      <feFlood flood-color="#fff" result="bg"/>
      <feBlend in="SourceGraphic" in2="bg"/>
    </filter>
    <mask id="mask-1" x="24.17" y="-8100.46" width="13.57" height="32766" maskUnits="userSpaceOnUse"/>
    <linearGradient id="linear-gradient-2" x1="30.96" y1="12.39" x2="30.96" y2="4.83" gradientUnits="userSpaceOnUse">
      <stop offset="0" stop-color="#000"/>
      <stop offset="1" stop-color="#fff"/>
    </linearGradient>
    <mask id="mask" x="24.17" y="5.65" width="13.57" height="6.25" maskUnits="userSpaceOnUse">
      <g class="cls-11">
        <g class="cls-12">
          <path class="cls-4" d="m37.75,5.65h-6.52l-7.05,6.25h5.44c2.47-1.89,5.26-4.04,8.13-6.25Z"/>
        </g>
      </g>
    </mask>
    <linearGradient id="linear-gradient-3" x1="30.96" y1="12.39" x2="30.96" y2="4.83" gradientUnits="userSpaceOnUse">
      <stop offset="0" stop-color="#fff"/>
      <stop offset="1" stop-color="#fff"/>
    </linearGradient>
    <filter id="luminosity-noclip-3" x="13.12" y="5.72" width="15.17" height="6.25" color-interpolation-filters="sRGB" filterUnits="userSpaceOnUse">
      <feFlood flood-color="#fff" result="bg"/>
      <feBlend in="SourceGraphic" in2="bg"/>
    </filter>
    <filter id="luminosity-noclip-4" x="13.12" y="-8100.46" width="15.17" height="32766" color-interpolation-filters="sRGB" filterUnits="userSpaceOnUse">
      <feFlood flood-color="#fff" result="bg"/>
      <feBlend in="SourceGraphic" in2="bg"/>
    </filter>
    <mask id="mask-3" x="13.12" y="-8100.46" width="15.17" height="32766" maskUnits="userSpaceOnUse"/>
    <linearGradient id="linear-gradient-4" x1="20.7" y1="12.39" x2="20.7" y2="4.83" xlink:href="#linear-gradient-2"/>
    <mask id="mask-2" x="13.12" y="5.72" width="15.17" height="6.25" maskUnits="userSpaceOnUse">
      <g class="cls-16">
        <g class="cls-6">
          <path class="cls-3" d="m13.12,11.97h8.44c2.09-1.94,4.38-4.07,6.72-6.25h-10.05l-5.12,6.25Z"/>
        </g>
      </g>
    </mask>
    <linearGradient id="linear-gradient-5" x1="20.7" y1="12.39" x2="20.7" y2="4.83" xlink:href="#linear-gradient-3"/>
  </defs>
  <g id="Box_internet" data-name="Box internet">
    <g id="box">
      <g>
        <path class="cls-10" d="m0,2.67c1.54.9,3.08,1.8,4.61,2.7l-.53,7.36C2.72,11.8,1.36,10.87,0,9.94c0-2.43,0-4.85,0-7.28Z"/>
        <path class="cls-9" d="m10.25,12.92l-1.25-.13c0-.12,0-.21,0-.21l-.99.11-.99-.11s0,.09,0,.21l-1.25.13s.88.81,1.3.81h1.2"/>
        <path class="cls-9" d="m39.32,12.79c0-.12,0-.21,0-.21l-.99.11-.99-.11s0,.09,0,.21l-1.25.13s.88.81,1.3.81h1.9c.42,0,1.3-.81,1.3-.81l-1.25-.13Z"/>
        <path class="cls-1" d="m31.39.01h-3.58C24.46,0,21.08,0,17.69.01,11.73.03,5.84.1,0,.21c0,.82,0,1.64,0,2.46,1.54.9,3.08,1.8,4.61,2.7h0s1.76,2.27,1.91,2.4c.1.08,9.96.05,16.22.03,6.26.03,16.12.06,16.22-.03.15-.12,2.81-3.07,2.81-3.07C41.79,4.69,32.62.01,31.39.01Z"/>
        <path class="cls-15" d="m41.2,13.09H5.3c-.45,0-.87-.14-1.22-.37-.6-.4-.99-1.08-.99-1.85v-4.06c0-1.22.99-2.21,2.21-2.21h35.89c1.22,0,2.21.99,2.21,2.21v4.06c0,1.22-.99,2.21-2.21,2.21Z"/>
        <path class="cls-2" d="m41.54,4.6H4.4c-.07,0-.15,0-.22.02,3.87,7.65,24.73,11.69,37.27.31.34-.25.25-.33.09-.33Z"/>
        <rect class="cls-10" x="5.19" y="5.72" width="37.36" height="6.25" rx="1.8" ry="1.8"/>
        <g class="cls-7">
          <g class="cls-13">
            <path class="cls-14" d="m37.75,5.65h-6.52l-7.05,6.25h5.44c2.47-1.89,5.26-4.04,8.13-6.25Z"/>
          </g>
          <g class="cls-5">
            <path class="cls-8" d="m13.12,11.97h8.44c2.09-1.94,4.38-4.07,6.72-6.25h-10.05l-5.12,6.25Z"/>
          </g>
        </g>
        <path class="cls-1" d="m37.2,8.88c0,.59.48,1.06,1.06,1.06s1.06-.48,1.06-1.06-.48-1.06-1.06-1.06-1.06.48-1.06,1.06Z"/>
        <circle class="cls-1" cx="10.27" cy="8.88" r="1.06"/>
        <circle class="cls-1" cx="13.27" cy="8.88" r="1.06"/>
      </g>
    </g>
  </g>
</svg>