<?xml version="1.0" encoding="UTF-8"?>
<svg id="Calque_2" data-name="Calque 2" xmlns="http://www.w3.org/2000/svg" viewBox="0 0 247.76 254.12">
  <defs>
    <style>
      .cls-1 {
        fill: #fff;
      }

      .cls-2 {
        fill: #f5f5f5;
      }

      .cls-3 {
        fill: #b4b4b4;
      }

      .cls-4, .cls-5, .cls-6, .cls-7, .cls-8 {
        fill: none;
      }

      .cls-4, .cls-5, .cls-6, .cls-8 {
        stroke-linecap: round;
        stroke-linejoin: round;
      }

      .cls-4, .cls-8 {
        stroke: #fff;
      }

      .cls-9 {
        fill: #8d8d8e;
      }

      .cls-5 {
        stroke: #b4b4b4;
      }

      .cls-5, .cls-6 {
        stroke-width: 4px;
      }

      .cls-10 {
        fill: #6f6f6e;
      }

      .cls-6 {
        stroke: #8d8d8e;
      }

      .cls-8, .cls-11 {
        stroke-width: .25px;
      }

      .cls-12 {
        fill: #b1b1b1;
      }

      .cls-13 {
        fill: #f7f7f7;
      }

      .cls-14 {
        fill: #d9d9d9;
      }

      .cls-15 {
        fill: #c6c6c6;
      }

      .cls-16, .cls-17 {
        fill: #ececec;
      }

      .cls-17 {
        opacity: .63;
      }

      .cls-18 {
        fill: #abaaaa;
      }

      .cls-11 {
        fill: #979797;
        stroke: #abaaaa;
        stroke-miterlimit: 10;
      }
    </style>
  </defs>
  <g id="Bureau">
    <g id="Bureau_blanc" data-name="Bureau blanc">
      <g>
        <line class="cls-5" x1="192.64" y1="108.41" x2="192.64" y2="176.31"/>
        <polyline class="cls-5" points="136.58 178.77 147.29 169.18 200.5 179.19 211.41 193.89"/>
        <line class="cls-5" x1="171.91" y1="108.93" x2="171.91" y2="173.81"/>
        <line class="cls-4" x1="193.47" y1="103.56" x2="193.47" y2="176.31"/>
        <line class="cls-4" x1="172.6" y1="108.02" x2="172.6" y2="172.71"/>
        <polyline class="cls-4" points="135.7 179.44 148.33 168.14 201.53 178.15 212.44 192.85"/>
        <path class="cls-7" d="m160.22,182.5s0,0,0,0c-.45.08-.89.2-1.3.34h0c.41-.14.85-.25,1.3-.34Z"/>
        <path class="cls-7" d="m161.17,182.37h0c-.31.03-.61.07-.9.12,0,0,0,0,0,0,.3-.05.6-.1.91-.13Z"/>
        <path class="cls-10" d="m160.26,182.49s0,0,0,0c-.01,0-.03,0-.04,0,0,0,0,0,0,0,.01,0,.02,0,.04,0Z"/>
        <path class="cls-10" d="m161.16,182.37c-.27.01-.66.08-.9.12.3-.05.6-.1.9-.12,0,0,0,0,0,0Z"/>
        <path class="cls-10" d="m158.92,182.83s0,0,0,0c.41-.14.85-.25,1.3-.34-.73.13-1.1.2-1.3.33Z"/>
        <path class="cls-10" d="m160.26,182.49s-.02,0-.04,0c0,0,0,0,0,0,0,0,.02,0,.03,0Z"/>
      </g>
      <polygon class="cls-1" points="113.48 130.12 247.76 88.04 133.75 76.88 0 113.87 113.48 130.12"/>
      <polyline class="cls-14" points="113.48 130.12 247.67 88.04 247.67 97.02 113.48 139.1"/>
      <line class="cls-6" x1="69.55" y1="127" x2="69.55" y2="231.2"/>
      <line class="cls-6" x1="44.67" y1="124.41" x2="44.67" y2="225.24"/>
      <line class="cls-4" x1="70.37" y1="127" x2="70.37" y2="231.2"/>
      <polyline class="cls-6" points="4.01 230.37 14.72 220.78 77.4 234.07 92.06 252.12"/>
      <polyline class="cls-4" points="3.05 230.66 15.68 219.35 78.36 232.65 93.02 250.7"/>
      <line class="cls-4" x1="45.36" y1="123.5" x2="45.36" y2="224.48"/>
      <polyline class="cls-3" points="113.48 139.1 0 122.3 0 113.87 113.48 130.12"/>
      <path class="cls-14" d="m230.02,249.38s0,0,0,0c0-.24,0-.48.01-.72-.02,0-.03.01-.05.02.01.23.03.46.04.7Z"/>
      <g>
        <ellipse class="cls-17" cx="52.22" cy="110.69" rx="15.89" ry="3.88"/>
        <path class="cls-14" d="m60.76,97.72h-16.49c-.03.29-.07.7-.11,1.2-.05.76-.06,1.42-.05,1.42,0,0,.02-.26.07-1.51-.44-.1-1.12-.2-1.94-.08-.5.08-1.81.27-2.63,1.24-1.16,1.36-.77,3.62.12,4.96.7,1.05,1.73,1.56,2.45,1.91.92.45,1.77.64,2.36.73-.07-.52-.14-1.04-.21-1.56-.3,0-1.43,0-2.45-.84-1.07-.88-1.27-2.08-1.31-2.51-.05-.51-.14-1.37.42-1.97.47-.5,1.15-.56,1.55-.6.7-.06,1.26.12,1.55.24-.04,1.13-.04,2.43.06,3.88.16,2.38.54,4.48.96,6.21.01.05.04.12.07.2.04.08.11.22.13.21.01,0,.01-.06-.05-.29-.02.03-.04.07-.04.12,0,.69,3.83,1.43,7.23,1.4,3.47-.02,7.25-.84,7.23-1.4,0-.05-.03-.09-.06-.12.02.04.04.08.06.12.43-1.84.81-4.01,1.02-6.45.2-2.43.18-4.63.06-6.51Z"/>
        <path class="cls-9" d="m60.76,97.69c0,.89-3.72,1.61-8.31,1.61s-8.31-.72-8.31-1.61,3.72-1.61,8.31-1.61,8.31.72,8.31,1.61Z"/>
      </g>
      <g>
        <path class="cls-9" d="m73.63,112.46s1.78-2.33,2.92-3.31c1.14-.99,3.1-2.54,3.92-2.58s1.04.43,1.1.59c.06.16.84,2.51.85,2.62s-.7.33-.76.19c-.06-.14-.44-2.15-.58-2.52-.14-.37-.13-.58-1.08-.17-.96.41-3.71,3.34-4.27,4.02-.56.68-1.1,1.38-1.1,1.38,0,0-.7-.25-.98-.24Z"/>
        <path class="cls-15" d="m96.51,115.39s2-2.03,3.18-2.95c1.19-.92,3.23-2.38,4.05-2.37s1.02.48,1.07.65c.05.17.71,2.55.71,2.66s-.72.3-.77.15c-.05-.14-.33-2.17-.45-2.54-.12-.38-.09-.59-1.07-.23-.98.36-3.88,3.14-4.48,3.79-.6.65-1.87,2.54-1.87,2.54,0,0-.09-1.72-.37-1.72Z"/>
        <path class="cls-15" d="m96.99,114.96s-.09.08-.14.1c-.18.07-.66.16-.92.08-.26-.08-.44-.3-1.68-.63s-6.32-.52-6.67-.46-.54.47-.97.79c-.43.32-1.22.57-1.63.35-.42-.21-1.01-.86-1.37-1.36-.36-.49-.76-.54-1.13-.64-.36-.1-4.61-.85-5.38-.9-.76-.05-1.51-.04-1.84.02-.33.06-.6.2-.6.2,0,0-.03.08-.25-.01-.22-.09-.87-.2-.96.21-.09.41-.16,1.32.08,1.6l.24.28s.35,2.09.59,2.78,1.01,1.47,1.61,1.9c.59.44,2.67,1.01,4.09,1,1.42-.01,2.2-.4,2.5-.74.3-.34,1.11-1.87,1.31-2.23.2-.36.13-.54,1.09-.49s1.43.61,1.71,1.05c.28.44,1.34,2.21,1.97,2.71.63.5,1.5,1.06,2.78,1.28s2.16.41,3.22,0c1.06-.41,1.53-1.05,1.73-1.73.2-.68.13-1.92.16-2.31.02-.39.33-.71.33-.71,0,0,.41-.32.46-.67,0-.04.03-.09.05-.15-.11-.47-.24-.91-.4-1.34Zm-13.2,1.29c-.09.24-.64,1.92-1.1,2.52-.46.6-1.02,1.15-1.73,1.25-.7.1-2.62-.13-4.17-.84-1.55-.71-2.07-2.01-2.25-3.34-.18-1.33.05-2.34.7-2.64.65-.31,3.05-.29,4.8.15,1.75.44,3.32,1.12,3.5,1.44.18.32.33,1.03.33,1.03,0,0,0,.19-.09.43Zm11.94,4.17c-.28.65-.69,1.02-2,1.22-1.31.2-2.38-.04-3.43-.46-1.05-.42-1.55-1.19-2.09-1.91s-1.53-2.17-1.43-3.25c.1-1.09,1.16-1.08,1.16-1.08,0,0,.89-.03.96-.02.07,0,5.88.64,6.22.89.81.6.67.77.83,1.99.16,1.22.05,1.97-.23,2.62Z"/>
        <path class="cls-8" d="m83.05,113.83s.24.09.58.61.87,1.38,1.74,1.36,1.51-.93,1.51-.93"/>
        <path class="cls-8" d="m87.85,114.54s3.9,0,5.7.34c1.8.33,2.12.93,2.2.96.08.03.84.16,1.12-.18"/>
        <path class="cls-8" d="m73.63,112.91s.5.26.8.09c.3-.17.73-.37,1.24-.35.51.02,2.37-.03,4.5.37,2.13.4,2.65.65,2.65.65"/>
        <path class="cls-8" d="m74.61,116.9s.28,1.53,1.53,2.17"/>
        <path class="cls-8" d="m79.44,114.03s-2.48-.46-3.3-.2-1.17.83-1.03,1.81"/>
        <path class="cls-8" d="m91.71,115.92s-2.48-.46-3.3-.2-.57.86-.34,1.81"/>
      </g>
      <g>
        <path class="cls-11" d="m173.92,92.54c-14.4,5.9-28.81,11.81-43.21,17.71-.09.04-.19.05-.28.04-13.55-1.86-27.1-3.73-40.65-5.59-.57-.08-.64-.87-.1-1.05,15.13-5.22,30.26-10.45,45.39-15.67.07-.03.15-.03.23-.03,12.82,1.18,25.65,2.36,38.47,3.55.57.05.68.83.16,1.05Z"/>
        <path class="cls-16" d="m173.92,90.57c-14.4,5.9-28.81,11.81-43.21,17.71-.09.04-.19.05-.28.04-13.55-1.86-27.1-3.73-40.65-5.59-.57-.08-.64-.87-.1-1.05,15.13-5.22,30.26-10.45,45.39-15.67.07-.03.15-.03.23-.03,12.82,1.18,25.65,2.36,38.47,3.55.57.05.68.83.16,1.05Z"/>
        <path class="cls-14" d="m108.6,101.39c5.46.75,10.91,1.5,16.37,2.25,11.63-4.77,23.26-9.55,34.88-14.32-4.6-.55-9.19-1.11-13.79-1.66-12.49,4.58-24.97,9.15-37.46,13.73Z"/>
        <g>
          <g>
            <path class="cls-14" d="m127.72,105.21c1.52-18.05,3.05-36.09,4.57-54.14.06-.71.59-1.29,1.28-1.42l44.26-8.22c1.05-.2,1.99.69,1.85,1.75-1.88,14.9-3.75,29.8-5.63,44.69-.07.56-.44,1.05-.97,1.26-14.4,5.89-28.8,11.78-43.2,17.66-1.09.45-2.27-.42-2.17-1.59Z"/>
            <path class="cls-18" d="m127.72,105.21l.36.03c1.52-18.05,3.05-36.09,4.57-54.14.05-.55.45-1,.99-1.1l44.26-8.22.23-.02c.66,0,1.21.55,1.22,1.22v.16c-1.89,14.9-3.76,29.8-5.64,44.69-.05.44-.34.81-.75.98-14.4,5.89-28.8,11.78-43.2,17.66-.16.06-.31.09-.46.09-.64,0-1.22-.53-1.22-1.22v-.11s-.35-.03-.35-.03l-.36-.03v.17c0,1.1.9,1.93,1.93,1.93.24,0,.49-.05.74-.15,14.4-5.89,28.8-11.78,43.2-17.66.65-.26,1.1-.86,1.19-1.55,1.88-14.9,3.75-29.8,5.63-44.69l.02-.25c0-1.07-.87-1.93-1.93-1.93-.12,0-.24.01-.36.03l-44.26,8.22c-.86.16-1.5.87-1.58,1.74-1.52,18.04-3.05,36.09-4.57,54.14l.36.03Z"/>
          </g>
          <path class="cls-13" d="m128.39,105.56c1.52-18.05,3.05-36.09,4.57-54.14.06-.71.59-1.29,1.28-1.42l44.26-8.22c1.05-.2,1.99.69,1.85,1.75-1.88,14.9-3.75,29.8-5.63,44.69-.07.57-.44,1.05-.97,1.26-14.4,5.89-28.8,11.78-43.2,17.66-1.09.45-2.27-.42-2.17-1.59Z"/>
        </g>
        <path class="cls-14" d="m89.32,102.11c0,.06,0,.44,0,.5,0,.42,0,1.11,0,1.54.06.11.11.23.17.34.16.06.32.11.49.17,13.53,1.86,27.05,3.72,40.58,5.58.35-.14,5.58-2.28,5.94-2.43,10.67-4.36,26.71-10.93,37.38-15.31.07-.05.19-.15.28-.31.06-.11.09-.22.11-.3v-1.8c-14.59,6.13-29.17,12.26-43.76,18.39-10.89-1.5-21.79-3.01-32.68-4.51-1.61-.2-3.22-.4-4.83-.6-1.07-.14-2.13-.28-3.2-.42-.08-.05-.18-.13-.27-.25-.18-.23-.21-.48-.22-.6Z"/>
      </g>
      <g>
        <ellipse class="cls-12" cx="203.32" cy="88.86" rx="16.11" ry="4.33"/>
        <path class="cls-12" d="m219.43,85.39c-10.74-.04-21.48-.09-32.22-.13v3.6c10.74,0,21.49,0,32.23,0,0-1.16,0-2.31,0-3.47Z"/>
        <path class="cls-2" d="m187.2,85.27c0,2.39,7.21,4.33,16.11,4.33,8.9,0,16.11-1.94,16.11-4.33s-7.21-4.33-16.11-4.33-16.11,1.94-16.11,4.33Z"/>
        <path class="cls-12" d="m206.21,83.5c0,.45,1.36.81,3.03.81s3.03-.36,3.03-.81c0-.45-1.36-.81-3.03-.81-1.67,0-3.03.36-3.03.81Z"/>
        <rect class="cls-12" x="206.21" y="78.56" width="6.06" height="4.94"/>
        <rect class="cls-3" x="212.45" y="10.28" width="1.27" height="70.99" rx=".63" ry=".63" transform="translate(9.21 -31.28) rotate(8.58)"/>
        <path class="cls-1" d="m206.21,78.56c0,.45,1.36.81,3.03.81s3.03-.36,3.03-.81c0-.45-1.36-.81-3.03-.81s-3.03.36-3.03.81Z"/>
        <polygon class="cls-16" points="222.21 13.45 221.4 16.28 161.42 7.24 162.75 4.48 222.21 13.45"/>
        <rect class="cls-16" x="214.45" y="10.28" width="1.27" height="70.99" rx=".63" ry=".63" transform="translate(9.24 -31.57) rotate(8.58)"/>
        <path class="cls-3" d="m163.35,2.09c-.06.42-2.8.36-6.11-.14s-5.95-1.25-5.88-1.67,2.8-.36,6.11.14c3.31.5,5.95,1.25,5.88,1.67Z"/>
        <rect class="cls-3" x="150.38" y="1.12" width="12.13" height="12.13" transform="translate(2.82 -23.26) rotate(8.58)"/>
        <g>
          <path class="cls-1" d="m137.31,25.51c1.33-8.8,9.54-14.86,18.34-13.53,8.8,1.33,14.86,9.54,13.53,18.34"/>
          <path class="cls-9" d="m169.16,30.4c-.17,1.13-7.44.96-16.24-.36-8.8-1.33-15.8-3.32-15.63-4.45.17-1.13,7.44-.96,16.24.36,8.8,1.33,15.8,3.32,15.63,4.45Z"/>
        </g>
      </g>
    </g>
  </g>
</svg>