<?xml version="1.0" encoding="UTF-8"?><svg id="Layer_2" xmlns="http://www.w3.org/2000/svg" viewBox="0 0 88.42 233.02"><defs><style>.cls-1{fill:#a7a7a7;}.cls-2{fill:#fff;}.cls-3{fill:#a5a5a5;}.cls-4{fill:#d8d8d8;}.cls-5{fill:#9c9c9c;}.cls-6{fill:#d4d4d1;}.cls-7{fill:#e5e7e4;}.cls-8{fill:#b0b2b0;}.cls-9{fill:#d0d2d0;}.cls-10{opacity:.33;}.cls-10,.cls-11{fill:#9e9e9e;}.cls-12{fill:#c2c3c2;}.cls-13{fill:#dadada;}.cls-14{fill:#e4e4e4;}.cls-15{fill:#b4b7b4;}.cls-16{fill:#efeeed;}.cls-17{fill:#9b9b9c;}.cls-18{fill:#b6b6b6;}.cls-19{fill:#e8e8e8;}.cls-20{fill:#ababab;}.cls-21{fill:#b3b3b3;}.cls-22{fill:#c2c2c2;}.cls-23{fill:#cecece;}.cls-24{fill:#a2a2a2;}</style></defs><g id="placard"><rect class="cls-16" x="33.18" width="55.13" height="228.75"/><rect class="cls-6" x=".25" y=".06" width="32.93" height="232.69" transform="translate(33.43 232.8) rotate(180)"/><polygon class="cls-2" points=".25 211.61 33.91 186.55 88.42 187.25 88.42 233.02 .25 232.74 .25 211.61"/><rect class="cls-9" x="33.18" width=".65" height="186.55"/><polygon class="cls-16" points="77.75 178.33 83.44 186.84 87 181.91 87.41 169.82 79.84 176.62 77.75 178.33"/><polygon class="cls-2" points="33.38 45.47 17.35 51.91 88.31 51.91 88.31 45.47 33.38 45.47"/><polygon class="cls-8" points="17.35 52.02 17.35 55.45 88.31 55.52 88.31 52.02 17.35 52.02"/><polygon class="cls-2" points="33.38 141.42 17.35 148 88.31 148 88.31 141.42 33.38 141.42"/><polygon class="cls-8" points="17.35 148 17.35 151.51 88.31 151.58 88.31 148 17.35 148"/><polygon class="cls-2" points="33.38 93.27 17.35 99.7 88.31 99.7 88.31 93.27 33.38 93.27"/><polygon class="cls-8" points="17.35 99.76 17.35 103.19 88.31 103.26 88.31 99.76 17.35 99.76"/><path class="cls-2" d="m61.59,96.8v-11.51s.17-2.88,2.91-3.47v-1.44s-1.58-1.18-1.46-3.05,1.7-3.3,2.87-3.3v-3.64s.91-.85,1.5-.59v29.22s-3.16.21-5.82-2.23Z"/><path class="cls-2" d="m73.01,96.8v-11.51s-.17-2.88-2.91-3.47v-1.44s1.58-1.18,1.46-3.05-1.7-3.3-2.87-3.3v-3.64s-.91-.85-1.5-.59v29.22s3.16.21,5.82-2.23Z"/><path class="cls-11" d="m61.59,85.29s5.68,3.73,11.42,0v5.51s-5.35,4.8-11.42,0v-5.51Z"/><path class="cls-18" d="m64.5,81.82s1.26.96,2.53.69c0,0-1.7.6-3.2-.48s0,0,0,0c0,0,.41-.18.67-.21"/><path class="cls-18" d="m70.1,80.38s-2.45.38-3.74,0c0,0,2.19,1.71,3.74,1.44v-1.44Z"/><path class="cls-24" d="m65.91,74.04s1.43.96,2.78,0,0,0,0,0v-3.64s-1.18-1.61-2.78,0,0,0,0,0v3.64"/><path class="cls-4" d="m69.08,75.92s.04.02.06.03l-.13-.06c.11.05.2.11.29.18l-.11-.09c.14.11.26.24.36.38l-.08-.11c.14.19.27.4.38.61.07.12.19.22.32.25s.3.02.42-.06c.25-.16.35-.49.19-.75-.16-.29-.34-.57-.55-.82-.24-.28-.53-.49-.88-.62-.13-.05-.31-.01-.42.06s-.22.2-.25.33c-.03.14-.02.3.05.42s.18.2.32.25h0Z"/><path class="cls-10" d="m61.59,90.82s5.68,3.73,11.42,0v5.51s-5.35,4.8-11.42,0v-5.51Z"/><path class="cls-2" d="m72.53,95.93l.05-2.36c0-.29-.25-.56-.54-.55s-.54.24-.54.55l-.05,2.36c0,.29.25.56.54.55s.54-.24.54-.55h0Z"/><path class="cls-2" d="m74.01,96.84v-11.51s.17-2.88,2.91-3.47v-1.44s-1.58-1.18-1.46-3.05,1.7-3.3,2.87-3.3v-3.64s.91-.85,1.5-.59v29.22s-3.16.21-5.82-2.23Z"/><path class="cls-2" d="m85.44,96.84v-11.51s-.17-2.88-2.91-3.47v-1.44s1.58-1.18,1.46-3.05-1.7-3.3-2.87-3.3v-3.64s-.91-.85-1.5-.59v29.22s3.16.21,5.82-2.23Z"/><path class="cls-11" d="m74.01,85.33s5.68,3.73,11.42,0v5.51s-5.35,4.8-11.42,0v-5.51Z"/><path class="cls-10" d="m74.01,90.82s5.68,3.73,11.42,0v5.51s-5.35,4.8-11.42,0v-5.51Z"/><path class="cls-18" d="m76.92,81.86s1.26.96,2.53.69c0,0-1.7.6-3.2-.48s0,0,0,0c0,0,.41-.18.67-.21"/><path class="cls-18" d="m82.53,80.42s-2.45.38-3.74,0c0,0,2.19,1.71,3.74,1.44v-1.44Z"/><path class="cls-24" d="m78.34,74.07s1.43.96,2.78,0,0,0,0,0v-3.64s-1.18-1.61-2.78,0,0,0,0,0v3.64"/><path class="cls-4" d="m81.51,75.96s.04.02.06.03l-.13-.06c.11.05.2.11.29.18l-.11-.09c.14.11.26.24.36.38l-.08-.11c.14.19.27.4.38.61.07.12.19.22.32.25s.3.02.42-.06c.25-.16.35-.49.19-.75-.16-.29-.34-.57-.55-.82-.24-.28-.53-.49-.88-.62-.13-.05-.31-.01-.42.06s-.22.2-.25.33c-.03.14-.02.3.05.42s.18.2.32.25h0Z"/><path class="cls-2" d="m84.95,95.96l.05-2.36c0-.29-.25-.56-.54-.55s-.54.24-.54.55l-.05,2.36c0,.29.25.56.54.55s.54-.24.54-.55h0Z"/><path class="cls-12" d="m67.38,36v10.3s4.75,3.3,9.83,0v-10.3h-9.83"/><ellipse class="cls-1" cx="72.3" cy="36" rx="4.92" ry="1.68"/><ellipse class="cls-2" cx="72.3" cy="35.92" rx="4.37" ry="1.49"/><path class="cls-12" d="m78.48,38.15v10.3s4.75,3.3,9.83,0v-10.3h-9.83"/><ellipse class="cls-1" cx="83.4" cy="38.15" rx="4.92" ry="1.68"/><ellipse class="cls-5" cx="83.4" cy="38.07" rx="4.37" ry="1.49"/><path class="cls-12" d="m78.48,27.79v10.3s4.75,3.3,9.83,0v-10.3h-9.83"/><ellipse class="cls-1" cx="83.4" cy="27.79" rx="4.92" ry="1.68"/><ellipse class="cls-2" cx="83.4" cy="27.71" rx="4.37" ry="1.49"/><path class="cls-21" d="m68.2,46.77s3.45,2.04,2.89-9.14c0,0,4.08.52,6.13-1.62v11.16s-7.19,1.11-9.02-.4Z"/><path class="cls-12" d="m39.06,37.44v10.3s4.75,3.3,9.83,0v-10.3h-9.83"/><ellipse class="cls-1" cx="43.97" cy="37.44" rx="4.92" ry="1.68"/><ellipse class="cls-2" cx="43.97" cy="37.36" rx="4.37" ry="1.49"/><path class="cls-21" d="m82.86,49.93s-.97-.63-.77-10.16c.2-9.53,0,0,0,0,0,0-.91-.1-.97-.15s-.25,9.92-.25,9.92c0,0,1.61.4,2,.39"/><path class="cls-12" d="m71.72,38.81v10.3s4.75,3.3,9.83,0v-10.3h-9.83"/><ellipse class="cls-1" cx="76.64" cy="38.81" rx="4.92" ry="1.68"/><ellipse class="cls-2" cx="76.64" cy="38.73" rx="4.37" ry="1.49"/><path class="cls-12" d="m30.71,38.28v10.3s4.75,3.3,9.83,0v-10.3h-9.83"/><ellipse class="cls-1" cx="35.63" cy="38.28" rx="4.92" ry="1.68"/><ellipse class="cls-2" cx="35.63" cy="38.2" rx="4.37" ry="1.49"/><path class="cls-21" d="m42.64,49.1s-1.88,0-1.07-10.19c0,0-1.02-.22-1.11-.29l-.09-.07v9.8s.14.31,2.28.75Z"/><path class="cls-2" d="m21.14,91.48s.22-1.73,3.43-2.74,6.25-4.55,11.06-4.31,13.95,1.36,18.01,1.45,8.32-1.02,6.56,5.1c0,0,1.56,1.86.89,3.8s-5.97,5.22-5.97,5.22"/><path class="cls-6" d="m34.89,100.04l20.23-.04c2.79-1.65-.43-3.79-.43-3.79h-.88c2.88-1.21,0-2.99,0-2.99h-1.52c1.59-.65,0-1.74,0-1.74h-31.15c-1.74,1.54,0,2.7,0,2.7-1.82,1.16,0,2.7,0,2.7h1.52c-2.58,1.85,0,3.16,0,3.16h20.16"/><path class="cls-22" d="m53.81,93.22l6.36-4.48-7.21,3.96s-.15.33-.66.52h1.52Z"/><path class="cls-22" d="m54.83,89.47s5.57-3.43-.19-3.58l4.11.12s1.15.02,1.46.58l-5.38,2.88Z"/><path class="cls-3" d="m20.66,94.59s.05,2.09,2.54,1.9h9.34l-9.88.4s-1.48.72-2.11-.74c0,0-.47-.79.11-1.55Z"/><path class="cls-3" d="m50.8,91.44s2.34,1.76-3.86,1.76l-8.65.24,14.02-.18s1.59-.49-.02-1.81h-1.5Z"/><path class="cls-3" d="m53.64,96.19s2.05-.48,2.46,1.66-1.19,2.14-2.26,2.14h-8.79s11.73.39,8.59-3.8Z"/><path class="cls-3" d="m36.47,97.74h9.46s-2.92-.48-4.93-.43-4.53.43-4.53.43Z"/><rect class="cls-12" x="37.18" y="134.12" width="8.63" height="12.66"/><polyline class="cls-15" points="45.81 146.79 45.81 134.12 51.56 129.21 51.56 140.94"/><rect class="cls-7" x="37.18" y="126.14" width="8.63" height="7.99"/><polygon class="cls-13" points="51.56 129.21 51.56 121.85 45.81 126.14 45.81 134.12 51.56 129.21"/><polygon class="cls-23" points="39.83 129.21 43.21 129.21 41.52 132.54 39.83 129.21"/><polygon class="cls-2" points="37.18 126.14 43.55 121.85 51.56 121.85 45.81 126.14 37.18 126.14"/><rect class="cls-19" x="48.1" y="136.29" width="10.74" height="10.47"/><polygon class="cls-13" points="63.35 133.01 58.84 136.29 58.84 146.76 63.35 142.48 63.35 133.01"/><polygon class="cls-2" points="52.04 133.01 48.1 136.29 58.84 136.29 63.35 133.01 52.04 133.01"/><g><path class="cls-14" d="m.19,217.84l-.04,8.32s.25,1.13,2.8.35l.57.84s.13-1.62,1.15-1.49,2.42-.97,2.93-2.2l.45-1.93.89,1.61,10.88-9.85.32-1.81,1.34.39,6.75-6.09.38-2.33h.83l.89-.58-.33-3.59-25.26,18.75-4.53-.38Z"/><path class="cls-24" d="m0,217.1l24.52-19.87s5.46-2.37,5.46,2.24l-24.87,21.88s-4.92,2.09-5.11-4.26Z"/><path class="cls-20" d="m.19,82.36l13.72,126.18s1.61,2.42,3.04-.34L.25,55.25"/></g><g><rect class="cls-16" x="53.08" y="179.34" width="26.08" height="17.01"/><polygon class="cls-17" points="53.08 179.34 48.05 190.43 53.08 186.93 53.08 179.34"/><polyline class="cls-2" points="88.31 170.83 68.06 170.83 52.97 179.34 79.06 179.34 88.31 172.15"/><polygon class="cls-5" points="68.31 179.34 67.88 179.34 67.88 171.04 68.1 170.83 68.31 170.83 68.31 179.34"/><polygon class="cls-21" points="79.17 196.36 88.42 187.21 88.42 182.92 84.85 185.31 79.17 179.34 79.17 196.36"/><path class="cls-24" d="m79.17,179.34v5.76s.86-4.17,5.28,2.14l-5.28-7.9Z"/><polygon class="cls-21" points="68.09 170.83 53.08 179.34 68.09 179.34 68.09 170.83"/></g><path class="cls-12" d="m.19,4.4s11.21-1.76,19.04,2.93,14.27,11.35,14.27,11.35h54.81V0L.25.06l-.06,4.35Z"/><path class="cls-21" d="m33.83,0L.25.06l.2,4.35s10.41,1.73,17.41,4.4c6.16,2.35,15.9,9.88,15.9,9.88"/></g></svg>