<?xml version="1.0" encoding="UTF-8"?><svg id="Layer_2" xmlns="http://www.w3.org/2000/svg" viewBox="0 0 240.26 153.63"><defs><style>.cls-1,.cls-2{fill:#fff;}.cls-3{fill:#142b20;opacity:.27;}.cls-2{fill-rule:evenodd;}.cls-4{fill:#e2e2e2;}.cls-5{fill:#969696;}.cls-6{fill:#c1c1c1;}.cls-7{fill:#e8e8e8;}</style></defs><g id="Canape"><path class="cls-3" d="m32.43,102.89c22.97-5.78,203.42,6.39,198.83,26.15-1.8,7.77-21.28,18.3-33.39,22.23-14.48,4.69-53.93,1.22-75.25-.45-33.61-2.63-122.63-7.51-122.63-7.51,0,0,9.46-34.64,32.43-40.42Z"/><g><g><path class="cls-5" d="m67.09,118.89c.24.26.56,1.11,1.77,1.24.03,0,.07,0,.1.01,1.27.12,2.7-.84,2.7-.84l2.13-10.09.87-4.14.09-.41-3.89-.82-2.57-.55s-1.25-.12-1.35.8c-.1.88.48,1.36.34,2.7-.51,4.72-.34,11.92-.19,12.09Z"/><path class="cls-5" d="m67.76,108.21c1.95-.06,4.29.45,6.04,1l.87-4.14-6.54-.29c-.1.88-.23,2.09-.37,3.43Z"/><path class="cls-6" d="m68.86,120.12s.07.01.1.01c1.7.23,2.7-.84,2.7-.84l3.09-14.64-3.89-.82-2,16.29Z"/></g><g><path class="cls-5" d="m33.41,129.07c.11.04-.15,0,0,0,.25.01-.11-.31,0,0,.42,1.21,2.52,1.35,3.18,1.14.93-.3,1.67-.59,1.67-.59l5.04-23.15,1.05-4.84.11-1.95.03-.57-2.67.38-1.75.25-2.03.29-1.57.22-.09.83-.57,5.35-2.42,22.64Z"/><path class="cls-5" d="m35.88,106.01c.68-.25,1.9-.52,2.67-.44,1.34.15,3.64.9,4.57,1.78l1.25-5.72.11-1.95-8.07,1.39-.52,4.93Z"/><path class="cls-6" d="m36.59,130.21c.93-.3,1.67-.59,1.67-.59l6.1-27.99.14-2.52-2.67.38-5.25,30.72Z"/></g><g><path class="cls-5" d="m192.01,112.73l.07,3.14,5.73,24.58s.6.91,2.43.86c.67-.02,1.29-.12,1.81-.24.9-.21,1.49-.49,1.49-.49l-2.5-23.59-.5-4.7-8.53.43Z"/><path class="cls-5" d="m190.66,112.8l1.08,4.84c3.68-.74,7.37-.29,9.46.85l-.66-6.19-9.88.5Z"/><path class="cls-1" d="m196.21,112.86l5.84,28.22c.9-.21,1.49-.49,1.49-.49l-3-28.29-4.33.56Z"/></g><path class="cls-5" d="m75.89,108.82c2.04-.26,4.55.05,6.44.45l.51-4.43-6.89.35c-.01.93-.03,2.21-.05,3.64Z"/><path class="cls-1" d="m122.76,15.98c6.3,6.33-47.32,62.17-50.19,69.18s-38.3,18.66-38.3,18.66c0,0-14.88-2.14-12.65-26.22,2.75-29.64,6.99-27.95,27.98-38.66,16.05-8.19,18.72-24.55,24.23-28.02S89.99,1.41,117.75.05"/><path class="cls-1" d="m28.83,101.27s2.17,2.13,3.98,2.28c.47.04.95.18,1.47.27,6.72,1.18,17.87,2.58,29.64,3.98,14.88,1.77,28.85,3.25,30.15,3.35,2.71.22,48.23,4.21,54.55,4.79,5.8.53,24.97,1.83,32.26,2.05,1.76.05,11.31.3,17.74-1.28,2.88-.71-.62-10.79,3.17-10.62,3.78.17.11,4.42,7.01,2.09,6.9-2.33,15.83-7.67,17.52-13.33,1.69-5.66,3.89-13.21,4.58-20.79.7-7.59,5.87-31.8,5.87-31.8.22-1.78-.61-11.08-1.2-13.87-.93-4.45,3.97-4.67-1.99-9.32-9.59-7.48-19.8-10.6-23.53-11.46-2.76-.64-7.1-1.7-12.19-2.93C188.38,3.6,150.28-.48,117.75.05"/><path class="cls-4" d="m165.55,24.01c1.06.45,1.87,2.53,1.16,3.14-.71.61-1.46.51-1.81,1.48-.36.96-.99,1.8-1.44,2.23-.45.43-2.51-.21-2.53-.68s-.07-2.63.2-2.74c.26-.11,2.71-4.15,4.42-3.42Z"/><path class="cls-4" d="m140.39,24.01c.97.39,1.8,2.34.58,3.48-1.22,1.14-1.32,1.95-1.7,2.38-.38.42-2.53.6-3.24-.11-.71-.71-.61-2.67.32-2.92s2.25-3.55,4.04-2.83Z"/><path class="cls-4" d="m186.21,46.03c.27-.57,2.34-1.67,2.38-.12.05,1.55.56,2.47.17,3.43-.39.96-1.72,1.23-2.32,1.47-.6.23-1.47.28-1.71-.39-.24-.66-.39-1.53.17-2.17.56-.64,1.29-2.22,1.29-2.22Z"/><path class="cls-4" d="m160.93,46.16c.31-.84,2.46-.66,2.49-.13s-.64,2.06-.8,2.94c-.16.88-.34,2.44-2.11,2.13-1.77-.31-2.09-.64-2.11-1.24-.01-.61,2.53-3.7,2.53-3.7Z"/><path class="cls-4" d="m136.01,45.4c.26-.62,1.6-1.63,2.05-.85.44.79,1.47,2.35.61,2.67s-1.33.4-1.68,1.43c-.35,1.03-.67,1.45-1.33,1.62-.67.17-1.54.21-1.93-.91-.39-1.13,1.75-2.69,1.75-2.69l.54-1.27Z"/><path class="cls-4" d="m112.89,45.52c.53-.77.57-2.27,1.28-1.3.72.97,1.44,1.95,1.02,2.98-.42,1.03-1.7,2.36-2.58,2.31-.88-.05-2.71-.44-2.42-1.3.28-.85,2.7-2.7,2.7-2.7Z"/><path class="cls-4" d="m185.36,45.23c-.04-.7-.31-1.77-1.04-1.93-.73-.16-1.01.25-1.32.74-.31.49-.77.64-1.69,1.1-.92.45-1.94.3-1.75,1.37.19,1.07,2.48,1.88,3.33,1.85s1.39-.54,1.65-.76c.26-.22.82-2.37.82-2.37Z"/><path class="cls-4" d="m160.08,45.46c-.09-.89.22-2.23-.15-2.92-.37-.69-1.27-1.05-1.73.46-.46,1.51-1.47,1.69-1.96,2.66-.49.97,1.18,1.95,2.3,1.41,1.11-.54,1.54-1.6,1.54-1.6Z"/><path class="cls-4" d="m134.89,44.72c.19-.82.37-1.97.34-2.58s-.48-1.97-1.17-.85c-.52.83-.8,2.04-1.61,2.01-.81-.03-2.59.73-2.56,1.27s-.45,1.03.4,1.46c.85.43,4.3.19,4.3.19l.3-1.5Z"/><path class="cls-4" d="m112.18,44.96c.21-.97.46-1.89.55-2.49.07-.51-.28-1.97-.54-2.03-.67-.15-1.22.63-1.58,1.49-.36.86-.69,1.08-1.47,1.53-.79.44-1.97,1.05-1.93,1.75s.87,1.27,1.61,1.23,3.36-1.48,3.36-1.48Z"/><path class="cls-4" d="m85.92,5.19c-2.67,5.48-19.77,27.04-19.91,33.66-.5,24.52-6.63,26.5-3.42,30.9,19.33,26.55-18.84,30.23-28.41,29.14-12.35-1.41-7.86-31.49-5.38-38.74,2.16-6.3,5.64-12.49,18.21-19.93,8.16-4.83,14.14-15.33,16.83-19.07,8.53-11.84,9.98-10.25,22.07-15.98"/><path class="cls-2" d="m210.24,96.87c8.84-.73,31.05-22.43,5.77-32.81-19.1-7.84-118.68-9.47-133.18-10.23-17.75-.94-17.25,4.57-34.36,9.5-4.95,1.43-13.31,8.96-14.89,16.99-.39,2-2.62,5.88,4.84,7.9,17.14,4.63,56,2.3,69.77,4.42,1.58.24,1.96-.11,3.34-.22l98.71,4.46Z"/><path class="cls-6" d="m38.84,100s1.02.13,2.82.37c11.96,1.57,55.93,5.07,61.68,5.5,6.61.5,43.25,2.03,57.98,3.65,14.73,1.61,35.96.79,35.68-2.77s-2.99-13.72-2.99-13.72c0,0-106.51-10.41-126.21-12.12-19.7-1.72-34.95-3.52-35.31,5.6,0,0-.87,7.41-.24,9.9s1.26,3.31,6.6,3.59Z"/><path class="cls-6" d="m197.33,96.07c1.42-.19,2.46.64,2.67,1.33.21.69-2.32,3.96-5.11,3.83-2.79-.13-2.96.18-4.39.24-1.44.06-5.92-1.43-7.26-1.36s-5.15-.45-6.5-.48c-1.35-.02-8.88.36-9.7.13-.82-.23-6.98-1.18-8.52-1.28-1.53-.1-10.72-.45-13.41-.31-2.69.14-5.33-.45-6.43-.93-1.1-.48-9.31-.97-11.29-.96s-8.29-.39-10.2-.83c-1.91-.44-12.18-.73-14.34-.8-2.16-.07-3.63-.63-5.44-.8s-12.88-.43-14.95-.41-9.3-.7-11.46-.86-8-.04-10.8-.17c-2.79-.13-6.28.23-7.92-.14s-3.36-.64-5.42-.53c-2.06.1-2.93,2.95-4.28,3.02s-4.96-4.89-5.04-5.33c-.08-.45-.96-5.35-.91-6.16.05-.81,3.9.7,3.9.7l156.79,12.12Z"/><path class="cls-1" d="m40.92,81.95c.12-.04,4.25.5,7.71.97h0s34.52,1.74,34.52,1.74l112.99,6.37c.67-.03,3.87.55,3.7,1.09-.17.55-3.2,2.05-4.85,2-1.66-.05-17.49-2.07-23.33-1.85-2.91.11-58.78-4.79-63.07-4.44-4.3.35-61.54-3.67-61.56-3.67-1.91.2-3.65.4-4.15.54-1.26.33-2.34.32-2.56.13-.21-.19-1.27-1.15-1.29-1.55s1.69-1.23,1.89-1.31Z"/><circle class="cls-5" cx="162.54" cy="26.15" r="2.22"/><circle class="cls-5" cx="137.96" cy="26.22" r="2.22" transform="translate(67.2 147.52) rotate(-70.5)"/><g><path class="cls-4" d="m118.14,20.55c.51.26,1.45,2.08.49,3.08-.96.99-.54,1.25-1.3,2.23-.76.98-2.44,1.74-2.95.69-.51-1.05-1.01-2.92.17-3.65,1.18-.73,2.76-2.77,3.59-2.34Z"/><path class="cls-5" d="m118.17,22.3c-.06-1.23-1.11-2.17-2.33-2.11s-2.17,1.11-2.11,2.33,1.11,2.17,2.33,2.11,2.17-1.11,2.11-2.33Z"/></g><g><path class="cls-4" d="m94.11,19c.51.26,1.45,2.08.49,3.08-.96.99-.54,1.25-1.3,2.23-.76.98-2.44,1.74-2.95.69-.51-1.05-1.01-2.92.17-3.65,1.18-.73,2.76-2.77,3.59-2.34Z"/><path class="cls-5" d="m94.14,20.75c-.06-1.23-1.11-2.17-2.33-2.11s-2.17,1.11-2.11,2.33,1.11,2.17,2.33,2.11,2.17-1.11,2.11-2.33Z"/></g><g><path class="cls-4" d="m94.25,38.13c.13.06,1.65.54,1.2,1.51-.45.97.08,1.53-.11,2.3-.19.77-.9,1.84-2.21,1.55s-1.99-.14-2.22-.41c-.24-.27-.23-1.93.48-2.04.71-.1,1.86-1.51,1.89-1.83.03-.32.45-1.31.98-1.08Z"/><circle class="cls-5" cx="92.75" cy="40.4" r="2.22"/></g><circle class="cls-5" cx="112.32" cy="46.26" r="2.22"/><circle class="cls-5" cx="135.05" cy="46.03" r="2.22" transform="translate(-6.65 29.31) rotate(-12.09)"/><circle class="cls-5" cx="160.29" cy="46.74" r="2.22"/><circle class="cls-5" cx="185.6" cy="47.2" r="2.22"/><path class="cls-1" d="m220.34,57.21l-15.97-9.26s-11.33,2.02-16.86,17.63c-5.52,15.61-2.46,36.1-1.7,39.54,1.33,6.1,5.89,18.71,29,6.4"/><g><path class="cls-5" d="m223.02,100.77l1.37,4.77,6.7,21.59s.83.92,2.83.65c.1-.01.2,0,.29,0,1.35-.08,1.74-1.35,1.74-1.35l-3.99-19.31-1.37-6.64-4.02.16-3.54.14Z"/><path class="cls-5" d="m223.02,100.77l1.37,4.77c3.14-.01,5.88.87,7.56,1.57l-1.37-6.64-4.02.16-3.54.14Z"/><path class="cls-1" d="m226.56,100.63l7.64,27.14c1.35-.08,1.74-1.35,1.74-1.35l-5.36-25.95-4.02.16Z"/></g><path class="cls-7" d="m231.67,99.5c-5.56,5.45-22.46,19.68-34.95,14.58-6-2.45-11.01-42.66.57-56.17,4.45-5.2,19.11-10.64,29.84-16.62,9.29-5.17,9.88-12.76,6.74-19.31s-12.43-10.34-12.43-10.34c0,0,18.47,2.78,18.77,19.38.56,12.66-3.96,63.99-8.54,68.47Z"/><g><path class="cls-4" d="m189.01,24.04c.35.45,1.86,2.12,1.37,3.16s-1.48,2.51-2.42,2.69c-.94.18-2.63.81-3.28.17-.66-.64-.58-1.86.11-2.74.7-.88,2.99-4.85,4.22-3.28Z"/><circle class="cls-5" cx="186.22" cy="26.34" r="2.22" transform="translate(-1.09 9.44) rotate(-2.9)"/></g><g><path class="cls-4" d="m208.95,24.45c.35.45,1.86,2.12,1.37,3.16-.49,1.04-1.48,2.51-2.42,2.69-.94.18-2.63.81-3.28.17-.66-.64-.58-1.86.11-2.74.7-.88,2.99-4.85,4.22-3.28Z"/><circle class="cls-5" cx="206.16" cy="26.75" r="2.22" transform="translate(-1.09 10.45) rotate(-2.9)"/></g><path class="cls-4" d="m186.13,64.95c-6.65-1.28-17.84-3.07-24.84-4.77-8.25-2-5.17-.24-39.25-1.32-34.07-1.09-35.57,4.05-44.56-9.27-8.99-13.32,5.72-39.75,5.72-39.75l-19,19.92,5.04,2.21-13.7,15.89s-5.91,11.13-11.56,20.39c3.84-3.61,8.31-4.98,19.8-7.23,3.42-.67,5.67-1.26,7.08-1.76,0,0,5.01.27,5.59.46,12,3.95,68.49,2.29,82.74,4.84,5.9,1.06,17.43,1.22,26.38,2.81.11-.66.43-1.77.55-2.41Z"/><path class="cls-4" d="m187.92,111.98c2.14.31-1.87-.77-4.17-31.4-.4-5.37,1.78-11.37,2.8-15.92,1.02-4.54,3-8.55,4.74-10.1,2.24-1.99,10.38-6.81,12.07-8.12,2.42-1.86,11.01-6.75,15.92-8.41,5.26-1.79,12.87-5.91,10.21-12.46-1.15-2.82-2.44-5.43-6.45-8.12-2.14-1.44-6.87-3.38-9.93-4.47-3.07-1.1-18.61-4.58-19.05-3.4-.44,1.18,10.52,3.18,13.02,3.87,11.52,3.14,18.14,9.15,18.43,10.19.29,1.04,1.54,2.45.69,6.05-.43,1.83-4.99,4.25-10.13,6.38-6.15,2.55-17.28,10.21-20.27,11.89-2.99,1.68-8.43,7.58-9.58,10.46-1.82,4.55-3.48,17.54-3.53,20.98-.07,4.49,2.25,27.87,4.5,31.34"/></g></g></svg>