<?xml version="1.0" encoding="UTF-8"?><svg id="Layer_2" xmlns="http://www.w3.org/2000/svg" viewBox="0 0 466.19 585.62"><defs><style>.cls-1{fill:#b9b9b8;}.cls-2{fill:#cfcfcf;}.cls-3{fill:#e6e6e6;}.cls-4{fill:#a1a1a1;}.cls-5{fill:#f1f1f1;}.cls-6{fill:none;stroke:#cfcfcf;stroke-miterlimit:10;stroke-width:4px;}</style></defs><g id="Layer_2-2"><g id="cartons"><g><path class="cls-1" d="m138.45,126.58c41.03-20.71,82.06-41.41,123.09-62.12v129.06c-41.03,20.71-82.06,41.41-123.09,62.12V126.58h0Z"/><path class="cls-2" d="m210.93,144.34c85.09,47.38,170.17,94.76,255.26,142.14v216.29c-85.09-47.38-170.17-94.76-255.26-142.14v-216.29Z"/><polygon class="cls-5" points="466.19 502.32 255.26 585.61 255.26 369.32 466.19 286.03 466.19 502.32"/><polygon class="cls-6" points="446.84 437.41 407.67 452.88 407.67 452.92 376.67 465.15 376.67 465.21 344.88 477.76 344.88 477.83 316.1 489.19 316.1 489.16 276.93 504.63 276.93 544.8 306.53 533.11 306.53 533.14 345.7 517.67 345.7 517.6 384.05 502.46 384.05 502.41 415.84 489.85 415.84 489.82 446.84 477.58 446.84 437.41"/><path class="cls-4" d="m390.24,367.83c0-8.19-8.26-13.81-15.88-10.8l-8.47,3.35h0l-15.77,6.24c-4.43,1.75-7.35,6.03-7.35,10.8h0c0,8.19,8.26,13.81,15.88,10.8l8.47-3.35h0l15.77-6.24c4.43-1.75,7.35-6.03,7.35-10.8h0Z"/><polygon class="cls-2" points="210.93 360.19 0 443.48 0 227.19 210.93 143.9 210.93 360.19"/><path class="cls-1" d="m0,227.19c85.09,47.38,170.17,94.76,255.26,142.14v216.29C170.17,538.24,85.09,490.86,0,443.48v-216.29Z"/><path class="cls-4" d="m108.91,184.18c1.45-.57,2.9-1.15,4.35-1.72,83.83,47.87,167.67,95.75,251.5,143.62-1.42.56-2.83,1.12-4.25,1.68-83.87-47.86-167.74-95.72-251.61-143.58h.01Z"/><g><polygon class="cls-5" points="385.78 239.09 262.68 192.32 262.68 63.26 385.78 110.03 385.78 239.09"/><path class="cls-4" d="m262.68,116.2c41.03,16.4,82.06,32.81,123.09,49.21-41.03,16.4-82.06,32.81-123.09,49.21-41.03-13.97-82.06-27.95-123.09-41.92,41.03-18.83,82.06-37.67,123.09-56.5h0Z"/><g><rect class="cls-5" x="294.61" y="132.22" width="59.24" height="51.82"/><ellipse class="cls-2" cx="324.23" cy="132.22" rx="29.62" ry="13.9"/></g><polygon class="cls-5" points="262.68 301.21 139.59 254.44 139.59 125.38 262.68 172.15 262.68 301.21"/><path class="cls-1" d="m262.68,172.15c41.03-20.71,82.06-41.41,123.09-62.12v129.06c-41.03,20.71-82.06,41.41-123.09,62.12v-129.06h0Z"/><path class="cls-2" d="m262.68,63.26c13.63-28.62,14.01-34.64,27.65-63.26,43.52,14.33,87.04,28.66,130.56,42.99-16.12,29.88-18.99,37.16-35.11,67.04-41.03-15.59-82.06-31.18-123.09-46.77h-.01Z"/><path class="cls-2" d="m139.59,125.38c-28.66-3.36-43.66-5-72.76-7.78,47.23,18.04,94.47,36.09,141.7,54.13,22.87.41,31.89.41,54.15.41-41.03-15.59-82.06-31.18-123.09-46.77h0Z"/><path class="cls-3" d="m262.68,63.26c-16.09-19.07-32.17-38.14-48.26-57.21-44.58,21.76-89.16,43.52-133.74,65.28,19.64,18.02,39.27,36.03,58.91,54.05,41.03-20.71,82.06-41.41,123.09-62.12h0Z"/><path class="cls-3" d="m385.78,110.03c19.3-4.94,38.61-9.88,57.91-14.82-46.17,24.94-92.35,49.89-138.52,74.83-14.16.7-28.33,1.4-42.49,2.1,41.03-20.71,82.06-41.41,123.09-62.12h.01Z"/></g><g><path class="cls-2" d="m292.58,509.83c0,2.38,0,3.57.01,5.96,4.35-1.57,6.52-2.36,10.84-3.94.01,1.67.02,2.51.03,4.18-4.32,1.58-6.49,2.37-10.85,3.94,0,3.28.01,4.93.02,8.21-2.19.79-3.28,1.18-5.48,1.97v-22.55c7.1-2.56,10.63-3.84,17.65-6.4.01,1.67.02,2.51.03,4.18-4.88,1.78-7.33,2.67-12.24,4.45h-.01Z"/><path class="cls-2" d="m325.04,516.25c-1.81-1.83-2.71-2.74-4.52-4.58-.11.04-.16.06-.26.1-1.86.69-2.79,1.04-4.66,1.73.02,2.5.04,3.75.06,6.25-2.15.8-3.22,1.19-5.38,1.99-.08-8.98-.11-13.48-.19-22.46,4.01-1.46,6-2.19,9.99-3.66,2.04-.75,3.81-1.07,5.31-.96s2.67.62,3.49,1.53,1.25,2.2,1.27,3.86-.37,3.24-1.17,4.75-1.96,2.86-3.46,4.06c2.1,2.11,3.15,3.16,5.24,5.25-2.28.86-3.42,1.29-5.72,2.15h0Zm-1.55-16.65c-.84-.36-2.06-.25-3.66.34-1.74.64-2.61.96-4.35,1.6.03,3.13.05,4.69.08,7.82,1.75-.64,2.62-.97,4.36-1.61,1.6-.59,2.82-1.39,3.64-2.38.82-.99,1.23-2.1,1.21-3.34-.02-1.26-.44-2.07-1.28-2.43h0Z"/><path class="cls-2" d="m351.06,501.62c-4.2,1.6-6.31,2.4-10.54,4-.78,2.21-1.17,3.32-1.95,5.53-2.17.82-3.25,1.23-5.42,2.05,3.96-10.46,5.93-15.68,9.84-26.08,2.08-.78,3.11-1.16,5.18-1.94,4.19,7.35,6.28,11.02,10.45,18.31-2.19.84-3.28,1.26-5.48,2.1-.83-1.59-1.25-2.39-2.08-3.98h0Zm-1.71-3.26c-1.49-2.85-2.23-4.28-3.72-7.14-1.39,3.94-2.08,5.91-3.47,9.86,2.89-1.09,4.32-1.63,7.2-2.72h-.01Z"/><path class="cls-2" d="m377.21,484.88c1.89-.73,2.83-1.09,4.71-1.83.05,3.57.08,5.36.13,8.93-1.19,1.37-2.58,2.61-4.17,3.71-1.58,1.1-3.19,1.97-4.8,2.59-2.32.9-4.42,1.22-6.29.96s-3.36-1.05-4.44-2.38c-1.09-1.33-1.65-3.09-1.68-5.28-.04-2.19.46-4.35,1.5-6.49,1.03-2.14,2.48-4.06,4.35-5.75,1.86-1.69,3.97-2.99,6.31-3.89,1.96-.75,3.74-1.11,5.35-1.07,1.6.04,2.96.46,4.06,1.28-1.31,1.72-1.96,2.58-3.27,4.3-1.62-1.04-3.56-1.13-5.81-.26-1.43.55-2.69,1.33-3.79,2.34-1.1,1.01-1.95,2.17-2.55,3.48-.6,1.31-.89,2.66-.87,4.04.02,1.37.35,2.47.99,3.3.64.83,1.51,1.34,2.62,1.51s2.36,0,3.77-.55c1.49-.58,2.82-1.41,4-2.5-.04-2.58-.06-3.87-.1-6.45h-.02Z"/><path class="cls-2" d="m388.12,469.93c2.06-.8,3.09-1.2,5.14-2.01.12,8.81.17,13.21.29,22.02-2.05.8-3.07,1.2-5.12,2-.12-8.81-.18-13.21-.31-22.01Z"/><path class="cls-2" d="m400.11,465.23c2.05-.81,3.07-1.21,5.12-2.02.08,7.16.11,10.75.19,17.91,4.42-1.73,6.62-2.6,11.01-4.33.01,1.67.02,2.51.03,4.18-6.42,2.52-9.64,3.78-16.1,6.31-.1-8.82-.15-13.23-.26-22.04h.01Z"/><path class="cls-2" d="m437.74,468.44v4.19c-6.73,2.64-10.11,3.96-16.88,6.61-.05-8.89-.08-13.34-.13-22.23,6.65-2.69,9.97-4.04,16.6-6.77v4.19c-4.61,1.88-6.91,2.81-11.53,4.68,0,1.94.01,2.91.02,4.84,4.07-1.63,6.1-2.45,10.16-4.08v4.05c-4.05,1.62-6.08,2.43-10.15,4.05,0,2.07.01,3.1.02,5.16,4.76-1.88,7.13-2.82,11.87-4.69h.02Z"/></g></g></g></g></svg>