<?xml version="1.0" encoding="UTF-8"?>
<svg xmlns="http://www.w3.org/2000/svg" viewBox="0 0 71.46 78.4">
  <defs>
    <style>
      .cls-1 {
        fill: #fff;
      }

      .cls-2, .cls-3 {
        fill: none;
        stroke: #d9d9d9;
        stroke-linecap: round;
        stroke-linejoin: round;
        stroke-width: .5px;
      }

      .cls-4 {
        fill: #f5f5f5;
      }

      .cls-5 {
        isolation: isolate;
      }

      .cls-6 {
        fill: #b4b4b4;
      }

      .cls-7 {
        mix-blend-mode: screen;
      }

      .cls-8 {
        fill: #6f6f6e;
      }

      .cls-9 {
        fill: #d9660d;
      }

      .cls-10 {
        fill: #efefef;
      }

      .cls-11 {
        fill: #00c9c0;
      }

      .cls-3 {
        stroke-dasharray: 0 0 .98 .98;
      }

      .cls-12 {
        fill: #252352;
      }

      .cls-13 {
        fill: #d9d9d9;
      }

      .cls-14 {
        mix-blend-mode: multiply;
      }

      .cls-15 {
        fill: #ededed;
      }
    </style>
  </defs>
  <g class="cls-5">
    <g id="Calque_2" data-name="Calque 2">
      <g id="Sac_à_dos" data-name="Sac à dos">
        <g>
          <path class="cls-4" d="m58.24,57.91h0,0c.16-.14.46-.46.64-.96h0s0,0,0,0c-.22.43-.47.75-.64.96Z"/>
          <path class="cls-13" d="m59.17,43.45s0,0,0,0c0-.19,0-.38,0-.57-.01,0-.03,0-.04.01.01.18.02.37.03.56Z"/>
          <g>
            <polygon class="cls-6" points="4.89 44.03 2 43.58 0 65.63 3.57 65.73 4.89 44.03"/>
            <path class="cls-8" d="m2.12,42.5s-3.05,21.74,9.09,24.62v-3.96s-5.75-1.84-5.72-11.38c.03-9.53-.05-8.97-.05-8.97l-3.32-.32Z"/>
            <path class="cls-1" d="m4.4,48.36v-.41s-.05,0-.05,0h0s-1.76-.06-1.76-.06h0c-.32-.01-.6-.14-.82-.38-.21-.22-.32-.5-.32-.8v-.04c.01-.32.14-.6.38-.82.23-.21.5-.32.8-.32h.05s1.76.07,1.76.07h0c.32.01.6.14.82.38h0c.21.22.32.5.32.8v.04c-.01.32-.14.6-.38.82-.22.21-.5.32-.8.32v.41-.41s0,.41,0,.41v.41c.51,0,.99-.19,1.36-.54.39-.36.62-.86.64-1.4v-.08c0-.51-.19-.99-.54-1.37h0c-.36-.39-.86-.62-1.4-.64h0l-1.76-.06h0s-.08,0-.08,0c-.51,0-.99.19-1.36.54-.39.36-.62.86-.64,1.4v.08c0,.51.19.99.54,1.36.36.39.86.62,1.4.64h0l1.76.06h.06s0,0,0,0h0v-.41Z"/>
            <path class="cls-6" d="m3.57,10.58S-1.67,34.97.91,43.03c.25.26,1.02,1,2.25,1.17,1.82.26,3.11-.94,3.28-1.11.25-4.28.8-8.87,1.36-13.74.82-7.06,1.93-14.52,3.05-16.07-.17-1.61-1.22-3-2.72-3.59-1.56-.61-3.34-.26-4.57.89Z"/>
            <g>
              <path class="cls-13" d="m13.91,17.08c2.06-1.4,4.12-2.8,6.18-4.2-.55-.9-1.38-2.05-2.61-3.18-1.58-1.45-3.17-2.28-4.28-2.74-.74-.32-1.76-.82-2.91-.58-2.16.45-5.76,1.58-6.72,4.21,0,0,1.31-1.19,2.73-.49.75.37,6.34,3.88,7.6,6.98Z"/>
              <g class="cls-7">
                <path class="cls-8" d="m15.67,15.88c-3.71-6-9.54-7.88-9.6-7.89l.35-.14c.06.02,5.7,1.82,9.46,7.9l-.21.13Z"/>
              </g>
              <g class="cls-7">
                <path class="cls-8" d="m18.65,13.84c-1.66-3.31-8.35-7.32-8.42-7.36l.41-.05c.28.17,6.55,3.92,8.24,7.29l-.22.11Z"/>
              </g>
            </g>
            <path class="cls-9" d="m13.44,51.17s1.37-21.37.65-27.51,6.73-15.43,11.94-14.73,19.08-6.82,22.14,1.82c2.82,7.95,2.47,21.74,1.6,29.12"/>
            <g>
              <path class="cls-6" d="m24.87,3.57s-9.77,22.96-8.76,31.35c.2.3.82,1.17,1.99,1.57,1.74.6,3.24-.34,3.43-.46,1.06-4.16,2.46-8.55,3.94-13.23,2.15-6.78,4.64-13.89,6.04-15.2.14-1.62-.36-4.16-1.72-5.03-1.41-.9-4.24-.06-4.93.99Z"/>
              <g>
                <path class="cls-13" d="m29.59,12.93c2.29-.99,8.77-3,11.06-3.98-.37-.98-.97-2.27-1.96-3.62-1.28-1.73-2.68-2.84-3.68-3.5-.67-.45-1.57-1.14-2.74-1.12-2.2.03-5.96.46-7.39,2.86,0,0,1.39-1.41,2.78.04.58.61,3.12,5.38,1.94,9.32Z"/>
                <g class="cls-7">
                  <path class="cls-8" d="m35.75,11.06c-2.5-6.59-7.88-9.54-7.93-9.57l.58.06c.05.03,5.04,2.74,7.58,9.42l-.23.09Z"/>
                </g>
                <path class="cls-15" d="m39.06,9.62c-1-3.56-6.82-8.77-6.88-8.82l.41.03c.24.21,5.69,5.09,6.71,8.72l-.24.07Z"/>
              </g>
            </g>
            <path class="cls-8" d="m11.88,22.08c-.71,6.94-1.63,7.91-1.26,17.79.37,9.88,1.82,19.93.54,24.84s-.3,10.36,7.53,11.54c2.19.33,4.11.57,5.83.77,4.25-1.92,1.94-8.62,2.38-12.18.87-7.04-.87-17.42-1.59-26.97-.19-2.52.93-13.43,1.54-16.22-1.63,2.75,22.5-13.84,22.22-11.57-1.53,12.52-4.51-1.81-4.51-1.81,0,0-12.29,4.21-12.73.14-.44-4.07-14.95,5.57-13.91,4.34"/>
            <polygon class="cls-8" points="19.92 9.63 48.89 1.51 49.38 41 22.83 49.94 20.96 49.25 19.92 9.63"/>
            <path class="cls-1" d="m21.66,10.61l28.8-7.96c-.89.08-1.61-.12-1.7-.38-9.46,2.54-18.93,5.08-28.39,7.61l1.3.73Z"/>
            <rect class="cls-6" x="20.49" y="6.37" width="29.01" height=".13" transform="translate(-.46 9.4) rotate(-15.21)"/>
            <path class="cls-13" d="m52,2.2c.02,2.86-.08,6.04-.05,8.89.07,9.75.14,19.51.21,29.26-2.25.76-4.51,1.52-6.76,2.28-7.32,2.47-14.64,4.93-21.96,7.4-.12-.05-.24-.09-.37-.14-.5-.19-1-.37-1.5-.56-.3-11.62-.61-23.24-.92-34.86-.04-1.58-.24-3-.28-4.59.58.32.72.4,1.3.73L52,2.2Z"/>
            <path class="cls-6" d="m49.83,10.77l-8.97,2.29c-.15.04-.3-.03-.32-.15v-4.15c-.03-.12.08-.26.23-.3l8.97-2.29c.15-.04.3.03.32.15v4.15c.03.12-.08.26-.23.3Z"/>
            <path class="cls-6" d="m21.66,10.61l.11,3.85.06,1.91.99,33.57c-.62-.23-1.24-.46-1.86-.7-.29-11.13-.58-22.25-.88-33.38-.01-.64-.03-1.27-.05-1.91-.04-1.44-.08-2.89-.11-4.33l1.74.98Z"/>
            <path class="cls-1" d="m41.14,4.7c.42-1.5.15-3.33-1.23-3.86l3.83-.84c1.14,1.13,1.56,2.33,1.44,3.59l-4.04,1.11Z"/>
            <g class="cls-14">
              <path class="cls-11" d="m67.47,63.97c-.06.17-.13.33-.19.47-2.05,4.18-24.02,10.29-32.01,9.62-1.44-.12-3.15-.05-4.97-.34,1.57-3.79-.19-24.79-.19-24.79.45-.11.95-.19,1.4-.3.39,3.75.94,4.75,2.22,8.28,1.36,3.72,3.77,7.2,7.26,8.96,4.02,2.04,8.79,1.55,13.21.74,4.4-.81,8.91-3.63,13.28-2.65Z"/>
            </g>
            <path class="cls-1" d="m65.67,46.29s.48-2.1-1.39-8.93c-1.87-6.83-4.35-7.71-1.59-12.8s2.32-11.92-2.43-12.86c-5.8-1.16-18.22,4.3-23.94,4.79-13.76,1.16-10.51,16.4-10.42,22.85.15,12.08-10.8,10.98-10.8,10.98,0,0-.2-19.72-.64-23.8-.44-4.07.39-7.6,1.44-8.83.71-.84,2.81-2.69,4.17-2.99l-.1-3.64c-2.93,2.26-7.91,6.86-8.27,10.4-.71,6.94-1.44,8.52-1.08,18.4.37,9.88,1.82,19.93.54,24.84s-.58,11.06,7.25,12.24c7.83,1.17,12.52.57,16.54,1.33,4.02.76,17.97-1.85,23.89-4.57,13.02-5.98,6.84-27.41,6.84-27.41Z"/>
            <path class="cls-8" d="m30.9,48.76c4.52,2.96,9.35,3.09,11.92,3.6,2.82.56,11.25.85,18.94-3.53,2-1.14,3.97-2.23,5.34-3.11.68-.44.61-1.23-.96-1.46-.12-.02-1.52-.18-1.65-.18-4.6-.23-7.47-.08-12.97.22-7.43.41-14.77,3.32-20.63,4.48Z"/>
            <g>
              <path class="cls-10" d="m59.66,36.87l-4.77,17.16-1.86-.52,4.77-17.16c.35-.69.7-1.38,1.04-2.07.29-.56.57-1.13.86-1.7.11.03.21.05.31.08-.05.63-.1,1.26-.16,1.88-.06.75-.12,1.49-.19,2.24,0,.03,0,.05,0,.08Z"/>
              <path class="cls-13" d="m59.67,36.79c-.1-.04-.2-.06-.3-.07-.28-.02-.55.02-.83,0-.27-.02-.59-.14-.73-.37l-4.75,17.08-.02.08-2.59,9.33c.08.1.39.5.96.61.42.08.76-.03.9-.09l2.59-9.33.02-.08,4.75-17.08s0-.05,0-.08Z"/>
              <path class="cls-12" d="m54.56,55.22l-2.26,8.14c-.14.06-.48.17-.9.09-.57-.11-.88-.5-.96-.61l2.26-8.14,1.86.52Z"/>
              <g class="cls-14">
                <rect class="cls-8" x="41.53" y="49.79" width="27.43" height=".29" transform="translate(-7.66 89.79) rotate(-74.47)"/>
              </g>
              <path class="cls-13" d="m59.85,34.55c-.16,0-.35,0-.56-.06-.19-.05-.34-.13-.46-.2.29-.56.57-1.13.86-1.7.1.03.21.05.31.08-.05.63-.1,1.25-.16,1.88Z"/>
            </g>
            <g>
              <path class="cls-10" d="m63.39,38.23l-6.79,16.46-1.78-.74,6.79-16.46c.43-.64.86-1.28,1.28-1.93.35-.52.71-1.05,1.06-1.58.1.04.2.08.3.11-.13.62-.25,1.23-.38,1.85-.15.73-.3,1.47-.45,2.2,0,.03-.01.05-.02.08Z"/>
              <path class="cls-6" d="m63.41,38.15c-.09-.05-.2-.08-.29-.1-.27-.06-.55-.04-.82-.1-.27-.05-.57-.21-.68-.46l-6.76,16.38-.03.08-3.69,8.95c.06.11.33.54.88.72.41.13.76.06.91.02l3.69-8.95.03-.08,6.76-16.38s0-.05.02-.08Z"/>
              <path class="cls-12" d="m56.13,55.84l-3.22,7.81c-.14.04-.5.12-.91-.02-.55-.18-.81-.61-.88-.72l3.22-7.81,1.79.74Z"/>
              <g class="cls-14">
                <rect class="cls-8" x="43.73" y="50.53" width="27.43" height=".29" transform="translate(-11.28 84.51) rotate(-67.63)"/>
              </g>
              <path class="cls-8" d="m63.86,35.96c-.16-.01-.35-.05-.54-.13-.18-.07-.32-.17-.43-.26.35-.53.71-1.05,1.06-1.58.1.04.2.08.3.11-.13.62-.25,1.23-.38,1.85Z"/>
            </g>
            <g>
              <path class="cls-8" d="m40.35,33.58l-3.17.9c-.46.13-.72.6-.59,1.06l5.72,20.15,1.45,5.09.57,2.01.1.36c.13.46.6.72,1.06.59l.1-.03h0s3.06-.87,3.06-.87c.45-.13.72-.6.59-1.06l-.41-1.42-.49-1.72-.57-2.01-1.45-5.09-4.93-17.37c-.13-.46-.6-.72-1.06-.59Zm.54,1.9c.13.44-.13.9-.57,1.02-.44.12-.9-.13-1.02-.57-.12-.44.13-.9.57-1.02.44-.12.9.13,1.02.57Z"/>
              <path class="cls-13" d="m40.02,33.19l-3.17.9c-.46.13-.72.6-.59,1.06l5.72,20.15,1.45,5.09.57,2.01.1.36c.13.46.6.72,1.06.59l.1-.03h0s3.06-.87,3.06-.87c.45-.13.72-.6.59-1.06l-.41-1.42-.49-1.72-.57-2.01-1.45-5.09-4.93-17.37c-.13-.46-.6-.72-1.06-.59Zm.54,1.9c.13.44-.13.9-.57,1.02s-.9-.13-1.02-.57c-.12-.44.13-.9.57-1.02.44-.12.9.13,1.02.57Z"/>
              <g class="cls-7">
                <path class="cls-13" d="m37.58,33.88l8.31,29.26-.72.21c-.46.13-.93-.13-1.06-.59l-7.84-27.61c-.13-.46.13-.93.59-1.06l.72-.21Z"/>
              </g>
              <g>
                <g id="_Repetición_de_cuadrícula_" data-name="&amp;lt;Repetición de cuadrícula&amp;gt;">
                  <rect class="cls-8" x="36.62" y="36.25" width="1.24" height=".15" transform="translate(-8.5 11.54) rotate(-15.84)"/>
                  <rect class="cls-8" x="36.36" y="35.4" width=".62" height=".15" transform="translate(-8.29 11.36) rotate(-15.85)"/>
                </g>
                <g id="_Repetición_de_cuadrícula_-2" data-name="&amp;lt;Repetición de cuadrícula&amp;gt;">
                  <rect class="cls-8" x="37.15" y="38.13" width="1.24" height=".15" transform="translate(-8.99 11.76) rotate(-15.84)"/>
                  <rect class="cls-8" x="36.9" y="37.27" width=".62" height=".15" transform="translate(-8.79 11.58) rotate(-15.85)"/>
                </g>
                <g id="_Repetición_de_cuadrícula_-3" data-name="&amp;lt;Repetición de cuadrícula&amp;gt;">
                  <rect class="cls-8" x="37.69" y="40.01" width="1.24" height=".15" transform="translate(-9.49 11.98) rotate(-15.85)"/>
                  <rect class="cls-8" x="37.43" y="39.15" width=".62" height=".15" transform="translate(-9.28 11.8) rotate(-15.85)"/>
                </g>
                <g id="_Repetición_de_cuadrícula_-4" data-name="&amp;lt;Repetición de cuadrícula&amp;gt;">
                  <rect class="cls-8" x="38.22" y="41.88" width="1.24" height=".15" transform="translate(-9.98 12.2) rotate(-15.85)"/>
                  <rect class="cls-8" x="37.96" y="41.03" width=".62" height=".15" transform="translate(-9.76 12) rotate(-15.84)"/>
                </g>
                <g id="_Repetición_de_cuadrícula_-5" data-name="&amp;lt;Repetición de cuadrícula&amp;gt;">
                  <rect class="cls-8" x="38.75" y="43.76" width="1.24" height=".15" transform="translate(-10.47 12.41) rotate(-15.84)"/>
                  <rect class="cls-8" x="38.5" y="42.91" width=".62" height=".15" transform="translate(-10.26 12.22) rotate(-15.84)"/>
                </g>
                <g id="_Repetición_de_cuadrícula_-6" data-name="&amp;lt;Repetición de cuadrícula&amp;gt;">
                  <rect class="cls-8" x="39.29" y="45.64" width="1.24" height=".15" transform="translate(-10.96 12.63) rotate(-15.84)"/>
                  <rect class="cls-8" x="39.03" y="44.78" width=".62" height=".15" transform="translate(-10.75 12.45) rotate(-15.85)"/>
                </g>
                <g id="_Repetición_de_cuadrícula_-7" data-name="&amp;lt;Repetición de cuadrícula&amp;gt;">
                  <rect class="cls-8" x="39.82" y="47.52" width="1.24" height=".15" transform="translate(-11.46 12.85) rotate(-15.85)"/>
                  <rect class="cls-8" x="39.56" y="46.66" width=".62" height=".15" transform="translate(-11.25 12.67) rotate(-15.85)"/>
                </g>
                <g id="_Repetición_de_cuadrícula_-8" data-name="&amp;lt;Repetición de cuadrícula&amp;gt;">
                  <rect class="cls-8" x="40.35" y="49.39" width="1.24" height=".15" transform="translate(-11.95 13.07) rotate(-15.85)"/>
                  <rect class="cls-8" x="40.1" y="48.54" width=".62" height=".15" transform="translate(-11.73 12.87) rotate(-15.84)"/>
                </g>
                <g id="_Repetición_de_cuadrícula_-9" data-name="&amp;lt;Repetición de cuadrícula&amp;gt;">
                  <rect class="cls-8" x="40.89" y="51.27" width="1.24" height=".15" transform="translate(-12.44 13.29) rotate(-15.85)"/>
                  <rect class="cls-8" x="40.63" y="50.42" width=".62" height=".15" transform="translate(-12.22 13.09) rotate(-15.84)"/>
                </g>
                <g id="_Repetición_de_cuadrícula_-10" data-name="&amp;lt;Repetición de cuadrícula&amp;gt;">
                  <rect class="cls-9" x="41.42" y="53.15" width="1.24" height=".15" transform="translate(-12.93 13.49) rotate(-15.84)"/>
                  <rect class="cls-9" x="41.16" y="52.29" width=".62" height=".15" transform="translate(-12.72 13.32) rotate(-15.85)"/>
                </g>
                <g id="_Repetición_de_cuadrícula_-11" data-name="&amp;lt;Repetición de cuadrícula&amp;gt;">
                  <rect class="cls-9" x="41.95" y="55.03" width="1.24" height=".15" transform="translate(-13.43 13.72) rotate(-15.85)"/>
                  <rect class="cls-9" x="41.7" y="54.17" width=".62" height=".15" transform="translate(-13.22 13.53) rotate(-15.85)"/>
                </g>
                <g id="_Repetición_de_cuadrícula_-12" data-name="&amp;lt;Repetición de cuadrícula&amp;gt;">
                  <rect class="cls-9" x="42.49" y="56.9" width="1.24" height=".15" transform="translate(-13.92 13.94) rotate(-15.85)"/>
                  <rect class="cls-9" x="42.23" y="56.05" width=".62" height=".15" transform="translate(-13.7 13.74) rotate(-15.84)"/>
                </g>
                <g id="_Repetición_de_cuadrícula_-13" data-name="&amp;lt;Repetición de cuadrícula&amp;gt;">
                  <rect class="cls-9" x="43.02" y="58.78" width="1.24" height=".15" transform="translate(-14.4 14.14) rotate(-15.84)"/>
                  <rect class="cls-9" x="42.76" y="57.93" width=".62" height=".15" transform="translate(-14.19 13.96) rotate(-15.84)"/>
                </g>
                <g id="_Repetición_de_cuadrícula_-14" data-name="&amp;lt;Repetición de cuadrícula&amp;gt;">
                  <rect class="cls-9" x="43.55" y="60.66" width="1.24" height=".15" transform="translate(-14.9 14.36) rotate(-15.84)"/>
                  <rect class="cls-9" x="43.3" y="59.8" width=".62" height=".15" transform="translate(-14.69 14.18) rotate(-15.85)"/>
                </g>
                <g id="_Repetición_de_cuadrícula_-15" data-name="&amp;lt;Repetición de cuadrícula&amp;gt;">
                  <rect class="cls-9" x="44.09" y="62.54" width="1.24" height=".15" transform="translate(-15.39 14.58) rotate(-15.84)"/>
                  <rect class="cls-9" x="43.83" y="61.68" width=".62" height=".15" transform="translate(-15.19 14.4) rotate(-15.85)"/>
                </g>
              </g>
            </g>
            <path class="cls-1" d="m30.11,48.93c.24,3.52,1.47,21.8.05,25.22,1.82.29,3.53.42,4.97.34,7.89-.48,29.96-5.44,32.01-9.62.07-.14.13-.29.19-.47,1-2.75.7-9.9.5-18.2-.04-1.52-.48-1.29-.69-1.64h0c.21.22.15.97-.03,1.15-1.17,1.15-3.83,1.76-5.83,2.9-7.69,4.38-15.63,4.3-18.45,3.74-2.12-.42-5.37-.73-8.98-2.49,0,0-.91-.53-2.34-1.23"/>
            <path class="cls-13" d="m71.33,49.77l-3.13-3.16c.16-.1.19-.31.07-.46l-.72-.89c-.13-.16-.37-.21-.55-.11l-.96.56c-.17.1-.21.31-.08.47l.72.89c.13.16.37.21.55.11h0s2.07,3.74,2.07,3.74c.14.24.48.34.72.2l1.24-.72c.23-.13.26-.42.06-.62Zm-.62.34c-.14.33-.58.48-.95.35-.27-.09-.46-.32-.51-.59l1.09-.63c.35.19.51.56.38.87Z"/>
            <path class="cls-13" d="m67.47,63.97c-.06.17-.13.33-.19.47-2.05,4.18-24.02,10.29-32.01,9.62-1.44-.12-3.15-.05-4.97-.34,1.57-3.79-.19-24.79-.19-24.79.45-.11.95-.19,1.4-.3.39,3.75.94,4.75,2.22,8.28,1.36,3.72,3.77,7.2,7.26,8.96,4.02,2.04,8.79,1.55,13.21.74,4.4-.81,8.91-3.63,13.28-2.65Z"/>
            <path class="cls-6" d="m47.12,69.34c-1.53.38-3.24.71-5.12.94-2.76.34-5.25.37-7.39.27-.18-2.09-.36-4.18-.54-6.28,1.45.43,3.9.94,6.9.55,2.34-.3,4.18-1.04,5.39-1.65.25,2.06.5,4.11.76,6.17Z"/>
            <path class="cls-13" d="m11.09,52.36s.02.08.05.22c.09.44.28,1.48.28,2.6,0,.98-.15,2.02-.59,2.8-.68,1.21-2.19,4.08-2.19,7.56,0,2.82,1.01,6.04,4.22,9l.21-.23-.24.2c.04.06,1.85,2.16,7.13,2.64h0c.4.04,1.06.05,1.78.05,1.43,0,3.06-.05,3.06-.05h.07s.69-.21,1.34-.97c.64-.76,1.26-2.08,1.25-4.29,0-.24,0-.5-.02-.77-.1-1.64-.17-2.51-.23-3.07-.05-.56-.08-.78-.08-1.17,0-.41.03-1.01.1-2.32.03-.61.05-1.36.05-2.2,0-4.5-.4-11.48-.4-11.48,0-.11-.07-.21-.17-.26-.1-.05-.22-.04-.31.02,0,0-.08.06-.23.15-.53.35-1.9,1.22-3.47,2.01-1.57.79-3.35,1.47-4.61,1.46-.34,0-.64-.05-.88-.14-1.35-.53-2.07-1.05-2.84-1.47-.77-.42-1.59-.71-2.98-.71-.17,0-.31.14-.31.31,0,.17.14.31.31.31,1.32,0,1.96.25,2.68.64.72.39,1.5.95,2.91,1.5.34.13.71.19,1.11.19,1.67,0,3.8-.95,5.56-1.88,1.75-.93,3.1-1.85,3.11-1.86l-.18-.26-.31.02s.1,1.74.2,4.05c.1,2.3.2,5.17.2,7.4,0,.83-.01,1.57-.05,2.16-.07,1.31-.1,1.91-.1,2.35,0,.86.12,1,.31,4.28.01.26.02.5.02.73,0,2.1-.57,3.25-1.11,3.89-.27.32-.54.51-.73.62-.1.06-.18.09-.23.11l-.06.02h-.01s.01.05.01.05v-.05s-.01,0-.01,0v.05s0-.05,0-.05l.08.3v-.31s-1.63.05-3.05.05c-.71,0-1.37-.01-1.72-.04h0c-2.56-.24-4.25-.86-5.29-1.41-.52-.28-.88-.54-1.11-.72-.11-.09-.19-.17-.24-.22l-.05-.06h-.01s0-.01,0-.01l-.03-.03c-3.09-2.86-4.01-5.87-4.02-8.55,0-3.3,1.44-6.08,2.11-7.26.52-.93.66-2.06.67-3.1,0-1.59-.35-2.97-.35-2.98-.04-.17-.21-.27-.38-.22-.17.04-.27.21-.22.38h0Z"/>
            <g>
              <path class="cls-13" d="m22.77,53.19c.96,1.41,2.33,3.23,3.68,3.98.15.08.34.03.42-.12.08-.15.03-.34-.12-.42-1.15-.62-2.53-2.4-3.46-3.78-.1-.14-.29-.18-.43-.08-.14.1-.18.29-.08.43h0Z"/>
              <path class="cls-13" d="m19.74,54.4c1.22,2.61,3.38,5.93,7.07,8.19.15.09.34.04.43-.1.09-.15.04-.34-.1-.43-3.55-2.17-5.65-5.37-6.83-7.92-.07-.16-.26-.22-.41-.15-.16.07-.22.26-.15.41h0Z"/>
              <path class="cls-13" d="m14.8,53.76c.85,2.35,2.9,5.91,4.96,8.54,3.12,3.99,6.96,5.4,6.99,5.42.16.06.34-.02.4-.18.06-.16-.02-.34-.18-.4h-.04c-.4-.17-3.86-1.61-6.67-5.22-2.01-2.57-4.06-6.12-4.86-8.37-.06-.16-.24-.24-.4-.19-.16.06-.24.24-.19.4h0Z"/>
              <path class="cls-13" d="m11.34,56.73s.89,1.83,2.17,4.06c1.28,2.24,2.93,4.88,4.5,6.55,3.71,3.95,9.08,4.13,9.12,4.14.17,0,.32-.13.32-.3,0-.17-.13-.32-.3-.32,0,0-.07,0-.22-.02-1.03-.08-5.41-.66-8.47-3.93-1.49-1.59-3.15-4.22-4.41-6.43-.63-1.11-1.17-2.12-1.55-2.85-.38-.73-.6-1.18-.6-1.18-.08-.15-.26-.22-.41-.14-.15.08-.22.26-.14.41h0Z"/>
              <path class="cls-13" d="m9.51,61.47s2.21,5.86,6.94,8.82c2.32,1.45,3.91,2.18,5.41,2.73,1.5.55,2.91.9,4.88,1.6.16.06.34-.03.4-.19.06-.16-.03-.34-.19-.4-2-.71-3.41-1.06-4.88-1.59-1.47-.53-3-1.24-5.3-2.67-2.25-1.4-3.93-3.53-5.04-5.31-.56-.89-.97-1.69-1.24-2.27-.14-.29-.24-.52-.31-.68-.07-.16-.1-.24-.1-.24-.06-.16-.24-.24-.4-.18-.16.06-.24.24-.18.4h0Z"/>
              <path class="cls-13" d="m18.41,76.93s1.72-.5,3.68-1.73c1.95-1.24,4.18-3.23,5.19-6.26.05-.16-.03-.34-.2-.39-.16-.05-.34.03-.39.2-.94,2.84-3.05,4.74-4.93,5.93-.94.6-1.82,1.01-2.47,1.28-.32.13-.59.23-.77.29-.09.03-.16.05-.21.07l-.07.02c-.16.05-.26.22-.21.38.05.16.22.26.38.21h0Z"/>
              <path class="cls-13" d="m14.21,74.95s2.74-1.06,5.73-2.87c2.99-1.81,6.25-4.34,7.28-7.41.05-.16-.03-.34-.2-.39-.16-.05-.34.03-.39.2-.92,2.79-4.07,5.31-7.02,7.08-1.47.89-2.88,1.59-3.93,2.08-.52.24-.95.43-1.25.55-.3.13-.46.19-.46.19-.16.06-.24.24-.18.4.06.16.24.24.4.18h0Z"/>
              <path class="cls-13" d="m26.58,59.39l-.03.05c-.34.54-3.41,5.1-9.44,8.36l-6.5,3.52c-.15.08-.21.27-.13.42.08.15.27.21.42.13t6.5-3.52c6.57-3.56,9.69-8.61,9.7-8.63.09-.15.04-.34-.1-.43-.15-.09-.34-.04-.43.1h0Z"/>
              <path class="cls-13" d="m26.38,54.4s-.35.35-.94.9c-1.76,1.66-5.67,5.2-8.54,6.75-3.96,2.15-7.65,5.79-7.66,5.8-.11.1-.12.27-.04.39.03.05,4.26,6.38,16.57,8.25.17.03.33-.09.35-.26.03-.17-.09-.33-.26-.35-6.06-.93-10.1-2.93-12.63-4.7-1.26-.88-2.15-1.71-2.71-2.31-.28-.3-.49-.55-.62-.71-.07-.08-.11-.15-.14-.19l-.03-.05h0s-.26.16-.26.16l.22.22s.06-.05.16-.16c.75-.72,3.99-3.72,7.36-5.54,2-1.08,4.39-3.02,6.3-4.69,1.91-1.67,3.32-3.07,3.32-3.07.12-.12.12-.32,0-.44-.12-.12-.32-.12-.44,0h0Z"/>
              <path class="cls-13" d="m26.41,50.67s-.46.3-1.23.8c-2.3,1.49-7.34,4.7-10.84,6.55-4.81,2.54-5.68,6.65-5.69,6.69-.04.17.07.33.24.37.17.04.33-.07.37-.24v-.04c.11-.4,1.08-3.97,5.37-6.23,4.72-2.49,12.11-7.38,12.11-7.38.14-.09.18-.29.09-.43-.09-.14-.29-.18-.43-.09h0Z"/>
            </g>
          </g>
          <g>
            <path class="cls-2" d="m31.54,49.47s.09.16.29.4"/>
            <path class="cls-3" d="m32.51,50.57c1.03.92,3,2.14,6.41,2.57,6.4.82,10.66,1.97,18.96-1.56,3.49-1.48,7.42-3.82,9.1-4.86"/>
            <path class="cls-2" d="m67.41,46.47c.27-.17.42-.26.42-.26"/>
          </g>
        </g>
      </g>
    </g>
  </g>
</svg>