<?xml version="1.0" encoding="UTF-8"?><svg id="Layer_2" xmlns="http://www.w3.org/2000/svg" viewBox="0 0 71.4 24.9"><defs><style>.cls-1{stroke-dasharray:0 0 0 .5;}.cls-1,.cls-2,.cls-3,.cls-4,.cls-5,.cls-6,.cls-7,.cls-8,.cls-9,.cls-10,.cls-11{stroke-width:.25px;}.cls-1,.cls-2,.cls-3,.cls-5,.cls-6,.cls-7,.cls-8,.cls-9,.cls-10,.cls-11{fill:none;stroke-linecap:round;stroke-linejoin:round;}.cls-1,.cls-2,.cls-4,.cls-5,.cls-6,.cls-7,.cls-8,.cls-9,.cls-10,.cls-11{stroke:#7e7f7f;}.cls-2{stroke-dasharray:0 0 .01 .5;}.cls-3,.cls-12{stroke:#a8a8a8;}.cls-4,.cls-12{fill:#fff;stroke-miterlimit:10;}.cls-5{stroke-dasharray:0 0 0 .5;}.cls-6{stroke-dasharray:0 0 0 .5;}.cls-7{stroke-dasharray:0 0 .01 .5;}.cls-8{stroke-dasharray:0 0 0 .5;}.cls-9{stroke-dasharray:0 0 0 .5;}.cls-13{fill:#a8a8a8;}.cls-10{stroke-dasharray:0 0 0 .5;}.cls-14{fill:#7e7f7f;}.cls-11{stroke-dasharray:0 0 0 .49;}.cls-15{fill:#142b20;opacity:.5;}</style></defs><g id="Chaine_Hifi"><polyline class="cls-15" points="57.69 18.89 71.4 24.9 .5 24.9 7.77 17.53"/><g><rect class="cls-12" x=".5" y=".5" width="67.74" height="23.03" rx="2.83" ry="2.83"/><line class="cls-3" x1="21.85" y1=".27" x2="21.85" y2="23.53"/><line class="cls-3" x1="46.85" y1=".27" x2="46.85" y2="23.53"/><g><circle class="cls-4" cx="11.18" cy="12.12" r=".9"/><circle class="cls-9" cx="11.18" cy="12.12" r="1.94" transform="translate(-2.57 21.21) rotate(-80.78)"/><circle class="cls-11" cx="11.18" cy="12.12" r="2.65"/><circle class="cls-6" cx="11.18" cy="12.12" r="3.41" transform="translate(-2.57 21.21) rotate(-80.78)"/><circle class="cls-10" cx="11.18" cy="12.12" r="4.2"/><circle class="cls-7" cx="11.18" cy="12.12" r="5.73"/><circle class="cls-2" cx="11.18" cy="12.12" r="4.91"/><circle class="cls-5" cx="11.18" cy="12.12" r="7.36"/><circle class="cls-1" cx="11.18" cy="12.12" r="8.26"/><circle class="cls-8" cx="11.18" cy="12.12" r="6.55"/></g><g><circle class="cls-4" cx="57.18" cy="12.12" r=".9"/><circle class="cls-9" cx="57.18" cy="12.12" r="1.94" transform="translate(36.06 66.62) rotate(-80.78)"/><circle class="cls-11" cx="57.18" cy="12.12" r="2.65"/><circle class="cls-6" cx="57.18" cy="12.12" r="3.41" transform="translate(36.06 66.62) rotate(-80.78)"/><circle class="cls-10" cx="57.18" cy="12.12" r="4.2"/><circle class="cls-7" cx="57.18" cy="12.12" r="5.73"/><circle class="cls-2" cx="57.18" cy="12.12" r="4.91"/><circle class="cls-5" cx="57.18" cy="12.12" r="7.36"/><circle class="cls-1" cx="57.18" cy="12.12" r="8.26"/><circle class="cls-8" cx="57.18" cy="12.12" r="6.55"/></g><rect class="cls-14" x="25.15" y="4.75" width="18.62" height="3.96"/><rect class="cls-3" x="25.15" y="15.76" width="18.62" height="1.01"/><rect class="cls-3" x="25.15" y="9.76" width="2.62" height="1.01"/><rect class="cls-3" x="29.15" y="9.76" width="2.62" height="1.01"/><rect class="cls-3" x="33.15" y="9.76" width="2.62" height="1.01"/><rect class="cls-3" x="37.15" y="9.76" width="2.62" height="1.01"/><rect class="cls-3" x="41.15" y="9.76" width="2.62" height="1.01"/><rect class="cls-13" x="30.8" y="5.57" width="7.12" height="2.35"/><g><polygon class="cls-3" points="27.77 20.77 25.15 20.77 25.15 20.31 25.15 19.85 27.77 19.85 27.77 20.77"/><line class="cls-3" x1="27.4" y1="20.31" x2="25.52" y2="20.31"/></g><g><polygon class="cls-3" points="31.77 20.77 29.15 20.77 29.15 20.31 29.15 19.85 31.77 19.85 31.77 20.77"/><line class="cls-3" x1="31.4" y1="20.31" x2="29.52" y2="20.31"/></g><g><circle class="cls-14" cx="43.27" cy="20.21" r=".5"/><circle class="cls-14" cx="41.27" cy="20.21" r=".5"/><circle class="cls-14" cx="39.27" cy="20.21" r=".5"/></g></g></g></svg>