<?xml version="1.0" encoding="UTF-8"?><svg id="Calque_2" xmlns="http://www.w3.org/2000/svg" viewBox="0 0 77.6 127.19"><defs><style>.cls-1{fill:#fff;}.cls-2{fill:#c0bcbb;}.cls-3{fill:#dadada;}.cls-4{fill:#585858;}</style></defs><g id="blancs"><rect class="cls-1" x="23.2" y="118.34" width="3.71" height="5.7"/><rect class="cls-1" x="52.54" y="118.34" width="3.71" height="5.7"/><rect class="cls-3" x="23.2" y="124.04" width="3.71" height="3.15"/><rect class="cls-3" x="52.54" y="124.04" width="3.71" height="3.15"/><path class="cls-3" d="m68.21,2h-.2c0-1.1-12.85-2-28.7-2S10.61.89,10.61,2l-5.25,8.41h68.1l-5.25-8.41Z"/><path class="cls-3" d="m18.91,118.73h.14c0,1.1,9.14,1.99,20.43,1.99s20.43-.89,20.43-1.99l3.74-8.39H15.17l3.74,8.39Z"/><path class="cls-1" d="m38.8,3.55C17.37,3.55,0,5.73,0,8.42v99.98c0,2.69,17.37,4.87,38.8,4.87s38.8-2.18,38.8-4.87V8.42c0-2.69-17.37-4.87-38.8-4.87"/><rect class="cls-3" x="27.06" y="91.09" width="23.47" height="4.97"/><path class="cls-4" d="m45.71,30.89c0,3.77-3.05,6.82-6.82,6.82s-6.82-3.05-6.82-6.82,3.05-6.82,6.82-6.82,6.82,3.05,6.82,6.82"/><path class="cls-1" d="m44.89,30.89c0,3.31-2.68,6-6,6s-6-2.68-6-6,2.68-6,6-6,6,2.68,6,6"/><polyline class="cls-2" points="42.72 27 38.5 30.44 39.36 31.33 42.72 27"/><ellipse class="cls-1" cx="74.72" cy="58.81" rx="1.26" ry="48.4"/></g></svg>