<?xml version="1.0" encoding="UTF-8"?><svg id="Layer_2" xmlns="http://www.w3.org/2000/svg" viewBox="0 0 82.53 173.79"><defs><style>.cls-1{fill:#fff;}.cls-2{fill:#b9b9b8;}.cls-3{stroke-miterlimit:10;}.cls-3,.cls-4{fill:none;stroke:#fff;}.cls-5{opacity:.39;}.cls-6{opacity:.8;}.cls-4{stroke-linecap:round;stroke-linejoin:round;stroke-width:5px;}.cls-7{fill:#636365;}.cls-8{fill:#737373;}.cls-9{fill:#a2a2a4;}</style></defs><g id="CHEVALET"><path class="cls-1" d="m18.24,58.71h46.63c1.38,0,2.5-1.12,2.5-2.5s-1.12-2.5-2.5-2.5H18.24c-1.38,0-2.5,1.12-2.5,2.5s1.12,2.5,2.5,2.5"/><g class="cls-6"><path class="cls-2" d="m18.24,59.5h46.63c1.38,0,2.5-.53,2.5-1.19s-1.12-1.19-2.5-1.19H18.24c-1.38,0-2.5.53-2.5,1.19s1.12,1.19,2.5,1.19"/></g><line class="cls-4" x1="5.04" y1="157.21" x2="76.54" y2="157.21"/><g><path class="cls-9" d="m40.83,171.86c1.02-.05,1.79-.17,2.36-.57,0,0,0-.01,0-.02V2c0-1.1-.9-2-2-2s-2,.9-2,2v169.27s0,.06,0,.09c.42.28.97.53,1.62.5Z"/><line class="cls-3" x1="41.2" y1="171.86" x2="41.2" y2="2"/></g><g><path class="cls-9" d="m81.43,172.98l-14.45-133.76c-.12-1.14-1.15-1.97-2.29-1.84-1.14.12-1.97,1.15-1.84,2.29l14.4,133.31c.75,1.08,3.61,1.08,4.18,0Z"/><polyline class="cls-1" points="65.67 39.67 80.15 173.72 81.15 173.25 66.71 39.56"/></g><g><path class="cls-9" d="m4.06,173.25L21.98,39.91c.15-1.14-.65-2.18-1.78-2.34-1.14-.15-2.18.65-2.34,1.78L0,172.25c.47,1.23,3.24,1.91,4.06,1Z"/><polyline class="cls-1" points="20.6 40.04 2.64 173.66 3.72 173.44 21.63 40.18"/></g><polyline class="cls-1" points="5.04 127.71 77.38 127.71 77.38 122.71 5.04 122.71"/><polyline class="cls-8" points="5.04 127.8 77.38 127.8 77.38 125.65 5.04 125.65"/><polyline class="cls-1" points="1.04 132.13 82.53 132.13 82.53 127.13 1.04 127.13"/><g class="cls-5"><polyline class="cls-8" points="1.04 132.23 82.53 132.23 82.53 130.08 1.04 130.08"/></g><rect class="cls-1" x="33.55" y="64.41" width="15" height="5.5"/><rect class="cls-2" x="33.55" y="67.16" width="15" height="2.75"/><circle class="cls-7" cx="44.59" cy="68.75" r=".62"/><circle class="cls-7" cx="37.59" cy="68.75" r=".62"/><g><circle class="cls-7" cx="44.59" cy="128.75" r=".62"/><circle class="cls-7" cx="37.59" cy="128.75" r=".62"/></g></g></svg>