<?xml version="1.0" encoding="UTF-8"?>
<svg xmlns="http://www.w3.org/2000/svg" viewBox="0 0 73.55 47.09">
  <defs>
    <style>
      .cls-1 {
        fill: #fff;
      }

      .cls-2 {
        opacity: .8;
      }

      .cls-2, .cls-3 {
        fill: #6f6f6e;
      }

      .cls-4 {
        fill: #76aec8;
        opacity: .28;
      }

      .cls-4, .cls-5 {
        mix-blend-mode: multiply;
      }

      .cls-6 {
        isolation: isolate;
      }

      .cls-5 {
        opacity: .5;
      }

      .cls-7 {
        fill: #aaa;
      }

      .cls-8 {
        fill: #353535;
      }

      .cls-9 {
        fill: #b1b1b1;
      }

      .cls-10 {
        fill: #545454;
      }

      .cls-11 {
        fill: #d9d9d9;
      }
    </style>
  </defs>
  <g class="cls-6">
    <g id="Calque_2" data-name="Calque 2">
      <g id="Dictionnaire">
        <g>
          <g>
            <path class="cls-8" d="m0,32.25c.18,3.02.37,6.03.55,9.05,10.77-10.57,21.54-21.13,32.32-31.7-.35-2.03-.7-4.06-1.06-6.09C21.21,13.09,10.6,22.67,0,32.25Z"/>
            <polygon class="cls-10" points="30.91 11.03 70.95 14.5 46.39 47.09 .55 41.3 30.91 11.03"/>
            <path class="cls-7" d="m3.23,30.4c.1,2.65.2,5.29.3,7.94,14,1.84,28,3.69,42,5.53,7.54-9.71,15.07-19.42,22.61-29.14.07-1.34.13-2.68.2-4.02-12.29-1.74-24.58-3.48-36.87-5.22C22.05,13.78,12.64,22.09,3.23,30.4Z"/>
            <polygon class="cls-10" points="31.81 3.51 71.63 8.94 45.5 40.29 0 32.25 31.81 3.51"/>
          </g>
          <g>
            <polygon class="cls-1" points="6.54 8.67 31.87 0 73.55 10.41 49.76 19.61 6.54 8.67"/>
            <path class="cls-3" d="m73.55,10.41l-.1.92-.79.37-.42,12.3.41-.16-.08.87-23.36,9.5s-2.5-.84-2.53-2.86c-.04-2.86,3.09-11.76,3.09-11.76l23.79-9.19Z"/>
            <path class="cls-11" d="m49.21,34.22l-5.95-1.46-1.36-.33-30.79-7.56-1.35-.33-4.03-.99s-1.15-1.66-.82-7.3c.37-6.26,1.64-7.57,1.64-7.57l4.44,1.13,1.29.33,30.62,7.75,1.3.33,5.57,1.41s-1.17,3.1-1.41,7.34c-.23,3.89.86,7.27.86,7.27Z"/>
            <path class="cls-1" d="m72.24,24.01l-22.17,9.04s-.77-2.29-.55-6.61c.23-4.51,1.12-6.12,1.12-6.12l22.02-8.61-.42,12.3Z"/>
            <path class="cls-9" d="m50.05,22.19c.14-.53.59-1.88.59-1.88l22.02-8.61-.05,1.68s-16.61,6.88-22.57,8.81Z"/>
            <path class="cls-3" d="m43.26,32.76l-1.36-.33c-.5-6.79.35-11.85,1-14.56l1.3.33c-.63,2.67-1.48,7.78-.93,14.56Z"/>
            <path class="cls-3" d="m11.11,24.86c-.75-7.17.33-12.37,1.16-14.74l-1.29-.33c-1,2.39-1.88,7.44-1.22,14.73l1.35.33Z"/>
            <g class="cls-5">
              <path class="cls-4" d="m5.46,22.94c.15.42.27.59.27.59l4.03.99,1.35.33,30.79,7.56,1.36.33,5.95,1.46s-.06-.18-.15-.51c0,0-43.13-10.69-43.61-10.76Z"/>
            </g>
          </g>
          <g>
            <polygon class="cls-2" points="53.21 6.62 45.92 9.88 44.2 9.13 39.74 4.61 35.82 6.06 33.62 5.39 39.36 3.09 41.17 3.6 45.55 7.58 49.76 5.67 53.21 6.62"/>
            <polyline class="cls-2" points="40.31 8.09 37.45 9.66 35.82 9.25 38.86 7.69 40.31 8.09"/>
            <polygon class="cls-2" points="43.36 11.68 24.59 9.05 22.64 9.8 35.82 15.31 37.72 14.34 34.16 12.94 36.51 11.7 41.13 12.62 43.36 11.68"/>
          </g>
          <polygon class="cls-1" points="27.91 10.41 33.76 11.27 32.03 12.21 27.91 10.41"/>
        </g>
      </g>
    </g>
  </g>
</svg>