<?xml version="1.0" encoding="UTF-8"?><svg id="Calque_2" xmlns="http://www.w3.org/2000/svg" viewBox="0 0 280.81 80.81"><defs><style>.cls-1{fill:#ebe6e3;}.cls-2,.cls-3{fill:#fff;}.cls-4{fill:#ffb390;}.cls-5{fill:#6b6b6b;}.cls-6{fill:#a6a6a6;}.cls-7,.cls-8{fill:#0a1f26;}.cls-9{fill:#606060;}.cls-10{stroke:#a6a6a6;stroke-width:.2px;}.cls-10,.cls-11{fill:none;stroke-miterlimit:10;}.cls-11{stroke:#6b6b6b;}.cls-12,.cls-8{opacity:.46;}.cls-3{opacity:.72;}</style></defs><g id="blancs"><polygon class="cls-2" points="268.36 61.1 19.64 59.54 43.04 26.32 277.81 26.32 268.36 59.54 268.36 61.1"/><polygon class="cls-6" points="19.64 59.54 20.11 61.1 268.36 61.1 268.36 59.54 19.64 59.54"/><polygon class="cls-2" points="271.36 61.1 22.64 59.54 46.04 26.32 280.81 26.32 271.36 59.54 271.36 61.1"/><polygon class="cls-6" points="22.64 59.54 23.11 61.1 271.36 61.1 271.36 59.54 22.64 59.54"/><line class="cls-10" x1="38.64" y1="59.54" x2="58.04" y2="26.32"/><line class="cls-10" x1="41.57" y1="59.54" x2="60.97" y2="26.32"/><line class="cls-10" x1="44.49" y1="59.54" x2="63.89" y2="26.32"/><line class="cls-10" x1="47.41" y1="59.54" x2="66.81" y2="26.32"/><line class="cls-10" x1="50.33" y1="59.54" x2="69.74" y2="26.32"/><line class="cls-10" x1="53.26" y1="59.54" x2="72.66" y2="26.32"/><line class="cls-10" x1="56.18" y1="59.54" x2="75.58" y2="26.32"/><line class="cls-10" x1="59.1" y1="59.54" x2="78.5" y2="26.32"/><line class="cls-10" x1="62.03" y1="59.54" x2="81.43" y2="26.32"/><line class="cls-10" x1="64.95" y1="59.54" x2="84.35" y2="26.32"/><line class="cls-10" x1="67.87" y1="59.54" x2="87.27" y2="26.32"/><line class="cls-10" x1="70.8" y1="59.54" x2="90.2" y2="26.32"/><line class="cls-10" x1="73.72" y1="59.54" x2="93.12" y2="26.32"/><line class="cls-10" x1="76.64" y1="59.54" x2="96.04" y2="26.32"/><path class="cls-8" d="m133.29,24.46c3.85,1.62,23.7,12.26,35.87,17.55.89.39-9.88,3.98-1.81,6.1,4.23,1.12,22.33-2.64,23.53-5.83.46-1.22-2.33-6.27-15.9-1.89-1.46.47-42.45-21.18-42.45-21.18,0,0-3.87,3.3.75,5.25Z"/><ellipse class="cls-4" cx="136.56" cy="11.85" rx="11.45" ry="11.85"/><path class="cls-8" d="m134.53,17.19s-22.03,5-13.97,7.3,18.35.82,23.58-2.21"/><ellipse class="cls-5" cx="136.56" cy="11.85" rx="11.45" ry="11.85"/><ellipse class="cls-1" cx="138.49" cy="11.85" rx="11.45" ry="11.85"/><path class="cls-2" d="m131.18,3.87c1.93-1.15,4.25-1.71,6.68-1.44,5.77.65,9.94,5.69,9.32,11.26-.25,2.26-1.26,4.25-2.74,5.78,2.64-1.58,4.53-4.26,4.89-7.49.62-5.57-3.55-10.62-9.32-11.26-3.43-.38-6.65.88-8.83,3.14Z"/><circle class="cls-9" cx="138.06" cy="12.08" r="4.49"/><path class="cls-5" d="m136.6,15.29l43.5,19.6c1.76.79,3.83,0,4.63-1.75.79-1.76,0-3.83-1.75-4.63l-43.5-19.6c-1.76-.79-3.83,0-4.63,1.75-.79,1.76,0,3.83,1.75,4.63"/><g class="cls-12"><path class="cls-7" d="m61.16,73.67c0-.08-.18-1.26-1.48-2.41-1.3-1.15-3.69-2.22-8.02-2.22-2.04,0-4.51.24-7.52.81-8.62,1.66-15.93,2.35-21.95,2.35-7.24,0-12.6-1.01-16.11-2.55-1.75-.77-3.04-1.67-3.87-2.62-.83-.95-1.22-1.93-1.22-2.93,0-1.35.72-2.82,2.28-4.27,1.22-1.13,3.12-2.01,5.3-2.69,3.27-1.02,7.12-1.61,10.17-2.17,1.53-.28,2.85-.56,3.84-.9.49-.17.9-.36,1.23-.6.16-.12.31-.26.41-.44.11-.17.18-.38.18-.6,0-.34-.15-.64-.37-.91-.33-.4-.83-.79-1.57-1.22-.73-.43-1.69-.9-2.92-1.44-2.41-1.05-4.17-2.28-5.3-3.56-1.14-1.28-1.65-2.59-1.65-3.83,0-1.86,1.17-3.68,3.59-5.09,2.42-1.4,6.07-2.33,10.82-2.33,2.76,0,5.9.31,9.39,1.03,5.58,1.14,9.89,3.52,13.54,6.48,5.47,4.43,9.44,10.16,13.82,14.84,2.2,2.34,4.5,4.41,7.18,5.91,2.67,1.5,5.72,2.4,9.32,2.4.86,0,1.74-.05,2.67-.16,7.27-.83,12.59-2.44,16.88-3.84,4.3-1.4,7.56-2.57,10.71-2.56,2.97,0,5.91,1,9.73,3.89l.61-.8c-3.91-2.98-7.12-4.1-10.33-4.1-3.41,0-6.75,1.22-11.02,2.61-4.28,1.39-9.5,2.98-16.68,3.8-.89.1-1.74.15-2.55.15-4.59,0-8.13-1.51-11.29-3.88-4.73-3.55-8.52-9.07-13.27-14.18-4.74-5.1-10.48-9.79-19.11-11.55-3.55-.72-6.75-1.05-9.59-1.05-4.88,0-8.69.95-11.32,2.47-2.62,1.51-4.09,3.65-4.09,5.95,0,1.53.65,3.08,1.91,4.49,1.26,1.42,3.14,2.72,5.65,3.81,1.61.69,2.72,1.28,3.41,1.76.34.24.57.45.7.61.13.16.15.25.14.28l-.06.12c-.11.14-.46.35-.98.54-.92.34-2.36.64-4.04.95-2.52.46-5.6.95-8.46,1.7-2.87.76-5.54,1.76-7.27,3.36C.91,60.68,0,62.4,0,64.12c0,1.27.51,2.5,1.47,3.59,1.44,1.64,3.89,3,7.33,3.97,3.45.97,7.91,1.54,13.4,1.54,6.09,0,13.46-.71,22.13-2.37,2.96-.57,5.37-.8,7.33-.8,4.17,0,6.28,1.02,7.36,1.97.54.47.82.94.98,1.27.08.17.12.3.14.39l.02.1v.02s.12-.02.12-.02h-.12s0,.02,0,.02l.12-.02h-.12s.99-.1.99-.1h0Z"/></g><path class="cls-11" d="m61.18,72.56s-2.71-5.75-16.93-4.21c-35.61,3.85-45.84-.22-37.42-8.03,6.76-6.28,29.79-5.73,15.3-12.01-14.49-6.28-7.5-20.08,16.17-15.24,23.67,4.83,23.29,32.92,44.54,30.51,21.25-2.42,25.85-14.26,38.04-2.32"/><path class="cls-2" d="m182.97,28.5l-43.5-19.6c-1.76-.79-3.83,0-4.63,1.75-.05.1-.07.21-.1.31l47.85,21.34-4.24,1.79,1.74.79c1.76.79,3.83,0,4.63-1.75.79-1.76,0-3.83-1.75-4.63Z"/><ellipse class="cls-4" cx="182.86" cy="32.93" rx="11.45" ry="11.85"/><ellipse class="cls-5" cx="182.86" cy="32.93" rx="11.45" ry="11.85"/><path class="cls-2" d="m186.21,23.5c1.8.13,3.35.48,4.67.99-2.07-2.1-4.9-3.4-8.02-3.4-2.82,0-5.4,1.06-7.39,2.81,2.56-.53,6.03-.76,10.75-.4Z"/><ellipse class="cls-6" cx="184.79" cy="32.93" rx="11.45" ry="11.85"/><path class="cls-3" d="m176.19,25.81c1.69-1.48,3.87-2.44,6.31-2.61,5.79-.4,9.42,2.82,11.74,8.53.86,2.1.67,6.83-.52,8.61,2.32-2.02,2.68-5.37,2.45-8.61-.39-5.6-6.08-10.99-11.87-10.59-3.45.24-6.38,2.06-8.12,4.68Z"/><ellipse class="cls-9" cx="184.46" cy="32.93" rx="2.92" ry="3.03"/><path class="cls-2" d="m183.84,31.26c1.47,0,2.67,1.2,2.67,2.67,0,0,0,.02,0,.03.15-.31.23-.66.23-1.03,0-1.3-1.02-2.36-2.28-2.36-.78,0-1.46.4-1.88,1.02.38-.2.8-.33,1.26-.33Z"/><g class="cls-12"><path class="cls-7" d="m67.25,80.35h0c-.77.68-1.94.6-2.62-.17l-7.36-9.2,2.27-2.22,7.88,8.96c.68.77.6,1.94-.17,2.62Z"/></g><path class="cls-2" d="m68.81,78.76h0c-.68.77-1.86.83-2.62.15l-8.91-7.93,2.47-2.77,8.91,7.93c.77.68.83,1.86.15,2.62Z"/><path class="cls-5" d="m68.32,76.91c-.68.77-1.86.83-2.62.15l-7.73-6.88-.71.79,8.91,7.93c.77.68,1.94.61,2.62-.15.66-.74.61-1.87-.09-2.56-.07.25-.2.5-.39.71Z"/><g class="cls-12"><path class="cls-7" d="m128.78,71.58h0c-.77.68-1.94.6-2.62-.17l-7.36-9.2,2.27-2.22,7.88,8.96c.68.77.6,1.94-.17,2.62Z"/></g><path class="cls-2" d="m130.33,69.99h0c-.68.77-1.86.83-2.62.15l-8.91-7.93,2.47-2.77,8.91,7.93c.77.68.83,1.86.15,2.62Z"/><path class="cls-5" d="m129.85,68.14c-.68.77-1.86.83-2.62.15l-7.73-6.88-.71.79,8.91,7.93c.77.68,1.94.61,2.62-.15.66-.74.61-1.87-.09-2.56-.07.25-.2.5-.39.71Z"/></g></svg>