<?xml version="1.0" encoding="UTF-8"?><svg id="Layer_2" xmlns="http://www.w3.org/2000/svg" viewBox="0 0 219.37 197.1"><defs><style>.cls-1,.cls-2{fill:#fff;}.cls-3,.cls-2,.cls-4,.cls-5,.cls-6,.cls-7,.cls-8,.cls-9,.cls-10,.cls-11,.cls-12{fill-rule:evenodd;}.cls-3,.cls-13{fill:#eaeaea;}.cls-14,.cls-9{fill:#898888;}.cls-15,.cls-16{fill:#3f3f3f;}.cls-17{fill:#a0a0a0;}.cls-4{fill:#565656;}.cls-5{fill:#353536;}.cls-18,.cls-7{fill:#d6d8d8;}.cls-6{fill:#222223;}.cls-8{fill:#c9f7e8;opacity:.08;}.cls-9{opacity:.37;}.cls-10{fill:#a2a2a4;}.cls-16{opacity:.38;}.cls-19{fill:none;stroke:#fff;stroke-linecap:round;stroke-linejoin:round;stroke-width:.75px;}.cls-11,.cls-20{fill:#5c5c5b;}.cls-21{opacity:.46;}.cls-12{fill:#636365;}.cls-22{fill:#bbbcbc;}</style></defs><g id="meuble"><g><polygon class="cls-22" points="37.78 182.56 33.82 185.87 32.12 84.7 37.78 84.7 37.78 182.56"/><rect class="cls-1" x="28.16" y="88.01" width="5.67" height="97.86"/><polygon class="cls-16" points="37.78 90.47 28.13 90.47 28.13 120.62 33.82 120.62 37.78 117.67 37.78 90.47"/></g><g><polygon class="cls-22" points="24.35 193.79 20.39 197.1 18.68 95.93 24.35 95.93 24.35 193.79"/><rect class="cls-1" x="14.72" y="99.24" width="5.67" height="97.86"/><polygon class="cls-16" points="24.35 91.93 14.69 91.93 14.69 131.85 20.39 131.85 24.35 128.9 24.35 91.93"/></g><g><polygon class="cls-22" points="182.18 182.69 186.14 186 187.84 84.83 182.18 84.83 182.18 182.69"/><rect class="cls-1" x="186.14" y="88.14" width="5.67" height="97.86" transform="translate(377.94 274.13) rotate(180)"/><polygon class="cls-16" points="182.18 97.43 191.83 97.43 191.83 120.74 186.14 120.74 182.18 117.8 182.18 97.43"/></g><g><polygon class="cls-22" points="196.51 193.79 200.47 197.1 202.17 95.93 196.51 95.93 196.51 193.79"/><rect class="cls-1" x="200.47" y="99.24" width="5.67" height="97.86" transform="translate(406.6 296.34) rotate(180)"/><polygon class="cls-16" points="196.51 91.93 206.16 91.93 206.16 131.85 200.47 131.85 196.51 128.9 196.51 91.93"/></g><polygon class="cls-1" points="202.12 77.15 29.68 77.15 0 93.14 3.93 94.35 219.37 93.19 202.12 77.15"/><rect class="cls-15" x=".22" y="97.56" width="218.59" height="3.88"/><rect class="cls-18" x=".03" y="93.19" width="219.34" height="5.26"/><polygon class="cls-1" points="182.18 159.13 37.93 159.87 20.54 169.25 34.01 170.18 200.33 169.29 196.52 167.19 196.51 164.18 191.8 161.59 186.14 161.31 182.18 159.13"/><rect class="cls-17" x="20.54" y="169.29" width="179.79" height="4.45"/><polyline class="cls-1" points="29.91 1.45 30.29 74.56 200.45 74.56 201.53 1.45 197.57 0 33.99 0"/><rect class="cls-18" x="29.91" y="1.45" width="171.62" height="75.56"/><rect class="cls-1" x=".03" y="99.18" width="219.34" height="10.61"/><g><rect class="cls-17" x="163.28" y="89.82" width="4.12" height="29.7" rx="2.06" ry="2.06" transform="translate(60.68 270.02) rotate(-90)"/><line class="cls-19" x1="177.47" y1="104.1" x2="153.31" y2="104.1"/></g><g><rect class="cls-17" x="54.28" y="89.82" width="4.12" height="29.7" rx="2.06" ry="2.06" transform="translate(-48.32 161.02) rotate(-90)"/><line class="cls-19" x1="68.47" y1="104.1" x2="44.31" y2="104.1"/></g><rect class="cls-15" x="109.32" y="98.65" width=".76" height="11.14"/><g class="cls-21"><g><g><circle class="cls-15" cx="36.69" cy="9.79" r=".94"/><circle class="cls-15" cx="36.69" cy="18.11" r=".94"/><circle class="cls-15" cx="36.69" cy="26.43" r=".94"/><circle class="cls-15" cx="36.69" cy="34.76" r=".94"/><circle class="cls-15" cx="36.69" cy="43.08" r=".94"/><circle class="cls-15" cx="36.69" cy="51.4" r=".94"/><circle class="cls-15" cx="36.69" cy="59.73" r=".94"/><circle class="cls-15" cx="36.69" cy="68.05" r=".94"/></g><g><circle class="cls-15" cx="45.01" cy="9.79" r=".94"/><circle class="cls-15" cx="45.01" cy="18.11" r=".94"/><circle class="cls-15" cx="45.01" cy="26.43" r=".94"/><circle class="cls-15" cx="45.01" cy="34.76" r=".94"/><circle class="cls-15" cx="45.01" cy="43.08" r=".94"/><circle class="cls-15" cx="45.01" cy="51.4" r=".94"/><circle class="cls-15" cx="45.01" cy="59.73" r=".94"/><circle class="cls-15" cx="45.01" cy="68.05" r=".94"/></g><g><circle class="cls-15" cx="53.34" cy="9.79" r=".94"/><circle class="cls-15" cx="53.34" cy="18.11" r=".94"/><circle class="cls-15" cx="53.34" cy="26.43" r=".94"/><circle class="cls-15" cx="53.34" cy="34.76" r=".94"/><circle class="cls-15" cx="53.34" cy="43.08" r=".94"/><circle class="cls-15" cx="53.34" cy="51.4" r=".94"/><circle class="cls-15" cx="53.34" cy="59.73" r=".94"/><circle class="cls-15" cx="53.34" cy="68.05" r=".94"/></g><g><circle class="cls-15" cx="61.66" cy="9.79" r=".94"/><circle class="cls-15" cx="61.66" cy="18.11" r=".94"/><circle class="cls-15" cx="61.66" cy="26.43" r=".94"/><circle class="cls-15" cx="61.66" cy="34.76" r=".94"/><circle class="cls-15" cx="61.66" cy="43.08" r=".94"/><circle class="cls-15" cx="61.66" cy="51.4" r=".94"/><circle class="cls-15" cx="61.66" cy="59.73" r=".94"/><circle class="cls-15" cx="61.66" cy="68.05" r=".94"/></g><g><circle class="cls-15" cx="69.99" cy="9.79" r=".94"/><circle class="cls-15" cx="69.99" cy="18.11" r=".94"/><circle class="cls-15" cx="69.99" cy="26.43" r=".94"/><circle class="cls-15" cx="69.99" cy="34.76" r=".94"/><circle class="cls-15" cx="69.99" cy="43.08" r=".94"/><circle class="cls-15" cx="69.99" cy="51.4" r=".94"/><circle class="cls-15" cx="69.99" cy="59.73" r=".94"/><circle class="cls-15" cx="69.99" cy="68.05" r=".94"/></g><g><circle class="cls-15" cx="78.31" cy="9.79" r=".94"/><circle class="cls-15" cx="78.31" cy="18.11" r=".94"/><circle class="cls-15" cx="78.31" cy="26.43" r=".94"/><circle class="cls-15" cx="78.31" cy="34.76" r=".94"/><circle class="cls-15" cx="78.31" cy="43.08" r=".94"/><circle class="cls-15" cx="78.31" cy="51.4" r=".94"/><circle class="cls-15" cx="78.31" cy="59.73" r=".94"/><circle class="cls-15" cx="78.31" cy="68.05" r=".94"/></g><g><circle class="cls-15" cx="86.63" cy="9.79" r=".94"/><circle class="cls-15" cx="86.63" cy="18.11" r=".94"/><circle class="cls-15" cx="86.63" cy="26.43" r=".94"/><circle class="cls-15" cx="86.63" cy="34.76" r=".94"/><circle class="cls-15" cx="86.63" cy="43.08" r=".94"/><circle class="cls-15" cx="86.63" cy="51.4" r=".94"/><circle class="cls-15" cx="86.63" cy="59.73" r=".94"/><circle class="cls-15" cx="86.63" cy="68.05" r=".94"/></g><g><circle class="cls-15" cx="94.96" cy="9.79" r=".94"/><circle class="cls-15" cx="94.96" cy="18.11" r=".94"/><circle class="cls-15" cx="94.96" cy="26.43" r=".94"/><circle class="cls-15" cx="94.96" cy="34.76" r=".94"/><circle class="cls-15" cx="94.96" cy="43.08" r=".94"/><circle class="cls-15" cx="94.96" cy="51.4" r=".94"/><circle class="cls-15" cx="94.96" cy="59.73" r=".94"/><circle class="cls-15" cx="94.96" cy="68.05" r=".94"/></g></g><g><g><circle class="cls-15" cx="103.11" cy="9.79" r=".94"/><circle class="cls-15" cx="103.11" cy="18.11" r=".94"/><circle class="cls-15" cx="103.11" cy="26.43" r=".94"/><circle class="cls-15" cx="103.11" cy="34.76" r=".94"/><circle class="cls-15" cx="103.11" cy="43.08" r=".94"/><circle class="cls-15" cx="103.11" cy="51.4" r=".94"/><circle class="cls-15" cx="103.11" cy="59.73" r=".94"/><circle class="cls-15" cx="103.11" cy="68.05" r=".94"/></g><g><circle class="cls-15" cx="111.43" cy="9.79" r=".94"/><circle class="cls-15" cx="111.43" cy="18.11" r=".94"/><circle class="cls-15" cx="111.43" cy="26.43" r=".94"/><circle class="cls-15" cx="111.43" cy="34.76" r=".94"/><circle class="cls-15" cx="111.43" cy="43.08" r=".94"/><circle class="cls-15" cx="111.43" cy="51.4" r=".94"/><circle class="cls-15" cx="111.43" cy="59.73" r=".94"/><circle class="cls-15" cx="111.43" cy="68.05" r=".94"/></g><g><circle class="cls-15" cx="119.76" cy="9.79" r=".94"/><circle class="cls-15" cx="119.76" cy="18.11" r=".94"/><circle class="cls-15" cx="119.76" cy="26.43" r=".94"/><circle class="cls-15" cx="119.76" cy="34.76" r=".94"/><circle class="cls-15" cx="119.76" cy="43.08" r=".94"/><circle class="cls-15" cx="119.76" cy="51.4" r=".94"/><circle class="cls-15" cx="119.76" cy="59.73" r=".94"/><circle class="cls-15" cx="119.76" cy="68.05" r=".94"/></g><g><circle class="cls-15" cx="128.08" cy="9.79" r=".94"/><circle class="cls-15" cx="128.08" cy="18.11" r=".94"/><circle class="cls-15" cx="128.08" cy="26.43" r=".94"/><circle class="cls-15" cx="128.08" cy="34.76" r=".94"/><circle class="cls-15" cx="128.08" cy="43.08" r=".94"/><circle class="cls-15" cx="128.08" cy="51.4" r=".94"/><circle class="cls-15" cx="128.08" cy="59.73" r=".94"/><circle class="cls-15" cx="128.08" cy="68.05" r=".94"/></g><g><circle class="cls-15" cx="136.4" cy="9.79" r=".94"/><circle class="cls-15" cx="136.4" cy="18.11" r=".94"/><circle class="cls-15" cx="136.4" cy="26.43" r=".94"/><circle class="cls-15" cx="136.4" cy="34.76" r=".94"/><circle class="cls-15" cx="136.4" cy="43.08" r=".94"/><circle class="cls-15" cx="136.4" cy="51.4" r=".94"/><circle class="cls-15" cx="136.4" cy="59.73" r=".94"/><circle class="cls-15" cx="136.4" cy="68.05" r=".94"/></g><g><circle class="cls-15" cx="144.73" cy="9.79" r=".94"/><circle class="cls-15" cx="144.73" cy="18.11" r=".94"/><circle class="cls-15" cx="144.73" cy="26.43" r=".94"/><circle class="cls-15" cx="144.73" cy="34.76" r=".94"/><circle class="cls-15" cx="144.73" cy="43.08" r=".94"/><circle class="cls-15" cx="144.73" cy="51.4" r=".94"/><circle class="cls-15" cx="144.73" cy="59.73" r=".94"/><circle class="cls-15" cx="144.73" cy="68.05" r=".94"/></g><g><circle class="cls-15" cx="153.05" cy="9.79" r=".94"/><circle class="cls-15" cx="153.05" cy="18.11" r=".94"/><circle class="cls-15" cx="153.05" cy="26.43" r=".94"/><circle class="cls-15" cx="153.05" cy="34.76" r=".94"/><circle class="cls-15" cx="153.05" cy="43.08" r=".94"/><circle class="cls-15" cx="153.05" cy="51.4" r=".94"/><circle class="cls-15" cx="153.05" cy="59.73" r=".94"/><circle class="cls-15" cx="153.05" cy="68.05" r=".94"/></g><g><circle class="cls-15" cx="161.38" cy="9.79" r=".94"/><circle class="cls-15" cx="161.38" cy="18.11" r=".94"/><circle class="cls-15" cx="161.38" cy="26.43" r=".94"/><circle class="cls-15" cx="161.38" cy="34.76" r=".94"/><circle class="cls-15" cx="161.38" cy="43.08" r=".94"/><circle class="cls-15" cx="161.38" cy="51.4" r=".94"/><circle class="cls-15" cx="161.38" cy="59.73" r=".94"/><circle class="cls-15" cx="161.38" cy="68.05" r=".94"/></g></g><g><g><circle class="cls-15" cx="169.11" cy="9.79" r=".94"/><circle class="cls-15" cx="169.11" cy="18.11" r=".94"/><circle class="cls-15" cx="169.11" cy="26.43" r=".94"/><circle class="cls-15" cx="169.11" cy="34.76" r=".94"/><circle class="cls-15" cx="169.11" cy="43.08" r=".94"/><circle class="cls-15" cx="169.11" cy="51.4" r=".94"/><circle class="cls-15" cx="169.11" cy="59.73" r=".94"/><circle class="cls-15" cx="169.11" cy="68.05" r=".94"/></g><g><circle class="cls-15" cx="177.43" cy="9.79" r=".94"/><circle class="cls-15" cx="177.43" cy="18.11" r=".94"/><circle class="cls-15" cx="177.43" cy="26.43" r=".94"/><circle class="cls-15" cx="177.43" cy="34.76" r=".94"/><circle class="cls-15" cx="177.43" cy="43.08" r=".94"/><circle class="cls-15" cx="177.43" cy="51.4" r=".94"/><circle class="cls-15" cx="177.43" cy="59.73" r=".94"/><circle class="cls-15" cx="177.43" cy="68.05" r=".94"/></g><g><circle class="cls-15" cx="185.76" cy="9.79" r=".94"/><circle class="cls-15" cx="185.76" cy="18.11" r=".94"/><circle class="cls-15" cx="185.76" cy="26.43" r=".94"/><circle class="cls-15" cx="185.76" cy="34.76" r=".94"/><circle class="cls-15" cx="185.76" cy="43.08" r=".94"/><circle class="cls-15" cx="185.76" cy="51.4" r=".94"/><circle class="cls-15" cx="185.76" cy="59.73" r=".94"/><circle class="cls-15" cx="185.76" cy="68.05" r=".94"/></g><g><circle class="cls-15" cx="194.08" cy="9.79" r=".94"/><circle class="cls-15" cx="194.08" cy="18.11" r=".94"/><circle class="cls-15" cx="194.08" cy="26.43" r=".94"/><circle class="cls-15" cx="194.08" cy="34.76" r=".94"/><circle class="cls-15" cx="194.08" cy="43.08" r=".94"/><circle class="cls-15" cx="194.08" cy="51.4" r=".94"/><circle class="cls-15" cx="194.08" cy="59.73" r=".94"/><circle class="cls-15" cx="194.08" cy="68.05" r=".94"/></g></g></g><g><polygon class="cls-13" points="184.65 73.89 119.98 73.89 100.25 84.53 102.87 85.33 196.12 84.56 184.65 73.89"/><rect class="cls-17" x="100.27" y="84.56" width="95.85" height="3.5"/></g><polyline class="cls-1" points="35.87 162.56 28.28 162.56 24.38 165.12 24.38 169.08"/><g><path class="cls-1" d="m158.65,68.12s.02-.06.04-.09l-.59-.23c.27-.12.55-.24.82-.37.01-.03.02-.06.03-.09l-.59-.23c.27-.12.55-.25.82-.37,0-.01,0-.02.01-.04l-.6-.23.83-.37.03-.07-.6-.23c.28-.12.55-.25.83-.37l.02-.06-.6-.23c.28-.12.56-.25.84-.37.01-.03.02-.05.03-.08l-.61-.23c.28-.13.56-.25.84-.38,0-.03.02-.05.03-.08l-.61-.23c.28-.13.56-.25.84-.38,0-.02.02-.05.03-.07l-.61-.23c.28-.13.57-.25.85-.38,0,0,0,0,0,0l-.61-.23.85-.38s.01-.03.02-.05l-.62-.24c.29-.13.57-.26.86-.38,0-.02.01-.03.02-.05l-.62-.24c.29-.13.57-.26.86-.38,0-.02.02-.04.02-.06l-.62-.24c.29-.13.58-.26.86-.39l.02-.06-.63-.24c.29-.13.58-.26.87-.39,0-.02.01-.04.02-.06l-.63-.24c.27-.12.53-.24.8-.36l-.58-.22.87-.39s0-.02.01-.03l-.63-.24c.29-.13.59-.26.88-.39,0-.01,0-.02.01-.03l-.64-.24c.29-.13.59-.26.88-.39,0-.02.01-.03.02-.05l-.64-.24c.3-.13.59-.26.89-.4,0-.01.01-.03.02-.04l-.64-.24c.3-.13.59-.27.89-.4,0-.01.01-.03.02-.04l-.64-.25c.29-.13.58-.26.87-.39l-.63-.24.9-.4s0-.01,0-.02l-.65-.25c.3-.13.6-.27.9-.4,0,0,0,0,0-.01l-.65-.25c.3-.14.6-.27.91-.41,0,0,0-.02.01-.03l-.66-.25c.3-.14.61-.27.91-.41,0,0,0-.02.01-.03l-.66-.25c.3-.14.61-.27.91-.41,0,0,0-.02,0-.02l-.66-.25c.29-.13.57-.26.86-.39l-.62-.24.92-.41h0s-.67-.25-.67-.25c.31-.14.61-.27.92-.41l-.67-.25c.31-.14.62-.28.93-.42,0,0,0,0,0-.01l-.67-.26c.31-.14.62-.28.93-.42,0,0,0,0,0,0l-.68-.26c.31-.14.62-.28.94-.42h0s-.68-.26-.68-.26c.3-.14.61-.27.91-.41l-.66-.25c.31-.14.61-.28.92-.41l-.67-.25c.31-.14.61-.27.92-.41l-.67-.25c.31-.14.63-.28.95-.42l-.68-.26c.31-.14.63-.28.95-.42l-.68-.26c.31-.14.63-.28.95-.42l-.68-.26c.29-.13.58-.26.87-.39l-.63-.24.92-.41-.67-.25c.31-.14.61-.27.92-.41l-.67-.25c.31-.14.63-.28.95-.42l-.68-.26c.31-.14.63-.28.95-.42l-.68-.26c.31-.14.63-.28.95-.42l-.68-.26c.29-.13.57-.26.86-.39l-.62-.24.92-.41-.67-.25c.31-.14.61-.27.92-.41l-.67-.25c.31-.14.63-.28.95-.42l-.68-.26c.31-.14.63-.28.95-.42l-.68-.26c.31-.14.63-.28.95-.42l-.68-.26c.3-.14.61-.27.91-.41l-.66-.25.92-.41-.67-.25c.31-.14.61-.27.92-.41l-.67-.25c.31-.14.63-.28.95-.42l-.68-.26c.31-.14.63-.28.95-.42l-.68-.26c.31-.14.63-.28.95-.42l-.68-.26c.29-.13.58-.26.87-.39l-.63-.24c.31-.14.61-.27.92-.41l-.67-.25c.31-.14.61-.27.92-.41l-.67-.25c.31-.14.63-.28.95-.42l-.68-.26c.31-.14.63-.28.95-.42l-.68-.26c.31-.14.63-.28.95-.42l-.68-.26c.29-.13.57-.26.86-.39l-.62-.24c.31-.14.61-.27.92-.41l-.67-.25c.31-.14.61-.27.92-.41l-.67-.25c.31-.14.63-.28.95-.42l-.68-.26c-.95.2-1.9.41-2.85.61-4.37,1.24-8.74,2.48-13.11,3.73-1.17,12.92-2.34,25.85-3.51,38.77l2.69,1.03c.25-.11.5-.22.75-.33Zm-2.02-4.03l.3-.78c.18-.48.71-.71,1.19-.53s.71.71.53,1.19l-.3.78c-.18.48-.71.71-1.19.53s-.71-.71-.53-1.19Z"/><g><path class="cls-14" d="m171.6,22.76c-.39.65-.28,1.53.3,2.1-.52.44-1.36,1.16-2.41,2.07-.97.83-1.22,1.05-1.66,1.39-1.41,1.08-2.11,1.63-2.82,1.78-.45.1-1.52-.06-3.64-.39-1.05-.16-.79-.14-1.37-.22,0,0-1.29-.18-3.36-.71-.07-.02-.34-.09-.48-.29-.03-.05-.06-.1-.08-.15-.06-.15-.05-.29-.04-.35.02-.21.69-6.8,1.6-15.81.03-.33.13-.91.54-1.47.13-.17.26-.31.39-.42-.01.14-.02.34.02.58.13.71.61,1.18.92,1.49.72.69,1.06.61,1.26,1.11.14.36.24.98-.1,1.11-.22.08-.44.19-.67.25-1.13.33-1.75,1.13-1.96,2.24-.16.83-.27,1.68-.34,2.52-.04.53-.24,2.16-.34,3.22-.01.13-.04.43-.03.83,0,.35.01.58.05.74.17.68,1.19,1.5,2.04,1.25.62-.19,1.24-.39,1.87-.55.68-.18,1.35-.44,2.03-.64.79-.22,1.57-.49,2.39-.62.88-.14,1.53-.7,2.18-1.25.45-.38.89-.8,1.35-1.15.56-.42,1.09-.87,1.65-1.28.37-.28.77-.58,1-.99.27-.48.53-.97.63-1.53.33-1.7-.33-3.62-1.91-4.47-.65-.35-.7-1.27-.09-1.69.66-.46,1.31-.91,1.96-1.38.68-.48.93-.84.99-1.27.02-.13.03-.41.23-.58.12-.1.27-.12.38-.12.16.05.37.13.64.22.66.23.85.31.91.49.03.08.05.23.06.35,0,.1,0,.19,0,.25-.32,1.41-.54,2.56-.68,3.32-.34,1.86-.3,2.1-.65,3.96-.13.68-.15.72-.65,3.15-.18.88-.33,1.6-.42,2.08-.68-.09-1.35.22-1.69.79Z"/><path class="cls-20" d="m173.96,8.2c-.17.02-.27.12-.33.28-.04.12-.12.24-.14.37-.1.6-.53.95-.99,1.27-.65.46-1.31.92-1.96,1.38-.61.42-.56,1.34.09,1.69,1.57.85,2.24,2.77,1.91,4.47-.11.56-.37,1.05-.63,1.53-.23.41-.63.71-1,.99-.56.42-1.09.87-1.65,1.28-.47.35-.9.76-1.35,1.15-.65.55-1.3,1.11-2.18,1.25-.82.13-1.6.4-2.39.62-.68.19-1.35.45-2.03.64-.63.17-1.25.37-1.87.55-.78.23-1.83-.33-2.04-1.25-.07-.3-.1-.53-.09-.69.08-1.72.3-3.15.41-4.1.13-1.18.15-1.57.34-2.52.22-1.1.83-1.91,1.96-2.24.23-.07.45-.17.67-.25.36-.14.4-.85.1-1.11-.45-.41-1.02-.65-1.43-1.1-.41-.45-.72-.95-.9-1.53-.05-.16.1-.3,0-.44.31-.38.74-.26,1.14-.24.44.02.72.27.92.64.14.26.32.5.45.76.14.28.31.29.57.15,1.86-.98,3.83-1.62,5.94-1.81.95-.08,1.91-.12,2.87-.12.77,0,1.48-.21,2.09-.68.23-.18.43-.41.64-.62.29-.28.58-.54,1.03-.36-.05.02-.1.04-.14.05Zm-13.77,9.27c-.27.53-.32,1.47-.24,1.99.11.75.52,1.52,1.4,1.75.45.12.91.17,1.36.3.41.12.84.19,1.26.25.64.1,1.28.2,1.91.33.33.06.68.26,1.02,0,.34-.25.69-.47,1-.76.59-.55,1.24-1.03,1.87-1.54.48-.39.98-.74,1.43-1.16.53-.51.54-1.17.47-1.87-.14-1.36-1.36-2.13-2.59-1.56-.54.25-1.08.47-1.64.64-.85.26-1.71.48-2.6.55-.81.07-1.61.2-2.44.09-.36-.05-.77.01-1.15-.02-.39-.03-.65.17-.85.46-.09.14-.13.32-.21.52Z"/></g><circle class="cls-20" cx="164.49" cy="27.89" r=".98"/><circle class="cls-20" cx="159.14" cy="27.57" r=".63"/><circle class="cls-20" cx="169.23" cy="25.04" r=".63"/></g><path class="cls-9" d="m73.5,85.02s2.18,2.47-2.32,2.83c-5.97.48-27.12-1.71-13.92-5.13,9.15-2.37,16.23,2.29,16.23,2.29Z"/><g><path class="cls-6" d="m59.57,71.31c3.46,0,6.27.39,6.27.88s-2.81,3.12-6.27,3.12-6.27-2.64-6.27-3.12,2.81-.88,6.27-.88Z"/><polygon class="cls-10" points="52.29 54.65 56.99 74.29 59.95 74.07 55.13 54.49 52.29 54.65"/><path class="cls-12" d="m61.83,74.9c-.13.5-.63.79-1.13.67-.5-.13-.8-.63-.67-1.13,0-.04,3.3-12.8,3.86-14.27.78-2.04,1.92-1.83,3.22-1.61l.25.04c1.08.19,4.82,1.27,4.83,1.28.49.14-.2.56-.34,1.05-.14.49.31.87-.18.73-.01,0-3.65-1.06-4.62-1.23l-.25-.04c-.5-.09-.94-.16-1.17.44-.53,1.37-3.79,14.03-3.8,14.07Z"/><polygon class="cls-10" points="71.68 58.65 73.41 59.3 71.98 63.24 70.29 62.59 71.68 58.65"/><path class="cls-2" d="m57.67,80.54c-1.28.47-2.69-.18-3.17-1.46-.34-.92-.09-1.91.55-2.57l-3.88-10.41c-1.04-.06-1.99-.71-2.37-1.75-.38-1.04-.08-2.18.7-2.9l.84,2.27c.19.53.79.8,1.31.61h0c.53-.19.8-.79.61-1.31l-.84-2.27c1.05.04,2.03.71,2.41,1.75.38,1.04.08,2.15-.67,2.87l3.88,10.41c.92.09,1.75.68,2.09,1.6.47,1.28-.18,2.69-1.46,3.16h0Zm-.42-1.13c.65-.24.99-.96.75-1.62-.24-.65-.96-.99-1.62-.75-.65.24-.99.96-.75,1.62.24.65.96.99,1.62.75Z"/><path class="cls-12" d="m64.74,68.76l.08.02s.05,0,.08,0h0c.24-.03.53-.23.81-.56.3-.36.58-.85.78-1.42.23-.67.31-1.31.26-1.82-.05-.42-.19-.72-.4-.8h0c-.22-.08-.52.07-.82.38-.36.36-.69.91-.93,1.58h0c-.23.67-.31,1.32-.26,1.82.05.42.18.72.4.8h0Zm.13.64l-.88,3.09,2.3-2.21c-.17-.33-.18-.78-.02-1.27.17-.57.55-1.21,1.1-1.8.54-.59,1.16-1.02,1.71-1.24.62-.25,1.19-.23,1.55.1.36.33.42.9.23,1.54-.17.57-.55,1.21-1.1,1.8-.54.59-1.16,1.02-1.71,1.24-.49.2-.95.23-1.3.07l-3.13,3.01c-.08.08-.19.12-.31.08-.16-.05-.26-.22-.21-.38l1.19-4.21c-.31-.23-.5-.65-.56-1.18-.07-.59.02-1.33.29-2.09h0c.26-.76.65-1.4,1.07-1.82.46-.46.97-.68,1.43-.53l.06.02c.45.17.72.66.79,1.31.07.59-.02,1.33-.29,2.09h0c-.22.65-.54,1.21-.89,1.62-.38.45-.81.73-1.22.77h-.1Zm5.38-1.97c-.15.48-.48,1.04-.96,1.56-.48.52-1.01.9-1.48,1.08-.4.16-.73.18-.9.02-.17-.16-.18-.49-.05-.9.15-.48.48-1.04.96-1.56.48-.52,1.01-.9,1.48-1.08.4-.16.73-.18.9-.02.17.16.18.49.05.9Z"/><path class="cls-3" d="m65.84,85.03c0,.6-2.81,1.09-6.27,1.09s-6.27-.49-6.27-1.09v-12.84c0,.49,2.81.88,6.27.88s6.27-.39,6.27-.88v12.84Z"/><path class="cls-2" d="m63.3,85.91c-.63.08-1.35.14-2.13.18v-13.04c.78-.03,1.5-.08,2.13-.14v13.01Z"/></g><path class="cls-9" d="m184.21,169.38l-24.09-.09s-30.75-5.13-15-8.16,30.67,1.38,39.09,8.24"/><g><path class="cls-7" d="m141.15,131.53h33.58v31.49c0,1.94-7.52,3.52-16.79,3.52s-16.79-1.57-16.79-3.52v-31.49Z"/><path class="cls-2" d="m142.8,131.53h7.43v34.61c-3.23-.35-5.85-.91-7.43-1.6v-33.01Z"/><path class="cls-4" d="m157.78,129.57c2.06,0,4.02.04,5.84.12.06-1.13.99-2.03,2.14-2.03s2.14.96,2.14,2.14c0,.06,0,.11,0,.17,3.97.36,6.52.92,6.52,1.56,0,1.09-7.45,1.97-16.64,1.97s-16.64-.88-16.64-1.97,7.45-1.97,16.64-1.97Z"/><path class="cls-3" d="m171.17,136.6c-3.07.46-7.86.76-13.23.76s-10.16-.3-13.23-.76c-2.23-.33-3.55-.75-3.55-1.21v2.42c0,1.09,7.52,1.97,16.79,1.97s16.79-.88,16.79-1.97v-2.42c0,.46-1.33.88-3.55,1.21Z"/><path class="cls-8" d="m150.22,137.13c-2.16-.13-4.04-.31-5.52-.54-.74-.11-1.38-.23-1.9-.36v2.42c1.58.38,4.2.7,7.43.9v-2.42Z"/><path class="cls-7" d="m152.91,135.55c1.18,0,2.14-.96,2.14-2.14s-.96-2.14-2.14-2.14-2.14.96-2.14,2.14.96,2.14,2.14,2.14Z"/><path class="cls-5" d="m152.58,133.69c-.16-.18-.14-.45.04-.6.18-.16.45-.14.6.04.02.03,7.88,9.01,15.36,12.3,2.41,1.06,4.21,1.48,5.4,1.36.57-.06.98-.24,1.23-.52.24-.28.35-.7.31-1.22-.05-.66-.31-1.47-.79-2.41v-1.71c1.02,1.6,1.57,2.99,1.64,4.06.05.76-.12,1.38-.51,1.84-.39.46-.99.74-1.8.82-1.33.13-3.27-.3-5.82-1.43-7.65-3.37-15.63-12.49-15.65-12.52Z"/><path class="cls-3" d="m174.73,156.88v6.14c0,1.94-7.52,3.52-16.79,3.52s-16.79-1.57-16.79-3.52v-6.53c1.16.59,2.98,1.12,5.6.89,5.22-.45,8.24-7.11,14.37-7.18,5.66-.07,7.57,5.73,13.61,6.67Z"/><path class="cls-2" d="m150.22,166.15c-3.23-.35-5.85-.91-7.43-1.6v-7.43c1.04.27,2.34.42,3.94.28,1.26-.11,2.4-.58,3.48-1.24v10Z"/></g><g><path class="cls-2" d="m154.06,8.29s-19.22,10.16-10.73,15.86c8.49,5.7,10.73-15.86,10.73-15.86Z"/><path class="cls-3" d="m141.49,19.11c-.69,1.81-.35,3.58,1.84,5.05,8.49,5.7,10.73-15.86,10.73-15.86,0,0-2.54,11.04-6.33,14.07-2.65,2.11-5.04-1.11-6.24-3.25Z"/><path class="cls-12" d="m144.1,21.66c.24-.35.71-.45,1.06-.21s.45.71.21,1.07l-4.11,6.12c-.24.35-.71.45-1.07.21s-.45-.71-.21-1.06l4.11-6.12Z"/><path class="cls-10" d="m139.35,27.81c1.28-.14,2.09.23,2.14,1.43l-4.59,7.68c-.5.83-1.64,1.02-2.44.48h0c-.8-.54-1.06-1.67-.48-2.44,1.79-2.38,3.58-4.77,5.37-7.15Z"/><path class="cls-12" d="m142.3,26.61l.54.36-5.94,9.95c-.5.83-1.64,1.02-2.44.48h0c-.65-.44-.94-1.25-.73-1.96.36.55.9,1.03,1.39,1.2.79.28,5.77-7.74,7.17-10.04Z"/><polygon class="cls-10" points="140.94 25.69 142.84 26.97 141.48 29.24 139.35 27.81 140.94 25.69"/><path class="cls-12" d="m142.3,26.61l.54.36-1.36,2.27-.58-.39c.59-.93,1.08-1.73,1.39-2.24Z"/></g><g><path class="cls-10" d="m117.22,53.11c-.67-.48-.81-1.41-.33-2.08.48-.67,1.41-.81,2.08-.33l10.48,7.6c.67.48.81,1.41.33,2.08-.48.67-1.41.81-2.08.33l-10.48-7.6Z"/><path class="cls-10" d="m122.62,41.73l-23.21,29.82,45.36-15.43-22.15-14.39h0Zm2.1,5.67l9.9,6.79-23.7,9.63,13.8-16.42Z"/></g><g><polygon class="cls-2" points="105.3 50.63 92.69 44.3 92.74 48.94 103.45 54.32 105.3 50.63"/><polygon class="cls-10" points="92.69 44.3 79.07 71.42 82.75 73.27 94.52 49.84 92.69 44.3"/></g><g><path class="cls-2" d="m188.15,13.15c.61-.44,3.85.96,3.37,4.6-.48,3.63-3.12,1.04-6.53,9.15-3.41,8.11-2.85,17.56-2.8,19.39.04,1.84-1.18,1.71-1.49-.79-.31-2.5.26-12.35,1.53-17.29,1.27-4.95,3.07-7.66,4.34-8.84,1.27-1.18,3.77-1.44,1.58-6.22Z"/><path class="cls-10" d="m188.15,13.15c.61-.44,3.85.96,3.37,4.6-.48,3.63-3.12,1.04-6.53,9.15-3.41,8.11-2.85,17.56-2.8,19.39.03,1.3-.57,1.61-1.04.81.2-.24.38-.6.5-1.14.48-2.15-.57-12.17,2.32-18.52,1.66-3.65,1.28-5,.66-5.49.69-1.21,1.36-2.05,1.93-2.58.31-.29.69-.52,1.07-.78.64.61,1.62,1.22,2.47.45,1.41-1.28.94-4.89-1.96-5.88Z"/><path class="cls-2" d="m186.42,13.15c-.58-.44-3.93.96-3.73,4.6.2,3.63,3.04,1.04,5.82,9.15,2.78,8.11,1.49,17.56,1.3,19.39-.19,1.84,1.05,1.71,1.55-.79.5-2.5.69-12.35-.19-17.29-.89-4.95-2.47-7.66-3.65-8.84-1.18-1.18-3.65-1.44-1.1-6.22Z"/><path class="cls-11" d="m190.17,47.53c.36.06.9-.59,1.19-2.03.5-2.5.69-12.35-.19-17.29-.89-4.95-2.47-7.66-3.65-8.84-1.18-1.18-3.65-1.44-1.1-6.22,0,0-2.86,3.18-1.61,4.96,1.25,1.78,3.28.48,5.74,9.63,1.89,7.05.79,16.23-.38,19.79Z"/></g><g><path class="cls-10" d="m126.09,30.71c-1.19.94-2.18,1.74-2.68,2.14-1.88,1.54-3.21.78-4.02.72-.81-.07-3.7,5.86-4.73,7.63-1.03,1.78-2,2.74-3.13,2.05s-.72-1.99.38-3.73c1.1-1.73,5.02-7.03,4.59-7.72-.43-.69-1.72-1.51-1.22-3.89.13-.63.38-1.87.67-3.36,3.95,1.3,7.43,3.22,10.13,6.15Z"/><path class="cls-12" d="m126.09,30.71c-1.19.94-2.18,1.74-2.68,2.14-1.88,1.54-3.21.78-4.02.72-.81-.07-3.7,5.86-4.73,7.63-1.03,1.78-2,2.74-3.13,2.05-.58-.35-.75-.86-.64-1.5.37.53.88.93,1.45.9,1.07-.06,4.21-6.93,5.12-8.24.91-1.31,1.58-2.03,2.84-2.11,1.25-.09,4.25-3.08,4.25-3.08.54.47,1.05.96,1.54,1.49Z"/><path class="cls-3" d="m117.91,14.29l8.19,4.97,8.19,4.97s-4.88,3.83-8.2,6.47l-10.13-6.15c.81-4.16,1.95-10.26,1.95-10.26Z"/><path class="cls-2" d="m117.91,14.29l8.19,4.97,6.87,4.17c-6.06,4.75-13.41,1.49-16.72-.45.76-3.97,1.65-8.7,1.65-8.7Z"/></g><g><path class="cls-10" d="m99.14,21.25c-.54,1.02-.98,1.82-1.21,2.19-1.01,1.6-3.55,1.42-5.05,3.09-1.5,1.67-3.86,9.02-4.33,10.54-1.22,3.97-5.82,1.8-3.53-1.67.88-1.33,5.06-7.82,5.4-10.04.34-2.21-1.42-4.06-.82-5.86.14-.41.48-1.26.92-2.32,3.41.57,6.41,1.75,8.61,4.07Z"/><path class="cls-12" d="m99.14,21.25c-.54,1.02-.98,1.82-1.21,2.19-1.01,1.6-3.55,1.42-5.05,3.09-1.5,1.67-3.86,9.02-4.33,10.54-.98,3.19-4.13,2.42-4.16.2,3.24,2.4,4.97-5.45,6.24-8.13,1.33-2.81,1.93-4.71,3.96-5.63,2.04-.93,2.99-3.62,2.99-3.62.55.4,1.07.86,1.55,1.37Z"/><path class="cls-2" d="m94.69,7.57c10.16,4.8-.93-.44,9.23,4.36,0,0-2.96,5.88-4.78,9.31l-8.61-4.07c1.5-3.58,4.16-9.61,4.16-9.61Z"/><path class="cls-3" d="m102.97,11.49l.95.45s-2.96,5.88-4.78,9.31l-8.61-4.07.47-1.11c2.54.46,8.12.72,11.98-4.58Z"/></g><g><path class="cls-12" d="m190.25,75.05c.83.04,1.27-2.93.88-6.26-.39-3.33-2.98-10.51-2.98-10.51,0,0-1.08.31-2.23.99.12.15.22.3.3.46.57,1.09,2.23,5.56,4.03,15.32Z"/><path class="cls-5" d="m190.25,75.05c.83.04,1.27-2.93.88-6.26-.39-3.33-2.98-10.51-2.98-10.51,0,0-1.08.31-2.23.99.12.15.22.3.3.46.13.24.3.65.53,1.24.31-.47.79-.95,1.37-.57.98.65,4.01,11.4,2.14,14.65Z"/><path class="cls-2" d="m182.67,75.05c-.83.04-1.27-2.93-.88-6.26.39-3.33,2.98-10.51,2.98-10.51,0,0-1.23-.74-1.05-1.71s2.54-9.98,3.07-9.85c.53.13,2.1,11.03,2.1,11.03,0,0-1.62.87-2.19,1.97-.57,1.09-2.23,5.56-4.03,15.32Z"/><path class="cls-12" d="m186.79,46.73c.53.13,2.1,11.03,2.1,11.03,0,0-1.62.87-2.19,1.97-.57,1.09-2.23,5.56-4.03,15.32-1.24-3.86,3.14-16.42,4.22-17.81,1.08-1.38-.1-10.52-.1-10.52Z"/></g><path class="cls-2" d="m36.96,15.24c1.47,0,2.66,1.19,2.66,2.66,0,1.06-.62,1.98-1.52,2.4v19.95c1.03.44,1.75,1.47,1.75,2.66s-.74,2.24-1.79,2.68v-2.62c0-.61-.5-1.1-1.11-1.1h0c-.61,0-1.11.5-1.11,1.1v2.62c-1.05-.43-1.79-1.47-1.79-2.68s.72-2.21,1.75-2.66v-19.95c-.9-.43-1.52-1.34-1.52-2.4,0-1.47,1.19-2.66,2.66-2.66h0Zm0,1.3c-.75,0-1.36.61-1.36,1.36s.61,1.36,1.36,1.36,1.36-.61,1.36-1.36-.61-1.36-1.36-1.36Z"/><path class="cls-2" d="m53.41,15.78c1.47,0,2.66,1.19,2.66,2.66,0,1.06-.62,1.98-1.52,2.4v15.63c1.03.44,1.75,1.46,1.75,2.66s-.74,2.24-1.79,2.68v-2.62c0-.61-.5-1.1-1.11-1.1h0c-.61,0-1.11.5-1.11,1.1v2.62c-1.05-.43-1.79-1.48-1.79-2.68s.72-2.21,1.75-2.66v-15.63c-.9-.43-1.52-1.34-1.52-2.4,0-1.47,1.19-2.66,2.66-2.66h0Zm0,1.3c-.75,0-1.36.61-1.36,1.36s.61,1.36,1.36,1.36,1.36-.61,1.36-1.36-.61-1.36-1.36-1.36Z"/><path class="cls-2" d="m70.14,15.43c1.47,0,2.66,1.19,2.66,2.66,0,1.06-.62,1.98-1.52,2.4v13.76c1.03.44,1.75,1.46,1.75,2.66s-.74,2.24-1.79,2.68v-2.61c0-.61-.5-1.1-1.11-1.1h0c-.61,0-1.11.5-1.11,1.1v2.61c-1.05-.43-1.79-1.48-1.79-2.68s.72-2.21,1.75-2.66v-13.76c-.9-.43-1.52-1.34-1.52-2.4,0-1.47,1.19-2.66,2.66-2.66h0Zm0,1.3c-.75,0-1.36.61-1.36,1.36s.61,1.36,1.36,1.36,1.36-.61,1.36-1.36-.61-1.36-1.36-1.36Z"/><path class="cls-2" d="m45.13,15.64c1.47,0,2.66,1.19,2.66,2.66,0,1.06-.62,1.98-1.52,2.4v17.63c1.03.44,1.75,1.46,1.75,2.66s-.74,2.24-1.79,2.68v-2.61c0-.61-.5-1.1-1.11-1.1h0c-.61,0-1.11.5-1.11,1.1v2.61c-1.05-.43-1.79-1.48-1.79-2.68s.72-2.21,1.75-2.66v-17.63c-.9-.43-1.52-1.34-1.52-2.4,0-1.47,1.19-2.66,2.66-2.66h0Zm0,1.3c-.75,0-1.36.61-1.36,1.36s.61,1.36,1.36,1.36,1.36-.61,1.36-1.36-.61-1.36-1.36-1.36Z"/><path class="cls-2" d="m61.65,15.88c1.47,0,2.66,1.19,2.66,2.66,0,1.06-.62,1.98-1.52,2.4v14.72c1.03.44,1.75,1.46,1.75,2.66s-.74,2.24-1.79,2.68v-2.61c0-.61-.5-1.1-1.11-1.1h0c-.61,0-1.11.5-1.11,1.1v2.61c-1.05-.43-1.79-1.48-1.79-2.68s.72-2.21,1.75-2.66v-14.72c-.9-.43-1.52-1.34-1.52-2.4,0-1.47,1.19-2.66,2.66-2.66h0Zm0,1.3c-.75,0-1.36.61-1.36,1.36s.61,1.36,1.36,1.36,1.36-.61,1.36-1.36-.61-1.36-1.36-1.36Z"/><path class="cls-2" d="m78.14,15.24c1.47,0,2.66,1.19,2.66,2.66,0,1.06-.62,1.98-1.52,2.4l.04,12c1.03.44,1.75,1.46,1.75,2.66s-.74,2.24-1.79,2.68v-2.61c0-.61-.5-1.1-1.11-1.1h0c-.61,0-1.11.5-1.11,1.1v2.61c-1.05-.43-1.79-1.48-1.79-2.68s.72-2.21,1.75-2.66l-.04-12c-.9-.43-1.52-1.34-1.52-2.4,0-1.47,1.19-2.66,2.66-2.66h0Zm0,1.3c-.75,0-1.36.61-1.36,1.36s.61,1.36,1.36,1.36,1.36-.61,1.36-1.36-.61-1.36-1.36-1.36Z"/></g></svg>