<?xml version="1.0" encoding="UTF-8"?>
<svg id="Calque_2" data-name="Calque 2" xmlns="http://www.w3.org/2000/svg" viewBox="0 0 130.34 153.15">
  <defs>
    <style>
      .cls-1 {
        fill: #fff;
      }

      .cls-2 {
        fill: #dbdbdb;
      }

      .cls-3 {
        fill: #f5f5f5;
      }

      .cls-4 {
        fill: #e5e5e5;
      }

      .cls-5 {
        fill: #6f6f6e;
      }

      .cls-6 {
        fill: none;
        stroke: #6f6f6e;
        stroke-linecap: round;
        stroke-linejoin: round;
        stroke-width: .5px;
      }

      .cls-7 {
        fill: #b1b1b1;
      }

      .cls-8 {
        fill: #efefef;
      }

      .cls-9 {
        fill: #d9d9d9;
      }

      .cls-10 {
        opacity: .17;
      }

      .cls-11 {
        fill: #878786;
      }

      .cls-12 {
        fill: #c6c6c5;
      }
    </style>
  </defs>
  <g id="Etagère">
    <g id="Etagère_blanc" data-name="Etagère blanc">
      <polygon class="cls-3" points="117.25 3.99 12.2 4.26 0 0 105.89 0 117.25 3.99"/>
      <g>
        <polyline class="cls-1" points="8.93 130.82 10.6 151.57 11.68 153.15 13.72 140.9 12.46 137.07"/>
        <polyline class="cls-7" points="19.34 139.9 15.24 153.15 11.68 153.15 12.13 139.07 19.34 139.07"/>
      </g>
      <polyline class="cls-4" points="109.93 139.9 114.03 153.15 117.6 153.15 117.14 139.07 109.93 139.07"/>
      <path class="cls-1" d="m2.12,130.12c3.41,3.08,6.82,6.16,10.24,9.24l-.24-135.37C8.08,2.66,4.04,1.33,0,0c0,20.1,0,40.2,0,60.3.73.26,1.46.51,2.18.77-.02,23.02-.04,46.03-.06,69.05Z"/>
      <rect class="cls-5" x="13.49" y="60.35" width="101.76" height="54.98"/>
      <rect class="cls-2" x="13.49" y="115.33" width="101.76" height="22.45"/>
      <polygon class="cls-11" points="64.06 60.41 63.19 5.49 12.87 5.49 12.87 115.33 115.25 115.33 115.25 60.35 64.06 60.41"/>
      <rect class="cls-12" x="13.49" y="46.13" width="101.76" height="15.64"/>
      <polygon class="cls-7" points="114.19 136.16 89.38 120.3 89.38 37.57 114.19 59.02 114.19 136.16"/>
      <g>
        <path class="cls-12" d="m67.61,121.84h16.73c3.78,3.47,7.55,6.94,11.33,10.41h-16.73c-3.78-3.47-7.55-6.94-11.33-10.41Z"/>
        <rect class="cls-12" x="67.61" y="70.75" width="16.73" height="51.09"/>
        <path class="cls-1" d="m84.34,70.75c.65.59,1.59,1.51,2.54,2.78,3.44,4.6,3.83,9.47,4.24,12.6.54,4.19,1.72,10.06,4.55,17.49v28.63c-3.78-3.47-7.55-6.94-11.33-10.41v-51.09Z"/>
        <g>
          <path class="cls-12" d="m84.61,119.92c.57.52,1.15,1.04,1.72,1.56,3.08,2.79,6.15,5.59,9.23,8.38v-23.41c-3.65-3.39-7.3-6.78-10.94-10.17v23.64Z"/>
          <path class="cls-9" d="m81.73,119.92c.57.52,1.15,1.04,1.72,1.56,3.08,2.79,6.15,5.59,9.23,8.38v-23.41c-3.65-3.39-7.3-6.78-10.94-10.17v23.64Z"/>
          <path class="cls-12" d="m79.13,119.92c.57.52,1.15,1.04,1.72,1.56,3.08,2.79,6.15,5.59,9.23,8.38v-23.41c-3.65-3.39-7.3-6.78-10.94-10.17v23.64Z"/>
          <path class="cls-9" d="m76.25,119.92c.57.52,1.15,1.04,1.72,1.56,3.08,2.79,6.15,5.59,9.23,8.38v-23.41c-3.65-3.39-7.3-6.78-10.94-10.17v23.64Z"/>
          <path class="cls-12" d="m84.61,107.87c.57.52,1.15,1.04,1.72,1.56,3.08,2.79,6.15,5.59,9.23,8.38v-23.41c-3.65-3.39-7.3-6.78-10.94-10.17v23.64Z"/>
          <path class="cls-12" d="m79.13,107.87c.57.52,1.15,1.04,1.72,1.56,3.08,2.79,6.15,5.59,9.23,8.38v-23.41c-3.65-3.39-7.3-6.78-10.94-10.17v23.64Z"/>
          <path class="cls-9" d="m76.25,107.87c.57.52,1.15,1.04,1.72,1.56,3.08,2.79,6.15,5.59,9.23,8.38v-23.41c-3.65-3.39-7.3-6.78-10.94-10.17v23.64Z"/>
        </g>
        <path class="cls-3" d="m78.94,103.62v28.63h16.73v-28.63h-16.73Zm8.39,23.25c-2.08,0-3.77-1.69-3.77-3.77s1.69-3.77,3.77-3.77,3.77,1.69,3.77,3.77-1.69,3.77-3.77,3.77Z"/>
        <rect class="cls-12" x="81.3" y="106.29" width="12.05" height="7.72"/>
        <path class="cls-1" d="m67.61,70.75c.65.59,1.59,1.51,2.54,2.78,3.44,4.6,3.83,9.47,4.24,12.6.54,4.19,1.72,10.06,4.55,17.49v28.63c-3.78-3.47-7.55-6.94-11.33-10.41v-51.09Z"/>
        <path class="cls-12" d="m47.48,121.84h16.73c3.78,3.47,7.55,6.94,11.33,10.41h-16.73c-3.78-3.47-7.55-6.94-11.33-10.41Z"/>
        <rect class="cls-7" x="47.48" y="70.75" width="16.73" height="51.09"/>
        <path class="cls-1" d="m64.21,70.75c.65.59,1.59,1.51,2.54,2.78,3.44,4.6,3.83,9.47,4.24,12.6.54,4.19,1.72,10.06,4.55,17.49v28.63c-3.78-3.47-7.55-6.94-11.33-10.41v-51.09Z"/>
        <g>
          <path class="cls-12" d="m64.47,119.92c.57.52,1.15,1.04,1.72,1.56,3.08,2.79,6.15,5.59,9.23,8.38v-23.41c-3.65-3.39-7.3-6.78-10.94-10.17v23.64Z"/>
          <path class="cls-9" d="m61.59,119.92c.57.52,1.15,1.04,1.72,1.56,3.08,2.79,6.15,5.59,9.23,8.38v-23.41c-3.65-3.39-7.3-6.78-10.94-10.17v23.64Z"/>
          <path class="cls-12" d="m59,119.92c.57.52,1.15,1.04,1.72,1.56,3.08,2.79,6.15,5.59,9.23,8.38v-23.41c-3.65-3.39-7.3-6.78-10.94-10.17v23.64Z"/>
          <path class="cls-9" d="m56.11,119.92c.57.52,1.15,1.04,1.72,1.56,3.08,2.79,6.15,5.59,9.23,8.38v-23.41c-3.65-3.39-7.3-6.78-10.94-10.17v23.64Z"/>
          <path class="cls-12" d="m64.47,107.87c.57.52,1.15,1.04,1.72,1.56,3.08,2.79,6.15,5.59,9.23,8.38v-23.41c-3.65-3.39-7.3-6.78-10.94-10.17v23.64Z"/>
          <path class="cls-9" d="m61.59,107.87c.57.52,1.15,1.04,1.72,1.56,3.08,2.79,6.15,5.59,9.23,8.38v-23.41c-3.65-3.39-7.3-6.78-10.94-10.17v23.64Z"/>
        </g>
        <path class="cls-3" d="m58.8,103.62v28.63h16.73v-28.63h-16.73Zm8.39,23.25c-2.08,0-3.77-1.69-3.77-3.77s1.69-3.77,3.77-3.77,3.77,1.69,3.77,3.77-1.69,3.77-3.77,3.77Z"/>
        <rect class="cls-12" x="61.17" y="106.29" width="12.05" height="7.72"/>
        <path class="cls-1" d="m47.48,70.75c.65.59,1.59,1.51,2.54,2.78,3.44,4.6,3.83,9.47,4.24,12.6.54,4.19,1.72,10.06,4.55,17.49v28.63c-3.78-3.47-7.55-6.94-11.33-10.41v-51.09Z"/>
      </g>
      <polygon class="cls-12" points="114.19 60.16 92.41 47.52 92.41 6.92 114.19 5.49 114.19 60.16"/>
      <polygon class="cls-7" points="63.19 60.16 41.41 47.52 41.41 6.92 63.19 5.49 63.19 60.16"/>
      <polygon class="cls-1" points="20.33 34.55 56.67 34.55 56.67 40.24 56.27 40.61 56.67 40.99 56.67 57.04 20.33 57.04 20.33 34.55"/>
      <polygon class="cls-7" points="20.33 34.55 15.72 31.31 15.72 51.99 20.33 57.04 20.33 34.55"/>
      <polygon class="cls-9" points="20.38 34.55 56.67 34.55 44.07 31.31 15.72 31.31 20.38 34.55"/>
      <polygon class="cls-5" points="20.33 40.99 56.67 40.99 56.33 40.61 56.67 40.24 20.33 40.24 20.33 40.99"/>
      <polyline class="cls-5" points="15.72 36.49 20.33 40.35 20.33 41 15.72 37.11"/>
      <rect class="cls-9" x="30.06" y="44.3" width="16.97" height="6.85"/>
      <rect class="cls-1" x="33.23" y="45.94" width="10.63" height="3.57"/>
      <rect class="cls-11" x="64.63" y="5.49" width="33.26" height="33.26"/>
      <path class="cls-10" d="m0,41.44c4.92,1.93,6.72,4.34,7.42,6.29,1.65,4.61-1.11,11.62-1.11,11.62h0l5.81,2.01v77.92c-.15,4.63-.29,9.25-.44,13.88-3.14-2.9-6.27-5.8-9.41-8.7-.04-1.69-.08-4.17-.12-7.17-.04-3.54-.03-6.19-.03-7.16.02-23.02.04-46.03.06-69.05-.73-.26-1.46-.51-2.18-.77,0-6.29,0-12.57,0-18.86Z"/>
      <g>
        <polygon class="cls-4" points="115.75 137.77 115.75 136.27 15.12 136.27 15.12 6.99 114.25 6.99 114.25 137.77 115.75 137.77 115.75 136.27 115.75 137.77 117.25 137.77 117.25 3.99 12.12 3.99 12.12 139.27 117.25 139.27 117.25 137.77 115.75 137.77"/>
        <polyline class="cls-4" points="13.14 62.45 115.75 62.45 115.75 59.45 13.14 59.45"/>
        <polyline class="cls-4" points="61.63 5.49 61.63 60.35 64.63 60.35 64.63 5.49"/>
      </g>
      <g>
        <polyline class="cls-7" points="65.57 15.01 80.17 15.01 84.19 18.84 113.19 18.84 113.19 57.48 65.57 57.48 65.57 15.01"/>
        <rect class="cls-1" x="66.57" y="16.26" width="13.46" height="2"/>
      </g>
      <g>
        <polyline class="cls-1" points="68.06 16.75 82.65 16.75 86.68 20.58 115.68 20.58 115.68 59.22 68.06 59.22 68.06 16.75"/>
        <rect class="cls-4" x="69.05" y="18" width="13.46" height="2"/>
        <rect class="cls-1" x="70.45" y="22.33" width="43.13" height="32.38"/>
      </g>
      <g>
        <polyline class="cls-7" points="72.16 18.4 86.76 18.4 90.78 22.23 119.78 22.23 119.78 60.87 72.16 60.87 72.16 18.4"/>
        <rect class="cls-1" x="73.16" y="19.65" width="13.46" height="2"/>
        <rect class="cls-1" x="74.56" y="23.98" width="43.13" height="32.38"/>
        <rect class="cls-7" x="72.16" y="26.12" width="47.62" height="34.75"/>
      </g>
      <g>
        <polyline class="cls-4" points="75.98 21.09 90.57 21.09 94.6 24.92 123.6 24.92 123.6 63.55 75.98 63.55 75.98 21.09"/>
        <rect class="cls-7" x="76.98" y="22.34" width="13.46" height="2"/>
        <rect class="cls-1" x="78.37" y="26.66" width="43.13" height="32.38"/>
      </g>
      <polygon class="cls-1" points="84.07 37.99 64.66 28.07 64.71 26.08 86.62 37.53 84.07 37.99"/>
      <polygon class="cls-7" points="79.03 65.63 64.63 56.95 64.63 27.26 84.07 37.99 79.03 65.63"/>
      <polygon class="cls-5" points="84.07 51.03 64.63 41.23 64.63 40.71 87.05 52 84.07 51.03"/>
      <polygon class="cls-5" points="84.07 57.03 64.63 47.23 64.63 46.71 87.05 58 84.07 57.03"/>
      <polygon class="cls-12" points="79.03 65.85 81.03 67.29 128.34 65.85 128.34 28.69 81.03 24.88 79.03 23.7 79.03 65.85"/>
      <polygon class="cls-1" points="79.03 23.7 126.78 23.49 130.34 24.88 81.03 24.88 79.03 23.7"/>
      <rect class="cls-8" x="81.03" y="24.88" width="49.31" height="42.41"/>
      <g>
        <g>
          <path class="cls-1" d="m125.78,57.12v-.04c0-.71-.77-1.29-1.72-1.29h-8.55c-.94,0-1.72.58-1.72,1.29v.04h11.98Z"/>
          <path class="cls-12" d="m124.06,55.8h-1.18c.56.28.74.3,1.01.61.19.22.27.35.2.71h1.69v-.04c0-.71-.77-1.29-1.72-1.29Z"/>
        </g>
        <g>
          <path class="cls-1" d="m125.78,59.11v-.04c0-.71-.77-1.29-1.72-1.29h-8.55c-.94,0-1.72.58-1.72,1.29v.04h11.98Z"/>
          <path class="cls-12" d="m124.06,57.79h-1.18c.56.28.74.3,1.01.61.19.22.27.35.2.71h1.69v-.04c0-.71-.77-1.29-1.72-1.29Z"/>
        </g>
        <g>
          <path class="cls-1" d="m125.78,61.1v-.04c0-.71-.77-1.29-1.72-1.29h-8.55c-.94,0-1.72.58-1.72,1.29v.04h11.98Z"/>
          <path class="cls-12" d="m124.06,59.78h-1.18c.56.28.74.3,1.01.61.19.22.27.35.2.71h1.69v-.04c0-.71-.77-1.29-1.72-1.29Z"/>
        </g>
        <g>
          <path class="cls-1" d="m125.78,63.09v-.04c0-.71-.77-1.29-1.72-1.29h-8.55c-.94,0-1.72.58-1.72,1.29v.04h11.98Z"/>
          <path class="cls-12" d="m124.06,61.77h-1.18c.56.28.74.3,1.01.61.19.22.27.35.2.71h1.69v-.04c0-.71-.77-1.29-1.72-1.29Z"/>
        </g>
      </g>
      <rect class="cls-7" x="87.05" y="38.52" width="9.01" height="6.64" rx="2.27" ry="2.27"/>
      <path class="cls-6" d="m86.09,44.26c-.16-1.55.98-2.82,2.54-2.82h5.8c1.56,0,2.97,1.27,3.14,2.82l.27,2.44c.17,1.55-.9,2.4-2.37,1.89l-.38-.13c-1.47-.51-3.86-.46-5.31.11l-.46.18c-1.45.57-2.77-.23-2.94-1.78l-.29-2.7Z"/>
      <rect class="cls-5" x="88.28" y="39.99" width="6.55" height="3.5"/>
    </g>
  </g>
</svg>