<?xml version="1.0" encoding="UTF-8"?><svg id="Layer_2" xmlns="http://www.w3.org/2000/svg" viewBox="0 0 91.6 55.84"><defs><style>.cls-1{fill:#555;}.cls-2,.cls-3,.cls-4,.cls-5{fill:#fff;}.cls-6{fill:#848484;}.cls-7{fill:#9c9c9c;}.cls-8{fill:#d4d4d1;}.cls-9{fill:#d5d6d8;}.cls-3{opacity:.29;}.cls-10{fill:#b6b6b6;}.cls-4{opacity:.08;}.cls-5{opacity:.15;}</style></defs><g id="plaque"><polygon class="cls-8" points="90.63 55.84 0 55.84 13.29 36.64 91.6 36.64 90.63 55.84"/><path class="cls-2" d="m85.25,53.12H10.22c-1.46,0-2.33-1.61-1.54-2.84l6.72-10.4c.34-.52.92-.84,1.54-.84h68.96c1.06,0,1.9.9,1.83,1.95l-.66,10.4c-.06.97-.86,1.72-1.83,1.72Z"/><g><ellipse class="cls-9" cx="73.95" cy="43.81" rx="8.37" ry="2.43"/><ellipse class="cls-10" cx="74.14" cy="43.89" rx="5.63" ry="1.76"/><ellipse class="cls-7" cx="73.95" cy="43.89" rx="3.95" ry="1.23"/></g><g><ellipse class="cls-9" cx="31.17" cy="45.76" rx="15.97" ry="4.64"/><ellipse class="cls-10" cx="31.53" cy="45.91" rx="10.75" ry="3.35"/><ellipse class="cls-7" cx="31.17" cy="45.91" rx="7.54" ry="2.35"/></g><g><ellipse class="cls-9" cx="58.05" cy="48.59" rx="8.37" ry="2.43"/><ellipse class="cls-10" cx="58.24" cy="48.67" rx="5.63" ry="1.76"/><ellipse class="cls-7" cx="58.05" cy="48.67" rx="3.95" ry="1.23"/></g><path class="cls-2" d="m49.4,32.43s18.65-5.28,20.7-4.73c2.05.55,3.23,2.68,1.67,3.42-1.57.74-22.7,3.57-22.7,3.57l.33-2.26Z"/><path class="cls-8" d="m71.32,28.27c.03.27-.04.56-.18.8-.24.42-.66.73-1.1.98-1.49.85-3.28,1.12-5.02,1.37-1.55.23-3.1.45-4.65.68-2.83.41-5.66.83-8.49,1.24-.85.12-2.18.06-2.72.79,0,0,0,0,0,0l-.08.55s21.13-2.83,22.7-3.57c1.22-.57.78-1.99-.45-2.85Z"/><path class="cls-3" d="m50.68,32.9c.42.55.95,1.03,1.57,1.39-.89.06-1.77.22-2.62.47-.05.02-.43-1.98-.32-2.21.09-.19.39-.26.59-.3.37-.07.59.4.78.64Z"/><path class="cls-1" d="m43.41,33.01c-.16.54-.26,1.8.42,2.02.32.1.4,1.34.59,1.59.09.13.25.25.44.26.2.01.38-.09.47-.22.09-.13.1-.27.12-.41.12-1.37.14-2.75.06-4.12-.04-.76-1.85.06-2.1.89Z"/><path class="cls-6" d="m49.58,32.02c.27.89.43,1.82.45,2.74-1.64.42-3.3.78-4.97,1.09-.26-.44-.48-.91-.58-1.41-.25-1.31.31-1.46,1.52-1.7.3-.06,3.57-.75,3.58-.72Z"/><path class="cls-2" d="m44.85,33.83s.02.08.06.11c.05.03.12.02.18,0,1.26-.28,2.52-.56,3.78-.85.11-.03.23-.05.32-.12.09-.06.15-.18.11-.28-.04-.09-.15-.15-.26-.15-.11,0-.21.03-.32.06-.85.26-1.74.41-2.63.46-.49.03-1.39.09-1.24.76Z"/><path class="cls-2" d="m46.77,43.41c0,.55-.2,1.09-.58,1.52-1.37,1.55-5.4,4.92-14.43,4.92-10.23,0-14.4-3.32-15.8-4.89-.39-.43-.6-.97-.6-1.53l.09-12.87h31.33v12.85Z"/><path class="cls-8" d="m46.18,44.92c.38-.43.58-.96.58-1.52v-12.85h-9.59c-.46.92-.6,1.95-.28,2.93.18-.02.37-.04.55-.06l1.37-.07c.93,2.03,1.68,4.14,1.91,6.33.14,1.37.07,2.78-.43,4.08-.49,1.3-1.44,2.48-2.75,3.15-.99.51-2.14.69-3.26.85-3.69.5-7.51.71-11.1-.21-3.22-.82-6.24-2.66-7.84-5.31v1.18c0,.56.21,1.1.6,1.53,1.4,1.56,5.57,4.89,15.8,4.89,9.04,0,13.06-3.37,14.43-4.92Z"/><path class="cls-6" d="m31.75,48.81c-10.23,0-14.4-3.32-15.8-4.89-.39-.43-.6-.97-.6-1.53v1.03c0,.56.21,1.1.6,1.53,1.4,1.56,5.57,4.89,15.8,4.89,9.04,0,13.06-3.37,14.43-4.92.38-.43.58-.96.58-1.52v-1.03c0,.55-.2,1.09-.58,1.52-1.37,1.55-5.4,4.92-14.43,4.92Z"/><path class="cls-2" d="m46.83,30.55c0,2.82-7.03,5.4-15.71,5.4s-15.71-2.28-15.71-5.1,7.03-5.1,15.71-5.1,15.71,1.98,15.71,4.79Z"/><ellipse class="cls-6" cx="31.12" cy="30.73" rx="14.82" ry="4.67"/><path class="cls-8" d="m31.06,28.84c-6.65,0-12.28,1.38-14.16,3.28,1.88,1.9,7.51,3.28,14.16,3.28s12.28-1.38,14.16-3.28c-1.88-1.9-7.51-3.28-14.16-3.28Z"/><path class="cls-4" d="m16.84,40.96c-.02.53-.04,1.07.13,1.58.39,1.15,1.64,1.85,2.88,2.25.2.06.4.12.61.1.5-.05.8-.56.78-1.02-.02-.46-.28-.87-.5-1.28-.74-1.4-1.09-2.97-1.02-4.53.05-.95.28-2.09-.4-2.91-.44-.53-1.4-.96-2-.39-.59.57-.33,2.08-.35,2.79-.04,1.13-.09,2.26-.13,3.4Z"/><path class="cls-6" d="m21.96,32.5c0,.18.04.36.17.49.17.18.44.23.7.25.44.04.89.05,1.32-.03.43-.09.85-.27,1.14-.57-.49-.05-.97-.15-1.43-.29-.27-.08-.58-.22-.64-.48-.04-.19.1-.45-.13-.51-.06-.02-.43.15-.51.19-.41.21-.61.52-.6.96Z"/><path class="cls-6" d="m33.57,30.53c.02-.17,0-.36-.11-.51-.15-.19-.42-.27-.67-.31-.43-.08-.88-.13-1.31-.09s-.87.19-1.2.46c.48.1.95.24,1.39.42.26.11.55.28.58.54.02.2-.15.43.07.52.06.02.45-.11.53-.15.43-.17.67-.46.71-.89Z"/><path class="cls-6" d="m38.29,33.02c.02.08.08.16.21.2.18.06.46.03.71,0,.43-.06.87-.13,1.29-.25.41-.12.8-.28,1.06-.47-.48.06-.97.1-1.44.12-.28,0-.59,0-.68-.11-.06-.08.05-.23-.18-.22-.06,0-.41.15-.48.18-.38.17-.55.35-.5.56Z"/><path class="cls-6" d="m24.8,29.97c.87-.49,2.01-.69,2.92-.26.34.16.66.45.66.8,0,.29-.23.55-.5.69-.28.14-.6.18-.92.21-.72.07-1.9.2-2.57-.13-.72-.35-.07-1.04.41-1.32Z"/><path class="cls-6" d="m35.83,32.6c.21.04.42.1.58.22.17.12.28.32.23.51-.34.2-.78.15-1.19.18-.4.03-.78.14-1.18.19-.7.09-1.65.05-2.3-.2.11-.52,1.19-.77,1.67-.88.72-.16,1.47-.17,2.19-.02Z"/><path class="cls-6" d="m39.45,29.44c.16.03.34.08.46.18.12.11.17.3.05.42-.06.06-.14.09-.23.11-.62.18-4.86.91-4.64-.25.09-.51,1.06-.48,1.48-.54.95-.13,1.93-.11,2.87.08Z"/><path class="cls-6" d="m28.74,33.31c.17.06.38.19.32.35-.04.1-.15.14-.26.17-.33.1-2.34.69-2.25-.12.08-.67,1.79-.53,2.19-.4Z"/><path class="cls-6" d="m18.09,31.37c.1-.36.52-.54.92-.63.29-.06.6-.1.9-.1.35,0,.71.03,1.01.2.26.15.45.45.34.72-.06.16-.21.27-.36.35-.59.32-3.17.82-2.8-.54Z"/><path class="cls-6" d="m37.84,31.32c.45-.29,1.05-.27,1.59-.18.54.1,1.07.26,1.62.25.44-.01.91-.14,1.28.08.04.02.09.06.1.1.03.08-.03.16-.11.2-.08.03-.17.03-.26.02-.71-.05-1.41-.18-2.13-.23-.34-.02-.68-.03-1,.07-.21.06-.41.17-.62.24-.24.09-.5.12-.75.15-.62.07-1.25.08-1.87.03-.54-.05-1.11-.14-1.63.02-.08.02-.22.01-.2-.07,0-.01.01-.03.03-.04.45-.49,1.52-.34,2.11-.2.3.07.58.15.9.11.4-.06.62-.35.93-.55Z"/><path class="cls-6" d="m27.52,32.21c.09.1.24.13.38.13.31.02.62-.02.93,0,.5.03.99.2,1.38.48.05.04.11.08.13.15.04.11-.04.21-.13.29-.22.19-.53.34-.58.61-.01.05,0,.11.03.14.03.03.08.04.12.05.68.11,1.39.02,2.05.22.14.04.28.1.34.22.03.06.03.13.08.18.05.05.13.06.2.06.27.02.55-.01.81-.08.1-.03.23-.13.15-.2-.02-.02-.05-.03-.08-.03-.24-.04-.52.04-.73-.08-.07-.04-.12-.1-.18-.15-.34-.28-.86-.21-1.31-.22-.17,0-.36-.04-.45-.18-.1-.16.02-.35.15-.49.13-.14.28-.3.24-.48-.04-.2-.28-.31-.5-.37-.61-.19-1.24-.33-1.88-.42-.06,0-.14-.02-.18-.07-.08-.1.05-.22.17-.27.32-.13.69-.13,1.04-.19.09-.02.18-.05.21-.12.02-.08-.05-.16-.13-.19-.22-.1-.48-.02-.71.05-.38.12-.76.24-1.15.37-.18.06-.58.43-.4.63Z"/><path class="cls-6" d="m20.44,32.83c.3-.11.56-.3.81-.49.15.08.2.27.16.42-.05.15-.18.27-.33.36-.26.15-.58.2-.88.17-.3-.02-.6-.12-.87-.24-.03-.01-.05-.03-.07-.05-.16-.22.35-.13.42-.11.26.06.52.04.77-.06Z"/><path class="cls-6" d="m24.05,33.82s.03.07.06.1c.15.13.38.12.59.12.21,0,.45.06.52.24.02.05.02.1.06.14.03.03.08.04.12.05.25.04.52.05.77.02.08-.01.17-.03.24-.07.07-.05.1-.14.07-.2-.02-.03-.05-.06-.09-.08-.13-.08-.29-.13-.44-.14-.12,0-.24,0-.36-.03-.11-.04-.21-.15-.17-.25.02-.05.07-.09.12-.13.06-.05.13-.09.19-.14.24-.18-.68-.13-.82-.1-.21.05-.89.19-.85.47Z"/><path class="cls-2" d="m24.74,30.59c-.03.06-.06.14-.05.21.03.14.19.21.34.24.08.01.16.01.23-.02.12-.06.16-.2.23-.31.13-.21.39-.31.64-.37.12-.03.25-.06.31-.15.26-.4-.53-.41-.75-.34-.4.12-.77.4-.94.75Z"/><path class="cls-2" d="m36,29.72c-.08.04-.17.1-.18.19,0,.11.14.19.27.17.12-.02.22-.1.33-.16.45-.25,1.04-.19,1.51-.4.02-.01.05-.03.05-.05,0-.03-.05-.05-.09-.05-.63,0-1.33.03-1.89.3Z"/><path class="cls-2" d="m18.92,31.06c-.13.08-.25.18-.34.3s-.11.28-.05.41c.06.13.24.21.39.16.04-.02.08-.04.1-.08.04-.06.03-.13.04-.2.02-.16.12-.32.27-.41.15-.09.34-.13.52-.09.06-.05.04-.14-.02-.19-.06-.05-.15-.05-.23-.06-.29,0-.45,0-.69.16Z"/><path class="cls-2" d="m27.04,33.55c-.08.06-.16.15-.11.23.04.07.16.08.23.04.08-.03.14-.1.21-.14.2-.11.46-.06.66-.16.04-.02.09-.07.07-.11-.04-.08-.43-.06-.53-.06-.2.01-.38.09-.54.2Z"/><path class="cls-2" d="m33,33.04c-.06.03-.13.08-.12.14,0,.09.15.11.25.09.37-.07.71-.23,1.09-.26.37-.03.75.07,1.12,0,.05,0,.12-.04.12-.09,0-.05-.06-.08-.12-.09-.76-.17-1.65-.18-2.34.2Z"/><path class="cls-5" d="m23.84,29.74c-.74-.42-1.51-.93-1.63-1.63-.16-1.01,1.09-1.86,1.13-2.87,0-.12-.01-.25-.11-.33-.07-.06-.16-.09-.25-.11-.92-.27-1.93-.23-2.89-.38-.96-.15-1.97-.6-2.15-1.34-.14-.58.28-1.15.79-1.58.51-.43,1.14-.78,1.6-1.24.12-.13.24-.28.18-.43-.06-.14-.24-.22-.41-.28-.86-.36-1.6-.87-2.15-1.49-.19-.21-.35-.44-.36-.7,0-.24.12-.47.28-.68.75-1.01,2.04-1.74,3.47-2.1,1.43-.36,2.98-.37,4.46-.15.73.11,1.47.28,2.04.66.56.38.91,1,.68,1.55-.14.33-.47.68-.26.99.17.25.61.31.98.31,1.26.03,2.57-.06,3.75.29,1.18.35,2.18,1.34,1.8,2.27-.17.42-.58.75-1.03,1.01-1.86,1.1-4.35,1.26-6.53,1.92-.45.13-.94.34-1.02.71-.1.44.45.8.98.96.53.16,1.14.22,1.55.53.14.1.25.24.22.39-.02.13-.14.23-.27.31-.76.5-1.85.51-2.83.66-.98.15-2.07.64-2.06,1.41,0,.26.13.51.29.73.44.63,1.1,1.16,1.89,1.52-.69-.34-1.47-.52-2.14-.9Z"/><path class="cls-3" d="m26.04,28.79c.18-.8.86-1.46,1.58-2.05.71-.59,1.5-1.15,1.96-1.88.46-.72.53-1.67-.16-2.28-.34-.3-.82-.49-1.29-.66-1.8-.64-3.83-1.27-4.73-2.64-.26-.4-.41-.89-.16-1.3.17-.28.49-.48.83-.65,1.04-.5,2.27-.7,3.38-1.11,1.11-.41,2.16-1.14,2.22-2.09.02-.35-.09-.76.22-1.02.13-.12.32-.18.52-.24,1.94-.52,4.32.53,4.74,2.08.16.57.12,1.25.68,1.64.47.33,1.18.32,1.8.25,1.54-.18,3.04-.63,4.6-.61,1.56.02,3.29.74,3.47,1.94.14.94-.76,1.84-1.88,2.23-1.12.39-2.4.36-3.62.24-1.22-.12-2.43-.33-3.66-.27-1.11.05-2.19.3-3.14.75-.35.16-.72.4-.73.72-.02.57.98.74,1.49,1.15.52.43.45,1.14.02,1.63s-1.15.77-1.86.96c-.71.2-1.46.33-2.13.61-.59.24-1.11.58-1.52.99-.55.54-.93,1.25-.72,1.93.29.93,1.55,1.47,2.73,1.77-.97-.25-2.33.08-3.37-.2-.98-.27-1.41-1.12-1.24-1.9Z"/><path class="cls-5" d="m38.73,30.92c.16-.45.23-.97-.11-1.36-.37-.42-1.08-.55-1.69-.73-1.2-.35-2.35-1.25-2.06-2.22.24-.8,1.31-1.23,2.23-1.64.92-.41,1.9-1.05,1.76-1.87-.17-.96-1.76-1.37-2.26-2.25-.39-.69.02-1.54.75-2.03.74-.49,1.73-.7,2.7-.78,1.55-.13,3.18.02,4.55.6,1.37.58,2.45,1.63,2.66,2.83.12.68.05,1.5.79,1.87.7.35,1.62.02,2.45-.08,1.91-.23,3.83,1.1,3.85,2.6.03,1.49-1.74,2.84-3.67,2.88-.77.02-1.53-.14-2.29-.28-1.55-.27-3.12-.42-4.69-.58-.89-.09-1.89-.15-2.61.27-.3.18-.52.51-.32.75.08.1.2.16.33.22.68.31,1.54.51,1.87,1.07.45.76-.39,1.59-1.22,2.12-3.09,1.98-7.04,3.14-11.05,3.25,1.56-.04,3.69-.68,4.96-1.36,1.46-.78,2.59-1.95,3.05-3.28Z"/><path class="cls-3" d="m23.32,5.38c-1.89-.02-3.77-.05-5.66-.07-.72,0-1.47-.02-2.11-.28-.64-.26-1.12-.84-.91-1.37.1-.25.34-.46.61-.63.65-.42,1.48-.67,2.33-.7.9-.03,1.83.18,2.71,0,.12-.02.25-.06.34-.13.31-.26-.14-.65-.19-1-.05-.29.21-.58.54-.73.33-.15.72-.2,1.09-.24,1.85-.22,3.78-.39,5.58,0,.83.18,1.61.47,2.45.62,1.12.2,2.28.13,3.43.18,1.15.05,2.35.26,3.17.89.5.39.81,1.03.41,1.48-.26.31-.76.43-1.23.51-1.99.3-4.25-.02-5.87.92-.28.16-.53.36-.64.62-.1.23-.07.48-.11.72-.11.63-.75,1.19-1.56,1.34-1.14.21-1.87-.25-2.12-.98-.32-.95-.95-1.13-2.28-1.15Z"/></g></svg>