<?xml version="1.0" encoding="utf-8"?>
<!-- Generator: Adobe Illustrator 27.1.1, SVG Export Plug-In . SVG Version: 6.00 Build 0)  -->
<svg version="1.0" id="Layer_2_00000147909142867752790380000003748747176447851916_"
	 xmlns="http://www.w3.org/2000/svg" xmlns:xlink="http://www.w3.org/1999/xlink" x="0px" y="0px" viewBox="0 0 45.6 129.1"
	 style="enable-background:new 0 0 45.6 129.1;" xml:space="preserve">
<style type="text/css">
	.st0{fill:#B9B9B8;}
	.st1{fill:#F1F1F1;}
	.st2{fill:#CFCFCF;}
	.st3{fill:#FFFFFF;}
	.st4{fill:#A1A1A1;}
	.st5{opacity:0.3;fill:#737373;enable-background:new    ;}
	.st6{fill:#737373;}
	.st7{fill:none;stroke:#161615;stroke-width:0.25;stroke-linecap:round;stroke-linejoin:round;}
	.st8{fill:none;stroke:#0A3333;stroke-width:2;stroke-linecap:round;stroke-linejoin:round;}
	.st9{fill:none;stroke:#FFFFFF;stroke-width:0.5;stroke-linecap:round;stroke-linejoin:round;}
</style>
<g id="guitarre">
	<g>
		<rect x="9.9" y="70.9" transform="matrix(0.913 -0.408 0.408 0.913 -28.3195 10.7574)" class="st0" width="2.3" height="1.8"/>
		<rect x="9" y="70.2" transform="matrix(0.913 -0.408 0.408 0.913 -27.901 10.455)" class="st1" width="3" height="0.8"/>
		<path class="st2" d="M21.9,129c-7.1-0.1-7.7-0.1-8.6-0.4c-4.8-1.5-7.7-4.9-8.8-6.3c-0.8-1-2.5-3-3.5-6.1c-0.5-1.5-1.6-4.9-0.6-9
			c1-4.2,3.9-7.5,4.5-8.2c0.8-1,1.7-1.7,2.4-3.3c0.5-1,1.4-2.8,1.2-4.9c-0.2-1.9-0.8-2.2-2.2-5.3c-0.8-1.7-1.1-3-1-4.7
			c0.1-2.8,1.6-4.7,2-5.3c1.7-2.2,3.9-3.1,5.1-3.5c0.6-0.2,1.9-0.6,6-0.8c1.8-0.1,4.3-0.1,7.3,0.1c0,1,0,2.1,0,3.1
			c0,0.6,0,2.6,1.4,4.3c0.4,0.4,1.2,1.4,2.7,1.8c1.6,0.5,3.1-0.1,3.6-0.3c2.1-0.9,2-2.2,3.5-2.5c1.5-0.2,3.2,0.8,3.8,2.1
			c0.4,0.9,0.3,1.8-0.3,3.9c-1.5,5.3-2.7,5.7-2.7,8c0,1.8,0.8,3.2,2.3,5.9c1.8,3,2.6,3,3.8,5.1c2.3,4.1,1.7,8.5,1.5,10.5
			c-0.2,1.7-0.7,4.9-2.9,8.2c-3.9,5.8-10.1,7.2-11.6,7.5C30.3,129.1,27.5,129.1,21.9,129L21.9,129z"/>
		<path class="st2" d="M25.2,20.9l1.9-3.2c-0.3-1-0.5-2.1-0.7-3.4c-0.6-4.7,0.5-8.6,1.5-11.2c-0.9-1.2-1.5-1.9-2.4-3.2h-6.8
			c-0.8,1-1.6,2.1-2.4,3.2c0.9,2.3,2.2,6.4,1.4,11.2c-0.2,1.2-0.5,2.4-0.9,3.4c0.7,1.1,1.4,2.2,2,3.3C20.9,21,23.1,21,25.2,20.9
			L25.2,20.9z"/>
		<rect x="25.8" y="14.4" class="st0" width="2.4" height="0.6"/>
		<rect x="25.8" y="9.7" class="st0" width="2.4" height="0.6"/>
		<rect x="25.8" y="5" class="st0" width="2.4" height="0.6"/>
		<rect x="15.6" y="5" class="st0" width="2.8" height="0.6"/>
		<rect x="15.6" y="9.7" class="st0" width="2.8" height="0.6"/>
		<rect x="15.6" y="14.4" class="st0" width="2.8" height="0.6"/>
		<path class="st3" d="M21.9,127.5c-6.8-0.1-7.3-0.1-8.1-0.4c-4.6-1.4-7.3-4.7-8.3-6c-0.8-1-2.3-2.9-3.3-5.8
			c-0.5-1.4-1.5-4.7-0.6-8.5c1-3.9,3.7-7.1,4.3-7.8c0.8-0.9,1.6-1.6,2.3-3.1c0.5-0.9,1.3-2.6,1.2-4.7c-0.2-1.8-0.7-2.1-2.1-5
			c-0.8-1.6-1-2.9-1-4.5c0.1-2.6,1.5-4.5,1.9-5c1.6-2.1,3.7-2.9,4.8-3.3c0.6-0.2,1.8-0.6,5.7-0.7c1.7-0.1,4.2-0.1,7.1,0.1v3
			c0,0.5-0.1,2.4,1.2,4c0.3,0.4,1.1,1.3,2.5,1.7c1.6,0.4,2.9-0.1,3.4-0.3c2-0.8,1.9-2.1,3.3-2.3c1.4-0.2,3,0.7,3.6,2
			c0.4,0.8,0.3,1.7-0.3,3.7c-1.5,5-2.6,5.4-2.6,7.6c0,1.7,0.7,3,2.2,5.6c1.7,2.9,2.4,2.8,3.6,4.9c2.2,3.9,1.7,8,1.4,9.9
			c-0.2,1.6-0.6,4.6-2.7,7.8c-3.7,5.5-9.6,6.9-11,7.1C29.9,127.6,27.3,127.6,21.9,127.5L21.9,127.5z"/>
		<path class="st4" d="M25.9,82.1l-0.7-62.1c0,0,0-0.1,0-0.1l1.2-2.7c0,0,0-0.1,0-0.2C26.3,16,26.2,15,26.1,14
			c-0.3-4,0.3-7.5,1.1-10.3c-0.9-1.1-1.2-1.6-2-2.7H19c-0.7,1-1.2,1.7-1.9,2.7C17.9,6.5,18.5,9.8,18,14c-0.1,1-0.3,2-0.5,2.9
			c0,0,0,0,0,0.1c0,0,0,0.1,0,0.1c0,0.1,0.6,1.2,1.3,2.8c0,0,0,1.2,0,1.2c0,20.3-0.1,40.7-0.2,61c0,0,0.1,0.2,0.3,0.3
			c1.7,1.5,5,1.5,6.7,0C25.8,82.2,25.9,82.1,25.9,82.1L25.9,82.1z"/>
		<path class="st0" d="M16.8,108.2H28c0.7,0,1.3,0.6,1.3,1.3v0c0,0.7-0.6,1.3-1.3,1.3H16.8c-0.7,0-1.3-0.6-1.3-1.3v0
			C15.6,108.8,16.1,108.2,16.8,108.2z"/>
		<path class="st5" d="M18.1,98.5l7.4-1c0.7-0.1,1.3,0.4,1.4,1.1l0,0c0.1,0.7-0.4,1.3-1.1,1.4l-7.4,1c-0.7,0.1-1.3-0.4-1.4-1.1v0
			C17,99.3,17.5,98.6,18.1,98.5z"/>
		<path class="st5" d="M18.1,90.1l7.4-1c0.7-0.1,1.3,0.4,1.4,1.1l0,0c0.1,0.7-0.4,1.3-1.1,1.4l-7.4,1c-0.7,0.1-1.3-0.4-1.4-1.1l0,0
			C17,90.8,17.5,90.2,18.1,90.1z"/>
		<path class="st1" d="M17,108.8h10.9c0.4,0,0.6,0.3,0.6,0.6v0c0,0.4-0.3,0.6-0.6,0.6H17c-0.4,0-0.6-0.3-0.6-0.6v0
			C16.4,109.1,16.6,108.8,17,108.8z"/>
		<circle class="st1" cx="38.2" cy="109.6" r="2.2"/>
		<path class="st1" d="M29.1,4.2h0.8c0.4,0,0.8,0.3,0.8,0.8v0.7c0,0.4-0.3,0.7-0.7,0.7h-0.7c-0.6,0-1.1-0.5-1.1-1.2l0,0
			C28.1,4.7,28.5,4.2,29.1,4.2z"/>
		<path class="st1" d="M29.1,8.9h0.8c0.4,0,0.8,0.3,0.8,0.8v0.7c0,0.4-0.3,0.7-0.7,0.7h-0.7c-0.6,0-1.1-0.5-1.1-1.1l0,0
			C28.1,9.4,28.5,8.9,29.1,8.9z"/>
		<path class="st1" d="M29.1,13.6h0.8c0.4,0,0.8,0.3,0.8,0.8V15c0,0.4-0.3,0.7-0.7,0.7h-0.7c-0.6,0-1.1-0.5-1.1-1.1l0,0
			C28.1,14.1,28.5,13.6,29.1,13.6z"/>
		<path class="st1" d="M15,6.4h-0.7c-0.4,0-0.7-0.3-0.7-0.7V5c0-0.4,0.3-0.8,0.8-0.8h0.8c0.6,0,1,0.5,1,1l0,0
			C16.2,5.9,15.6,6.4,15,6.4z"/>
		<path class="st1" d="M15,11.1h-0.7c-0.4,0-0.7-0.3-0.7-0.7V9.7c0-0.4,0.3-0.8,0.8-0.8h0.8c0.6,0,1,0.5,1,1l0,0
			C16.2,10.6,15.6,11.1,15,11.1z"/>
		<path class="st1" d="M15,15.8h-0.7c-0.4,0-0.7-0.3-0.7-0.7v-0.7c0-0.4,0.3-0.8,0.8-0.8h0.8c0.6,0,1,0.5,1,1l0,0
			C16.2,15.2,15.6,15.8,15,15.8z"/>
		<circle class="st0" cx="19.8" cy="5.3" r="0.7"/>
		<circle class="st6" cx="19.8" cy="10" r="0.4"/>
		<circle class="st0" cx="19.8" cy="10" r="0.7"/>
		<circle class="st0" cx="19.8" cy="14.7" r="0.7"/>
		<circle class="st0" cx="24.5" cy="14.7" r="0.7"/>
		<circle class="st0" cx="24.5" cy="10" r="0.7"/>
		<circle class="st0" cx="24.5" cy="5.3" r="0.7"/>
		<circle class="st6" cx="19.8" cy="5.3" r="0.4"/>
		<circle class="st6" cx="19.8" cy="10" r="0.4"/>
		<circle class="st6" cx="19.8" cy="14.7" r="0.4"/>
		<circle class="st6" cx="24.5" cy="14.7" r="0.4"/>
		<circle class="st6" cx="24.5" cy="10" r="0.4"/>
		<circle class="st6" cx="24.5" cy="5.3" r="0.4"/>
		<circle class="st1" cx="32.2" cy="119.4" r="2.2"/>
		<circle class="st1" cx="32.2" cy="113.1" r="2.2"/>
		<circle class="st0" cx="32.2" cy="113.1" r="1.3"/>
		<circle class="st1" cx="38.2" cy="116" r="2.2"/>
		<circle class="st0" cx="32.2" cy="119.4" r="1.3"/>
		<circle class="st0" cx="38.2" cy="116" r="1.3"/>
		<circle class="st0" cx="38.2" cy="109.6" r="1.3"/>
		<g>
			<line class="st7" x1="19.9" y1="108.8" x2="19.8" y2="20.1"/>
			<line class="st7" x1="21" y1="108.8" x2="20.7" y2="20.1"/>
			<line class="st7" x1="22" y1="108.8" x2="21.6" y2="20.2"/>
			<line class="st7" x1="22.9" y1="108.8" x2="22.6" y2="20.2"/>
			<line class="st7" x1="23.9" y1="108.8" x2="23.5" y2="20.1"/>
			<line class="st7" x1="25" y1="108.8" x2="24.3" y2="20.1"/>
		</g>
		<path class="st1" d="M25.2,20.9c-2.1,0-4.3,0-6.4,0c0-0.4,0-0.7,0-1c2.1,0,4.3,0,6.4,0V20.9L25.2,20.9z"/>
	</g>
	<path class="st8" d="M4.3,128.1"/>
	<path class="st8" d="M6.4,118.3"/>
	<path class="st9" d="M4.3,127.2"/>
	<path class="st9" d="M5.9,118.7"/>
	<path class="st8" d="M42,128.1"/>
	<path class="st8" d="M39.9,118.3"/>
	<path class="st9" d="M40.5,118.7"/>
	<g>
		<path class="st8" d="M23.8,36.6"/>
		<path class="st8" d="M27.2,36.6"/>
		<path class="st9" d="M27.8,36.5"/>
	</g>
	<g>
		<path class="st8" d="M19.8,36.6"/>
		<path class="st8" d="M16.4,36.6"/>
		<path class="st9" d="M19,36.5"/>
		<path class="st9" d="M15.8,36.5"/>
	</g>
</g>
</svg>
