<?xml version="1.0" encoding="UTF-8"?>
<svg id="Calque_2" data-name="Calque 2" xmlns="http://www.w3.org/2000/svg" viewBox="0 0 72.44 60.94">
  <defs>
    <style>
      .cls-1, .cls-2 {
        fill: #fff;
      }

      .cls-2, .cls-3 {
        opacity: .9;
      }

      .cls-4 {
        opacity: .32;
      }

      .cls-4, .cls-5 {
        fill: #878786;
      }

      .cls-6 {
        fill: #007cff;
      }

      .cls-7 {
        fill: #e5e5e5;
      }

      .cls-8 {
        opacity: .1;
      }

      .cls-9 {
        fill: #b1b1b1;
      }

      .cls-10 {
        fill: #d9d9d9;
      }

      .cls-11 {
        fill: #1a2e35;
      }
    </style>
  </defs>
  <g id="Imprimante">
    <g id="Imprimante_blanc" data-name="Imprimante blanc">
      <g>
        <path class="cls-10" d="m52.01,25.76h.34c.41,0,.69-.33.63-.75l-2.98-18.84c-.07-.41-.45-.75-.86-.75H14.98l3.22,20.34h33.8Z"/>
        <g>
          <path class="cls-11" d="m18.37,25.76h0c-.51,0-.98-.41-1.06-.92l-2.93-18.5c-.08-.51.27-.92.77-.92h0c.51,0,.98.41,1.06.92l2.93,18.5c.08.51-.26.92-.77.92Z"/>
          <path class="cls-9" d="m18.37,25.76h0c-.51,0-.98-.41-1.06-.92l-2.93-18.5c-.08-.51.27-.92.77-.92h0c.51,0,.98.41,1.06.92l2.93,18.5c.08.51-.26.92-.77.92Z"/>
        </g>
      </g>
      <path class="cls-8" d="m21.87,23.68l25.75-.35-3.07-17.91h-25.85c2.12,3.34,2.76,11.73,3.16,18.26Z"/>
      <path class="cls-2" d="m48.03,22.88l-24.15.26c-.17-7.78-2.22-16.3-5.17-23.13h22.7c5.59,4.94,5.85,15.15,6.62,22.88Z"/>
      <path class="cls-7" d="m69.77,25.1s-5.45-1.52-9.51-2.6H13.19l3.58,17.24,7.63,12.98h45.76l2.26-23.99c.22-1.98-.86-3.12-2.64-3.63Z"/>
      <polygon class="cls-9" points="68.59 47.95 69.5 38.46 23.08 38.46 23.88 47.95 68.59 47.95"/>
      <polyline class="cls-5" points="66.26 39.67 30.22 39.67 30.37 38.15 66.39 38.15"/>
      <g class="cls-8">
        <path class="cls-3" d="m61.52,56.21l-25.35.1c.63-7.7,2.75-12.37-.55-17.77h22.7c5.59,4.94,4.25,10.65,3.2,17.67Z"/>
      </g>
      <path class="cls-2" d="m63.03,60.69l-24.15.26c-.17-7.78,1.31-16.39-3.27-22.4h22.7c5.59,4.94,5.76,15.13,4.71,22.15Z"/>
      <path class="cls-6" d="m.27,47.51c0,.11-.09.21-.21.21s-.04-.09-.04-.21-.07-.21.04-.21.21.09.21.21Z"/>
      <path class="cls-4" d="m72.03,32.81l.38-4.08c.19-1.71-.5-2.87-2.25-3.5,0,0-.84-.36-1.91-.72H15.69l4.59,8.25,51.76.06Z"/>
      <path class="cls-1" d="m24.6,52.72l-.23-21.68c-.02-2.34-1.8-5.01-3.95-5.94l-5.39-2.33c-2.15-.93-3.73.22-3.52,2.55l2.14,23.89"/>
      <g>
        <path class="cls-10" d="m52.01,25.76h.34c.41,0,.69-.33.63-.75l-2.98-18.84c-.07-.41-.45-.75-.86-.75H14.98l3.22,20.34h33.8Z"/>
        <g>
          <path class="cls-11" d="m18.37,25.76h0c-.51,0-.98-.41-1.06-.92l-2.93-18.5c-.08-.51.27-.92.77-.92h0c.51,0,.98.41,1.06.92l2.93,18.5c.08.51-.26.92-.77.92Z"/>
          <path class="cls-9" d="m18.37,25.76h0c-.51,0-.98-.41-1.06-.92l-2.93-18.5c-.08-.51.27-.92.77-.92h0c.51,0,.98.41,1.06.92l2.93,18.5c.08.51-.26.92-.77.92Z"/>
        </g>
      </g>
      <path class="cls-8" d="m21.87,23.68l25.75-.35-3.07-17.91h-25.85c2.12,3.34,2.76,11.73,3.16,18.26Z"/>
      <path class="cls-2" d="m48.03,22.88l-24.15.26c-.17-7.78-2.22-16.3-5.17-23.13h22.7c5.59,4.94,5.85,15.15,6.62,22.88Z"/>
      <path class="cls-7" d="m69.77,25.1s-5.45-1.52-9.51-2.6H13.19l3.58,17.24,7.63,12.98h45.76l2.26-23.99c.22-1.98-.86-3.12-2.64-3.63Z"/>
      <polygon class="cls-9" points="68.59 47.95 69.5 38.46 23.08 38.46 23.88 47.95 68.59 47.95"/>
      <polyline class="cls-5" points="66.26 39.67 30.22 39.67 30.37 38.15 66.39 38.15"/>
      <g class="cls-8">
        <path class="cls-3" d="m61.52,56.21l-25.35.1c.63-7.7,2.75-12.37-.55-17.77h22.7c5.59,4.94,4.25,10.65,3.2,17.67Z"/>
      </g>
      <path class="cls-2" d="m63.03,60.69l-24.15.26c-.17-7.78,1.31-16.39-3.27-22.4h22.7c5.59,4.94,5.76,15.13,4.71,22.15Z"/>
      <path class="cls-6" d="m.27,47.51c0,.11-.09.21-.21.21s-.04-.09-.04-.21-.07-.21.04-.21.21.09.21.21Z"/>
      <path class="cls-4" d="m72.03,32.81l.38-4.08c.19-1.71-.5-2.87-2.25-3.5,0,0-.84-.36-1.91-.72H15.69l4.59,8.25,51.76.06Z"/>
      <path class="cls-1" d="m24.6,52.72l-.23-21.68c-.02-2.34-1.8-5.01-3.95-5.94l-5.39-2.33c-2.15-.93-3.73.22-3.52,2.55l2.14,23.89"/>
    </g>
  </g>
</svg>