<?xml version="1.0" encoding="UTF-8"?><svg id="Layer_2" xmlns="http://www.w3.org/2000/svg" viewBox="0 0 148.26 144.32"><defs><style>.cls-1{fill:#b7b7b7;}.cls-2{fill:#cbcaca;}.cls-3{fill:#fff;}.cls-4{fill:#909090;}.cls-5{fill:#af7f49;}.cls-6{fill:#828282;}.cls-7{fill:#e5e5e5;}.cls-8{fill:#ebbf7c;}</style></defs><g id="Plante_Blanche"><g><path class="cls-7" d="m114.28,33.27c.06-.04.13-.09.21-.13.12-.06.23-.11.32-.14,0,0,2.47-1.17,5.74-1.01,0,0,7.05.36,14.4,9.71.33.42.99,1.3,1.12,2.54.04.38,0,.69-.04,1.03-.07.87-.27,2.02-.99,2.9-.64.78-.86.62-.64,1.52s1.38,2.48.22.9c-1.16-1.58-.41-1.29-1.48-1.35s-7.13-2.7-8.92-4.54c-1.79-1.83-4.36-3.89-4.74-4.63-.38-.74-2.63-3.81-2.83-4.63-.5-2.09.63,1.32-.06-.42-.07-.17-.1-.36-.24-1.3-.04-.25-.06-.38-.17-.5-.15-.15-.37-.22-.49-.18-.38.11-.5.27-.93.31-.04,0-.11,0-.15.06-.12.13.03.44-.02.46-.04.02-.18-.18-.26-.36-.01-.02-.02-.04-.02-.05"/><path class="cls-7" d="m107.3,101.31c1.36-8.73,2.39-16.07,3.11-21.54,1.35-10.15,2.11-15.89,2.73-23.53.7-8.61.05-15.85.97-20.74.39-2.05-.06-2.58.39-2.05s-.19,4.83-.13,5.23c.06.4.06,3.77.06,6.16,0,2.86-.08,4.85-.26,8.34-.3,5.82-.45,8.73-.9,11.43-.21,1.26-.57,3.12-.78,5.78-.08,1.04-.08,1.52-.21,3.02-.05.56-.18,2.18-.47,4.4-.34,2.71-.48,3.02-.99,6.62-.04.28-.19,1.41-.48,3.65-.75,5.74-.78,5.94-.87,6.42-.31,1.66-.91,4.01-2.19,6.8Z"/><path class="cls-6" d="m118.18,33.06c6.56,2.27,12.12,7.5,14.96,13.96-3.66-6.03-8.74-10.82-14.96-13.96h0Z"/><path class="cls-7" d="m99.11,66.61c-.72-7.37-.99-8.43-1.1-8.5-.1-.06-.16-.04-.16-.04-.06.01-.09.07-.1.14-.02.08-.02.15-.01.17.16.93.14,1.86.33,2.78,0,0,.09.44.16,3.52h0c.16,2.13,2.82,36.17,2.82,36.17.06.78.12,1.57.18,2.35.02.02.09.06.19.07.15.01.24-.06.25-.07-.1-2.2-.2-4.41-.3-6.61"/><path class="cls-7" d="m97.84,58.63c-.66-.63-1.52-1.56-2.34-2.83-.49-.76-1.76-2.86-2.28-5.62-.96-5.06.64-12.04,4.37-13.85.85-.41,2.2-.74,2.92-2.07.71-1.3.43-2.87.62-2.88.13,0,.3.74.35,1.43.07.89-.08,1.39-.1,1.75-.06,1.46,2.06,2.24,3.11,3.46,2.01,2.33.83,7.11-.36,9.64-1.71,3.64-4.25,4.31-5.78,8.99-.27.82-.42,1.52-.51,1.98Z"/><path class="cls-6" d="m100.48,35.56c-.17,6.28-1.13,12.55-3.08,18.51.63-3.83,1.37-7.73,1.97-11.56.38-2.32.65-4.64,1.11-6.95h0Z"/><path class="cls-7" d="m102.27,100.91c-.52-8.99-1.11-16.52-1.53-22.46-.11-1.48-.35-4.94-2.59-8.2-.8-1.16-2.22-3.4-4.6-3.8-.93-.16-1.68.02-2.78.28-1.75.42-2.9,1.11-4.82,2.29-1.51.92-2.79,1.7-3.2,2.4-.3.5-.78.86-1.16,1.31,0,0-.02.02-.04.03-.06.02-.15-.02-.19-.08-.03-.05-.04-.1-.05-.14-.02-.14-.04-.24,0-.38.07-.21.17-.43.29-.56.27-.31,3.05-3.13,7.08-4.86.75-.32,1.38-.54,1.59-.61.43-.14.85-.27,1.06-.32.5-.11,1.91-.35,3.29.07,1.68.51,2.57,1.8,3.78,3.52,1.62,2.29,2.25,4.49,2.66,5.93.38,1.34.54,2.37.6,2.78-.06,2.34.06,4.22.17,5.41.27,3.09,1.37,12.32,1.41,15.97,0,.63-.01,1.7-.37,1.8-.19.05-.43-.18-.59-.38Z"/><g><path class="cls-2" d="m87.28,35.69c-.06-.04-.14-.08-.22-.12-.12-.06-.23-.09-.33-.12,0,0-2.54-1.01-5.79-.64,0,0-7.01.8-13.79,10.59-.3.43-.91,1.36-.96,2.61-.02.38.05.69.1,1.03.12.86.39,2,1.16,2.83.68.74.89.57.73,1.48s-1.23,2.56-.17.91c1.07-1.65.33-1.31,1.39-1.44s6.95-3.14,8.63-5.09c1.68-1.94,4.12-4.16,4.46-4.92.33-.76,2.39-3.96,2.54-4.8.38-2.12-.55,1.36.04-.42.06-.18.08-.37.16-1.31.02-.25.03-.38.14-.51.14-.16.35-.24.48-.21.39.09.51.24.95.26.04,0,.11,0,.16.05.13.12,0,.44.05.45.04.02.17-.19.24-.38,0-.02.02-.04.02-.06"/><path class="cls-7" d="m98.32,103.17c-1.88-8.62-3.34-15.89-4.4-21.3-1.95-10.05-3.05-15.73-4.13-23.32-1.21-8.55-1-15.82-2.21-20.64-.51-2.02-.09-2.58-.51-2.02s.48,4.81.44,5.21c-.04.4.16,3.77.3,6.15.17,2.85.37,4.83.76,8.31.64,5.79.97,8.69,1.58,11.36.29,1.25.76,3.08,1.12,5.72.14,1.03.17,1.51.39,3.01.08.55.31,2.16.73,4.37.5,2.68.66,2.98,1.38,6.55.06.28.27,1.39.7,3.62,1.09,5.68,1.13,5.88,1.25,6.35.41,1.64,1.15,3.95,2.6,6.65Z"/><path class="cls-6" d="m83.38,35.73c-6.03,3.52-10.81,8.62-14.1,14.87,2.46-6.62,7.69-12.2,14.1-14.87h0Z"/></g><path class="cls-7" d="m103.67,101.92c.32-9,.73-16.54,1.02-22.49.07-1.48.24-4.95,2.41-8.26.77-1.18,2.14-3.45,4.51-3.91.93-.18,1.68-.02,2.79.22,1.76.37,2.92,1.04,4.87,2.17,1.53.88,2.83,1.63,3.26,2.32.31.5.8.84,1.19,1.28,0,0,.02.02.04.03.06.02.15-.03.19-.09.03-.05.04-.1.05-.14.01-.14.04-.24-.02-.37-.08-.2-.18-.42-.3-.55-.28-.3-3.12-3.06-7.19-4.69-.76-.31-1.39-.5-1.6-.57-.43-.13-.85-.25-1.07-.29-.5-.09-1.92-.3-3.29.15-1.67.55-2.53,1.86-3.7,3.61-1.56,2.32-2.15,4.54-2.52,5.99-.35,1.35-.48,2.38-.54,2.79.11,2.34.03,4.22-.04,5.41-.2,3.09-1.09,12.35-1.04,16,0,.63.05,1.7.41,1.79.19.05.42-.19.58-.4Z"/><path class="cls-7" d="m123.59,72.03c-.08-.05-.14-.05-.17-.05-.16.02-.31.22-.34.52.14.15.31.35.49.6,0,0,.21.29.4.61.28.47.82,1.9,1.3,3.89,0,0,3.04,6.52,14.29,9.87.5.15,1.55.44,2.72.07.35-.11.62-.27.91-.43.75-.4,1.71-1.04,2.23-2.05.46-.9.23-1.05,1.13-1.19.9-.14,2.76.35.9-.14-1.87-.49-1.32.11-1.79-.87-.11-.24-.8-2.77-7.52-6.68,0,0-7.34-4.26-11.26-3.58-.22.04-.69.12-.68.15,0,.07,1.66-.06.28-.05-.18,0-.36.04-1.26.27-.16.04-.31.06-.51.03-.2-.02-.35-.08-.45-.13"/><path class="cls-6" d="m126.23,74.76c5.17,3.71,10.65,6.88,16.42,9.51-6.08-1.8-11.78-5.1-16.42-9.51h0Z"/><path class="cls-7" d="m110.14,38.78c.58-12.8.53-14.61.45-14.71-.07-.09-.12-.05-.12-.05-.05.03-.08.14-.1.26-.03.15-.04.26-.04.3-.01,1.6-.18,3.23-.17,4.82,0,0,0,.76-.42,6.14-.2,3.7-3.38,62.9-3.38,62.9-.07,1.36-.15,2.72-.22,4.09.02.02.06.09.14.08.11,0,.2-.15.21-.17.26-3.84.53-7.69.79-11.53"/><path class="cls-3" d="m111.84,20.25c.18-1.03.34-2.64,0-4.52-.45-2.52-1.54-4.11-3.62-7.09-1.96-2.8-3.18-4.48-5.95-6.54-1.52-1.13-2.49-2.38-3.41-2.05-1.17.42-1.34,2.77-1.41,3.92-.43,6.77,3.75,12.44,4.91,13.97,1.45,1.92,4.01,4.82,8.15,7.33"/><path class="cls-6" d="m99.87,4.49c1.3,1.01,2.52,2.14,3.67,3.34,1.15,1.23,2.25,2.5,3.03,4.02.37.76.57,1.61.81,2.42.66,2.42,1.23,4.86,1.64,7.34-.78-2.38-1.47-4.78-2.21-7.17-.25-.77-.44-1.58-.8-2.31-.72-1.45-1.8-2.73-2.83-3.97-1.07-1.25-2.18-2.47-3.31-3.68h0Z"/><g><path class="cls-3" d="m113.59,21.14c.63-.83,1.68-2.03,3.26-3.04,2.12-1.35,4-1.6,7.55-2.03,3.34-.4,5.37-.61,8.73.1,1.84.39,3.39.28,3.77,1.21.48,1.17-1.1,2.88-1.88,3.71-4.6,4.88-11.5,5.53-13.39,5.69-2.36.2-6.18.21-10.78-1.24"/><path class="cls-6" d="m133.03,19.6c-1.63-.04-3.26-.06-4.88-.03-1.59.06-3.24.1-4.77.53-.77.21-1.47.62-2.2.95-2.22,1.05-4.42,2.14-6.66,3.15,2.06-1.36,4.21-2.58,6.4-3.7.75-.36,1.49-.78,2.29-1.01,1.63-.44,3.29-.46,4.94-.41,1.64.06,3.27.23,4.88.53h0Z"/></g><g><path class="cls-3" d="m83.88,32.6c-.59-.86-1.39-2.25-1.86-4.09-.63-2.48-.3-4.39.36-7.99.62-3.39,1.03-5.44,2.69-8.51.91-1.68,1.27-3.23,2.25-3.33,1.23-.12,2.36,1.93,2.9,2.94,3.18,5.96,1.73,12.9,1.31,14.79-.52,2.37-1.65,6.11-4.37,10.17"/><path class="cls-6" d="m88.24,13.13c-.53,1.59-1.03,3.17-1.49,4.77-.42,1.57-.87,3.2-.93,4.82-.03.81.13,1.63.22,2.44.31,2.49.68,4.96.95,7.45-.65-2.42-1.15-4.89-1.54-7.37-.11-.84-.29-1.69-.26-2.54.08-1.72.55-3.35,1.09-4.96.55-1.59,1.19-3.13,1.95-4.62h0Z"/></g><g><path class="cls-2" d="m80.97,35.58c-1.02-.11-2.57-.39-4.24-1.23-2.24-1.13-3.45-2.63-5.68-5.49-2.1-2.69-3.35-4.35-4.53-7.64-.65-1.8-1.56-3.1-.99-3.92.71-1.04,2.97-.57,4.07-.33,6.48,1.42,10.66,7.08,11.79,8.64,1.41,1.95,3.44,5.27,4.67,10.03"/><path class="cls-6" d="m69.41,19.49c.83,1.44,1.67,2.87,2.56,4.27.89,1.35,1.8,2.76,2.96,3.87.58.56,1.29.96,1.95,1.42,2.04,1.38,4.11,2.71,6.13,4.13-2.22-1.07-4.36-2.3-6.45-3.61-.7-.46-1.44-.88-2.05-1.46-1.22-1.18-2.12-2.62-2.96-4.08-.82-1.46-1.54-2.97-2.14-4.53h0Z"/></g><path class="cls-3" d="m112.54,25.27c-.04-.07-.08-.14-.11-.23-.05-.12-.09-.24-.11-.34,0,0-.95-2.62-.54-5.94,0,0,.88-7.17,10.54-13.97.43-.3,1.34-.91,2.56-.95.37-.01.67.06,1,.11.84.14,1.94.43,2.74,1.23.71.71.54.92,1.43.77s2.52-1.22.89-.16c-1.62,1.07-1.28.32-1.43,1.4s-3.17,7.08-5.09,8.76c-1.92,1.69-4.12,4.16-4.87,4.49-.75.33-3.9,2.39-4.72,2.53-2.07.35,1.33-.54-.41.03-.17.06-.36.08-1.28.15-.24.02-.37.03-.5.13-.16.14-.24.36-.21.49.08.4.23.53.24.97,0,.04,0,.11.04.16.12.14.43,0,.44.05.01.04-.19.17-.37.24-.02,0-.04.02-.05.02"/><path class="cls-6" d="m112.64,21.27c2.71-6.53,8.22-11.81,14.72-14.22-6.15,3.28-11.2,8.1-14.72,14.22h0Z"/><g><path class="cls-7" d="m98.35,62.5c.1-.66.3-1.56.7-2.57.88-2.22,2.2-3.57,2.82-4.2,4.17-4.22,9.79-4.17,11-4.19,1.94-.03,3.82-.03,3.93,1.09s-.67,2.78-2.02,3.72c-1.73,1.21-3.34,3.59-6.48,4.47-3.97,1.1-6.9-.49-8.73,1.5-.31.34-1.05,1.28-1.29,1.14-.15-.09-.05-.56.06-.96Z"/><path class="cls-6" d="m114.65,52.82c-4.13,3.05-8.67,5.55-13.5,7.21,2.58-1.48,5.78-3.13,8.41-4.55,1.7-.89,3.34-1.85,5.09-2.65h0Z"/></g><path class="cls-2" d="m89.75,33.04c1.42-1.44,2.66-2.21,4.58-3.38,6.78-4.12,7.71-4.62,8.09-4.24.58.58-.62,2.72-.87,3.15-.58,1.03-1.52,2.21-3.19,3.29-3.33,2.15-5.06.97-8.73,3.21-1.38.84-2.25,1.69-2.42,1.52-.23-.24,1.11-2.1,2.53-3.55Z"/><path class="cls-6" d="m90.32,33.75c.82-.65,1.8-1.33,2.67-1.91,1.4-.6,2.83-1.14,4.22-1.74.71-.28,1.27-.66,1.81-1.19.54-.52,1.06-1.08,1.58-1.64-.57,1.03-1.23,2.01-2.12,2.78-.97.69-2.05,1.07-3.13,1.51-.64.24-1.62.6-2.1.73-.91.5-1.97,1.05-2.92,1.46h0Z"/><g><path class="cls-7" d="m97.48,62.22c-.59.28-1.43.61-2.48.83-2.29.48-4.12.11-4.98-.07-5.74-1.21-8.82-6.03-9.51-7.05-1.1-1.63-2.14-3.24-1.3-3.96s2.63-.97,4.14-.34c1.94.81,4.77.85,7.23,3.04,3.1,2.77,3.43,6.16,6.07,6.6.45.08,1.62.18,1.64.46.01.18-.43.35-.81.48Z"/><path class="cls-6" d="m80.58,53.7c4.77,1.82,9.32,4.3,13.34,7.5-2.64-1.38-5.75-3.19-8.36-4.64-1.67-.95-3.36-1.82-4.98-2.86h0Z"/></g><g><path class="cls-3" d="m104.29,83.31c.35-.56.88-1.3,1.65-2.07,1.67-1.67,3.41-2.38,4.22-2.7,5.47-2.16,10.6.19,11.72.66,1.79.76,3.51,1.54,3.18,2.61-.33,1.08-1.7,2.28-3.3,2.58-2.06.4-4.46,1.93-7.68,1.44-4.07-.61-6.14-3.28-8.59-2.2-.42.18-1.46.75-1.63.52-.1-.14.17-.53.43-.85Z"/><path class="cls-7" d="m123,81.12c-4.97,1.11-10.11,1.54-15.18,1.08,2.95-.3,6.52-.5,9.48-.73,1.9-.13,3.79-.33,5.7-.35h0Z"/></g><g><path class="cls-7" d="m98.18,70.55c-.09.66-.26,1.56-.64,2.59-.83,2.24-2.11,3.63-2.71,4.27-4.07,4.32-9.68,4.42-10.9,4.47-1.94.08-3.82.13-3.96-.99-.14-1.12.6-2.8,1.93-3.77,1.7-1.25,3.25-3.68,6.37-4.63,3.94-1.21,6.91.31,8.69-1.73.3-.35,1.02-1.31,1.26-1.17.15.08.06.56-.04.96Z"/><path class="cls-7" d="m82.13,80.64c4.05-3.16,8.53-5.77,13.32-7.55-2.55,1.55-5.71,3.28-8.29,4.77-1.67.94-3.3,1.94-5.02,2.78h0Z"/></g><path class="cls-7" d="m97.3,102.58c-1.97-5.35-3.76-9.79-5.15-13.3-.34-.87-1.15-2.92-3.87-4.3-.95-.48-2.72-1.43-5.13-1.06-1.16.18-2.43.65-2.71.75-1.69.63-2.76,1.34-2.79,1.31-.04-.03.97-.7,2.24-1.36.36-.19.64-.34.99-.48.47-.2,1.82-.74,3.24-.86,1.73-.14,2.81.4,4.28,1.12,1.96.95,2.94,2.13,3.57,2.9.15.19.37.4.57.75.26.45.35.83.39.95.33,1.23.9,2.37,1.33,3.56,1.02,2.84,3.25,6.59,3.77,8.91.19.86.07,1.14-.07,1.2-.18.09-.45,0-.64-.07Z"/><path class="cls-1" d="m116.24,107.04c-.84-1.42-2.53-2.85-2.06-3.74.27-.52,1.04-.37,1.89-1.3.22-.24.75-.83.76-1.56.02-.94-.82-1.65-1.22-1.98-3.08-2.55-9.71-2.75-11.17-2.78-.96-.02-2.17-.02-3.57.04-.38,0-.74,0-1.06.01-1.46.03-8.09.23-11.17,2.78-.4.33-1.23,1.04-1.22,1.98.01.74.55,1.32.76,1.56.84.92,1.61.77,1.89,1.3.47.89-1.22,2.31-2.06,3.74-2.47,4.15.74,10.78,1.75,12.89,1.83,3.78,3.35,4.31,3.92,7.71.46,2.73-.34,3.5.52,4.75,1.55,2.29,5.97,2.37,8.56,2.21,2.58.04,5.98-.31,7.3-2.26.85-1.26.06-2.02.52-4.75.57-3.4,2.09-3.93,3.92-7.71,1.02-2.1,4.22-8.73,1.75-12.89Z"/><path class="cls-1" d="m96.34,95.96c-2.56.3-5.82.97-7.73,2.55-.4.33-1.24,1.04-1.22,1.98.01.74.55,1.32.77,1.56.84.92,1.61.77,1.89,1.3.47.89-1.22,2.31-2.07,3.74-2.47,4.15.74,10.78,1.76,12.89,1.83,3.78,3.35,4.31,3.92,7.71.46,2.73-.34,3.5.52,4.75.49.72,1.26,1.22,2.16,1.56.06-.62.16-1.55.26-2.68.2-2.35.87-10.67.31-25.08-.1-2.61-.27-6.11-.57-10.28Z"/><path class="cls-7" d="m81.68,71.52c.08-.05.14-.05.17-.05.16.01.32.22.35.51-.13.15-.3.36-.48.61,0,0-.2.29-.39.62-.27.48-.78,1.92-1.22,3.92,0,0-2.89,6.59-14.07,10.21-.5.16-1.54.47-2.72.14-.36-.1-.62-.26-.92-.41-.76-.38-1.73-1-2.27-2-.48-.89-.25-1.04-1.15-1.16-.9-.12-2.75.42-.9-.12,1.86-.53,1.32.08,1.77-.92.11-.24.73-2.79,7.37-6.86,0,0,7.24-4.44,11.18-3.85.22.03.69.1.68.14,0,.07-1.66-.02-.28-.04.18,0,.37.03,1.27.24.16.04.32.05.51.02.2-.03.35-.09.45-.14"/><path class="cls-7" d="m79.1,74.31c-4.54,4.52-10.16,7.96-16.2,9.9,5.71-2.77,11.11-6.07,16.2-9.9h0Z"/><path class="cls-7" d="m76.29,86.55c-1.34.23-3.47.79-5.62,2.31-.84.6-2.45,1.88-3.69,3.97-.65,1.1-1.09,2.57-1.02,2.6.02,0,.07-.08.27-.34.12-.15.21-.25.37-.43.37-.41.55-.62.62-.65.46-.23,1.18.49,1.53.74,1.98,1.4,7.77-1.36,8.55-4.65.18-.77.05-1.47.53-2.94.27-.81.59-1.44.81-1.83"/><path class="cls-7" d="m76.03,88.15c-1.8,2-3.91,3.7-6.25,4.99.88-1.03,1.9-1.9,2.93-2.74,1.05-.83,2.13-1.62,3.31-2.24h0Z"/></g><g><path class="cls-3" d="m30.15,54.91c-1.64-1.99-6.63-8.52-7.27-17.4-.28-3.93.44-6.79,1.9-12.51.09-.37.6-2.31,1.17-2.29.43.02.52,1.13,1.27,2.4.86,1.45,2,2.13,2.45,2.47,3.34,2.48,11.85,17.41,9.43,26.46-.27,1-.77,2.28-1.44,5.05-.93,3.81-1,5.53-1.67,5.65-.45.08-1.29-.53-2.93-4.73"/><path class="cls-3" d="m35.81,77.71c.78-2.41,2.58-6.85,6.69-10.81,6.22-5.99,13.72-6.76,14.77-6.84,6.38-.49,11.93,1.83,11.87,2.21-.02.14-.83.06-1.44.1-5.2.29-5.93,8.93-12.18,13.11-6.03,4.04-11.65.19-15.2,4.55-.61.75-2.47,3.35-5.12,3.44-.52.02-.95-.07-1.23-.14.61-1.87,1.23-3.74,1.84-5.62Z"/><g><path class="cls-1" d="m52.14,95.58c-1.8-.43-3.71-.81-5.73-1.12-5.06-.78-9.69-.95-13.76-.81-3.81-.09-8.08.1-12.7.8-2.02.31-3.93.68-5.73,1.11-.22.7-.49,1.86-.41,3.28.07,1.3.41,2.33.68,2.98.41.26,1.16.35,1.16.83,0,.55,7.89,27.55,7.89,27.55,1.82.53,4.06,1.01,6.63,1.2,1.33.1,2.57.1,3.7.06.71,0,1.45-.02,2.23-.08,2.58-.18,4.81-.65,6.63-1.18,0,0,7.96-26.97,7.97-27.53,0-.48.76-.56,1.17-.83.27-.65.61-1.68.69-2.98.08-1.43-.18-2.58-.4-3.28Z"/><path class="cls-7" d="m25.73,93.81c-1.9.13-3.87.34-5.91.65-2.02.31-3.94.68-5.74,1.1-.22.7-.49,1.85-.41,3.28.07,1.3.41,2.33.68,2.98.41.26,1.17.35,1.17.83,0,.55,7.89,27.53,7.89,27.53.37.1.74.2,1.12.3,1.12.29,2.21.55,3.28.77-1.48-5.18-2.92-12.07-3.22-20.27-.24-6.7.35-12.52,1.14-17.18Z"/><path class="cls-7" d="m24.51,97.28c.87-.02,1.3-.07,1.57-.12,1.59-.29,2.4-1,5.14-1.18,4.01-.26,5.99.48,12.62.62,0,0,3.83.08,7.18.91.57.14.66.17.66.17.65.2.82.36.95.26.07-.05.15-.19-.05-1.19-.1-.5-.21-.9-.29-1.19-.71-.17-1.61-.37-2.65-.58,0,0-1.48-.29-2.99-.52-5.13-.79-9.83-.96-13.95-.82-3.86-.09-8.19.1-12.88.81-2.05.31-3.99.69-5.81,1.12-.17.59-.26,1.1-.3,1.5-.07.6-.06.99-.05,1.54.01.52.05.59.08.6.16.04.31-1.06.89-1.7.46-.5,1.12-.66,3.26-.6,2.79.08,4.11.44,6.62.38Z"/><ellipse class="cls-4" cx="32.94" cy="97.53" rx="18.29" ry="1.73"/></g><path class="cls-6" d="m35.4,98.22c-.94-3-2.53-9.7.45-16.21,2.34-5.1,6.48-7.86,10.51-10.54,6.03-4,13.25-6.5,13.13-6.81,0-.02-.05-.02-.08-.02-3.84-.04-11.29,4-11.29,4-2.65,1.44-2.2,1.16-2.7,1.46-2.47,1.46-5.6,3.57-8.89,6.57-1,1.2-2.29,2.99-3.33,5.39-2.93,6.74-2.84,15.58-.15,16.66.41.16,1.13.24,2.34-.49Z"/><path class="cls-7" d="m20.54,72.57c-5.17-2.14-10.02-1.17-12.17-.17-.54.25-1.74.83-2.71,2.14-.22.3-1.1,1.53-1.18,3.19-.03.48.01,1.13.15,1.18.02,0,.11-.19.4-.67.75-1.25,1.29-1.02,1.46-.96.01,0,.02.01.02.01.27.16.4.24.66.46.5.41,1.76.76,1.76.76,1.23.51,3.29,1.19,7.92,2.16,7.52,1.58,9.57,2.05,11.51,3.28.35.22.63.42.85.6.26.21.57.41.92.69.83.66.99.89,1.1.84.26-.13-.21-1.64-.39-2.13-2.92-8.32-10.29-11.37-10.29-11.37Z"/><path class="cls-6" d="m32.98,90.98c-1.62-4.56-4.35-8.77-8.19-11.64-4.55-3.39-10.36-4.46-15.85-3.48-.87.15-1.75.35-2.61.59,1.27-.69,2.65-1.18,4.07-1.52,7.38-1.79,15.16,1.29,19.39,7.78,1.62,2.48,2.79,5.31,3.19,8.27h0Z"/><path class="cls-7" d="m34.03,90.29c.4-.69,1.09-1.67,2.2-2.5,2.84-2.11,4.73-.25,10.9-1.37,2.72-.5,4.46-1.24,7.16-.59,1.1.26,1.82.63,1.92.44.21-.38-2.25-2.75-5.52-3.52-.81-.19-1.39-.27-2.31-.26-2.51.05-9.35,1.55-10.71,2.48-1.13.77-1.77,1.37-2.21,1.96-.95,1.26-1.29,2.57-1.43,3.35Z"/><path class="cls-7" d="m29.33,68.98c-.26-1.63-.73-3.83-1.64-6.33-.8-2.18-2.05-5.61-4.92-8.93-1.23-1.43-5.42-6.32-12.18-7.33C4.89,45.54-.05,47.85,0,48.31c.03.23,1.41,0,3.07.98.84.49,1.35,1.05,1.59,1.31,2.3,2.5,4.9,4.72,6.99,7.41,1.9,2.44,6.38,6.01,17.68,10.98Z"/><path class="cls-1" d="m31.72,75.53c-.67-2.19-1.58-3.6-3.05-5.87-2.36-3.66-4.62-6-7.12-8.55-.23-.23-5.78-5.86-11.57-9.53-.68-.43-.91-.55-.9-.55.02-.03,6.49,3,12.68,8.49,1.14,1.01,2.03,1.89,2.62,2.5,1.76,2.12,3.53,4.24,5.29,6.36,1.23,1.48,2.77,3.76,3.67,6.86.45,1.55,1.14,3.98.53,6.96-.32,1.58-1.03,3.38-1.38,3.31-.56-.11.85-4.69-.76-9.98Z"/><path class="cls-6" d="m34.13,77.43c.31-2.29.85-6.42.76-11.3-.1-5.58-.98-9.56-2.11-14.58-.09-.42-2.44-10.64-6.39-18.87-.46-.96-.64-1.26-.63-1.26.04-.02,5.18,8,8.32,18.52.58,1.93.97,3.55,1.21,4.64,0,0,1.27,5.64,1.56,10.85.59,10.45-4.06,20.7-4.34,20.62-.15-.04.83-2.88,1.61-8.62Z"/><path class="cls-1" d="m34.01,90.32s.3-.78.81-1.65c.24-.41.84-1.4,1.63-2.05.17-.14.38-.29.62-.43.28-.16.54-.29.76-.37,0,0,.84-.38,1.73-.66,2.02-.63,4.61-.7,4.61-.7,4.17-.1,8.38.18,8.37.26,0,.03-.65-.02-2.54,0-1.6.02-3.5.04-5.83.26-1.67.16-3.02.37-4.4.7-1.73.41-2.4.73-2.97,1.12-.98.67-1.69,1.59-1.97,2.04-.26.41-.54.94-.54.94-.19.35-.29.55-.29.55Z"/><path class="cls-3" d="m42.09,57.72c.09-.68.29-2.62.73-4.6.04-.2.09-.41.17-.68.21-.73.56-1.67,1.29-3,3.16-5.78,8.07-9.97,8.07-9.97,2.48-2.12,4.25-3.05,5.18-5.63.41-1.14.55-2.27.86-2.27.53,0,1.01,3.33,1.15,5.52.38,6.19-1.17,17.21-7.24,20.18-1.25.61-2.95,1.01-5.12,2.76-1.31,1.06-1.36,1.47-3.25,3.31-1.92,1.87-4.97,4.49-5.44,4.07-.18-.17.1-.74.47-1.55,1.91-4.12,2.86-6.18,3.12-8.14Z"/><path class="cls-4" d="m56.09,40.85c-4.94,11.27-11.92,21.64-20.41,30.39,6.95-10.05,13.76-20.13,20.41-30.39h0Z"/><path class="cls-3" d="m31.3,91.34c-.32-.37-.86-.91-1.63-1.4-2.7-1.7-4.15.05-8.19-1.04,0,0-4.2-1.13-5.83-1.16-.33,0-.59.02-.59.02-.29.03-.35.07-.36.05-.05-.11,1.36-1.31,3.83-1.94.05-.01.08-.02.11-.03,1.26-.31,2.99-.73,5.25-.35,2.22.37,3.72,1.31,4.47,1.79,1.06.67,1.51,1.18,1.72,1.45.76.96,1.08,1.98,1.22,2.6Z"/><path class="cls-1" d="m31.29,91.34s-.19-.39-.4-.75c-.31-.52-.67-1.12-1.23-1.6-.21-.18-.45-.35-.45-.35-.22-.15-.41-.27-.57-.36-.08-.04-.6-.32-1.26-.5-4.02-1.1-6.82-1.02-6.82-1.02-2.09.06-3.78.43-3.77.5,0,.05,1.3-.12,3.12-.09,1.35.03,2.28.16,4.09.42,4.39.63,5.14,1.21,5.55,1.55.66.55,1.08,1.16,1.33,1.59.19.31.4.62.41.61Z"/></g><g><path class="cls-8" d="m58.36,140.63s3.61,3.29,10.83,2.94c7.22-.35,11.13-.87,11.43-2.08.3-1.21,3.46-39.28,3.46-39.28l1.74-29.23-30.24-.12,2.78,67.76Z"/><path class="cls-5" d="m62.36,71.6c-1.33-.14-4.55-.4-6.17.58-.21.12-.6.37-.6.69,0,.62,1.48,1.06,1.99,1.21,3.59,1.08,11.09.88,13.78.91,2.39.03,12.2.27,13.81-.99.17-.14.68-.54.65-1.01,0,0-.03-.42-.61-.79-1.24-.8-17.06-.67-22.85-.6Z"/><g><g><path class="cls-3" d="m67.76,74.25c-.39-3.72-1.07-6.88-1.74-9.34-.49-1.79-1.32-4.81-3.02-8.41-1.34-2.85-2.37-4.25-2.2-4.41.27-.25,3.7,3.11,6.03,7.48,1.27,2.37,3.47,7.39,3.37,15.08"/><path class="cls-3" d="m63.35,73.99c-.41-1.64-1.29-4.35-3.37-6.54-4.62-4.89-12.15-4.05-12.19-3.74-.02.18,2.55.09,5.69,1.87,3.59,2.04,5.87,5.36,7.31,8.14"/><path class="cls-3" d="m74.14,73.65c-.89-3.57-1.61-8.49-.7-14.02,1.04-6.31,3.79-10.79,3.37-11.08-.38-.26-3.07,3.03-4.64,7.21-2.71,7.21-1.16,14.52,0,18.42"/><path class="cls-1" d="m75.43,74.71c.06.06.26.07.66.08,0,0,.44,0,.86-.08,1.44-.29,5.81-7.74,5.81-7.74,3.65-6.22,10.4-7.01,10.22-7.51-.16-.47-5.94.48-10.95,5.01-4.52,4.08-7.02,9.8-6.6,10.24Z"/><path class="cls-1" d="m72.86,74.86c.48-4.66,1.35-8.44,2.11-11.15,1.58-5.61,2.96-7.58,3.96-8.73,1.66-1.91,3.75-3.24,3.96-2.96.19.25-1.16,1.63-2.51,3.79-1.64,2.62-2.32,4.84-3.5,8.8-.8,2.7-1.72,6.34-2.37,10.77"/><path class="cls-3" d="m75.37,74.03c1.24-2.19,3.18-5.39,5.87-8.95,4.76-6.28,8.56-9.32,8.31-9.71-.28-.43-5.45,2.56-9.96,7.82-3.47,4.04-5.52,8.24-6.73,11.23"/><path class="cls-1" d="m69.08,75.54c-.08.04-.27-.03-.65-.16,0,0-.42-.14-.8-.37-1.29-.78-3.5-9.39-3.5-9.39-1.85-7.2-8.08-10.29-7.78-10.71.28-.39,5.53,2.52,9.13,8.57,3.24,5.46,4.12,11.78,3.6,12.06Z"/><path class="cls-1" d="m71.37,75.11c.6-4.64.63-8.55.51-11.4-.24-5.89-1.12-8.21-1.82-9.62-1.17-2.34-2.87-4.26-3.14-4.05-.24.18.74,1.92,1.55,4.42.98,3.02,1.13,5.37,1.36,9.55.16,2.85.21,6.63-.17,11.11"/><path class="cls-1" d="m64.04,75.59c-.67-2.7-1.59-4.93-2.45-6.66-.62-1.25-1.69-3.37-3.64-5.8-1.55-1.92-2.68-2.82-2.53-2.95.25-.22,3.91,1.79,6.57,4.69,1.44,1.57,4.02,4.98,4.5,10.68"/><path class="cls-3" d="m67.01,75.77c-.67-2.7-1.59-4.93-2.45-6.66-.62-1.25-1.69-3.37-3.64-5.8-1.55-1.92-2.68-2.82-2.53-2.95.25-.22,3.91,1.79,6.57,4.69,1.44,1.57,4.02,4.98,4.5,10.68"/><path class="cls-1" d="m73.12,75.71c.43-2.76,1.16-5.09,1.86-6.91.51-1.32,1.39-3.55,3.12-6.19,1.37-2.09,2.42-3.11,2.26-3.23-.26-.19-3.74,2.23-6.13,5.42-1.3,1.73-3.57,5.42-3.55,11.14"/><path class="cls-3" d="m76.72,74.76c.6-1.56,1.81-4.1,4.13-5.94,5.17-4.1,12.52-2.06,12.52-1.75,0,.18-2.54-.32-5.86.94-3.8,1.44-6.46,4.37-8.23,6.89"/></g><path class="cls-1" d="m61.54,74.6c-1.27-1.83-3.82-4.91-7.79-6.16-4.75-1.5-9.03.4-9.01.65.02.26,4.59-.44,8.85,1.21,1.13.44,1.95.76,2.84,1.59,1.23,1.14,1.47,2.19,2.6,2.71.92.42,1.86.23,2.52,0Z"/><path class="cls-1" d="m77.57,77.97c1.04-2.02,3.2-5.47,6.98-7.35,4.52-2.24,8.99-1.04,9-.79,0,.26-4.6.29-8.62,2.61-1.06.61-1.84,1.06-2.62,2.03-1.08,1.32-1.19,2.4-2.25,3.1-.86.57-1.81.53-2.49.4Z"/></g><path class="cls-3" d="m58.39,141.34s3.6,3.3,10.81,2.95c7.21-.35,11.11-.87,11.41-2.08.3-1.22,3.45-39.4,3.45-39.4.58-9.9,1.16-19.8,1.74-29.69-4.45.5-9.28.83-14.45.89-1.11.01-.13-.01-7.35-.09-1.98-.02-3.91-.04-6.48-.54-.81-.16-1.48-.32-1.94-.44.94,22.8,1.87,45.61,2.81,68.41Z"/><path class="cls-7" d="m55.59,72.93s4.95.89,5.69.95,2.35-.02,2.39.05c.04.07-.21,69.8-.21,69.8,0,0-.51-.05-.74-.13-.23-.08-1.81-.7-1.81-.7l-1.3-.7-1.2-.86-2.81-68.41Z"/></g></g></svg>