<?xml version="1.0" encoding="UTF-8"?><svg id="Layer_2" xmlns="http://www.w3.org/2000/svg" viewBox="0 0 79.06 44.2"><defs><style>.cls-1{fill:#b7b7b7;}.cls-2{fill:#939393;}.cls-3{fill:#fff;}.cls-4{fill:#142b20;opacity:.46;}.cls-5{fill:#b2b2b2;}.cls-6{fill:#8d8d8d;}.cls-7{fill:#595a5b;opacity:.18;}.cls-8{fill:#d3d3d3;}.cls-9,.cls-10{fill:none;}.cls-10{stroke:#000;stroke-linecap:round;stroke-linejoin:round;stroke-width:.3px;}</style></defs><g id="Journal"><path class="cls-4" d="m75.32,30.46l-55.37,13.74s-6.91-4.93-5.95-11.4c.5-3.38,7.82-4.11,5.62-7.73-1.36-2.23-7.21-5.5-7.19-5.64l7.86,1.49L63.49,2.6s3.28,3.85,5.98,6.86c2.52,2.82,6.37,4.84,7.77,7.45,2.9,5.41,2.4,10.62-1.92,13.54Z"/><path class="cls-6" d="m4.24,17.45l-4.24,1.39s6.08,6.2,6.64,11.54c.42,3.97,4.83,9.36,8.35,8.3s-5.36-15.6-8.37-20.22"/><line class="cls-9" x1="63.54" y1="11.6" x2="52.07" y2="15.84"/><g><line class="cls-9" x1="51.02" y1="16.14" x2="39.34" y2="20.79"/><line class="cls-9" x1="51.52" y1="16.48" x2="39.81" y2="21.1"/><line class="cls-9" x1="52.01" y1="16.83" x2="40.29" y2="21.43"/><line class="cls-9" x1="52.5" y1="17.2" x2="40.76" y2="21.78"/><line class="cls-9" x1="52.98" y1="17.59" x2="41.22" y2="22.14"/><line class="cls-9" x1="53.46" y1="17.99" x2="41.68" y2="22.52"/><line class="cls-9" x1="53.92" y1="18.4" x2="42.13" y2="22.91"/><line class="cls-9" x1="54.38" y1="18.83" x2="42.57" y2="23.32"/><line class="cls-9" x1="54.82" y1="19.28" x2="42.99" y2="23.74"/><line class="cls-9" x1="55.25" y1="19.73" x2="43.4" y2="24.17"/><line class="cls-9" x1="55.67" y1="20.2" x2="43.8" y2="24.62"/><line class="cls-9" x1="56.07" y1="20.69" x2="44.18" y2="25.08"/><line class="cls-9" x1="56.44" y1="21.18" x2="44.54" y2="25.55"/><line class="cls-9" x1="56.8" y1="21.69" x2="44.87" y2="26.04"/><line class="cls-9" x1="57.14" y1="22.2" x2="45.19" y2="26.53"/><line class="cls-9" x1="57.45" y1="22.73" x2="45.49" y2="27.04"/><line class="cls-9" x1="57.74" y1="23.27" x2="45.75" y2="27.55"/><line class="cls-9" x1="58" y1="23.82" x2="46" y2="28.07"/><line class="cls-9" x1="58.23" y1="24.37" x2="46.21" y2="28.61"/><line class="cls-9" x1="58.43" y1="24.94" x2="46.39" y2="29.15"/><line class="cls-9" x1="58.6" y1="25.51" x2="46.54" y2="29.7"/><line class="cls-9" x1="58.74" y1="26.09" x2="46.66" y2="30.25"/><line class="cls-9" x1="58.84" y1="26.67" x2="46.74" y2="30.82"/><line class="cls-9" x1="58.9" y1="27.27" x2="46.79" y2="31.39"/><line class="cls-9" x1="58.93" y1="27.87" x2="46.79" y2="31.96"/><line class="cls-9" x1="58.91" y1="28.47" x2="46.76" y2="32.55"/></g><g><line class="cls-9" x1="26.31" y1="27.02" x2="13.91" y2="31.73"/><line class="cls-9" x1="26.65" y1="27.37" x2="14.25" y2="32.05"/><line class="cls-9" x1="26.99" y1="27.72" x2="14.58" y2="32.38"/><line class="cls-9" x1="27.32" y1="28.06" x2="14.91" y2="32.7"/><line class="cls-9" x1="27.65" y1="28.4" x2="15.23" y2="33.02"/><line class="cls-9" x1="27.97" y1="28.74" x2="15.55" y2="33.34"/><line class="cls-9" x1="28.28" y1="29.07" x2="15.86" y2="33.65"/><line class="cls-9" x1="28.59" y1="29.42" x2="16.17" y2="33.97"/><line class="cls-9" x1="28.9" y1="29.76" x2="16.47" y2="34.3"/><line class="cls-9" x1="29.19" y1="30.11" x2="16.76" y2="34.63"/><line class="cls-9" x1="29.48" y1="30.47" x2="17.04" y2="34.96"/><line class="cls-9" x1="29.76" y1="30.83" x2="17.32" y2="35.3"/><line class="cls-9" x1="30.03" y1="31.19" x2="17.58" y2="35.65"/><line class="cls-9" x1="30.29" y1="31.57" x2="17.84" y2="36.01"/><line class="cls-9" x1="30.54" y1="31.96" x2="18.09" y2="36.38"/><line class="cls-9" x1="30.78" y1="32.36" x2="18.33" y2="36.76"/><line class="cls-9" x1="31.01" y1="32.77" x2="18.55" y2="37.15"/><line class="cls-9" x1="31.23" y1="33.2" x2="18.77" y2="37.55"/><line class="cls-9" x1="31.44" y1="33.64" x2="18.97" y2="37.97"/><line class="cls-9" x1="31.64" y1="34.09" x2="19.17" y2="38.41"/><line class="cls-9" x1="31.82" y1="34.57" x2="19.35" y2="38.86"/><line class="cls-9" x1="31.99" y1="35.06" x2="19.51" y2="39.33"/><line class="cls-9" x1="32.14" y1="35.57" x2="19.66" y2="39.82"/><line class="cls-9" x1="32.29" y1="36.1" x2="19.8" y2="40.33"/><line class="cls-9" x1="32.41" y1="36.65" x2="19.92" y2="40.86"/><line class="cls-9" x1="32.53" y1="37.23" x2="20.03" y2="41.42"/></g><g><line class="cls-9" x1="38.38" y1="21.08" x2="26.38" y2="25.65"/><line class="cls-9" x1="38.84" y1="21.42" x2="26.83" y2="25.97"/><line class="cls-9" x1="39.3" y1="21.77" x2="27.27" y2="26.3"/><line class="cls-9" x1="39.75" y1="22.12" x2="27.71" y2="26.64"/><line class="cls-9" x1="40.19" y1="22.48" x2="28.14" y2="26.98"/><line class="cls-9" x1="40.63" y1="22.85" x2="28.56" y2="27.33"/><line class="cls-9" x1="41.05" y1="23.22" x2="28.97" y2="27.69"/><line class="cls-9" x1="41.47" y1="23.61" x2="29.38" y2="28.06"/><line class="cls-9" x1="41.87" y1="24" x2="29.77" y2="28.43"/><line class="cls-9" x1="42.27" y1="24.41" x2="30.15" y2="28.82"/><line class="cls-9" x1="42.65" y1="24.82" x2="30.52" y2="29.22"/><line class="cls-9" x1="43.02" y1="25.25" x2="30.87" y2="29.62"/><line class="cls-9" x1="43.37" y1="25.68" x2="31.21" y2="30.04"/><line class="cls-9" x1="43.71" y1="26.13" x2="31.54" y2="30.47"/><line class="cls-9" x1="44.03" y1="26.6" x2="31.85" y2="30.92"/><line class="cls-9" x1="44.34" y1="27.07" x2="32.14" y2="31.38"/><line class="cls-9" x1="44.62" y1="27.56" x2="32.41" y2="31.84"/><line class="cls-9" x1="44.89" y1="28.06" x2="32.67" y2="32.33"/><line class="cls-9" x1="45.14" y1="28.57" x2="32.9" y2="32.82"/><line class="cls-9" x1="45.37" y1="29.1" x2="33.12" y2="33.34"/><line class="cls-9" x1="45.57" y1="29.65" x2="33.31" y2="33.86"/><line class="cls-9" x1="45.76" y1="30.21" x2="33.48" y2="34.41"/><line class="cls-9" x1="45.91" y1="30.78" x2="33.63" y2="34.97"/></g><g><line class="cls-9" x1="63.54" y1="11.6" x2="52.07" y2="15.84"/><line class="cls-9" x1="63.96" y1="11.88" x2="52.47" y2="16.11"/><line class="cls-9" x1="64.38" y1="12.16" x2="52.88" y2="16.39"/><line class="cls-9" x1="64.8" y1="12.46" x2="53.29" y2="16.68"/><line class="cls-9" x1="65.23" y1="12.78" x2="53.7" y2="16.99"/><line class="cls-9" x1="65.65" y1="13.1" x2="54.11" y2="17.3"/><line class="cls-9" x1="66.08" y1="13.44" x2="54.51" y2="17.63"/><line class="cls-9" x1="66.49" y1="13.79" x2="54.92" y2="17.98"/><line class="cls-9" x1="66.91" y1="14.14" x2="55.32" y2="18.33"/><line class="cls-9" x1="67.31" y1="14.51" x2="55.71" y2="18.69"/><line class="cls-9" x1="67.71" y1="14.89" x2="56.09" y2="19.06"/><line class="cls-9" x1="68.1" y1="15.29" x2="56.47" y2="19.45"/><line class="cls-9" x1="68.47" y1="15.69" x2="56.82" y2="19.84"/><line class="cls-9" x1="68.83" y1="16.1" x2="57.17" y2="20.25"/><line class="cls-9" x1="69.18" y1="16.52" x2="57.51" y2="20.66"/><line class="cls-9" x1="69.51" y1="16.95" x2="57.82" y2="21.09"/><line class="cls-9" x1="69.82" y1="17.39" x2="58.12" y2="21.52"/><line class="cls-9" x1="70.11" y1="17.84" x2="58.39" y2="21.96"/><line class="cls-9" x1="70.38" y1="18.3" x2="58.65" y2="22.41"/><line class="cls-9" x1="70.63" y1="18.76" x2="58.88" y2="22.87"/><line class="cls-9" x1="70.85" y1="19.24" x2="59.09" y2="23.34"/><line class="cls-9" x1="71.05" y1="19.72" x2="59.27" y2="23.82"/><line class="cls-9" x1="71.21" y1="20.21" x2="59.42" y2="24.3"/><line class="cls-9" x1="71.35" y1="20.7" x2="59.55" y2="24.79"/><line class="cls-9" x1="71.46" y1="21.21" x2="59.64" y2="25.28"/><line class="cls-9" x1="71.53" y1="21.72" x2="59.7" y2="25.79"/><line class="cls-9" x1="71.57" y1="22.24" x2="59.72" y2="26.3"/><line class="cls-9" x1="71.57" y1="22.76" x2="59.71" y2="26.81"/><line class="cls-9" x1="71.54" y1="23.29" x2="59.66" y2="27.34"/><line class="cls-9" x1="71.47" y1="23.82" x2="59.58" y2="27.87"/><line class="cls-9" x1="71.35" y1="24.37" x2="59.45" y2="28.4"/></g><line class="cls-10" x1="64.47" y1="9.62" x2="52.14" y2="13.03"/><line class="cls-10" x1="31.36" y1="33.73" x2="44.63" y2="30.53"/><path class="cls-1" d="m5.83,16.15l-5.4,1.57s7.04,8.05,7.84,13.07c.65,4.11,4.8,9.89,8.18,7.29s-2.58-14.97-2.58-14.97l-5.91-6.53"/><path class="cls-6" d="m4.73,20.63s2.16-1.89,7.5,4.3c5.34,6.19,5.39,12.76,2.75,13.75-2.27.85-3.8-2.96-5.21-7.05C5.46,19.1,1.13,17.24.43,16.47l7.47-1.8"/><path class="cls-3" d="m1.9,15.42L57.98,0s3.57,5.05,8.93,8.84c3.94,2.79,7.59,7.72,6.73,12.84,0,0-.27,2.85-3.96,3.79-4.34,1.1-54.69,13.21-54.69,13.21,0,0-.78-5.24-3.97-9.47C7.83,25,1.35,20.93,1.9,15.42Z"/><g><polyline class="cls-2" points="4.72 16.58 57.61 1.96 57.58 1.84 4.69 16.46"/><polyline class="cls-2" points="5.11 17.12 58 2.49 57.97 2.37 5.08 17"/><polyline class="cls-2" points="9.47 24.65 63.84 8.9 63.8 8.79 9.44 24.53"/><polyline class="cls-2" points="9.03 24.07 63.44 8.33 63.4 8.21 9 23.95"/></g><g><polyline class="cls-8" points="51.23 13.69 38.65 17.49 38.57 17.65 38.73 17.73 51.3 13.93 51.38 13.77 51.23 13.69"/><polyline class="cls-8" points="51.72 14.08 39.13 17.86 39.04 18.01 39.2 18.09 51.79 14.31 51.87 14.16 51.72 14.08"/><polyline class="cls-8" points="52.2 14.48 39.59 18.24 39.51 18.39 39.66 18.47 52.27 14.72 52.36 14.57 52.2 14.48"/><polyline class="cls-8" points="52.68 14.9 40.05 18.63 39.97 18.79 40.13 18.87 52.75 15.14 52.84 14.99 52.68 14.9"/><polyline class="cls-8" points="53.15 15.34 40.51 19.05 40.43 19.2 40.58 19.29 53.22 15.58 53.31 15.43 53.15 15.34"/><polyline class="cls-8" points="54.94 17.24 42.22 20.85 42.13 21 42.29 21.09 55 17.48 55.09 17.33 54.94 17.24"/><polyline class="cls-8" points="55.35 17.75 42.61 21.33 42.53 21.48 42.68 21.57 55.41 17.99 55.5 17.84 55.35 17.75"/><polyline class="cls-8" points="55.74 18.27 42.99 21.83 42.9 21.98 43.06 22.06 55.81 18.51 55.89 18.36 55.74 18.27"/><polyline class="cls-8" points="56.11 18.8 43.35 22.33 43.26 22.48 43.41 22.57 56.18 19.04 56.27 18.89 56.11 18.8"/><polyline class="cls-8" points="56.47 19.34 43.68 22.85 43.59 23 43.75 23.09 56.53 19.58 56.62 19.43 56.47 19.34"/><polyline class="cls-8" points="56.8 19.9 44 23.38 43.91 23.53 44.06 23.62 56.86 20.14 56.95 19.98 56.8 19.9"/><polyline class="cls-8" points="57.11 20.46 44.29 23.91 44.2 24.06 44.35 24.15 57.17 20.7 57.26 20.55 57.11 20.46"/><polyline class="cls-8" points="57.39 21.03 44.55 24.46 44.46 24.61 44.61 24.7 57.45 21.27 57.54 21.12 57.39 21.03"/><polyline class="cls-8" points="57.64 21.61 44.79 25.01 44.7 25.16 44.85 25.25 57.71 21.85 57.8 21.7 57.64 21.61"/><polyline class="cls-8" points="57.87 22.19 45 25.57 44.91 25.72 45.06 25.81 57.93 22.43 58.02 22.28 57.87 22.19"/><polyline class="cls-8" points="58.06 22.79 45.17 26.14 45.09 26.29 45.24 26.38 58.13 23.03 58.22 22.88 58.06 22.79"/><polyline class="cls-8" points="58.23 23.39 45.32 26.71 45.23 26.87 45.38 26.95 58.29 23.63 58.38 23.48 58.23 23.39"/><polyline class="cls-8" points="58.36 23.99 45.43 27.29 45.34 27.45 45.49 27.53 58.42 24.23 58.51 24.08 58.36 23.99"/><polyline class="cls-8" points="58.45 24.6 45.51 27.88 45.42 28.03 45.57 28.12 58.51 24.84 58.6 24.69 58.45 24.6"/><polyline class="cls-8" points="58.51 25.21 45.55 28.47 45.46 28.62 45.61 28.71 58.57 25.45 58.66 25.3 58.51 25.21"/><polyline class="cls-8" points="58.53 25.83 45.54 29.06 45.45 29.21 45.6 29.3 58.59 26.07 58.68 25.92 58.53 25.83"/><polyline class="cls-8" points="58.5 26.45 45.5 29.65 45.41 29.8 45.56 29.9 58.56 26.69 58.65 26.54 58.5 26.45"/><polyline class="cls-8" points="58.44 27.07 45.42 30.25 45.33 30.4 45.48 30.49 58.5 27.31 58.59 27.16 58.44 27.07"/><polyline class="cls-8" points="24.55 22.83 11.22 26.63 11.14 26.79 11.29 26.87 24.62 23.07 24.7 22.91 24.55 22.83"/><polyline class="cls-8" points="24.88 23.22 11.54 27 11.46 27.15 11.61 27.24 24.94 23.45 25.03 23.3 24.88 23.22"/><polyline class="cls-8" points="25.2 23.6 11.86 27.36 11.78 27.51 11.93 27.6 25.26 23.84 25.35 23.68 25.2 23.6"/><polyline class="cls-8" points="25.51 23.98 12.18 27.72 12.09 27.87 12.25 27.96 25.58 24.22 25.67 24.07 25.51 23.98"/><polyline class="cls-8" points="25.83 24.36 12.49 28.08 12.4 28.23 12.56 28.31 25.89 24.6 25.98 24.44 25.83 24.36"/><polyline class="cls-8" points="26.13 24.73 12.8 28.43 12.71 28.58 12.86 28.67 26.2 24.97 26.29 24.82 26.13 24.73"/><polyline class="cls-8" points="26.44 25.11 13.09 28.79 13.01 28.94 13.16 29.03 26.5 25.35 26.59 25.2 26.44 25.11"/><polyline class="cls-8" points="26.73 25.49 13.39 29.14 13.3 29.3 13.45 29.38 26.8 25.73 26.88 25.58 26.73 25.49"/><polyline class="cls-8" points="27.02 25.87 13.67 29.5 13.59 29.66 13.74 29.74 27.08 26.11 27.17 25.96 27.02 25.87"/><polyline class="cls-8" points="27.3 26.26 13.95 29.87 13.86 30.02 14.01 30.11 27.36 26.49 27.45 26.34 27.3 26.26"/><polyline class="cls-8" points="27.57 26.65 14.22 30.24 14.13 30.39 14.28 30.47 27.63 26.89 27.72 26.73 27.57 26.65"/><polyline class="cls-8" points="27.83 27.04 14.48 30.61 14.39 30.76 14.54 30.85 27.89 27.28 27.98 27.13 27.83 27.04"/><polyline class="cls-8" points="28.08 27.45 14.72 30.99 14.64 31.14 14.79 31.23 28.14 27.68 28.23 27.53 28.08 27.45"/><polyline class="cls-8" points="28.32 27.86 14.96 31.38 14.88 31.54 15.03 31.62 28.38 28.1 28.47 27.95 28.32 27.86"/><polyline class="cls-8" points="28.55 28.28 15.19 31.78 15.1 31.93 15.26 32.02 28.61 28.52 28.7 28.37 28.55 28.28"/><polyline class="cls-8" points="28.77 28.71 15.41 32.19 15.32 32.35 15.47 32.43 28.83 28.95 28.92 28.8 28.77 28.71"/><polyline class="cls-8" points="28.97 29.15 15.61 32.62 15.52 32.77 15.67 32.86 29.04 29.39 29.13 29.24 28.97 29.15"/><polyline class="cls-8" points="29.17 29.61 15.81 33.05 15.72 33.2 15.87 33.29 29.23 29.85 29.32 29.7 29.17 29.61"/><polyline class="cls-8" points="29.35 30.08 15.98 33.5 15.89 33.65 16.04 33.74 29.41 30.32 29.5 30.17 29.35 30.08"/><polyline class="cls-8" points="29.51 30.57 16.15 33.97 16.06 34.12 16.21 34.21 29.58 30.81 29.66 30.66 29.51 30.57"/><polyline class="cls-8" points="29.67 31.07 16.3 34.45 16.21 34.6 16.36 34.69 29.73 31.31 29.82 31.16 29.67 31.07"/><polyline class="cls-8" points="29.8 31.6 16.43 34.95 16.34 35.1 16.49 35.19 29.86 31.84 29.95 31.69 29.8 31.6"/><polyline class="cls-8" points="29.92 32.14 16.55 35.47 16.46 35.62 16.61 35.71 29.98 32.38 30.07 32.23 29.92 32.14"/><polyline class="cls-8" points="30.03 32.69 16.65 36.01 16.56 36.16 16.71 36.25 30.09 32.93 30.18 32.78 30.03 32.69"/><polyline class="cls-8" points="30.11 33.28 16.73 36.57 16.64 36.72 16.79 36.81 30.17 33.52 30.26 33.37 30.11 33.28"/><polyline class="cls-8" points="30.18 33.88 16.8 37.15 16.71 37.3 16.86 37.39 30.24 34.12 30.33 33.97 30.18 33.88"/><polyline class="cls-8" points="37.63 17.71 24.73 21.42 24.65 21.57 24.8 21.66 37.7 17.95 37.79 17.8 37.63 17.71"/><polyline class="cls-8" points="38.09 18.1 25.17 21.79 25.09 21.94 25.24 22.03 38.15 18.34 38.24 18.19 38.09 18.1"/><polyline class="cls-8" points="38.53 18.5 25.61 22.16 25.52 22.32 25.68 22.4 38.6 18.74 38.69 18.59 38.53 18.5"/><polyline class="cls-8" points="38.97 18.9 26.04 22.55 25.95 22.7 26.1 22.78 39.04 19.14 39.13 18.99 38.97 18.9"/><polyline class="cls-8" points="39.41 19.31 26.46 22.93 26.37 23.09 26.52 23.17 39.47 19.55 39.56 19.4 39.41 19.31"/><polyline class="cls-8" points="39.83 19.73 26.87 23.33 26.78 23.49 26.93 23.57 39.9 19.97 39.98 19.81 39.83 19.73"/><polyline class="cls-8" points="40.24 20.15 27.27 23.74 27.18 23.89 27.33 23.98 40.31 20.39 40.39 20.24 40.24 20.15"/><polyline class="cls-8" points="40.64 20.58 27.66 24.15 27.57 24.3 27.72 24.39 40.71 20.82 40.8 20.67 40.64 20.58"/><polyline class="cls-8" points="41.03 21.03 28.04 24.57 27.95 24.73 28.1 24.81 41.1 21.26 41.19 21.11 41.03 21.03"/><polyline class="cls-8" points="41.41 21.48 28.4 25 28.32 25.16 28.47 25.24 41.48 21.72 41.56 21.56 41.41 21.48"/><polyline class="cls-8" points="41.78 21.94 28.75 25.44 28.67 25.6 28.82 25.68 41.84 22.18 41.93 22.02 41.78 21.94"/><polyline class="cls-8" points="42.12 22.41 29.09 25.9 29 26.05 29.15 26.14 42.19 22.65 42.28 22.49 42.12 22.41"/><polyline class="cls-8" points="42.46 22.89 29.41 26.36 29.32 26.51 29.47 26.6 42.52 23.13 42.61 22.97 42.46 22.89"/><polyline class="cls-8" points="42.77 23.38 29.71 26.83 29.63 26.98 29.78 27.07 42.83 23.62 42.92 23.47 42.77 23.38"/><polyline class="cls-8" points="43.85 25.46 30.74 28.84 30.65 28.99 30.8 29.08 43.91 25.7 44 25.55 43.85 25.46"/><polyline class="cls-8" points="44.06 26.02 30.94 29.37 30.85 29.52 31 29.61 44.12 26.26 44.21 26.1 44.06 26.02"/><polyline class="cls-8" points="44.25 26.58 31.12 29.92 31.03 30.07 31.18 30.16 44.32 26.82 44.41 26.67 44.25 26.58"/><polyline class="cls-8" points="44.42 27.16 31.28 30.48 31.19 30.63 31.34 30.72 44.48 27.4 44.57 27.25 44.42 27.16"/><polyline class="cls-8" points="44.57 27.75 31.41 31.05 31.32 31.2 31.47 31.29 44.63 27.99 44.72 27.84 44.57 27.75"/><polyline class="cls-8" points="44.69 28.36 31.52 31.64 31.43 31.79 31.58 31.88 44.75 28.6 44.84 28.45 44.69 28.36"/><polyline class="cls-8" points="44.78 28.99 31.6 32.24 31.51 32.39 31.66 32.48 44.84 29.23 44.93 29.08 44.78 28.99"/><polyline class="cls-8" points="44.84 29.63 31.65 32.86 31.56 33.01 31.71 33.1 44.9 29.87 44.99 29.72 44.84 29.63"/><polyline class="cls-8" points="44.88 30.28 31.67 33.5 31.58 33.65 31.73 33.74 44.93 30.52 45.03 30.37 44.88 30.28"/><polyline class="cls-8" points="64.67 10.06 52.35 13.46 52.26 13.61 52.41 13.7 64.74 10.3 64.82 10.14 64.67 10.06"/><polyline class="cls-8" points="65.08 10.38 52.74 13.77 52.66 13.92 52.81 14.01 65.15 10.62 65.23 10.46 65.08 10.38"/><polyline class="cls-8" points="65.5 10.71 53.15 14.1 53.06 14.25 53.21 14.34 65.56 10.95 65.65 10.8 65.5 10.71"/><polyline class="cls-8" points="65.92 11.06 53.55 14.43 53.46 14.59 53.62 14.67 65.98 11.29 66.07 11.14 65.92 11.06"/><polyline class="cls-8" points="66.33 11.41 53.95 14.78 53.87 14.94 54.02 15.02 66.4 11.65 66.49 11.5 66.33 11.41"/><polyline class="cls-8" points="66.75 11.78 54.36 15.15 54.27 15.3 54.42 15.39 66.81 12.02 66.9 11.87 66.75 11.78"/><polyline class="cls-8" points="67.16 12.17 54.75 15.52 54.67 15.67 54.82 15.76 67.23 12.41 67.31 12.25 67.16 12.17"/><polyline class="cls-8" points="67.57 12.56 55.15 15.91 55.06 16.06 55.21 16.15 67.63 12.8 67.72 12.65 67.57 12.56"/><polyline class="cls-8" points="67.97 12.97 55.53 16.3 55.45 16.46 55.6 16.54 68.03 13.21 68.12 13.06 67.97 12.97"/><polyline class="cls-8" points="68.36 13.38 55.91 16.71 55.82 16.86 55.98 16.95 68.43 13.62 68.51 13.47 68.36 13.38"/><polyline class="cls-8" points="68.75 13.81 56.28 17.13 56.19 17.28 56.34 17.37 68.81 14.05 68.9 13.9 68.75 13.81"/><polyline class="cls-8" points="69.12 14.25 56.64 17.56 56.55 17.71 56.7 17.8 69.18 14.49 69.27 14.33 69.12 14.25"/><polyline class="cls-8" points="69.47 14.69 56.98 18 56.89 18.15 57.04 18.24 69.54 14.93 69.62 14.78 69.47 14.69"/><polyline class="cls-8" points="69.82 15.15 57.31 18.44 57.22 18.6 57.37 18.68 69.88 15.39 69.97 15.24 69.82 15.15"/><polyline class="cls-8" points="70.14 15.61 57.62 18.9 57.53 19.05 57.68 19.14 70.21 15.85 70.3 15.7 70.14 15.61"/><polyline class="cls-8" points="70.45 16.08 57.91 19.36 57.82 19.52 57.97 19.6 70.51 16.32 70.6 16.17 70.45 16.08"/><polyline class="cls-8" points="70.74 16.56 58.19 19.84 58.1 19.99 58.25 20.08 70.8 16.8 70.89 16.65 70.74 16.56"/><polyline class="cls-8" points="71.01 17.05 58.44 20.31 58.35 20.47 58.5 20.56 71.07 17.29 71.16 17.14 71.01 17.05"/><polyline class="cls-8" points="71.25 17.55 58.67 20.8 58.58 20.95 58.73 21.04 71.31 17.79 71.4 17.64 71.25 17.55"/><polyline class="cls-8" points="71.47 18.05 58.87 21.29 58.78 21.45 58.93 21.54 71.53 18.29 71.62 18.14 71.47 18.05"/><polyline class="cls-8" points="71.66 18.55 59.05 21.79 58.96 21.95 59.11 22.03 71.72 18.79 71.81 18.64 71.66 18.55"/><polyline class="cls-8" points="71.82 19.07 59.2 22.3 59.11 22.45 59.26 22.54 71.88 19.31 71.97 19.16 71.82 19.07"/><polyline class="cls-8" points="71.96 19.59 59.32 22.81 59.23 22.96 59.38 23.05 72.02 19.83 72.11 19.68 71.96 19.59"/><polyline class="cls-8" points="72.06 20.11 59.41 23.33 59.32 23.48 59.47 23.57 72.12 20.35 72.21 20.2 72.06 20.11"/><polyline class="cls-8" points="72.13 20.64 59.46 23.85 59.37 24 59.52 24.09 72.19 20.88 72.28 20.73 72.13 20.64"/><polyline class="cls-8" points="72.16 21.17 59.48 24.37 59.39 24.52 59.54 24.61 72.22 21.41 72.31 21.26 72.16 21.17"/><polyline class="cls-8" points="72.16 21.71 59.47 24.9 59.37 25.05 59.53 25.14 72.22 21.95 72.31 21.8 72.16 21.71"/><polyline class="cls-8" points="72.12 22.25 59.41 25.43 59.32 25.58 59.47 25.67 72.18 22.49 72.27 22.34 72.12 22.25"/><polyline class="cls-8" points="72.04 22.79 59.32 25.97 59.23 26.12 59.38 26.21 72.1 23.03 72.19 22.88 72.04 22.79"/><polyline class="cls-8" points="71.92 23.34 59.18 26.51 59.09 26.66 59.24 26.75 71.98 23.58 72.07 23.43 71.92 23.34"/><polyline class="cls-8" points="71.76 23.89 59 27.05 58.91 27.2 59.06 27.29 71.82 24.13 71.91 23.98 71.76 23.89"/></g><g><path class="cls-5" d="m21.56,18.99l-3.3-3.7,1.18-.33,4.37,1.13c1.01.26,1.85.52,2.58.78h.02c-.54-.48-.97-.92-1.48-1.5l-1.38-1.55,1.02-.28,3.3,3.7-1.1.3-4.35-1.14c-.95-.25-1.89-.52-2.67-.8l-.03.02c.48.45.9.89,1.45,1.5l1.41,1.58-1.02.28Z"/><path class="cls-5" d="m32.57,13.79l-3.27.9,1.19,1.33,3.64-1,.36.4-4.73,1.3-3.3-3.7,4.54-1.25.36.4-3.46.95,1.04,1.17,3.27-.9.35.4Z"/><path class="cls-5" d="m37.39,14.62l-5.44-3.11,1.15-.32,2.67,1.59c.66.39,1.3.79,1.77,1.11h.02c-.19-.41-.32-.92-.46-1.48l-.54-2.17,1.13-.31,2.7,1.59c.63.37,1.25.75,1.72,1.1h.02c-.19-.46-.32-.94-.47-1.47l-.56-2.17,1.11-.31.92,4.35-1.13.31-2.78-1.63c-.68-.4-1.18-.71-1.63-1.05h-.03c.18.42.31.83.43,1.39l.52,2.26-1.13.31Z"/><path class="cls-5" d="m45.89,11.55c.6,0,1.41-.09,2.16-.3,1.11-.31,1.53-.74,1.2-1.12-.31-.35-.93-.42-2.24-.3-1.56.17-2.69.09-3.16-.44-.51-.58.19-1.3,1.82-1.75.86-.24,1.56-.32,2.02-.33l.05.47c-.33.01-.99.06-1.75.27-1.15.32-1.31.74-1.09.99.31.34.97.38,2.31.25,1.64-.15,2.63-.05,3.12.49.51.57,0,1.33-1.99,1.88-.81.22-1.79.36-2.36.36l-.08-.48Z"/></g><path class="cls-7" d="m11.46,29.83c.94,1.5,1.84,3.51,2.66,5.48.12.28.75,2.56.86,3.38,1.6-.43,51.81-12.51,55.12-13.33,2.89-.71,3.54-3.1,3.65-5,.06-1.05-.19-2.16-.5-3.3,0,0,0,0,0,0-20.83,6.51-36.58,12.91-46.05,14.1-11.84,1.49-14.94-2.84-17.69-5.36-2.57-2.35-5.94-5.12-6.9-6.53,0,0,0-.08,0,0,.25.68,1.09,2.03,2.37,3.46,2.51,2.83,5.4,5.41,6.47,7.1Z"/><g><path class="cls-2" d="m11.45,24.96l-.35.1-.1-.12.84-.24.1.12-.35.1.83.95-.15.04-.83-.95Z"/><path class="cls-2" d="m13.35,24.93c.32.37.25.63-.04.71-.3.09-.7-.07-.99-.4-.3-.34-.26-.63.04-.71.31-.09.71.08.98.39Zm-.87.27c.2.23.51.4.74.33.23-.07.19-.31-.02-.55-.19-.21-.5-.4-.74-.33-.24.07-.18.32.03.55Z"/><path class="cls-2" d="m13.1,24.36c.06-.03.15-.07.26-.1.15-.04.28-.04.4,0,.11.03.21.1.29.2s.12.18.11.25c0,.1-.1.18-.25.22-.04.01-.08.02-.13.02l.37.43-.15.04-.92-1.06Zm.6.47s.08,0,.13-.02c.18-.05.21-.16.08-.31-.12-.14-.29-.18-.45-.13-.06.02-.11.04-.13.05l.36.42Z"/><path class="cls-2" d="m15.28,25.05l-.93-1.07.16-.05.84.44c.19.1.36.19.51.29h0c-.14-.14-.25-.27-.4-.44l-.39-.45.14-.04.93,1.07-.15.04-.83-.44c-.18-.1-.37-.2-.53-.3h0c.13.14.24.26.4.44l.4.46-.14.04Z"/><path class="cls-2" d="m16.55,24.06l-.44.13.34.38.49-.14.1.12-.64.18-.93-1.07.61-.18.1.12-.47.13.29.34.44-.13.1.12Z"/><path class="cls-2" d="m17.43,24.44l-1.22-.99.16-.04.61.5c.15.12.3.25.41.34h0c-.07-.11-.15-.25-.23-.4l-.32-.58.15-.04.61.5c.14.12.28.24.4.34h0c-.08-.12-.15-.25-.23-.4l-.32-.58.15-.04.61,1.16-.15.04-.63-.52c-.15-.12-.27-.22-.38-.33h0c.07.11.14.22.22.38l.32.6-.15.04Z"/><path class="cls-2" d="m18.51,23.92c.1.02.22.02.32,0,.15-.04.17-.14.08-.25-.09-.1-.2-.14-.4-.15-.24,0-.43-.07-.56-.22-.15-.17-.11-.33.11-.4.12-.03.22-.03.3-.02l.06.12c-.05,0-.16-.02-.26.01-.16.04-.14.15-.07.22.09.1.2.13.41.14.25.01.43.07.56.23.14.16.14.34-.13.42-.11.03-.26.04-.35.01l-.06-.13Z"/></g></g></svg>