<?xml version="1.0" encoding="UTF-8"?><svg xmlns="http://www.w3.org/2000/svg" viewBox="0 0 137.74 106.89"><defs><style>.cls-1{fill:#b7b7b7;}.cls-2{fill:#fff;}.cls-3{isolation:isolate;}.cls-4{fill:#909090;}.cls-5{fill:#3c1d15;opacity:.5;}.cls-6{fill:#773f26;opacity:.47;}.cls-7,.cls-8{fill:#e5e5e5;}.cls-9{fill:#bebebe;}.cls-8{mix-blend-mode:multiply;}.cls-10{fill:#828282;opacity:.6;}.cls-11{fill:#6e6e6e;}</style></defs><g class="cls-3"><g id="Layer_2"><g id="niche_blanc"><g><polyline class="cls-6" points="134.47 84.79 133.24 78.97 134.99 77.42 132.9 67.79 135.49 67.04 132.9 56.85 135.87 55.79 134.47 44.47 137.74 42.29 102.12 1.47 95.37 1.85 58.24 16.28 79.54 64.35 63.67 102.16 64.06 106.5 82.62 106.89 135.68 90.94"/><path class="cls-5" d="m18.27,100.13s5.04,3.67,5.41,3.8,0,1.37,0,1.37c0,0,19.82-8.72,27.72-9.23s12.36-.58,12.75,4.46-1.35,5.12-1.35,5.12l8.97-1.95v-24.89"/><polygon class="cls-11" points="3.56 46.81 3.23 49.95 22.65 45.1 20.51 29.15 3.56 46.81"/><polygon class="cls-7" points="77.54 34.27 16.16 32.7 14.05 35.32 11.68 47.86 13.27 47.91 77.54 49.55 77.54 34.27"/><path class="cls-10" d="m77.54,35.99v-1.72l-61.38-1.57-2.1,2.62-.15.62c5.48.11,63.34.02,63.63.05Z"/><polygon class="cls-7" points="77.54 49.55 13.27 47.91 11.82 64.38 13.1 64.38 13.08 64.57 77.54 64.35 77.54 49.55"/><path class="cls-10" d="m77.54,50.94v-1.39l-64.26-1.64-.22,2.5c6.65.49,64.36.53,64.48.53Z"/><g><polygon class="cls-7" points="75.68 4.75 42.35 0 26.54 19.74 77.54 20.97 75.68 4.75"/><polygon class="cls-7" points="26.54 19.74 16.16 32.7 77.54 34.27 77.54 20.97 26.54 19.74"/><path class="cls-10" d="m73.92,22.74c1.56.04,2.43.08,3.99.14l-.37-1.91-51-1.23-1.75,1.44c10.15.1,43.07,1.43,49.14,1.57Z"/></g><polygon class="cls-7" points="77.54 64.35 13.08 64.57 11.32 77.51 12.72 77.3 12.72 77.39 77.54 77.83 77.54 64.35"/><path class="cls-10" d="m29.19,66.12c7.69.06,15.38.12,23.08.12s15.37-.1,23.04.01c.74.01,1.48.03,2.23.04v-1.94l-64.46.22-.28,2.1c1.76-.17,12.69-.57,16.4-.54Z"/><polyline class="cls-7" points="61.67 105.78 77.54 105.59 77.54 90.74 61.67 90.89 61.67 105.78"/><path class="cls-7" d="m26.35,104.9v-3.92c4.35-1.93,14.11-6.3,22.38-9.97l-35.24.34-.95,14.24h12.09"/><g><path class="cls-10" d="m48.73,91.01l-35.24.34-.1,1.52c6.53-.02,19.43-.21,32.03-.38,1.12-.5,2.23-.99,3.32-1.47Z"/><path class="cls-8" d="m61.67,90.89v1.39c7.34-.08,13.2-.11,15.58-.03.03,0,.05,0,.08,0,.06,0,.13,0,.2,0v-1.52l-15.86.15Z"/></g><path class="cls-7" d="m12.72,77.39l-.76,13.96h1.52l35.24-.34c5.95-2.64,11.12-4.91,12.95-5.64v5.51l15.86-.15v-12.9l-64.82-.44Z"/><path class="cls-10" d="m48.64,79.28c9.63.11,19.27.27,28.9.04v-1.49l-64.82-.44-.1,1.76c12,.22,24.01-.01,36.01.13Z"/><polygon class="cls-2" points="77.54 105.59 130.9 89.69 129.47 76.15 77.49 89.12 77.54 105.59"/><path class="cls-7" d="m106.58,84.06c7.71-2.1,15.45-4.12,23.02-6.64l-.13-1.27-51.99,12.96v3.11c9.74-2.55,19.4-5.52,29.1-8.16Z"/><polygon class="cls-2" points="77.46 90.78 130.9 76.58 129.47 63.05 77.49 76.01 77.46 90.78"/><polygon class="cls-7" points="77.49 79.31 129.81 66.66 129.47 63.05 77.49 77.88 77.49 79.31"/><polygon class="cls-2" points="77.49 77.87 130.9 65.76 129.24 53.55 77.49 63.34 77.49 77.87"/><polygon class="cls-7" points="77.49 66.29 129.54 56.21 129.24 53.55 77.47 64.33 77.49 66.29"/><polygon class="cls-2" points="77.47 64.35 131.61 54.79 128.62 40.62 77.49 49.66 77.47 64.35"/><polygon class="cls-10" points="76.49 49.59 75.28 49.59 63.62 33.9 62.2 33.9 52.42 20.32 50.9 20.32 44.58 11.92 37.17 20.04 36.04 20.18 25.16 32.9 23.98 32.9 11.68 47.86 12.77 42.04 44.01 9.35 81.09 51.85 117.87 45.1 129.23 43.57 129.76 45.96 77.49 55.79 76.49 49.59"/><g><path class="cls-7" d="m14.96,51.04l-1.5-.1-1,12.89s1.74-8.49,2.49-12.79Z"/><path class="cls-7" d="m14.74,67.23l-1.5-.05-1.29,9.37c.6-.02,2.03-6.2,2.79-9.32Z"/><path class="cls-7" d="m14.96,79.67l-1.78.04-.8,11.08c.53-.01,1.89-7.51,2.58-11.13Z"/><path class="cls-7" d="m15.67,93.34l-1.75.05-.83,11.5c.6-.02,1.82-7.71,2.58-11.56Z"/></g><polygon class="cls-4" points="77.54 105.59 77.54 47.81 81.09 51.85 105.05 47.45 80.62 52.99 80.69 63.69 116.58 57.42 80.81 68.18 80.9 77.08 110.17 70.46 80.95 81.09 81.12 89.76 128.83 77.22 81.33 92.96 81.38 104.45 77.54 105.59"/><g><path class="cls-2" d="m97.78,1.05c-.11,2-.2,4.01-.25,6.01l31.6,36.05,3.44-2.35L97.78,1.05Z"/><polygon class="cls-2" points="77.52 50.94 129.23 43.57 128.62 40.62 77.49 49.52 77.52 50.94"/><polygon class="cls-2" points="77.49 45.25 77.52 49.55 95.79 47.31 77.49 45.25"/><g><polygon class="cls-2" points="80.01 50.5 81.09 51.85 129.13 43.11 132.57 40.76 85.27 49 80.01 50.5"/><g><polygon class="cls-2" points="54.62 .23 94.18 47.45 108.14 45.02 70.88 .54 54.62 .23"/><polygon class="cls-2" points="42.35 0 42.3 3.37 80.01 50.5 85.27 49 94.18 47.45 54.62 .23 42.35 0"/><polygon class="cls-2" points="85.58 .82 70.88 .54 108.14 45.02 120.77 42.82 85.58 .82"/><polygon class="cls-2" points="132.57 40.76 97.78 1.05 85.58 .82 120.77 42.82 132.57 40.76"/></g><polygon class="cls-2" points="0 45.96 3.23 49.95 41.97 7.22 81.09 51.85 85.27 49 42.35 0 0 45.96"/></g><path class="cls-4" d="m132.57,40.76l-47.3,8.24-2.94,1.95,9.76-2.49s.09-.01.25-.04c-.39.53-.76,1.05-1.13,1.6,0,0,2.09-1.3,2.47-1.82,2.17-.37,6.33-1.07,11.17-1.92-.3.47-.6.94-.89,1.42,0,0,2.4-1.27,2.65-1.73,3.85-.68,8.01-1.42,11.85-2.14-.2.44-.39.89-.58,1.33,0,0,1.86-1.16,2.01-1.6,6.4-1.21,11.65-2.29,12.68-2.79Z"/><polygon class="cls-2" points="42.35 0 97.78 1.05 87.36 1.8 92.87 9.4 85.18 1.99 71.69 1.8 82.8 14.72 69.22 1.99 53.84 1.33 62.86 12.53 51.47 1.42 42.35 0"/><polygon class="cls-2" points="33.9 19.89 44.01 9.35 41.97 7.22 3.23 49.95 5.91 49.23 33.9 19.89"/><polygon class="cls-1" points="3.23 49.95 41.97 7.22 76.79 51.45 79.34 53.12 83.15 51.92 42.35 3.8 3.23 49.95"/><polygon class="cls-2" points="1 46.1 41.59 1.8 2.04 47.34 1 46.1"/></g><path class="cls-7" d="m97.78,1.05l31.98,38.65-2.82.5-8.88-9.33,7.98,9.49-6.63,1.19-24.94-29.96,23.75,30.17-2.69.48-13.8-14.51,12.41,14.76-6.73,1.2-23.28-27.17,21.7,27.46-5.26.94c-3.02-3.63-23.94-27.16-23.94-27.16l22.41,27.44-5.2.93L62.77,12.15l29.34,34.28-2.78.5-14.22-15.31,13.05,15.53-2.12.38L42.35,0l42.92,49,47.3-8.24L97.78,1.05Z"/><path class="cls-4" d="m47.95,2.28c.29.19,33.71,35.42,33.9,35.61.19.19-31.05-35.23-31.05-35.23l-2.85-.38Z"/><path class="cls-11" d="m105.62,37.98c-1.26-1.58-9.83-12.49-16.17-20.53-.06-.06-.12-.12-.18-.18-2.02-2.11-3.97-4.29-6.12-6.25,6.38,7.65,20.81,24.94,22.47,26.96Z"/><path class="cls-7" d="m78.92,15.69c.27.16,22.15,25.69,22.33,25.86.18.16-24.54-26.97-24.54-26.97l2.21,1.12Z"/><path class="cls-4" d="m100.47,14.74c.27.16,22.15,25.69,22.33,25.86.18.16-24.54-26.97-24.54-26.97l2.21,1.11Z"/><path class="cls-7" d="m120.08,29.69c-1.31-1.51-10.86-12.63-16.99-19.74-1.41-1.17-2.81-2.36-4.2-3.56,6.25,6.86,19.63,21.55,21.19,23.3Z"/><path class="cls-7" d="m79.28,24.45c-1.02-1.17-8.41-9.79-13.17-15.3-1.09-.91-2.18-1.83-3.26-2.76,4.84,5.32,15.21,16.7,16.42,18.05Z"/><polygon class="cls-7" points="129.13 43.11 131.61 54.79 129.44 55.25 130.9 65.76 129.79 66.04 130.9 76.58 129.54 76.97 130.9 89.69 110.67 95.67 128.05 89.62 126.7 79.08 111.03 81.92 127.77 77.15 126.55 68.11 110.43 70.46 128.05 66.38 126.55 56.78 116.18 57.45 127.86 55.36 125.91 44.96 110.74 46.39 129.13 43.11"/><path class="cls-11" d="m42.5,49.45c-1.35.05-2.19.21-2.19.21-14.96,1.99-13.96,21.51-13.96,21.51v29.81c7.47-3.32,30.96-13.86,35.32-15.61v-13.21c-1.25-19.41-12.93-22.48-19.17-22.72Z"/><path class="cls-9" d="m26.35,104.9v-33.73s-1-19.51,13.96-21.51c0,0,.84-.16,2.19-.21-2.33-.09-3.9.21-3.9.21-14.96,1.99-13.96,21.51-13.96,21.51v34.47"/></g></g></g></g></svg>