<?xml version="1.0" encoding="UTF-8"?><svg id="Layer_2" xmlns="http://www.w3.org/2000/svg" viewBox="0 0 135.63 55.83"><defs><style>.cls-1,.cls-2,.cls-3,.cls-4,.cls-5{fill:#fff;}.cls-6{opacity:.57;}.cls-6,.cls-7{fill:#eee;}.cls-2{opacity:.23;}.cls-8{fill:#747e9e;}.cls-9{fill:#a0a0a0;}.cls-10{fill:#d6d6d6;}.cls-3{opacity:.42;}.cls-11{fill:#7a7c7c;}.cls-4{opacity:.14;}.cls-12{fill:#848484;opacity:.3;}.cls-13{fill:#fdce42;}.cls-5{opacity:.22;}.cls-14{fill:#505a79;}</style></defs><g id="robinet"><path class="cls-7" d="m1.42,54.72l-1.42-17.49,117.39.16,18.23,17.33c1.27.73-134.19,0-134.19,0Z"/><path class="cls-1" d="m.33,40.65l.61,7.51h126.17c-2.78-2.77-5.6-5.61-7.49-7.51H.33Z"/><path class="cls-11" d="m107.6,52.43h-56.85c-.63,0-1.2-.36-1.46-.93l-3.64-7.83c-.5-1.07.28-2.3,1.46-2.3h53.56c.46,0,.9.2,1.21.55l6.93,7.83c.92,1.04.18,2.68-1.21,2.68Z"/><path class="cls-6" d="m101.07,41.42c-.13-.03-.26-.05-.39-.05h-53.56c-1.18,0-1.96,1.23-1.46,2.3l3.64,7.83c.26.57.84.93,1.46.93h50.31v-11.01Z"/><g><path class="cls-7" d="m71.55,38.84h0c0,.35,1.53.64,3.43.64s3.43-.29,3.43-.64v-9.5h-6.86v9.5Z"/><rect class="cls-10" x="76.98" y="32.14" width="6.59" height="2.35"/><rect class="cls-1" x="82.06" y="31.7" width="4.78" height="3.14"/><rect class="cls-1" x="84.22" y="24.21" width="1.05" height="8.24"/><path class="cls-1" d="m76.89,30.59c.11,1.66-.01,3.35-.5,4.95-.44,1.46-1.21,2.84-2.27,3.93.27.01.56.02.86.02,1.89,0,3.43-.29,3.43-.64v-9.5h-1.6c0,.48.06.95.08,1.25Z"/><rect class="cls-10" x="78.41" y="33.31" width="3.65" height="1.18"/><rect class="cls-10" x="82.06" y="33.54" width="4.78" height="1.3"/><rect class="cls-10" x="84.89" y="25.52" width=".38" height="6.18"/><rect class="cls-10" x="83.8" y="23.38" width="1.89" height="2.5" rx=".56" ry=".56"/><path class="cls-1" d="m73.54,31.45c.05-.38.12-.76.17-1.15.03-.26.04-.53-.09-.76-.24-.44-.8-.44-1.17-.16-.38.28-.23.9-.18,1.3.26,2.27.26,4.57.01,6.84-.02.22-.05.44-.01.66.04.22.15.43.33.54.11.07.24.09.37.1.25.03.53,0,.72-.16.26-.22.29-.61.27-.96-.08-2.1-.68-4.18-.42-6.27Z"/><polygon class="cls-14" points="77.56 29.16 77.55 29.16 77.56 29.17 77.56 29.16"/><path class="cls-14" d="m77.55,29.16s-.1-.03-.16-.04c0,0,.04.06.07.1.02-.03.05-.05.08-.06Z"/><path class="cls-1" d="m77.56,29.17c-.01.11-.05.1-.09.06-.14.17-.07.52-.07.71,0,.4,0,.8,0,1.21,0,.8-.01,1.61-.02,2.41-.03,1.83-.09,3.69-.63,5.45.46-.65.64-1.45.77-2.24.29-1.77.37-3.56.45-5.35.02-.33.03-.67.05-1,.01-.26.02-.54-.06-.79-.07-.2-.21-.38-.4-.46Z"/><path class="cls-14" d="m77.56,29.17s0,0,0,0c-.03.02-.06.04-.08.06.04.04.08.05.09-.06Z"/><path class="cls-1" d="m74.98,28.7c-1.89,0-3.43.29-3.43.64s1.53.64,3.43.64,3.43-.29,3.43-.64-1.53-.64-3.43-.64Z"/><path class="cls-2" d="m78.21,29.13c-.47.25-1.74.43-3.23.43s-2.76-.18-3.23-.43c-.13.07-.2.14-.2.22,0,.35,1.53.64,3.43.64s3.43-.29,3.43-.64c0-.08-.07-.15-.2-.22Z"/><g><path class="cls-8" d="m65.04,2.76c.07,0,.13-.02.2-.02.05,0,.1-.02.16-.02-.12.02-.24.03-.36.05Z"/><path class="cls-8" d="m60.47,5.58s.07-.09.11-.13c.03-.05.07-.1.11-.14-.07.09-.14.18-.21.27Z"/><path class="cls-8" d="m63.33,3.28c.05-.02.11-.04.16-.06.05-.02.11-.05.16-.07-.11.05-.21.09-.32.14Z"/><path class="cls-8" d="m61.72,4.27s.09-.07.14-.1c.05-.04.09-.07.14-.11-.09.07-.18.14-.27.21Z"/><path class="cls-8" d="m58.86,10.09c0-.07.02-.14.03-.21,0-.05.01-.1.02-.14-.02.12-.03.24-.05.36Z"/><path class="cls-8" d="m59.53,7.29c.02-.05.05-.11.07-.16.02-.05.04-.11.07-.16-.05.11-.09.21-.14.32Z"/><path class="cls-8" d="m72.63,9.19s.01.1.02.15c.01.07.02.14.03.21-.02-.12-.03-.24-.05-.36Z"/><path class="cls-8" d="m71.09,5.07s.07.09.1.14c.04.05.07.09.11.14-.07-.09-.14-.18-.21-.27Z"/><path class="cls-8" d="m71.88,6.33c.03.06.05.13.08.19.02.04.04.09.06.13-.05-.11-.09-.21-.14-.32Z"/><path class="cls-8" d="m66.69,2.7c.07,0,.13.02.2.03.05,0,.11.01.16.02-.12-.02-.24-.03-.36-.05Z"/><path class="cls-1" d="m75.79,17.85c-.06-1.88-.09-3.77-.2-5.65-.05-.93-.12-1.87-.24-2.8-.12-.97-.26-1.95-.55-2.89-.49-1.62-1.38-3.11-2.68-4.22-1.22-1.04-2.69-1.82-4.28-2.13-1.61-.31-3.3-.21-4.85.35-1.54.56-2.97,1.47-4.07,2.7-1.17,1.3-1.96,2.89-2.38,4.58-.42,1.66-.53,3.4-.51,5.12,0,.4.02.79.03,1.19.01.35.14.7.4.95.23.23.62.41.95.4.35-.02.71-.13.95-.4.24-.26.41-.59.4-.95-.06-1.41-.06-2.83.11-4.23-.01.07-.02.14-.03.21.02-.12.03-.24.05-.36,0,.05-.01.1-.02.14.14-.94.36-1.86.71-2.74-.02.05-.05.11-.07.16.05-.11.09-.21.14-.32-.02.05-.04.11-.07.16.26-.59.58-1.16.97-1.68-.04.04-.07.09-.11.13.07-.09.14-.18.21-.27-.04.05-.07.09-.11.14.38-.47.81-.9,1.29-1.28-.05.03-.09.07-.14.1.09-.07.18-.14.27-.21-.05.04-.09.07-.14.11.51-.38,1.06-.7,1.63-.96-.05.02-.11.04-.16.06.11-.05.21-.09.32-.14-.05.02-.11.05-.16.07.57-.22,1.15-.39,1.75-.48-.07,0-.13.01-.2.02.12-.02.24-.03.36-.05-.05,0-.1.02-.16.02.55-.06,1.1-.06,1.64,0-.07-.01-.13-.02-.2-.03.12.02.24.03.36.05-.05,0-.11-.01-.16-.02.57.09,1.13.25,1.66.46-.05-.02-.1-.05-.16-.07.11.05.21.09.32.14-.05-.02-.11-.04-.16-.07.53.24,1.03.53,1.5.88-.05-.04-.1-.08-.15-.12.09.07.18.14.27.21-.04-.03-.08-.06-.12-.09.42.34.8.72,1.14,1.13-.03-.05-.07-.09-.1-.14.07.09.14.18.21.27-.04-.05-.07-.09-.11-.14.3.41.56.85.77,1.32-.03-.06-.05-.13-.08-.19.05.11.09.21.14.32-.02-.04-.04-.09-.06-.13.35.9.55,1.86.69,2.81,0-.05-.01-.1-.02-.15.02.12.03.24.05.36,0-.07-.02-.14-.03-.21.33,2.53.34,5.09.42,7.63.08,2.62.16,5.23.24,7.85.05,1.47.09,2.93.14,4.4.01.35,1.07.47,1.4.47.59,0,1.31-.11,1.3-.47-.06-1.89-.12-3.78-.18-5.68-.06-1.89-.12-3.78-.18-5.68Z"/><path class="cls-8" d="m69.9,3.95c.05.04.1.08.15.12.04.03.08.06.12.09-.09-.07-.18-.14-.27-.21Z"/><path class="cls-8" d="m68.39,3.12c.05.02.11.05.16.07.05.02.11.04.16.07-.11-.05-.21-.09-.32-.14Z"/></g><g><path class="cls-7" d="m63.86,2.73c-.6.1-1.19.26-1.75.48-.58.26-1.12.58-1.63.96-.47.38-.9.81-1.29,1.28-.38.52-.71,1.09-.97,1.68-.35.88-.57,1.81-.71,2.74-.17,1.4-.17,2.82-.11,4.23.01.36-.16.7-.4.95-.08.08-.16.15-.26.2.21.12.46.2.69.19.35-.02.71-.13.95-.4.24-.26.41-.59.4-.95-.06-1.41-.06-2.83.11-4.23.14-.94.36-1.86.71-2.74.26-.59.58-1.16.97-1.68.38-.47.81-.9,1.29-1.28.51-.38,1.06-.7,1.63-.96.57-.22,1.15-.39,1.75-.48.05,0,.09,0,.14-.01-.51-.05-1.02-.04-1.52.01Z"/><path class="cls-10" d="m75.79,17.85c-.06-1.88-.09-3.77-.2-5.65-.05-.93-.12-1.87-.24-2.8-.12-.97-.26-1.95-.55-2.89-.49-1.62-1.38-3.11-2.68-4.22-1.22-1.04-2.69-1.82-4.28-2.13-.83-.16-1.67-.21-2.5-.15.38.03.75.08,1.12.15,1.58.31,3.06,1.08,4.28,2.13,1.3,1.11,2.19,2.6,2.68,4.22.28.94.42,1.91.55,2.89.12.93.19,1.86.24,2.8.1,1.88.14,3.77.2,5.65.06,1.89.12,3.78.18,5.68.06,1.89.12,3.78.18,5.68,0,.21-.24.34-.56.41.25.05.51.07.65.07.59,0,1.31-.11,1.3-.47-.06-1.89-.12-3.78-.18-5.68-.06-1.89-.12-3.78-.18-5.68Z"/></g><rect class="cls-1" x="78.62" y="33.8" width="3.44" height=".22"/><rect class="cls-1" x="82.06" y="34.22" width="4.78" height=".22"/><path class="cls-1" d="m86.4,31.99c-.77,0-1.54.01-2.31.02-.28,0-1.89-.17-1.82.27.02.13.14.23.27.26.13.03.26.01.4,0,1.09-.16,2.2-.21,3.31-.17.1,0,.21,0,.3-.05.09-.05.14-.18.07-.26-.05-.06-.14-.06-.22-.06Z"/><path class="cls-1" d="m84.38,23.66s-.1.02-.14.04c-.07.05-.1.14-.12.23-.1.49-.1,1,.01,1.49-.03-.36.03-.74.15-1.08.02-.05.04-.1.07-.14.05-.06.11-.1.18-.12.13-.05.27-.08.42-.07.1,0,.21.02.28-.05.07-.07.06-.19,0-.26-.16-.18-.65-.08-.86-.05Z"/><rect class="cls-7" x="55.52" y="12.9" width="3.67" height="3.37"/><path class="cls-2" d="m62.21,1.61c-1.08.5-2.19,1.03-3.07,1.84-.38.35-.68.72-.89,1.19-.08.17-.7,1.53,0,1.1.12-.07.19-.2.26-.33,1.36-2.38,3.93-4.03,6.67-4.26.3-.03.67-.08.79-.36-1.27-.29-2.57.27-3.76.82Z"/><path class="cls-2" d="m57.3,6.87c-.32.11-.39.6-.42.9-.1.94-.21,1.88-.31,2.82-.05.49-.1.99.04,1.45.03.08.07.17.15.19.16.05.25-.19.26-.36.03-1.43-.15-2.92.44-4.22.1-.22-.04-.59-.12-.8-.01,0-.03,0-.04.01Z"/><path class="cls-7" d="m57.46,12.61c-.06.01-1.41.15-1.41.15v.15s2.7-.02,2.7-.02v-.65s-.96.3-1.29.37Z"/><path class="cls-7" d="m58.13,13.07c-.02.23-.07.46-.13.69-.07.26-.17.51-.28.75-.27.57-.64,1.1-1.05,1.58-.05.06-.1.12-.16.18h2.67v-3.37h-1.05c0,.06,0,.12,0,.17Z"/><path class="cls-2" d="m73.16,6.76c-.04-.2-.59-1.7-.91-1.06-.05.11-.04.24-.01.36.11.51.3,1,.45,1.5.9,2.91.46,6.06.77,9.09.02.17.05.36.18.47.27-.81.25-1.68.22-2.53-.08-2.63-.22-5.26-.7-7.84Z"/><path class="cls-1" d="m57.06,13.2c-.16-.09-.35-.04-.52-.09-.14-.03-.33-.04-.45.06-.07.06-.09.16-.11.25-.04.26-.01.52,0,.78.02.35.04.71.03,1.06,0,.17,0,.34.05.5.01.05.04.09.09.1.07.02.12-.06.14-.12.13-.31.19-.65.34-.95.15-.31.39-.58.53-.9.05-.12.09-.25.08-.38-.01-.13-.08-.26-.19-.32Z"/><polygon class="cls-7" points="59.19 16.27 59.19 15.87 55.52 16.27 59.19 16.27"/></g><g><path class="cls-7" d="m101.52,24.71c-.37-.75-.97-1.55-.67-2.33.18-.47.65-.77.93-1.2.62-.92.2-2.25-.63-2.98-.61-.54-1.56-.9-2.38-1.11v-1.54h-3.25v1.54c-.82.21-1.77.57-2.38,1.11-.83.74-1.25,2.06-.63,2.98.28.42.75.72.93,1.2.3.78-.29,1.58-.67,2.33-.25.49-.4,1.03-.53,1.56-.83,3.44-.58,7.03-.33,10.56.04.5.11,1.06.51,1.35.23.17.52.21.8.25,1.3.16,6.54.16,7.84,0,.28-.03.57-.08.8-.25.4-.29.47-.86.51-1.35.25-3.53.5-7.12-.33-10.56-.13-.54-.29-1.07-.53-1.56Z"/><path class="cls-1" d="m101.52,24.71c-.37-.75-.97-1.55-.67-2.33.18-.47.65-.77.93-1.2.62-.92.2-2.25-.63-2.98-.61-.54-1.56-.9-2.38-1.11v-1.54h-3.25v1.54c-.17.04-.34.09-.51.15.95.15,1.91.35,2.67.93.83.64,1.3,1.89.72,2.77-.18.27-.45.49-.56.8-.25.66.29,1.31.71,1.88,1.01,1.35,1.5,3.05,1.61,4.73.12,1.69-.12,3.38-.46,5.03-.16.79-.35,1.6-.82,2.24-.62.85-1.63,1.31-2.63,1.62-1.06.33-2.19.53-3.29.4-.32-.04-.64-.11-.95-.21.07.3.19.58.43.76.23.17.52.21.8.25,1.3.16,6.54.16,7.84,0,.28-.03.57-.08.8-.25.4-.29.47-.86.51-1.35.25-3.53.5-7.12-.33-10.56-.13-.54-.29-1.07-.53-1.56Z"/><g><path class="cls-1" d="m97.97,16.77c.26.07.54.15.81.24v-1.46h-.81v1.22Z"/><path class="cls-10" d="m101.52,24.71c-.37-.75-.97-1.55-.67-2.33.18-.47.65-.77.93-1.2.62-.92.2-2.25-.63-2.98-.45-.4-1.08-.7-1.71-.91.34.16.65.36.9.58.83.74,1.25,2.06.63,2.98-.28.42-.75.72-.93,1.2-.3.78.29,1.58.67,2.33.25.49.4,1.03.53,1.56.83,3.44.58,7.03.33,10.56-.04.5-.11,1.06-.51,1.35-.23.17-.52.21-.8.25-1.3.16-6.54.16-7.84,0-.03,0-.07,0-.1-.01.03.03.07.07.11.1.23.17.52.21.8.25,1.3.16,6.54.16,7.84,0,.28-.03.57-.08.8-.25.4-.29.47-.86.51-1.35.25-3.53.5-7.12-.33-10.56-.13-.54-.29-1.07-.53-1.56Z"/></g><g><path class="cls-1" d="m98.45,13.63l-1.15-.4c-.09-.03-.19-.03-.28,0l-1.15.4c-.12.04-.19.13-.19.22s.07.18.19.22l1.15.4c.09.03.19.03.28,0l1.15-.4c.12-.04.19-.13.19-.22s-.07-.18-.19-.22Z"/><path class="cls-10" d="m98.45,13.63l-1.15-.4s-.04-.01-.06-.01c.23.16.47.32.72.48.03.02.06.04.05.07,0,.02-.03.03-.05.04-.08.03-.17.03-.26.02-.64-.02-1.27-.02-1.91.02-.04,0-.08,0-.12,0,0,0,0,0,0,.01,0,.09.07.18.19.22l1.15.4c.09.03.19.03.28,0l1.15-.4c.12-.04.19-.13.19-.22s-.07-.18-.19-.22Z"/><rect class="cls-1" x="96.57" y="14.32" width="1.18" height="1.72"/><path class="cls-1" d="m98.59,14.78h-2.86c-.18,0-.32.14-.32.32v1.56h3.5v-1.56c0-.18-.14-.32-.32-.32Z"/><path class="cls-10" d="m98.55,14.78h-.32c.06.03.11.07.14.12.08.1.08.23.07.35-.01.13-.05.27-.09.4-.11.35-.25.69-.43,1.01h.99v-1.59c0-.16-.16-.29-.36-.29Z"/><g><path class="cls-10" d="m95.84,15.5c-.01-.14-.01-.3-.07-.44,0-.02-.05-.02-.06,0-.07.33,0,.7,0,1.03,0,.19,0,.37.01.56h.17c0-.19,0-.37-.02-.56-.01-.2-.02-.4-.04-.59Z"/><path class="cls-10" d="m96.31,15.51c-.01-.14-.01-.3-.07-.44,0-.02-.05-.02-.06,0-.07.33,0,.7,0,1.03,0,.19,0,.37.01.56h.17c0-.19,0-.37-.02-.56-.01-.2-.02-.4-.04-.59Z"/><path class="cls-10" d="m97.3,15.51c-.01-.14-.01-.3-.07-.44,0-.02-.05-.02-.06,0-.07.33,0,.7,0,1.03,0,.19,0,.37.01.56h.17c0-.19,0-.37-.02-.56-.01-.2-.02-.4-.04-.59Z"/><path class="cls-10" d="m96.83,15.51c-.01-.14-.01-.3-.07-.44,0-.02-.05-.02-.06,0-.07.33,0,.7,0,1.03,0,.19,0,.37.01.56h.17c0-.19,0-.37-.02-.56-.01-.2-.02-.4-.04-.59Z"/><path class="cls-10" d="m97.88,15.51c-.01-.14-.01-.3-.07-.44,0-.02-.05-.02-.06,0-.07.33,0,.7,0,1.03,0,.19,0,.37.01.56h.17c0-.19,0-.37-.02-.56-.01-.2-.02-.4-.04-.59Z"/></g><path class="cls-10" d="m96.57,14.38s.38-.02.71.05c.33.08.47.24.47.24v-.36h-1.18v.07Z"/><path class="cls-4" d="m97.04,13.3c-.14.03-.28.11-.4.16-.14.06-.28.12-.41.18-.03.01-.07.04-.05.06.01.01.03.01.05.01.08,0,.16,0,.24-.01.09-.01.17-.03.25-.06.12-.04.22-.12.3-.19.05-.04.19-.19.01-.15Z"/><path class="cls-4" d="m97.61,14.89c-.39-.03-.79-.04-1.18-.05-.12,0-.25,0-.37,0-.03,0-.51-.02-.46.08,0,0,.02,0,.03,0,.66.03,1.33.07,1.99.02.02,0,.05,0,.05-.02,0-.02-.03-.03-.05-.03Z"/></g><path class="cls-1" d="m97.56,18.89c-.79-1.12-2.25-1.47-3.37-.8-.58.34-1.04.9-1.34,1.55-.1.21-.19.45-.16.69.04.3.25.54.5.66.25.12.52.15.79.17,1.01.07,2.06.08,2.97-.4.24-.12.46-.28.63-.5.17-.22.27-.51.23-.8-.03-.21-.12-.4-.24-.57Z"/><path class="cls-5" d="m94.42,23.48c-.29.16-.59.34-.79.61-.19.26-.27.59-.35.91-.51,2.28-.55,4.63-.6,6.97-.02,1.13-.04,2.28.26,3.37.13.47.34.95.75,1.17.59.33,1.32-.02,1.83-.48.68-.62,1.16-1.43,1.56-2.27,1.07-2.24,1.62-4.73,1.61-7.23,0-.8-.07-1.63-.45-2.33-.77-1.44-2.57-1.39-3.82-.73Z"/><path class="cls-1" d="m95.41,18.12c-.33,0-.68.11-.97.27-.54.3-.99.77-1.27,1.32-.08.16-.15.33-.15.51,0,.05,0,.11.05.15.04.04.1.04.15.02.05-.02.09-.06.12-.1.13-.16.22-.35.33-.52.22-.34.56-.59.94-.72.36-.12.74-.12,1.09-.24.09-.03.18-.07.22-.15.16-.28-.29-.52-.52-.52Z"/><path class="cls-1" d="m96.66,23.61c-.45-.34-1.15-.12-1.6.1-.52.25-.96.67-1.23,1.18-.05.1-.07.26.03.29.06.02.12-.02.17-.06.14-.11.28-.21.42-.32.15-.11.3-.23.47-.31.49-.24,1.06-.21,1.59-.35.1-.03.21-.07.26-.15.07-.12,0-.29-.11-.38Z"/><g><g><ellipse class="cls-1" cx="97.25" cy="30" rx="4.22" ry="4.79"/><path class="cls-7" d="m100.6,27.55c-.31.69-1.02,1.11-1.74,1.35-.52.17-1.06.27-1.6.3-.51.02-1.02-.02-1.53-.01-.51,0-1.03.05-1.5.25-.24.1-.47.24-.65.42-.15.14-.33.35-.39.55-.06.21.06.52.12.73.07.26.15.52.26.77.05.12.11.24.16.36.04.09.17.24.18.34-.03-.37.16-.72.41-.99.52-.58,1.3-.93,2.08-.92.5,0,.99.14,1.49.18.47.04.95-.02,1.4-.15.4-.12.78-.32,1.08-.6.36-.34.58-.79.79-1.24.02-.04.04-.09.04-.13,0-.05-.01-.09-.03-.14-.15-.38-.33-.74-.56-1.07Z"/><path class="cls-10" d="m97.25,25.21c-2.33,0-4.22,2.14-4.22,4.79s1.89,4.79,4.22,4.79,4.22-2.14,4.22-4.79-1.89-4.79-4.22-4.79Zm0,9.18c-2.1,0-3.82-1.97-3.82-4.39s1.71-4.39,3.82-4.39,3.82,1.97,3.82,4.39-1.71,4.39-3.82,4.39Z"/></g><rect class="cls-7" x="95.5" y="27.07" width="3.39" height=".85"/><rect class="cls-7" x="95.43" y="32.29" width="3.94" height=".3"/><rect class="cls-7" x="95.43" y="32.78" width="3.94" height=".3"/></g></g><path class="cls-12" d="m112.41,51.63c-.43-.13-.87-.07-1.31-.04-2.21.18-4.42-.14-6.62-.36-1.12-.11-2.24-.2-3.37-.18-.64.01-2.01-.24-2.4.64-.48,1.08.35,2.64,1,3.18.84.7,1.88.79,2.87.84,2.91.17,5.84.25,8.71-.37.55-.12,1.12-.27,1.57-.72.45-.45.74-1.26.54-1.96-.16-.55-.57-.9-1-1.03Z"/><g><path class="cls-11" d="m110.31,51.79c-2.39.59-4.87.71-7.3.37-1.38-.2-2.74-.54-4.12-.74-.43-.06-1.35-1.33-1.46-.67-.11.65.23,2.36.58,2.84.46.63,1.13,1.03,1.82,1.25.69.22,1.42.26,2.14.27,1.67.03,3.85.02,5.51-.19,4.56-.57,4.04-1.29,4.17-3.06.03-.4-.95-.17-1.34-.07Z"/><path class="cls-10" d="m111.12,47.57c-.18-.14-.41-.1-.63-.06-1.54.3-3.02.89-4.55,1.29-1.52.41-3.12.63-4.64.21-.89-.25-1.73-.72-2.62-.99-.42-.13-.79-.34-1.01.16-.21.47-.28,1-.3,1.52-.05,1.15.19,2.37.88,3.2.54.65,1.3,1.01,2.07,1.16.77.15,1.56.11,2.33.07,1.74-.09,3.48-.19,5.21-.28.57-.03,1.13-.06,1.69-.17.74-.15,1.51-.49,1.88-1.24.25-.52.26-1.14.26-1.73,0-.93,0-1.9-.33-2.76-.06-.15-.13-.31-.26-.4Z"/><path class="cls-1" d="m108.41,46.64c-.98.32-2.05.32-2.98.79-.55.28-1.19.36-1.78.21-1.14-.28-2.54-.49-3.71-.52-.72-.02-1.52.07-2.03.65-.78.9-.4,2.55.48,3.33.88.78,2.05.92,3.16,1.02,2.55.23,5.19.35,7.58-.69.75-.33,1.5-.8,1.96-1.55.47-.75.59-1.85.12-2.59-.6-.95-1.83-.98-2.8-.66Z"/><path class="cls-10" d="m100.14,48.5c-.07-.05-.15-.06-.23-.07-.2-.02-.41-.02-.61.03l.02-.03c-.13.06-.26.12-.36.22s-.18.26-.16.41c.02.2.2.35.38.37.18.02.35-.06.51-.16.16-.1.3-.21.44-.34.06-.05.11-.12.12-.2.01-.09-.04-.18-.11-.22Z"/><path class="cls-10" d="m101.95,50.3c-.12-.07-.24-.11-.35-.19l-.11.1c-.17-.16-.43-.15-.63-.05-.15.07-.31.21-.31.4,0,.23.22.36.42.42.16.05.33.09.49.11.24.03.53.01.67-.21.05-.07.07-.16.06-.25-.02-.15-.13-.26-.24-.32Z"/><path class="cls-10" d="m103.9,48.7c-.27-.04-.55,0-.8.12v.05c-.06-.01-.14-.02-.19.03-.06.06-.04.19.02.26.07.06.16.08.24.08.28,0,.57-.08.81-.23.04-.03.09-.07.1-.12.01-.1-.1-.16-.19-.17Z"/><path class="cls-13" d="m105.6,50.24l.04-.02s-.08.02-.12.03c.03,0,.06,0,.08,0Z"/><path class="cls-10" d="m106.36,50.4c-.24-.12-.5-.18-.75-.17l-.09.05c-.14-.08-.31-.12-.46-.07-.15.05-.29.2-.31.38,0,.05,0,.1.03.13.02.02.05.03.07.04.27.09.54.14.82.17.15.02.3.03.45-.02.15-.05.28-.16.33-.32,0-.03.01-.05,0-.08,0-.06-.06-.09-.1-.11Z"/><path class="cls-10" d="m107.91,48.45c-.2-.07-.95-.44-.88.07.05.38.68.46.93.44.09,0,.2-.04.23-.14.03-.09,0-.19-.06-.25-.06-.06-.14-.09-.22-.12Z"/><path class="cls-10" d="m109.61,49.38c-.38.17-.73.46-.99.81-.04.06-.08.13-.05.2.02.04.05.06.08.07.27.14.59.05.85-.11.28-.16.52-.38.72-.66.32-.44-.42-.4-.61-.32Z"/><path class="cls-10" d="m110.09,47.4c-.25-.11-.56-.3-.82-.13-.11.07-.19.22-.16.36.03.16.17.24.3.31.12.07.25.14.37.21.11.06.22.12.33.11.13,0,.25-.11.3-.25.05-.14.03-.31-.06-.42-.07-.09-.17-.14-.27-.19Z"/><path class="cls-3" d="m104.38,48.19c-.18-.03-.37-.02-.56-.03-1.49-.07-2.9-.9-4.39-.83-.45.02-.94.15-1.23.55-.15.21-.23.46-.31.72,0-.04-.01-.08-.02-.11l-.03.19c-.1.22-.04.54.15.67.19.13.48.03.55-.21.06-.18,0-.38.03-.57.05-.33.35-.53.64-.63.83-.3,1.73-.15,2.57.07.85.21,1.7.48,2.57.42.07,0,.16-.04.15-.12,0-.06-.07-.09-.13-.09Z"/><path class="cls-3" d="m99.94,50.99c-.3-.05-.63-.13-.81-.4-.16-.25-.26-.89-.66-.78-.39.11-.11.64.07.82.42.44.96.73,1.53.8.06,0,.12.01.17-.03.08-.07.06-.23-.02-.31-.08-.08-.19-.09-.29-.11Z"/></g><g><rect class="cls-9" x="3.19" y="43.21" width="38.97" height=".6" rx=".3" ry=".3"/><path class="cls-9" d="m42.86,45.81l-39.07-.3c-.17,0-.3-.14-.3-.3h0c0-.17.14-.3.3-.3l39.07.3c.17,0,.3.14.3.3h0c0,.17-.14.3-.3.3Z"/><rect class="cls-9" x="3.94" y="47.21" width="40.22" height=".6" rx=".3" ry=".3"/><rect class="cls-9" x="4.27" y="49.21" width="40.88" height=".6" rx=".3" ry=".3"/><rect class="cls-9" x="4.27" y="51.21" width="41.88" height=".6" rx=".3" ry=".3"/></g><g><rect class="cls-1" x="3.19" y="42.21" width="38.97" height=".6" rx=".3" ry=".3"/><path class="cls-1" d="m42.86,44.81l-39.07-.3c-.17,0-.3-.14-.3-.3h0c0-.17.14-.3.3-.3l39.07.3c.17,0,.3.14.3.3h0c0,.17-.14.3-.3.3Z"/><rect class="cls-1" x="3.94" y="46.21" width="40.22" height=".6" rx=".3" ry=".3"/><rect class="cls-1" x="4.27" y="48.21" width="40.88" height=".6" rx=".3" ry=".3"/><rect class="cls-1" x="4.27" y="50.21" width="41.88" height=".6" rx=".3" ry=".3"/></g></g></svg>