<?xml version="1.0" encoding="UTF-8"?><svg id="Calque_2" xmlns="http://www.w3.org/2000/svg" xmlns:xlink="http://www.w3.org/1999/xlink" viewBox="0 0 170.35 106.08"><defs><style>.cls-1{clip-path:url(#clippath);}.cls-2,.cls-3{fill:#fff;}.cls-4{fill:#fcffff;}.cls-5{fill:#6b6b6b;}.cls-6{fill:#a6a6a6;}.cls-7{fill:#d8d8d8;}.cls-8{fill:#4d5659;}.cls-3{opacity:.51;}.cls-9{fill:none;stroke:#fff;stroke-linecap:round;stroke-linejoin:round;stroke-width:3px;}</style><clipPath id="clippath"><path class="cls-7" d="m49.8,42.43c8.63-1.29,15.18-3.38,36.79.49,23.47,4.2,20.55,1.6,35.03,1.33,14.01-.26,26.66-4.1,26.27-8.04-.39-3.95-10.87-4.13-19.75-10.49-8.88-6.36-16.61-13.84-31.58-6.41-14.97,7.43-19.56,13.23-36.45,10.62-16.89-2.61-34.02,4.32-30.47,8.86,3.55,4.54,11.53,4.94,20.15,3.65Z"/></clipPath></defs><g id="Calque_9"><path class="cls-6" d="m16.03,80.79v24.13s-2.34,2.6-6.75,0v-12.01s2.3,2.28,6.75-12.12Z"/><path class="cls-5" d="m9.28,92.92s1.54,1.52,4.54-5.81l2.21.09v11.09h-4.56s0,7.58,0,7.58c-.66-.18-1.39-.47-2.19-.94v-12.01Z"/><rect class="cls-8" x="7.25" y=".75" width="4.32" height="74.08" rx="2.16" ry="2.16"/><rect class="cls-8" x="158.62" y=".85" width="4.32" height="74.08" rx="2.16" ry="2.16"/><polygon class="cls-8" points="170.32 74.15 2.03 74.52 23.19 65.55 146.35 64.84 170.32 74.15"/><polygon class="cls-2" points="161.98 35.19 8.35 35.19 2.36 46.26 168.94 46.26 161.98 35.19"/><rect class="cls-5" x="6.35" y="46.26" width="162.59" height="13.2"/><path class="cls-3" d="m167.18,44.32H6.76c-1.14,0-2.08,1.35-2.08,2.99s.94,2.99,2.08,2.99h160.41c1.14,0,2.08-1.35,2.08-2.99s-.94-2.99-2.08-2.99Z"/><polygon class="cls-8" points="146.35 64.84 23.19 65.55 2.03 74.52 146.35 74.2 146.35 64.84"/><polygon class="cls-2" points="3.29 72.15 .03 75.34 3.29 94.16 166.32 94.16 170.32 74.15 167.15 72.15 3.29 72.15"/><path class="cls-6" d="m168.07,74.16l-1.88.18c-1.19,0-2.16-.97-2.16-2.16V15.42c0-1.19.97-2.16,2.16-2.16h0c1.19,0,2.16.97,2.16,2.16v56.77c0,1.19.91,1.98-.28,1.98Z"/><rect class="cls-2" x="166.03" y="13.26" width="4.32" height="74.08" rx="2.16" ry="2.16"/><path class="cls-8" d="m144.06,36.34s11.37,5.27-24.21,9.43c-14.58,1.71-41.87-8.52-65.25-2.98-15.09,3.58-16.2,2.91-19.54,1.62-3.35-1.3-10.39-5.03,7.33-9.76"/><path class="cls-7" d="m49.8,42.43c8.63-1.29,15.18-3.38,36.79.49,23.47,4.2,20.55,1.6,35.03,1.33,14.01-.26,26.66-4.1,26.27-8.04-.39-3.95-10.87-4.13-19.75-10.49-8.88-6.36-16.61-13.84-31.58-6.41-14.97,7.43-19.56,13.23-36.45,10.62-16.89-2.61-34.02,4.32-30.47,8.86,3.55,4.54,11.53,4.94,20.15,3.65Z"/><g class="cls-1"><path class="cls-4" d="m131.35,30.8c.22-.61-.1-1.28-.72-1.5-.61-.22-1.28.1-1.5.72-.22.61.1,1.28.72,1.5.61.22,1.28-.1,1.5-.72Z"/><path class="cls-4" d="m140.43,34.63c.22-.61-.1-1.28-.72-1.5s-1.28.1-1.5.72.1,1.28.72,1.5c.61.22,1.28-.1,1.5-.72Z"/><path class="cls-4" d="m138.61,40.61c.22-.61-.1-1.28-.72-1.5-.61-.22-1.28.1-1.5.72s.1,1.28.72,1.5c.61.22,1.28-.1,1.5-.72Z"/><path class="cls-4" d="m133.86,46.03c.22-.61-.1-1.28-.72-1.5s-1.28.1-1.5.72c-.22.61.1,1.28.72,1.5.61.22,1.28-.1,1.5-.72Z"/><path class="cls-4" d="m128.01,37.58c.22-.61-.1-1.28-.72-1.5-.61-.22-1.28.1-1.5.72-.22.61.1,1.28.72,1.5.61.22,1.28-.1,1.5-.72Z"/><path class="cls-4" d="m122.39,27c.22-.61-.1-1.28-.72-1.5-.61-.22-1.28.1-1.5.72-.22.61.1,1.28.72,1.5s1.28-.1,1.5-.72Z"/><path class="cls-4" d="m110.34,16.37c.22-.61-.1-1.28-.72-1.5-.61-.22-1.28.1-1.5.72-.22.61.1,1.28.72,1.5s1.28-.1,1.5-.72Z"/><path class="cls-4" d="m114.45,23.58c.22-.61-.1-1.28-.72-1.5-.61-.22-1.28.1-1.5.72-.22.61.1,1.28.72,1.5s1.28-.1,1.5-.72Z"/><path class="cls-4" d="m108.74,31.29c.22-.61-.1-1.28-.72-1.5-.61-.22-1.28.1-1.5.72s.1,1.28.72,1.5c.61.22,1.28-.1,1.5-.72Z"/><path class="cls-4" d="m120.91,34.7c.22-.61-.1-1.28-.72-1.5-.61-.22-1.28.1-1.5.72-.22.61.1,1.28.72,1.5.61.22,1.28-.1,1.5-.72Z"/><path class="cls-4" d="m115.79,42.13c.22-.61-.1-1.28-.72-1.5-.61-.22-1.28.1-1.5.72s.1,1.28.72,1.5c.61.22,1.28-.1,1.5-.72Z"/><path class="cls-4" d="m124.43,45.19c.22-.61-.1-1.28-.72-1.5-.61-.22-1.28.1-1.5.72-.22.61.1,1.28.72,1.5s1.28-.1,1.5-.72Z"/><path class="cls-4" d="m107.39,42.15c.22-.61-.1-1.28-.72-1.5s-1.28.1-1.5.72c-.22.61.1,1.28.72,1.5.61.22,1.28-.1,1.5-.72Z"/><path class="cls-4" d="m98.4,41.88c.22-.61-.1-1.28-.72-1.5-.61-.22-1.28.1-1.5.72-.22.61.1,1.28.72,1.5.61.22,1.28-.1,1.5-.72Z"/><path class="cls-4" d="m99.93,34.03c.22-.61-.1-1.28-.72-1.5s-1.28.1-1.5.72c-.22.61.1,1.28.72,1.5.61.22,1.28-.1,1.5-.72Z"/><path class="cls-4" d="m93.72,24.21c.22-.61-.1-1.28-.72-1.5-.61-.22-1.28.1-1.5.72-.22.61.1,1.28.72,1.5.61.22,1.28-.1,1.5-.72Z"/><path class="cls-4" d="m103.86,22.94c.22-.61-.1-1.28-.72-1.5-.61-.22-1.28.1-1.5.72s.1,1.28.72,1.5c.61.22,1.28-.1,1.5-.72Z"/><path class="cls-4" d="m83.51,31.96c.22-.61-.1-1.28-.72-1.5-.61-.22-1.28.1-1.5.72s.1,1.28.72,1.5c.61.22,1.28-.1,1.5-.72Z"/><path class="cls-4" d="m90.54,33.2c.22-.61-.1-1.28-.72-1.5-.61-.22-1.28.1-1.5.72-.22.61.1,1.28.72,1.5.61.22,1.28-.1,1.5-.72Z"/><path class="cls-4" d="m90.7,41.64c.22-.61-.1-1.28-.72-1.5-.61-.22-1.28.1-1.5.72-.22.61.1,1.28.72,1.5.61.22,1.28-.1,1.5-.72Z"/><path class="cls-4" d="m83.49,31.74c.22-.61-.1-1.28-.72-1.5s-1.28.1-1.5.72.1,1.28.72,1.5c.61.22,1.28-.1,1.5-.72Z"/><path class="cls-4" d="m81.68,37.72c.22-.61-.1-1.28-.72-1.5-.61-.22-1.28.1-1.5.72s.1,1.28.72,1.5c.61.22,1.28-.1,1.5-.72Z"/><path class="cls-4" d="m76.93,43.14c.22-.61-.1-1.28-.72-1.5s-1.28.1-1.5.72c-.22.61.1,1.28.72,1.5.61.22,1.28-.1,1.5-.72Z"/><path class="cls-4" d="m71.07,34.69c.22-.61-.1-1.28-.72-1.5-.61-.22-1.28.1-1.5.72-.22.61.1,1.28.72,1.5.61.22,1.28-.1,1.5-.72Z"/><path class="cls-4" d="m51.8,28.4c.22-.61-.1-1.28-.72-1.5-.61-.22-1.28.1-1.5.72s.1,1.28.72,1.5c.61.22,1.28-.1,1.5-.72Z"/><path class="cls-4" d="m63.97,31.81c.22-.61-.1-1.28-.72-1.5-.61-.22-1.28.1-1.5.72-.22.61.1,1.28.72,1.5.61.22,1.28-.1,1.5-.72Z"/><path class="cls-4" d="m58.85,39.24c.22-.61-.1-1.28-.72-1.5-.61-.22-1.28.1-1.5.72s.1,1.28.72,1.5c.61.22,1.28-.1,1.5-.72Z"/><path class="cls-4" d="m67.5,42.3c.22-.61-.1-1.28-.72-1.5-.61-.22-1.28.1-1.5.72-.22.61.1,1.28.72,1.5s1.28-.1,1.5-.72Z"/><path class="cls-4" d="m50.45,39.26c.22-.61-.1-1.28-.72-1.5s-1.28.1-1.5.72c-.22.61.1,1.28.72,1.5.61.22,1.28-.1,1.5-.72Z"/><path class="cls-4" d="m41.47,38.99c.22-.61-.1-1.28-.72-1.5-.61-.22-1.28.1-1.5.72-.22.61.1,1.28.72,1.5.61.22,1.28-.1,1.5-.72Z"/><path class="cls-4" d="m43,31.14c.22-.61-.1-1.28-.72-1.5s-1.28.1-1.5.72c-.22.61.1,1.28.72,1.5.61.22,1.28-.1,1.5-.72Z"/><path class="cls-4" d="m33.76,38.75c.22-.61-.1-1.28-.72-1.5-.61-.22-1.28.1-1.5.72-.22.61.1,1.28.72,1.5.61.22,1.28-.1,1.5-.72Z"/></g><path class="cls-6" d="m129.53,32.84s-7.1-2.81-14.7-1.82c-7.6.99,0,0,0,0,0,0,3.73-1.29,7.71-.78s6.98,2.6,6.98,2.6Z"/><path class="cls-6" d="m128.13,25.71s-9.47-2.96-11.86,2.84c-1.63,3.95-11.81,7.02-15.42,9.34-6.29,4.04-7.08,6.23-7.08,6.23,0,0-1.09-5.13,16.55-11.59,1.18-.43,3.28-1.82,4.51-3.33,1.72-2.13,2.69-4.5,5.47-4.55,4.76-.09,7.83,1.06,7.83,1.06Z"/><path class="cls-6" d="m71.17,30.3s2.53,1.09,3.8,2.19c8.23,7.07,14.99,5.63,14.99,5.63,0,0-7.23-.36-12.49-4.21-4.55-3.32-5.92-3.58-5.92-3.58"/><polygon class="cls-7" points="4.19 18.31 9.41 6.55 9.41 1.5 3.19 13.26 4.19 18.31"/><path class="cls-6" d="m153.07,74.16l-1.88.18c-1.19,0-2.16-.97-2.16-2.16V15.42c0-1.19.97-2.16,2.16-2.16h0c1.19,0,2.16.97,2.16,2.16v56.77c0,1.19.91,1.98-.28,1.98Z"/><rect class="cls-2" x="151.03" y="13.26" width="4.32" height="74.08" rx="2.16" ry="2.16"/><path class="cls-6" d="m138.07,74.16l-1.88.18c-1.19,0-2.16-.97-2.16-2.16V15.42c0-1.19.97-2.16,2.16-2.16h0c1.19,0,2.16.97,2.16,2.16v56.77c0,1.19.91,1.98-.28,1.98Z"/><rect class="cls-2" x="136.03" y="13.26" width="4.32" height="74.08" rx="2.16" ry="2.16"/><path class="cls-6" d="m123.07,74.16l-1.88.18c-1.19,0-2.16-.97-2.16-2.16V15.42c0-1.19.97-2.16,2.16-2.16h0c1.19,0,2.16.97,2.16,2.16v56.77c0,1.19.91,1.98-.28,1.98Z"/><rect class="cls-2" x="121.03" y="13.26" width="4.32" height="74.08" rx="2.16" ry="2.16"/><path class="cls-6" d="m108.07,74.16l-1.88.18c-1.19,0-2.16-.97-2.16-2.16V15.42c0-1.19.97-2.16,2.16-2.16h0c1.19,0,2.16.97,2.16,2.16v56.77c0,1.19.91,1.98-.28,1.98Z"/><rect class="cls-2" x="106.03" y="13.26" width="4.32" height="74.08" rx="2.16" ry="2.16"/><path class="cls-6" d="m94.07,74.16l-1.88.18c-1.19,0-2.16-.97-2.16-2.16V15.42c0-1.19.97-2.16,2.16-2.16h0c1.19,0,2.16.97,2.16,2.16v56.77c0,1.19.91,1.98-.28,1.98Z"/><rect class="cls-2" x="92.03" y="13.26" width="4.32" height="74.08" rx="2.16" ry="2.16"/><path class="cls-6" d="m79.07,74.16l-1.88.18c-1.19,0-2.16-.97-2.16-2.16V15.42c0-1.19.97-2.16,2.16-2.16h0c1.19,0,2.16.97,2.16,2.16v56.77c0,1.19.91,1.98-.28,1.98Z"/><rect class="cls-2" x="77.03" y="13.26" width="4.32" height="74.08" rx="2.16" ry="2.16"/><path class="cls-6" d="m64.07,74.16l-1.88.18c-1.19,0-2.16-.97-2.16-2.16V15.42c0-1.19.97-2.16,2.16-2.16h0c1.19,0,2.16.97,2.16,2.16v56.77c0,1.19.91,1.98-.28,1.98Z"/><rect class="cls-2" x="62.03" y="13.26" width="4.32" height="74.08" rx="2.16" ry="2.16"/><path class="cls-6" d="m49.07,74.16l-1.88.18c-1.19,0-2.16-.97-2.16-2.16V15.42c0-1.19.97-2.16,2.16-2.16h0c1.19,0,2.16.97,2.16,2.16v56.77c0,1.19.91,1.98-.28,1.98Z"/><rect class="cls-2" x="47.03" y="13.26" width="4.32" height="74.08" rx="2.16" ry="2.16"/><path class="cls-6" d="m34.07,74.16l-1.88.18c-1.19,0-2.16-.97-2.16-2.16V15.42c0-1.19.97-2.16,2.16-2.16h0c1.19,0,2.16.97,2.16,2.16v56.77c0,1.19.91,1.98-.28,1.98Z"/><rect class="cls-2" x="32.03" y="13.26" width="4.32" height="74.08" rx="2.16" ry="2.16"/><path class="cls-6" d="m19.07,74.16l-1.88.18c-1.19,0-2.16-.97-2.16-2.16V15.42c0-1.19.97-2.16,2.16-2.16h0c1.19,0,2.16.97,2.16,2.16v56.77c0,1.19.91,1.98-.28,1.98Z"/><rect class="cls-2" x="17.03" y="13.26" width="4.32" height="74.08" rx="2.16" ry="2.16"/><path class="cls-6" d="m4.07,74.16l-1.88,3.34c-1.19,0-2.16-.97-2.16-2.16V15.42c0-1.19.97-2.16,2.16-2.16h0c1.19,0,2.16.97,2.16,2.16v56.77c0,1.19.91,1.98-.28,1.98Z"/><rect class="cls-2" x="2.03" y="13.26" width="4.32" height="74.08" rx="2.16" ry="2.16"/><rect class="cls-8" x="10.96" y="1.5" width="150.83" height="5.05"/><path class="cls-6" d="m166.03,80.79v24.13s-2.34,2.6-6.75,0v-12.01s2.3,2.28,6.75-12.12Z"/><path class="cls-5" d="m159.28,92.92s1.54,1.52,4.54-5.81l2.21.09v11.09h-4.56s0,7.58,0,7.58c-.66-.18-1.39-.47-2.19-.94v-12.01Z"/><rect class="cls-7" x=".03" y="74.52" width="170.29" height="22.01"/><polygon class="cls-7" points="160.78 6.55 166.03 18.46 165.88 12.79 160.78 1.5 160.78 6.55"/><polygon class="cls-9" points="168.19 14.75 1.5 14.75 8.52 1.5 161.54 1.5 168.19 14.75"/><rect class="cls-6" x=".03" y="74.52" width="2" height="21.96"/></g></svg>