<?xml version="1.0" encoding="UTF-8"?><svg id="Calque_2" xmlns="http://www.w3.org/2000/svg" viewBox="0 0 221.46 167.53"><defs><style>.cls-1{fill:#fff;}.cls-2{fill:#a6a6a6;}.cls-3{fill:#d8d8d8;}.cls-4{fill:none;stroke:#fff;stroke-linecap:round;stroke-linejoin:round;stroke-width:4px;}.cls-5{opacity:.61;}.cls-5,.cls-6{fill:#797a7a;}.cls-6{opacity:.3;}</style></defs><g id="Calque_7"><path class="cls-1" d="m167.16,44.71l-55.61,18.24c-1.05.34-2.18-.23-2.52-1.28-.34-1.05.23-2.18,1.28-2.52l55.61-18.24c1.05-.34,2.18.23,2.52,1.28.34,1.05-.23,2.18-1.28,2.52"/><path class="cls-3" d="m111.3,61.99l55.61-18.24c.85-.28,1.38-1.08,1.37-1.93.06.11.12.23.16.36.34,1.05-.23,2.18-1.28,2.52l-55.61,18.24c-1.05.34-2.18-.23-2.52-1.28-.07-.2-.09-.4-.09-.6.46.81,1.44,1.22,2.36.92Z"/><path class="cls-2" d="m39.73,167.53h-.87c-1.32,0-2.41-1.08-2.41-2.41v-27.98c0-1.32,1.08-2.41,2.41-2.41h.87c1.32,0,2.41,1.08,2.41,2.41v27.98c-.02,1.34-.6,2.32-2.41,2.41Z"/><path class="cls-1" d="m37.67,163.87v-18.88l.69-.44.04-.38c0-1.2,0-2.36-.01-3.45-.02-2.8.2-4.69.49-5.95-1.37.2-2.42,1.39-2.42,2.81v27.11c-.01,1.26.49,2.28,1.56,2.68-.34-.97-.34-1.56-.34-3.5Z"/><path class="cls-6" d="m40.93,164.03c0-.95,0-18.88,0-18.88l-.69-.44-.04-.38c0-1.2,0-2.36.01-3.45.02-2.8-.2-4.69-.49-5.95,1.37.2,2.42,1.39,2.42,2.81v27.11c.05,1.55-.57,2.28-1.51,2.54.34-.97.3-1.42.3-3.36Z"/><path class="cls-5" d="m38.88,151.87c1.06,0,2.22-.21,3.26-.42v-27.31c0-1.32-1.08-2.41-2.41-2.41h-.87c-1.32,0-2.41,1.08-2.41,2.41v27.34c.72.22,1.55.39,2.42.39Z"/><path class="cls-2" d="m176.73,167.53h-.87c-1.32,0-2.41-1.08-2.41-2.41v-27.98c0-1.32,1.08-2.41,2.41-2.41h.87c1.32,0,2.41,1.08,2.41,2.41v27.98c-.02,1.34-.6,2.32-2.41,2.41Z"/><path class="cls-1" d="m174.67,163.87v-18.88l.69-.44.04-.38c0-1.2,0-2.36-.01-3.45-.02-2.8.2-4.69.49-5.95-1.37.2-2.42,1.39-2.42,2.81v27.11c-.01,1.26.49,2.28,1.56,2.68-.34-.97-.34-1.56-.34-3.5Z"/><path class="cls-6" d="m177.93,164.03c0-.95,0-18.88,0-18.88l-.69-.44-.04-.38c0-1.2,0-2.36.01-3.45.02-2.8-.2-4.69-.49-5.95,1.37.2,2.42,1.39,2.42,2.81v27.11c.05,1.55-.57,2.28-1.51,2.54.34-.97.3-1.42.3-3.36Z"/><path class="cls-5" d="m175.88,151.87c1.06,0,2.22-.21,3.26-.42v-27.31c0-1.32-1.08-2.41-2.41-2.41h-.87c-1.32,0-2.41,1.08-2.41,2.41v27.34c.72.22,1.55.39,2.42.39Z"/><path class="cls-2" d="m167.71,82.65s-12.98-4.06-41.48-1.81-82,2.5-96.06,8l-14.06,5.5s-4.38-10,10.37-13,121.03-18.92,134-11.6,27.5,14.24,20.75,17.67"/><path class="cls-3" d="m199.04,106.2s11.56-1.22,12.44,3.89c.88,5.11-.09,11.51,1.68,13.37s.71,15.99-1.43,20.12c-5.76,11.14-30.23,3.35-50.08,4.98s-76.54-3.25-90.44-.7c-13.9,2.56-39.04-2.79-48.09,0s-15.02-.46-17.89-3.48c-2.87-3.02-1.96-19.76-.2-26.27,1.76-6.51,7.5-12.38,7.5-12.38"/><path class="cls-1" d="m146.7,14.24l-33.4,50.21c-.61.92-1.85,1.17-2.77.56-.92-.61-1.17-1.85-.56-2.77l33.4-50.21c.61-.92,1.85-1.17,2.77-.56.92.61,1.17,1.85.56,2.77"/><path class="cls-3" d="m112.3,64.44l33.4-50.21c.61-.92.36-2.16-.56-2.77-.19-.13-.4-.21-.61-.26.53-.14,1.12-.07,1.61.26.92.61,1.17,1.85.56,2.77l-33.4,50.21c-.48.73-1.36,1.03-2.16.82.46-.12.88-.39,1.16-.82Z"/><path class="cls-4" d="m53.14,68.46v-13.78c0-28.98,23.71-52.68,52.68-52.68h10.57c28.98,0,52.68,23.71,52.68,52.68v13.78"/><path class="cls-3" d="m150.18,16.89c-9.2-9.19-21.86-14.89-35.79-14.89h-10.57c-13.94,0-26.6,5.7-35.79,14.89-9.19,9.2-14.89,21.86-14.89,35.79v13.78h0c0,1.1-.9,2-2,2,0,1.1.9,2,2,2s2-.9,2-2h0v-13.78c0-13.94,5.7-26.6,14.89-35.79,9.2-9.19,21.86-14.89,35.79-14.89h10.57c13.43,0,25.67,5.3,34.77,13.91-.32-.34-.64-.69-.98-1.02Z"/><path class="cls-3" d="m171.07,54.68c0-15.55-6.58-29.62-17.08-39.6,9.33,9.82,15.08,23.06,15.08,37.6v13.78c0,1.1-.9,2-2,2,0,1.1.9,2,2,2s2-.9,2-2v-13.78Z"/><path class="cls-1" d="m114.1,56.93V4.5c0-1.1-.9-2-2-2s-2,.9-2,2v59.05c0,.88.58,1.66,1.42,1.91.84.26,1.76-.07,2.24-.81"/><path class="cls-3" d="m112.63,2.66v52.43l1.48-2.22V4.5c0-.93-.63-1.7-1.48-1.92,0,.03,0,.05,0,.08Z"/><path class="cls-1" d="m77.97,12.24l33.4,50.21c.61.92,1.85,1.17,2.77.56.92-.61,1.17-1.85.56-2.77L81.3,10.02c-.61-.92-1.85-1.17-2.77-.56-.92.61-1.17,1.85-.56,2.77"/><path class="cls-3" d="m112.37,62.44L78.97,12.24c-.61-.92-.36-2.16.56-2.77.19-.13.4-.21.61-.26-.53-.14-1.12-.07-1.61.26-.92.61-1.17,1.85-.56,2.77l33.4,50.21c.48.73,1.36,1.03,2.16.82-.46-.12-.88-.39-1.16-.82Z"/><path class="cls-1" d="m56.3,44.71l55.61,18.24c1.05.34,2.18-.23,2.52-1.28.34-1.05-.23-2.18-1.28-2.52l-55.61-18.24c-1.05-.34-2.18.23-2.52,1.28-.34,1.05.23,2.18,1.28,2.52"/><path class="cls-3" d="m112.16,61.99l-55.61-18.24c-.85-.28-1.38-1.08-1.37-1.93-.06.11-.12.23-.16.36-.34,1.05.23,2.18,1.28,2.52l55.61,18.24c1.05.34,2.18-.23,2.52-1.28.07-.2.09-.4.09-.6-.46.81-1.44,1.22-2.36.92Z"/><path class="cls-1" d="m79,24.29c7.31,1.05,15.57,2.23,21.06,1.11,8.85-1.8,26.34-1.92,42.36-1.18,3.38-.38,5.47-1.2,9.38-2.3,1.91-.54,2.89-.06,2.52,1.7-.47,2.22-2.21,4.96-2.77,8.37,2.14,8.86,4.19,17.88,1.26,19.48-2.03,1.37-2.16,2.06-.56,2.73,1.42-.59,1.91,1.01,2.91,3.73-.36.47-.93,1.01-.29,1.7.85.93,1.64,1.13,1.82,1.13.93.85,2.31,1.37,4.44,2.32.75,1.06.6,3.08-.29,3.18-15.24,1.66-24.21,3.05-32.78,2-7.05-1.56-13.21-1.73-22.97-1.04-6.2.8-11.96,1.91-18.69,1.74-5.56-.14-12.96-.77-15.85-2.16-5.41.55-10.33.96-9.56-1.14,3.11-4.61,9.25-6.04,8.8-9.94-2.11-3.72-1.02-14.95.32-22.58,1-3.78-1.12-7.89-2.05-10.16-1.67-4.06,9.12,1.07,10.92,1.33Z"/><path class="cls-3" d="m156.69,60.74c-.19,0-.97-.19-1.82-1.13-.63-.69-.06-1.23.29-1.7-1-2.71-1.5-4.31-2.91-3.73-1.6-.66-1.47-1.36.56-2.73,2.93-1.59.88-10.61-1.26-19.48.06-.37.14-.72.22-1.08-2.11-1.83-4.23-3.2-4.49-1.62-.54,3.25,1.5,9.75-1.77,13.75-3.27,4,13.98,16.5-18.52,13.5s-34.95,5.5-45.35,5.75c-6.67.16-11.01-1.73-15.64-1.33-1.71,1.27-3.64,2.67-4.99,4.68-.76,2.1,4.15,1.69,9.56,1.14,2.88,1.39,10.29,2.02,15.85,2.16,6.73.17,12.49-.94,18.69-1.74,9.76-.69,15.92-.52,22.97,1.04,8.56,1.05,17.53-.34,32.78-2,.89-.1,1.04-2.12.29-3.18-2.14-.95-3.51-1.46-4.44-2.32Z"/><path class="cls-3" d="m85.23,33.17s-11.35.66-14.92-3.36l-.18,3.3s7.11,3.19,15.11.06Z"/><path class="cls-3" d="m84.17,56.73s-6.65-2.11-7.87-2.19c-1.83-.12-4.95,2.45-6.49,1.16,0,0,1.8,1.65,3.18,1.15,0,0,2.48-.91,4.88-1.11s2.12.42,6.3.99Z"/><path class="cls-3" d="m139.07,24.08s-13.33,1.25-18.33,4.53c0,0,11.83-1.47,16-2.26s5.68-2.12,5.68-2.12"/><path class="cls-1" d="m19.87,79.31c5.78-4.01,31.8-17.95,51.04-18.26,19.24-.31,53.34-5.91,62.11-2.75,8.77,3.17,20.7-4.38,43.11,6.82,22.41,11.2,27.52,14.86,27.77,19.48l.24,4.63s-4.18-2.24-12.03-4.15c-6.6-1.6-13.69-5-22.76-6.88-23.67-4.9-51.67-7.12-72.65-4.4-29.01,3.77-44.45,5.42-53.89,6.89-12.64,1.97-27.54,9.58-27.54,9.58,0,0-1.18-6.95,4.6-10.96Z"/><path class="cls-3" d="m150.8,61.05s-27.04,3.34-33.37,3.34-39.21.73-41.65,1.7-35.85,8.77-35.85,8.77l-9.76,7.79s2.02-8.46,14.44-10.8c12.42-2.34,33.25-7.95,33.25-7.95l50.94-1.46,22-1.4Z"/><path class="cls-3" d="m169.07,78.28s9.1,2,16.18,4.24c3.11.98,5.83,2.01,7.23,2.94,0,0,.7-2.08,2.4-2.8s1.22-3.16,1.22-3.16c0,0-1.48,1.69-3.9,3.16-2.42,1.47-3.41-2.19-5.85-4.38s-.73-4.38-2.44-3.9-1.33,2.87,0,5.51-10.72-1.37-10.47-2.83,2.92-2.86,2.68-5.21-1.7-2.1-1.7-2.1c0,0,1.46,1.47-.97,3.54s-4.38,4.99-4.38,4.99Z"/><path class="cls-2" d="m98.98,111.54s54.75,1.76,72,0c12.25-1.25,25.25-.51,29.25,1.13s10.47,5.48,12.93,11.65c.89,2.24,11.32-18.17-19.93-18.09-31.25.08-82.29,2.58-109.77,1.58"/><path class="cls-1" d="m214.98,105.73s6.45,18.06.25,23.04c-1.88,1.51-1.78-17.65-14.25-18.48-38-2.51-110.09,2.08-143.22,1.84s-49.03-4.17-52.72,6.58c-2.35,6.84-6.69-6.28-4.4-9.58,2.51-3.6,4.75-14.05,40.31-14.78,35.56-.73,163.18,1.7,163.18,1.7l8.52.49"/><path class="cls-3" d="m16.85,98.67s-9.24.11-11.01,3.01c-1.47,2.4-2.44,3.33-2.44,3.33,0,0,3.46-3.42,25.63-3.42s67.95-.73,67.95-.73c0,0,46.03-2.68,60.16,0,14.13,2.68,25.33.97,33.85,1.22,8.52.24,9.49,1.86,14.86.31s5.11-2.41,8.52-1.36,6.68,4.9,7.06,3.77-5.12-6.21-8.08-7.54"/><path class="cls-1" d="m96.98,98.98s46.03-2.68,60.16,0c14.13,2.68,25.33.97,33.85,1.22s10.63,1.68,14.86.31,5.11-2.41,8.52-1.36,7.06,5.19,7.06,5.19c0,0-1.46-4.33-4.38-6.55-2.92-2.22-7.82-6.31-9.5-7.36-4.81-3.01-41.65-16.05-72.09-15.07-30.44.97-75.02,3.65-87.19,6.09-12.18,2.44-32.64,8.04-35.56,9.99-2.92,1.95-1.46,5.36-1.46,5.36,0,0-4.38.73-5.6,3.9l-1.22,3.17s2.44-4.14,24.6-4.14,67.95-.73,67.95-.73Z"/><path class="cls-3" d="m81.63,89.24s-33.61,1.95-43.6,2.68c-9.99.73-17.05,0-21.92,2.44,0,0,6.09-3.46,21.19-4.53s36.05-4.48,44.33-.58Z"/><path class="cls-2" d="m161.61,121.73s-12.01,15.51-19.05,18.31c-9.95,3.96-14.08,8.33-14.08,8.33h0s4.13-6.07,10-8.22c6.68-2.45,16.25-12.44,23.13-18.42"/><path class="cls-1" d="m186.46,120.43s-17.39,2.33-27.06,11.33c0,0,5.26-3.7,12.5-5.67s14.56-5.67,14.56-5.67"/><path class="cls-2" d="m199.61,126.1s-4.13,21.33-28.55,22.27c0,0,13.55.39,21.24-5.94,7.68-6.33,6.53-14.67,7.32-16.33"/><path class="cls-2" d="m142.61,112.31s-5.29-.03-11.5,5.37c-4.06,3.53-6.66,5.25-6.66,5.25,0,0,.29-1.37,5.79-5.31s5.63-4.37,12.18-6.09"/><path class="cls-2" d="m69.39,116.18s3.84,21.06,12.11,23.86c10.14,3.44,14.98,7.22,14.98,7.22h0s-5.47-5.46-12.13-7.55-9.55-6.89-14.96-23.54"/><path class="cls-2" d="m42.33,136.58s17.39,2.33,27.06,11.33c0,0-5.26-3.7-12.5-5.67-7.24-1.96-14.56-5.67-14.56-5.67"/><path class="cls-2" d="m24.44,126.1s4.13,21.33,28.55,22.27c0,0-13.55.39-21.24-5.94-7.68-6.33-6.53-14.67-7.32-16.33"/></g></svg>