<?xml version="1.0" encoding="UTF-8"?><svg id="Calque_2" xmlns="http://www.w3.org/2000/svg" viewBox="0 0 125.63 225.07"><defs><style>.cls-1{fill:#eeeceb;}.cls-2{fill:#fff;}.cls-3{fill:#e8e8e8;}.cls-4{fill:#a3b2b6;}.cls-5{fill:#d2d2d2;}.cls-6{fill:#dadada;}.cls-7{fill:#938e8d;opacity:.57;}</style></defs><g id="blancs"><rect class="cls-5" x="59.49" y="192.27" width="5.68" height="32.79" rx="2.41" ry="2.41"/><path class="cls-2" d="m61.43,218.6c-.04-1.11.04-12.57,0-20.33-.02-2.8.2-4.69.49-5.95-1.37.2-2.42,1.39-2.42,2.81v27.11c0,1.56,1.28,2.84,2.84,2.84.72,0,1.37-.27,1.87-.71-3.02.18-2.74-4.95-2.78-5.76Z"/><path class="cls-5" d="m97.58,180.88s-7.21,8.81-11.74,11.19c-4.53,2.37-16.86,3.83-28.01,2.91-11.15-.91-18.6,1.05-29.85-12.69"/><path class="cls-2" d="m42.86,182l-14.87.3c8.09,9.88,14.22,11.64,21.17,12.19-3.95-4.1-5.61-8.94-6.3-12.49Z"/><path class="cls-1" d="m121.56,155.61s-11.21,23.36-12.82,24.73-4.91,2.31-10.76,4.35c-5.84,2.04-35.58,2.69-48.74,1.97-13.16-.72-31.62-1.85-33.36-3.82s-9.42-14.85-11.41-20.62c-1.99-5.77-4.77-7.69,3.75-9.8"/><path class="cls-2" d="m69.76,147.96s14.86,1.17,23.82,1.53c8.95.36,23.48,2.51,26.33,3.85s4.1,5.6-14.41,7.19c-18.51,1.58-61.72,3.01-73.48,2.3s-37.22-4.17-27.66-9.34c9.55-5.17,49.63-6.08,65.4-5.52Z"/><path class="cls-6" d="m67.97,151.41s11.47.59,18.38.77,18.12,1.26,20.32,1.94,3.17,2.83-11.12,3.62c-14.28.8-47.62,1.52-56.69,1.16s-28.72-2.1-21.34-4.71c7.37-2.61,38.29-3.07,50.46-2.78Z"/><path class="cls-2" d="m4.48,162.22c1.99,5.77,9.67,18.65,11.41,20.62.91,1.03,6.43,1.84,13.38,2.47l-8.09-19.95s-5.48-.27-13.22-2.35"/><ellipse class="cls-2" cx="64.9" cy="61.73" rx="54.86" ry="53.91" transform="translate(-.84 .89) rotate(-.78)"/><ellipse class="cls-3" cx="62.81" cy="61.73" rx="62.81" ry="61.73" transform="translate(-.84 .87) rotate(-.78)"/><path class="cls-2" d="m1.75,62.59C1.28,28.5,29.01.49,63.69,0c-.57,0-1.15,0-1.73,0C27.28.48-.46,28.5,0,62.59c.47,34.09,28.97,61.33,63.65,60.86,0,0,.01,0,.02,0-33.9-.43-61.47-27.34-61.93-60.86Z"/><ellipse class="cls-2" cx="62.81" cy="61.73" rx="54.86" ry="53.91" transform="translate(-.84 .87) rotate(-.78)"/><path class="cls-7" d="m10.05,62.48c-.41-29.68,23.67-54.08,53.83-54.64-.6-.01-1.2-.02-1.81,0-30.29.41-54.52,24.88-54.11,54.65.41,29.77,25.3,53.56,55.59,53.15.1,0,.19,0,.28,0-29.47-.53-53.38-23.97-53.78-53.14Z"/><path class="cls-3" d="m85.09,34.59l-51.56,52.24s-6.84,7.14-1.68,4.35c5.16-2.79,61.23-58.75,61.75-61.24s-4.87.96-8.51,4.65Z"/><path class="cls-3" d="m85.09,51.25l-10.01,10.48s-6.84,7.14-1.68,4.35c5.16-2.79,19.68-16.99,20.2-19.48s-4.87.96-8.51,4.65Z"/><path class="cls-3" d="m39.81,33.83l-10.01,10.48s-6.84,7.14-1.68,4.35c5.16-2.79,19.68-16.99,20.2-19.48s-4.87.96-8.51,4.65Z"/><path class="cls-2" d="m65.19,147.52c.13-6.35.13-12.71-.38-19.04-.26-3.32-.75-6.84-2.88-9.41-2.21-2.66-5.91-3.81-9.35-3.42-2.38.27-4.72,1.25-6.41,2.96-1.57,1.58-2.51,3.71-2.96,5.89-.37,1.82-.62,3.99-.34,5.84.25,1.64,2.05,1.9,3.57,1.42.15-.05.31-.11.39-.25.08-.13.06-.29.05-.44-.14-1.4-.47-2.8-.41-4.21.23-5.49,2.79-7.03,4.03-7.5,2.83-1.08,5.95-.77,8.17,1.66,3.13,3.42,3.12,19.45,1.71,26.18"/><path class="cls-6" d="m65.16,141.3c.22-8.39.3-4.47-.37-12.84-.26-3.32-.75-6.84-2.88-9.41-1.97-2.38-5.14-3.55-8.25-3.49,2.58.29,5.06,1.43,6.71,3.42,2.13,2.57,2.62,6.09,2.88,9.41.67,8.37-.42,11.68-.64,20.07"/><path class="cls-6" d="m48.94,119.27c-1.23.47-3.8,2.01-4.03,7.5-.06,1.41.27,2.81.41,4.21.01.15.03.31-.05.44-.08.13-.24.2-.39.25-.23.07-.47.13-.71.17.67.2,1.49.14,2.24-.1.15-.05.31-.11.39-.25.08-.13.06-.29.05-.44-.14-1.4-.47-2.8-.41-4.21.23-5.49,2.79-7.03,4.03-7.5.86-.33,1.74-.53,2.61-.58-1.36-.21-2.79-.01-4.15.51Z"/><path class="cls-6" d="m66.14,143.19c1.31-.66,2.41-2.07,3.47-3.07.32-.3.66-.61,1.09-.73.43-.12.96.04,1.12.45.14.37-.05.77-.25,1.11-.99,1.71-2.19,3.31-3.57,4.74-.27.28-.56.57-.92.73-.75.34-1.74,0-2.14-.72-.65-1.19.25-2.04,1.19-2.51Z"/><path class="cls-2" d="m69.28,143.07c-.4-.34-.86-.89-1.12-1.48.51-.51,1-1.05,1.48-1.51.26-.25.54-.5.86-.65.21.08.42.18.61.29.27.15.53.34.75.56-.05.22-.16.43-.27.63-.99,1.71-2.19,3.31-3.57,4.74-.27.28-.56.57-.92.73-.14.06-.28.1-.43.12-.23-.25-.44-.53-.6-.83,1.22-.65,2.32-1.54,3.2-2.6Z"/><path class="cls-3" d="m69.12,138.66c.59-.38,1.28-.57,1.96-.74-.35-.42-.82-.71-1.27-1.02-.44-.31-.89-.67-1.13-1.15-.24-.49-.23-1.14.15-1.52.41-.4,1.11-.37,1.6-.06s.96.84,1.23,1.35c.27.5.74,1.85.74,1.85,0,0,.15-.61.47-.93.41-.41.83-.83,1.37-1.04s1.22-.16,1.6.27c.43.49.3,1.29-.12,1.8-.41.51-1.03.79-1.63,1.06.7.23,1.36.59,1.92,1.08.4.34.76.77.88,1.28.12.51-.05,1.12-.51,1.38-.33.18-.75.16-1.1.01-.35-.15-.64-.4-.92-.66-.59-.55-1.13-1.16-1.61-1.81-.21.74-.62,1.44-1.24,1.9-.62.46-1.45.65-2.18.4-.73-.25-1.3-.96-1.28-1.73.01-.7.49-1.33,1.08-1.71Z"/><path class="cls-2" d="m68.97,139.19c.53-.52,1.25-.84,1.97-.96-.35.23-.7.46-.98.78-.28.32-.49.71-.54,1.13-.03.26-.01.56-.2.74-.13.13-.34.16-.5.07-.2-.11-.29-.35-.29-.58,0-.45.22-.87.54-1.18Z"/><path class="cls-2" d="m69.92,134.32c.03.11-.03.23-.12.3-.09.07-.2.12-.29.19-.25.2-.3.58-.19.89.1.3.33.55.55.79-.23-.19-.46-.38-.64-.62-.18-.23-.32-.51-.34-.81-.01-.15,0-.3.06-.44.1-.26.83-.79.98-.31Z"/><path class="cls-2" d="m73.59,136.09c.36-.32.82-.55,1.3-.57.25,0,.91.27.6.63-.1.11-.26.14-.4.12-.14-.02-.28-.08-.42-.11-.38-.08-.79.04-1.11.26-.33.21-.6.5-.86.79.26-.4.54-.81.9-1.13Z"/><path class="cls-2" d="m74.1,138.87c.16.06.33.11.48.19.3.15.59.34.86.53.26.18.52.38.73.62.21.24.38.53.41.85.02.18,0,.38-.13.52-.13.13-.38.15-.48,0-.07-.1-.06-.22-.06-.34.01-.34-.03-.69-.19-.98-.15-.26-.39-.46-.63-.64-.43-.32-.89-.58-1.35-.83.11-.03.24.06.35.09Z"/><path class="cls-4" d="m71.89,137.87c.54-.23,1.1.11,1.36.58.13.24.17.55.05.8-.05.1-.12.18-.22.23-.06.03-.14.03-.21.03-.26,0-.5-.11-.7-.27-.2-.16-.36-.37-.49-.59-.06-.11-.12-.22-.12-.35,0-.2.15-.37.33-.44Z"/><path class="cls-6" d="m59.99,143.19c-1.31-.66-2.41-2.07-3.47-3.07-.32-.3-.66-.61-1.09-.73-.43-.12-.96.04-1.12.45-.14.37.05.77.25,1.11.99,1.71,2.19,3.31,3.57,4.74.27.28.56.57.92.73.75.34,1.74,0,2.14-.72.65-1.19-.25-2.04-1.19-2.51Z"/><path class="cls-2" d="m56.84,143.07c.4-.34.86-.89,1.12-1.48-.51-.51-1-1.05-1.48-1.51-.26-.25-.54-.5-.86-.65-.21.08-.42.18-.61.29-.27.15-.53.34-.75.56.05.22.16.43.27.63.99,1.71,2.19,3.31,3.57,4.74.27.28.56.57.92.73.14.06.28.1.43.12.23-.25.44-.53.6-.83-1.22-.65-2.32-1.54-3.2-2.6Z"/><path class="cls-3" d="m57,138.66c-.59-.38-1.28-.57-1.96-.74.35-.42.82-.71,1.27-1.02.44-.31.89-.67,1.13-1.15.24-.49.23-1.14-.15-1.52-.41-.4-1.11-.37-1.6-.06s-.96.84-1.23,1.35c-.27.5-.74,1.85-.74,1.85,0,0-.15-.61-.47-.93-.41-.41-.83-.83-1.37-1.04s-1.22-.16-1.6.27c-.43.49-.3,1.29.12,1.8.41.51,1.03.79,1.63,1.06-.7.23-1.36.59-1.92,1.08-.4.34-.76.77-.88,1.28-.12.51.05,1.12.51,1.38.33.18.75.16,1.1.01.35-.15.64-.4.92-.66.59-.55,1.13-1.16,1.61-1.81.21.74.62,1.44,1.24,1.9.62.46,1.45.65,2.18.4.73-.25,1.3-.96,1.28-1.73-.01-.7-.49-1.33-1.08-1.71Z"/><path class="cls-2" d="m57.15,139.19c-.53-.52-1.25-.84-1.97-.96.35.23.7.46.98.78.28.32.49.71.54,1.13.03.26.01.56.2.74.13.13.34.16.5.07.2-.11.29-.35.29-.58,0-.45-.22-.87-.54-1.18Z"/><path class="cls-2" d="m56.2,134.32c-.03.11.03.23.12.3.09.07.2.12.29.19.25.2.3.58.19.89-.1.3-.33.55-.55.79.23-.19.46-.38.64-.62.18-.23.32-.51.34-.81.01-.15,0-.3-.06-.44-.1-.26-.83-.79-.98-.31Z"/><path class="cls-2" d="m52.53,136.09c-.36-.32-.82-.55-1.3-.57-.25,0-.91.27-.6.63.1.11.26.14.4.12.14-.02.28-.08.42-.11.38-.08.79.04,1.11.26.33.21.6.5.86.79-.26-.4-.54-.81-.9-1.13Z"/><path class="cls-2" d="m52.02,138.87c-.16.06-.33.11-.48.19-.3.15-.59.34-.86.53-.26.18-.52.38-.73.62-.21.24-.38.53-.41.85-.02.18,0,.38.13.52.13.13.38.15.48,0,.07-.1.06-.22.06-.34-.01-.34.03-.69.19-.98.15-.26.39-.46.63-.64.43-.32.89-.58,1.35-.83-.11-.03-.24.06-.35.09Z"/><path class="cls-4" d="m54.23,137.87c-.54-.23-1.1.11-1.36.58-.13.24-.17.55-.05.8.05.1.12.18.22.23.06.03.14.03.21.03.26,0,.5-.11.7-.27.2-.16.36-.37.49-.59.06-.11.12-.22.12-.35,0-.2-.15-.37-.33-.44Z"/><path class="cls-2" d="m65.29,140.74c-.13-.27-.28-.56-.54-.69-.19-.09-.4-.09-.61-.09-.73.01-1.45.02-2.18.03-.21,0-.43.01-.6.13-.14.11-.22.28-.29.44-.49,1.16-.98,2.32-1.45,3.48-.41,1.02-.81,2.04-1.22,3.07-.3.75-.85,1.37-1.13,2.11-.33.86.55.76,1.2.8,1.05.07,2.1.14,3.15.2,2.03.13,4.07.26,6.08-.05.36-.06.76-.15.96-.45.26-.36.12-.86-.03-1.28-.93-2.64-2.14-5.17-3.34-7.7Z"/><path class="cls-6" d="m65.32,140.74c-.13-.27-.28-.56-.54-.69-.19-.09-.4-.09-.61-.09-.15,0-.29,0-.44,0,.04.13.11.26.17.37.4.8.72,1.63.93,2.5.12.5.21,1.01.26,1.52.17,1.58.04,3.19-.31,4.74.27-.11.58-.07.87-.05,1.04.09,2.11.02,3.11-.27-.03-.12-.07-.23-.11-.34-.93-2.64-2.14-5.17-3.34-7.7Z"/><path class="cls-6" d="m64.51,139.94c-.87-.04-1.74-.02-2.61.04-.08,0-.42-.01-.46.09-.07.18.27.16.36.17.45.03.89.07,1.34.1.48.04.97.08,1.45.11.03,0,.06,0,.09,0,.05-.02.06-.08.07-.13.02-.11.03-.25-.06-.33-.05-.04-.12-.04-.18-.05Z"/><path class="cls-6" d="m65.08,140.98c-.06-.04-.15-.04-.22-.05-1.06-.05-2.13-.04-3.19.01-.1,0-.51-.01-.56.09-.09.17.33.16.44.17.55.04,1.09.08,1.64.12.59.04,1.18.09,1.78.13.04,0,.08,0,.11,0,.06-.02.07-.08.08-.13.02-.11.04-.25-.08-.33Z"/><path class="cls-2" d="m46.84,128.2c-.01-.06-.02-.12-.06-.16-.05-.06-.13-.09-.21-.11-1.13-.31-2.84-.69-4-.33-.6.19-.44.81-.47,1.41-.04.74-.06,1.48-.07,2.22,0,.3,0,.61.1.89.24.64.97.95,1.64,1.07.93.17,1.9.1,2.8-.21.17-.06.34-.13.45-.26.13-.16.14-.38.14-.59.02-1.31-.09-2.63-.32-3.92Z"/><path class="cls-6" d="m46.85,128.19c-.01-.06-.02-.12-.06-.16-.05-.06-.13-.09-.21-.11-.29-.08-.62-.16-.97-.24,0,.01,0,.03.02.04.43.85.63,1.57.63,2.53,0,.66-.04,1.39-.5,1.86-.36.37-.9.51-1.41.56-.66.06-1.33,0-1.97-.19.34.38.88.59,1.4.68.93.17,1.9.1,2.8-.21.17-.06.34-.13.45-.26.13-.16.14-.38.14-.59.02-1.31-.09-2.63-.32-3.92Z"/></g></svg>