<?xml version="1.0" encoding="UTF-8"?><svg id="Layer_2" xmlns="http://www.w3.org/2000/svg" viewBox="0 0 53.74 98.79"><defs><style>.cls-1{fill:#fff;}.cls-2{fill:#a5a5a5;}.cls-3{fill:#d8d8d8;}.cls-4{fill:#b2b5b2;}.cls-5{fill:#c0c1c0;}.cls-6{fill:#a3a3a3;}.cls-7{fill:#afafaf;}.cls-8{fill:#d2d2d2;}</style></defs><g id="poubelle"><path class="cls-2" d="m27.89,91.25l-6.56,5.95s-1.7,2.03-3.96,1.51l-11.69-4.86s-.59-1.23.07-2.88,16.8,2.31,16.8,2.31l4.08-2.72,1.25.68"/><path class="cls-5" d="m26.64,91.25l-5.35,4.65s-2.06,2.49-5.3,1.3l-9.63-4s-1.51-1.62,0-3.25l3.22-3.21,17.06,4.51Z"/><path class="cls-1" d="m50.29,82.43V12.04H2.99v70.4s22.67,19.83,47.3,0Z"/><path class="cls-3" d="m28.32,91.22s15.56-3.25,15.4-31.8,0-42.97,0-42.97l5.03-4.23,1.54,2.34v67.88s-10.92,9.12-21.96,8.79Z"/><path class="cls-4" d="m53.1,5.34s.44,2.69-.78,3.91c0,0,2.28,2.35.78,4.22,0,0-24.69,11.24-52.91,0,0,0-1.03-4.05,1.76-4.34,0,0-2.56-.91-1.76-3.79.81-2.88,52.91,0,52.91,0Z"/><ellipse class="cls-1" cx="26.64" cy="5.34" rx="26.46" ry="5.34"/><path class="cls-6" d="m46.15,15.84s2.72-2.02.73-3.84c0,0,1.8-1.67,0-3.22,0,0,5.97-.87,6.22-3.44,0,0,.47,2.69-.78,3.91,0,0,2.6,2.52.78,4.22s-6.95,2.36-6.95,2.36Z"/><path class="cls-7" d="m46.88,8.79S48.88,2.9,32.03.11c0,0,20.55.71,21.07,5.23,0,0,.51,2.29-6.22,3.44Z"/><path class="cls-1" d="m9.02,29.3c.24,4.38.16,8.77-.26,13.14-.1,1.09-.23,2.18-.38,3.27-.07.53-.12,1.09-.65,1.37-.5.26-1.07.03-1.44-.35-.64-.66-.93-1.74-1.08-2.62-.15-.97-.17-1.94-.18-2.92-.02-2.21-.04-4.43-.01-6.64.01-1.11.03-2.21.07-3.32.04-1.04.04-2.09.16-3.13.09-.79.32-1.66,1.05-2.11.79-.48,1.71-.24,2.33.38.68.67.96,1.58,1.1,2.49.16,1.06.15,2.13.12,3.21-.06,2.46-.16,4.93-.31,7.39-.13,2.12-.06,4.58-1.34,6.4-.22.31-.61.45-.95.25-.3-.18-.47-.64-.25-.95.96-1.37.98-3.13,1.09-4.74.13-1.96.23-3.92.3-5.88.03-.95.06-1.91.08-2.86s.03-1.9-.15-2.82c-.12-.59-.32-1.36-.9-1.67-.43-.23-.64.25-.74.69-.18.81-.14,1.7-.17,2.52-.04.97-.07,1.94-.09,2.9-.04,1.98-.03,3.97-.02,5.95,0,.95,0,1.91.03,2.86.02.81.07,1.63.29,2.42.1.35.23.68.41,1,.04.08.09.15.14.22.02.03.1.07.1.09l-.43.16c.02-.07.03-.13.04-.2.02-.12.03-.24.05-.36.13-1,.24-1.99.34-2.99.42-4.37.5-8.76.26-13.14-.05-.89,1.34-.89,1.39,0h0Z"/><path class="cls-1" d="m7.78,27.66v8.6c0,1.43,0,2.87,0,4.3v2.08c0,.37,0,.74,0,1.11,0,.07.03.2.02.27-.02.12.1.09-.1.02l-.88.67c.14-2.94.27-5.89.41-8.83.07-1.47.14-2.94.21-4.41.03-.66.09-1.33.08-2,0-.34-.02-.84-.32-1.04s-.45-.61-.25-.95c.18-.31.64-.46.95-.25.83.58,1.03,1.53,1.01,2.49-.02,1.18-.11,2.37-.16,3.55-.11,2.44-.23,4.87-.34,7.31-.06,1.38-.13,2.76-.19,4.14-.02.41-.44.84-.88.67-1.14-.43-.94-1.74-.94-2.74v-3.61c0-2.43,0-4.85,0-7.28v-4.09c0-.9,1.39-.9,1.39,0h0Z"/><path class="cls-1" d="m7.19,56.23c.02,2.42-.03,4.84-.16,7.26-.06,1.19-.15,2.37-.25,3.55-.05.59-.1,1.18-.16,1.77-.05.52-.15,1.1-.68,1.36-.39.19-.9.05-1.02-.42-.55-2.17-.34-4.41-.17-6.61s.35-4.6.53-6.9c.02-.32.2-.57.51-.67.58-.18,1.05.29,1.13.84s-.01,1.1-.03,1.63c-.04,1.14-.08,2.27-.12,3.41-.08,2.27-.15,4.54-.23,6.81-.03.81-1.09.91-1.37.18-.67-1.78-.42-3.72-.24-5.57.2-2.02.41-4.03.61-6.05.04-.37.29-.7.7-.7.35,0,.73.32.7.7-.2,1.97-.4,3.94-.59,5.91-.18,1.77-.47,3.63.17,5.33l-1.37.18c.07-1.99.14-3.99.2-5.98.03-.97.07-1.95.1-2.92.02-.51.03-1.02.05-1.53,0-.23.02-.46.02-.7,0-.14,0-.28.01-.42,0-.21-.04-.09.07,0l.31.18-.06-.02h.37l-.06.02.51-.67c-.17,2.25-.34,4.51-.51,6.76-.16,2.12-.42,4.3.11,6.38l-1.02-.42c-.09.04-.05.21-.04.05,0-.08.02-.1.03-.2.03-.3.06-.59.09-.89.05-.55.1-1.09.14-1.64.09-1.12.16-2.23.21-3.35.11-2.24.15-4.47.13-6.71,0-.9,1.38-.9,1.39,0h0Z"/><path class="cls-8" d="m7.06,8.79S-2.88,4.32,14.17.63C14.17.63.07,1.75.19,5.34c0,0-.24,2.82,6.87,3.44Z"/></g></svg>