<?xml version="1.0" encoding="UTF-8"?><svg id="Layer_2" xmlns="http://www.w3.org/2000/svg" viewBox="0 0 100.46 95.89"><defs><style>.cls-1{fill:#fff;}.cls-2{fill:#b2b2b2;}.cls-3{fill:#959595;}.cls-4{stroke:#fff;stroke-linecap:round;stroke-linejoin:round;}.cls-4,.cls-5{fill:none;}.cls-5{stroke:#b2b2b2;stroke-miterlimit:10;}.cls-6{fill:#7a7a7a;}.cls-7{fill:#6d6d6d;}.cls-8{fill:#142b20;opacity:.45;}.cls-9{fill:#2c2964;}</style></defs><g id="Radiateur"><path class="cls-8" d="m10.05,77.5s79.03-.09,80.43.96-.29,7.64-5.51,12.07c-3.67,3.11-5.82,4.27-10.1,4.27H5.13s-5.87-3.46-3.71-6.86,5.93-10.43,8.63-10.43"/><g><polygon class="cls-6" points="28.35 84.73 25.87 86.51 25.17 1.12 28.35 1.73 28.35 84.73"/><path class="cls-1" d="m22.78,3.15l1.72-2.53S25.01,0,26.04,0c.56,0,1.11.18,2.27,1.73l-1.07,1.42"/><path class="cls-2" d="m22.78,3.15v82.42s1.55,1.45,1.55,1.45c.38.36.98.36,1.36,0l1.55-1.45V3.15s-1.55-1.45-1.55-1.45c-.38-.36-.98-.36-1.36,0l-1.55,1.45Z"/><path class="cls-1" d="m22.78,3.15v82.42s1.55,1.45,1.55,1.45c.19.18.44.27.68.27V1.44c-.25,0-.49.09-.68.27l-1.55,1.45Z"/></g><g><polygon class="cls-6" points="18.35 84.73 15.87 86.51 15.17 1.12 18.35 1.73 18.35 84.73"/><path class="cls-1" d="m12.78,3.15l1.72-2.53S15.01,0,16.04,0c.56,0,1.11.18,2.27,1.73l-1.07,1.42"/><path class="cls-2" d="m12.78,3.15v82.42s1.55,1.45,1.55,1.45c.38.36.98.36,1.36,0l1.55-1.45V3.15s-1.55-1.45-1.55-1.45c-.38-.36-.98-.36-1.36,0l-1.55,1.45Z"/><path class="cls-1" d="m12.78,3.15v82.42s1.55,1.45,1.55,1.45c.19.18.44.27.68.27V1.44c-.25,0-.49.09-.68.27l-1.55,1.45Z"/></g><path class="cls-3" d="m0,11.19v4.42c0,.56.32,1.07.83,1.3l2.07.96v-8.93s-2.07.96-2.07.96C.32,10.13,0,10.63,0,11.19Z"/><g><polygon class="cls-6" points="8.35 84.73 5.87 86.51 5.17 1.12 8.35 1.73 8.35 84.73"/><path class="cls-1" d="m2.78,3.15l1.72-2.53S5.01,0,6.04,0c.56,0,1.11.18,2.27,1.73l-1.07,1.42"/><path class="cls-2" d="m2.78,3.15v82.42s1.55,1.45,1.55,1.45c.38.36.98.36,1.36,0l1.55-1.45V3.15s-1.55-1.45-1.55-1.45c-.38-.36-.98-.36-1.36,0l-1.55,1.45Z"/><path class="cls-1" d="m2.78,3.15v82.42s1.55,1.45,1.55,1.45c.19.18.44.27.68.27V1.44c-.25,0-.49.09-.68.27l-1.55,1.45Z"/></g><g><polygon class="cls-3" points="9.74 10.31 9.74 16.56 12.78 17.9 12.78 8.98 9.74 10.31"/><polygon class="cls-7" points="9.74 10.31 9.74 16.56 7.63 17.9 7.63 8.98 9.74 10.31"/></g><g><polygon class="cls-3" points="29.99 10.31 29.99 16.56 33.02 17.9 33.02 8.98 29.99 10.31"/><polygon class="cls-7" points="29.99 10.31 29.99 16.56 27.88 17.9 27.88 8.98 29.99 10.31"/></g><g><polygon class="cls-3" points="19.74 10.31 19.74 16.56 22.78 17.9 22.78 8.98 19.74 10.31"/><polygon class="cls-7" points="19.74 10.31 19.74 16.56 17.63 17.9 17.63 8.98 19.74 10.31"/></g><g><path class="cls-7" d="m9.47,74.47v13.68c.22-.03.44-.05.67-.05s.45.02.67.05v-13.68c0-.37-.3-.67-.67-.67-.19,0-.35.07-.47.2-.12.12-.2.29-.2.47Z"/><path class="cls-7" d="m5,89.9c-.11.34.14.68.5.68h0c.22,0,.43-.14.49-.36.44-1.43,1.8-2.53,3.48-2.76.22-.03.44-.05.67-.05s.45.02.67.05c1.68.23,3.03,1.33,3.48,2.76.07.21.27.36.49.36h0c.35,0,.6-.34.5-.68-.58-1.85-2.33-3.24-4.47-3.49-.22-.02-.44-.04-.67-.04s-.45.01-.67.04c-2.14.25-3.89,1.65-4.47,3.49Z"/><circle class="cls-1" cx="10.14" cy="91.64" r="4.25"/><circle class="cls-5" cx="10.14" cy="91.64" r="3"/></g><g><g><polygon class="cls-3" points="9.74 73.31 9.74 79.56 12.78 80.9 12.78 71.98 9.74 73.31"/><polygon class="cls-7" points="9.74 73.31 9.74 79.56 7.63 80.9 7.63 71.98 9.74 73.31"/></g><g><polygon class="cls-3" points="29.99 73.31 29.99 79.56 33.02 80.9 33.02 71.98 29.99 73.31"/><polygon class="cls-7" points="29.99 73.31 29.99 79.56 27.88 80.9 27.88 71.98 29.99 73.31"/></g><g><polygon class="cls-3" points="19.74 73.31 19.74 79.56 22.78 80.9 22.78 71.98 19.74 73.31"/><polygon class="cls-7" points="19.74 73.31 19.74 79.56 17.63 80.9 17.63 71.98 19.74 73.31"/></g></g><path class="cls-2" d="m73.46,86.31l2.11-1.66,3.62-3.4s1.31-.7,1.13-7.14-5.84.43-5.84.43"/><path class="cls-2" d="m80.32,76.79V9.48C80.32,4.25,75.99,0,70.66,0h-2.32c-1.22,0-5.3,1.48-4.98,2.75l2.78,78.8c0,1.2.99,2.17,2.21,2.17h4.92c3.9,0,7.06-3.1,7.06-6.93Z"/><path class="cls-1" d="m71.29,1.25h0c3.33,0,6.03,2.7,6.03,6.03v77.93c0,1.04-.84,1.89-1.89,1.89h-10.51c-1.04,0-1.89-.84-1.89-1.89V9.5c0-4.55,3.7-8.25,8.25-8.25Z"/><path class="cls-1" d="m79.8,13.82h0c.54,0,.98.44.98.98v7.03h-1.96v-7.03c0-.54.44-.98.98-.98Z"/><path class="cls-1" d="m79.63,24.29h0c.45,0,.82.37.82.82v4.91h-1.64v-4.91c0-.45.37-.82.82-.82Z" transform="translate(159.26 54.3) rotate(-180)"/><ellipse class="cls-6" cx="78.74" cy="76.01" rx=".92" ry="1.17"/><path class="cls-4" d="m78.93,76.07c4.29.03,10-1.06,10.47-6.93.75-9.5-5.48-12.84,1.55-27.29,6.45-13.26,1.31-23.65,1.31-23.65"/><g><path class="cls-7" d="m59.47,74.47v13.68c.22-.03.44-.05.67-.05s.45.02.67.05v-13.68c0-.37-.3-.67-.67-.67-.19,0-.35.07-.47.2-.12.12-.2.29-.2.47Z"/><path class="cls-7" d="m55,89.9c-.11.34.14.68.5.68h0c.22,0,.43-.14.49-.36.44-1.43,1.8-2.53,3.48-2.76.22-.03.44-.05.67-.05s.45.02.67.05c1.68.23,3.03,1.33,3.48,2.76.07.21.27.36.49.36h0c.35,0,.6-.34.5-.68-.58-1.85-2.33-3.24-4.47-3.49-.22-.02-.44-.04-.67-.04s-.45.01-.67.04c-2.14.25-3.89,1.65-4.47,3.49Z"/><circle class="cls-1" cx="60.14" cy="91.64" r="4.25"/><circle class="cls-5" cx="60.14" cy="91.64" r="3"/></g><g><polygon class="cls-6" points="58.35 84.73 55.87 86.51 55.17 1.12 58.35 1.73 58.35 84.73"/><path class="cls-1" d="m52.78,3.15l1.72-2.53S55.01,0,56.04,0c.56,0,1.11.18,2.27,1.73l-1.07,1.42"/><path class="cls-2" d="m52.78,3.15v82.42s1.55,1.45,1.55,1.45c.38.36.98.36,1.36,0l1.55-1.45V3.15s-1.55-1.45-1.55-1.45c-.38-.36-.98-.36-1.36,0l-1.55,1.45Z"/><path class="cls-1" d="m52.78,3.15v82.42s1.55,1.45,1.55,1.45c.19.18.44.27.68.27V1.44c-.25,0-.49.09-.68.27l-1.55,1.45Z"/></g><g><polygon class="cls-6" points="48.35 84.73 45.87 86.51 45.17 1.12 48.35 1.73 48.35 84.73"/><path class="cls-1" d="m42.78,3.15l1.72-2.53S45.01,0,46.04,0c.56,0,1.11.18,2.27,1.73l-1.07,1.42"/><path class="cls-2" d="m42.78,3.15v82.42s1.55,1.45,1.55,1.45c.38.36.98.36,1.36,0l1.55-1.45V3.15s-1.55-1.45-1.55-1.45c-.38-.36-.98-.36-1.36,0l-1.55,1.45Z"/><path class="cls-1" d="m42.78,3.15v82.42s1.55,1.45,1.55,1.45c.19.18.44.27.68.27V1.44c-.25,0-.49.09-.68.27l-1.55,1.45Z"/></g><g><polygon class="cls-6" points="38.35 84.73 35.87 86.51 35.17 1.12 38.35 1.73 38.35 84.73"/><path class="cls-1" d="m32.78,3.15l1.72-2.53S35.01,0,36.04,0c.56,0,1.11.18,2.27,1.73l-1.07,1.42"/><path class="cls-2" d="m32.78,3.15v82.42s1.55,1.45,1.55,1.45c.38.36.98.36,1.36,0l1.55-1.45V3.15s-1.55-1.45-1.55-1.45c-.38-.36-.98-.36-1.36,0l-1.55,1.45Z"/><path class="cls-1" d="m32.78,3.15v82.42s1.55,1.45,1.55,1.45c.19.18.44.27.68.27V1.44c-.25,0-.49.09-.68.27l-1.55,1.45Z"/></g><g><polygon class="cls-3" points="39.74 10.31 39.74 16.56 42.78 17.9 42.78 8.98 39.74 10.31"/><polygon class="cls-7" points="39.74 10.31 39.74 16.56 37.63 17.9 37.63 8.98 39.74 10.31"/></g><g><polygon class="cls-3" points="59.99 10.31 59.99 16.56 63.02 17.9 63.02 8.98 59.99 10.31"/><polygon class="cls-7" points="59.99 10.31 59.99 16.56 57.88 17.9 57.88 8.98 59.99 10.31"/></g><g><polygon class="cls-3" points="49.74 10.31 49.74 16.56 52.78 17.9 52.78 8.98 49.74 10.31"/><polygon class="cls-7" points="49.74 10.31 49.74 16.56 47.63 17.9 47.63 8.98 49.74 10.31"/></g><g><g><polygon class="cls-3" points="39.74 73.31 39.74 79.56 42.78 80.9 42.78 71.98 39.74 73.31"/><polygon class="cls-7" points="39.74 73.31 39.74 79.56 37.63 80.9 37.63 71.98 39.74 73.31"/></g><g><polygon class="cls-3" points="59.99 73.31 59.99 79.56 63.02 80.9 63.02 71.98 59.99 73.31"/><polygon class="cls-7" points="59.99 73.31 59.99 79.56 57.88 80.9 57.88 71.98 59.99 73.31"/></g><g><polygon class="cls-3" points="49.74 73.31 49.74 79.56 52.78 80.9 52.78 71.98 49.74 73.31"/><polygon class="cls-7" points="49.74 73.31 49.74 79.56 47.63 80.9 47.63 71.98 49.74 73.31"/></g></g><rect class="cls-1" x="87.7" y="12.62" width="12.76" height="12.76"/><circle class="cls-7" cx="94.08" cy="19" r="4.71"/><circle class="cls-9" cx="91.6" cy="18.21" r=".66"/><circle class="cls-9" cx="94.06" cy="16.35" r=".66"/><circle class="cls-1" cx="94.08" cy="19" r="4.16"/></g></svg>