<?xml version="1.0" encoding="UTF-8"?><svg id="Layer_2" xmlns="http://www.w3.org/2000/svg" viewBox="0 0 74.58 98.57"><defs><style>.cls-1{fill:#fff;}.cls-2{fill:#848484;}.cls-3{fill:#d4d4d1;}.cls-4{fill:#a0a0a0;}.cls-5{stroke:#848484;stroke-width:.25px;}.cls-5,.cls-6{fill:none;stroke-linecap:round;stroke-linejoin:round;}.cls-7{fill:#b1b1b1;}.cls-6{stroke:#fff;stroke-width:.75px;}.cls-8{fill:#eee;}</style></defs><g id="frigo"><rect class="cls-3" x="0" y="0" width="73.45" height="98.57"/><g><rect class="cls-2" x="7.79" y="21.43" width="4.06" height="30.16" rx="2.01" ry="2.01" transform="translate(19.64 73.01) rotate(180)"/><line class="cls-2" x1="9.26" y1="24.19" x2="9.26" y2="48.73"/></g><path class="cls-2" d="m16.45,3.13s-9-.8-10.62-.45C2.36,3.43.6,6.08.88,15.7c.3,10.25.47,73.42.47,73.42,0,0,.03,6.64,6.44,6.61s64.59.39,64.59.39v-21.09"/><g><path class="cls-8" d="m74.58,94.84H7.69c-3.12,0-5.67-2.55-5.67-5.67V13.46c0-3.12.68-5.82,1.5-5.99s2.33-1.44,3.34-2.79,4.39-2.47,7.51-2.47h60.12"/><g><rect class="cls-4" x="9.92" y="21.31" width="4.12" height="29.7" rx="2.06" ry="2.06" transform="translate(23.97 72.32) rotate(-180)"/><line class="cls-6" x1="11.42" y1="24.04" x2="11.42" y2="48.2"/></g></g><path class="cls-1" d="m37.36,2.27s-.83,3.79-8.23,4.45c-4.6.41-19.27-3.01-21.39,11.17-2.13,14.18-4.33,9.81-3.96,16.92.07,1.28,1.59,16.08-1.8,16.43L1.43,14.32S.57,2.21,9.1,2.21l28.25.06Z"/><path class="cls-1" d="m2.03,59.64s3.84.81,4.51,8.07c.41,4.51-3.05,18.9,11.31,20.99,14.36,2.09,9.93,4.25,17.13,3.89,1.29-.07,21.4-.96,21.76,2.36l-42.51-.06s-12.26.85-12.26-7.52l.06-27.72Z"/><path class="cls-4" d="m63.23,44.2s2.55,21.01,2.94,22.72c.05.2-32.38,2.55-32.38,2.55l-.46-8.95"/><path class="cls-4" d="m37,18.38s2.39,12.69,2.78,14.4c.05.2-15.42.55-15.42.55l.86-11.38"/><path class="cls-1" d="m39.03,32.24c-5.1.24-10.2.49-15.3.73.11-4.43.22-8.86.34-13.3,4.31-.43,8.63-.86,12.94-1.29.67,4.62,1.35,9.24,2.02,13.85Z"/><circle class="cls-2" cx="30.28" cy="18.04" r="3.49"/><circle class="cls-2" cx="47.92" cy="30.54" r="3.49"/><polyline class="cls-4" points="26.89 59.71 25.3 73.77 10.33 69.88 15.39 62.76"/><path class="cls-1" d="m24.61,73c-4.93-1.35-9.85-2.7-14.78-4.04,1.48-4.18,2.96-8.36,4.44-12.54,4.24.93,8.47,1.86,12.71,2.78-.79,4.6-1.58,9.2-2.37,13.8Z"/><path class="cls-2" d="m23.43,58.04c0,1.93-1.56,3.49-3.49,3.49s-3.49-1.56-3.49-3.49,1.56-3.49,3.49-3.49,3.49,1.56,3.49,3.49Z"/><g><rect class="cls-1" x="31.87" y="44.86" width="32.24" height="22.53" transform="translate(-4.22 3.9) rotate(-4.46)"/><circle class="cls-3" cx="37.68" cy="45.79" r="3.49"/><path class="cls-3" d="m62.4,43.98c0,1.93-1.56,3.49-3.49,3.49s-3.49-1.56-3.49-3.49,1.56-3.49,3.49-3.49,3.49,1.56,3.49,3.49Z"/><path class="cls-2" d="m43.29,51.3c-3.47,1.14-3.7,5.43-1.61,7.89,2.5,2.93,7.41,4.03,10.53,1.53,2.47-1.98,3.95-7.17,1.16-9.46-2.36-1.94-6.55-2.81-9.07-.85-.41.32.17.9.58.58,1.77-1.38,3.88-.84,5.77-.13,1.58.6,2.66,1.1,3.13,2.82.45,1.62,0,3.41-.84,4.86-1.48,2.59-4.54,3.26-7.19,2.28-1.48-.54-3.04-1.41-3.89-2.79-1.22-1.98-.89-5.11,1.65-5.94.5-.16.28-.95-.22-.79h0Z"/><path class="cls-2" d="m49.21,48.72c.03-.24.08-.48.16-.7.15-.51-.64-.72-.79-.22-.08.23-.14.46-.16.7-.08.51.7.74.79.22h0Z"/><path class="cls-2" d="m47.06,48.28c-.08-.17-.14-.34-.19-.51-.16-.5-.95-.28-.79.22.05.18.11.35.19.51.2.48.99.27.79-.22h0Z"/><path class="cls-2" d="m45.2,48.7c-.23-.34-.54-.54-.88-.76-.45-.28-.86.43-.41.71.2.15.39.31.59.46.3.43,1.01.02.71-.41h0Z"/><path class="cls-2" d="m44.59,54.75c-.24.4-.17.71.09,1.09.16.24.43.25.64.08.34-.26.39-.75.27-1.14-.09-.31-.45-.38-.68-.18-.14.12-.16.24-.19.42-.06.52.76.52.82,0-.02.05-.04.11-.05.16-.23-.06-.46-.12-.68-.18-.02.12-.04.23-.06.35.21.03.43.06.64.08-.07-.07-.1-.16-.09-.27.27-.45-.44-.86-.71-.41h0Z"/><path class="cls-2" d="m50.87,55.05c.3,0,.43-.13.5-.3.11-.26.07-.47-.06-.72-.07-.14-.3-.25-.46-.19-.38.16-.5.44-.41.84.08.37.56.37.75.1.03-.05.06-.09.1-.14-.25-.07-.51-.14-.76-.21,0,.11-.02.22-.03.33-.05.52.77.52.82,0,0-.11.02-.22.03-.33.04-.44-.55-.51-.76-.21-.03.05-.06.09-.1.14.25.03.5.07.75.1-.05.06-.11.11-.16.17-.15-.06-.31-.13-.46-.19.11,0,.24-.11.37-.21-.63-.02-.63.8-.11.81h0Z"/><path class="cls-2" d="m44.13,58.75c.77.29,1.46.74,2.29.89.81.15,1.79.01,2.6-.08,1.6-.17,2.6-.97,3.33-2.38.24-.47-.47-.88-.71-.41-.85,1.66-2.02,1.91-3.73,2.05-1.41.12-2.3-.39-3.56-.86-.49-.18-.71.61-.22.79h0Z"/></g><path class="cls-5" d="m25.98,24.6c.73.07,1.48-.09,2.11-.47.23.12.13.51.33.67.13.1.32.05.48,0,.38-.13.17-.77.82-.45.04.1.4.27.45.38.44.08.66,0,1.07-.18.26-.11,0-.71.59-.71.38.45.85.93,1.43.87.24-.02.45-.14.67-.23.71-.3,1.52-.37,2.28-.19"/><path class="cls-5" d="m25.61,26.73c.73.07,1.15.02,1.86-.51.73-.3.76.42.96.58.13.1.32.05.48,0,.38-.13-.04-.4.34-.52.61-.02,1.16.23,1.2.33.3.34.52.36.92.19.26-.11.25-1.06.84-.96.38.45.47.93,1.05.87.24-.02.45-.14.67-.23.71-.3,1.52-.37,2.28-.19"/><path class="cls-5" d="m36.95,30.18s-.58-1.66-1.39-.89-1.06,1.16-1.69,1.06-.52-1.03-1.75-.63c-1.23.41-1.24.69-1.85.52s-1.25-.98-2.04-.59-1.31.97-1.8.89-.89-.72-.89-.72"/><path class="cls-7" d="m18.37,67.92c-.91-.59-1.68-1.58-1.85-2.68-.08-.53.08-1.13.6-1.38.15-.07.26-.07.41-.01.07.03.15.07.22.11.02.01.14.1.09.04s0,.1,0,.12c0,.07,0,.14.01.22,0,.18.02.36.03.54.02.41.62.52.74.1.1-.35.28-.65.54-.9.29-.27.54-.35.92-.23s.62.32.65.74c.03.35,0,.83-.22,1.11-.46.56-1.15.89-1.65,1.4-.55.56-.84,1.3-1.1,2.03-.16.46.57.65.72.2s.34-.95.62-1.36c.26-.37.61-.65.97-.91s.76-.56,1.05-.93c.3-.39.35-.9.36-1.38s-.12-.94-.47-1.25c-.33-.29-.86-.47-1.29-.47-.9,0-1.6.97-1.83,1.75l.74.1c-.01-.25-.03-.51-.04-.76,0-.17-.01-.35-.1-.5-.18-.31-.7-.51-1.04-.55-.8-.09-1.5.68-1.65,1.4-.18.82.14,1.7.55,2.4s.97,1.27,1.64,1.7c.41.26.78-.39.38-.65h0Z"/></g></svg>