<?xml version="1.0" encoding="UTF-8"?><svg id="Layer_2" xmlns="http://www.w3.org/2000/svg" viewBox="0 0 171.98 101.68"><defs><style>.cls-1{fill:#e6e6e6;opacity:.88;}.cls-2{fill:#fff;}.cls-3{fill:#142b20;opacity:.27;}.cls-4{fill:#7a7a7b;}.cls-5{fill:#969696;}.cls-6{fill:#c1c1c1;}.cls-7{fill:#553f2c;}.cls-8{fill:#d2d2d2;}</style></defs><g id="Table_basse"><ellipse class="cls-3" cx="80.25" cy="79.51" rx="80.25" ry="22.17"/><g><path class="cls-5" d="m114.45,31.52l.07,3.14,9.65,64.57s.6.91,2.43.86c.67-.02,1.29-.12,1.81-.24.9-.21,1.49-.49,1.49-.49l-6.42-63.58-.5-4.7-8.53.43Z"/><path class="cls-5" d="m113.1,31.59l1.08,4.84c3.68-.74,7.37-.29,9.46.85l-.66-6.19-9.88.5Z"/><path class="cls-2" d="m118.65,31.65l9.75,68.2c.9-.21,1.49-.49,1.49-.49l-6.92-68.27-4.33.56Z"/></g><g><path class="cls-5" d="m144.87,18.6l1.37,4.77,13.15,53.06s.83.92,2.83.65c.1-.01.2,0,.29,0,1.35-.08,1.74-1.35,1.74-1.35l-10.44-50.78-1.37-6.64-4.02.16-3.54.14Z"/><path class="cls-5" d="m144.87,18.6l1.37,4.77c3.14-.01,5.88.87,7.56,1.57l-1.37-6.64-4.02.16-3.54.14Z"/><path class="cls-2" d="m148.41,18.46l14.09,58.61c1.35-.08,1.74-1.35,1.74-1.35l-11.81-57.42-4.02.16Z"/></g><g><path class="cls-5" d="m41.13,25.07l-.25,3.13-13.46,63.88s-.65.87-2.47.71c-.67-.06-1.28-.2-1.79-.35-.88-.27-1.46-.57-1.46-.57l10.17-63.09.78-4.66,8.49.94Z"/><path class="cls-5" d="m42.47,25.22l-1.36,4.76c-3.63-.95-7.34-.72-9.49.29l1.02-6.14,9.83,1.08Z"/><path class="cls-2" d="m36.93,24.95l-13.78,67.5c-.88-.27-1.46-.57-1.46-.57l10.95-67.74,4.29.82Z"/></g><g><path class="cls-5" d="m70.52,16.01l-1.13,4.83-10.47,53.65s-.78.96-2.79.79c-.1,0-.2,0-.29,0-1.36,0-1.81-1.26-1.81-1.26l7.88-51.24,1.04-6.7,4.02-.04,3.54-.04Z"/><path class="cls-5" d="m70.52,16.01l-1.13,4.83c-3.14.14-5.83,1.16-7.47,1.95l1.04-6.7,4.02-.04,3.54-.04Z"/><path class="cls-2" d="m66.98,16.04l-11.14,59.24c-1.36,0-1.81-1.26-1.81-1.26l8.92-57.94,4.02-.04Z"/></g><path class="cls-7" d="m21.22,28.97h0v-.32c0,.11,0,.22,0,.32Z"/><path class="cls-7" d="m171.98,28.65v.32h0c0-.11,0-.22,0-.32Z"/><g><path class="cls-6" d="m171.98,22.17v6.48c0,.11,0,.22,0,.32-.59,12.1-34.11,21.85-75.37,21.85S21.81,41.07,21.22,28.97c0-.11,0-.22,0-.32v-6.48h3.27c9.42-9.09,38.14-15.69,72.12-15.69s62.69,6.61,72.11,15.69h3.27Z"/><ellipse class="cls-2" cx="96.6" cy="22.17" rx="75.38" ry="22.17"/></g><ellipse class="cls-1" cx="120.28" cy="18.77" rx="15.89" ry="3.88"/><path class="cls-8" d="m132.82,6.8h-16.49c-.03.29-.07.7-.11,1.2-.05.76-.06,1.42-.05,1.42,0,0,.02-.26.07-1.51-.44-.1-1.12-.2-1.94-.08-.5.08-1.81.27-2.63,1.24-1.16,1.36-.77,3.62.12,4.96.7,1.05,1.73,1.56,2.45,1.91.92.45,1.77.64,2.36.73-.07-.52-.14-1.04-.21-1.56-.3,0-1.43,0-2.45-.84-1.07-.88-1.27-2.08-1.31-2.51-.05-.51-.14-1.37.42-1.97.47-.5,1.15-.56,1.55-.6.7-.06,1.26.12,1.55.24-.04,1.13-.04,2.43.06,3.88.16,2.38.54,4.48.96,6.21.01.05.04.12.07.2.04.08.11.22.13.21.01,0,.01-.06-.05-.29-.02.03-.04.07-.04.12,0,.69,3.83,1.43,7.23,1.4,3.47-.02,7.25-.84,7.23-1.4,0-.05-.03-.09-.06-.12.02.04.04.08.06.12.43-1.84.81-4.01,1.02-6.45.2-2.43.18-4.63.06-6.51Z"/><path class="cls-4" d="m132.82,6.77c0,.89-3.72,1.61-8.31,1.61s-8.31-.72-8.31-1.61,3.72-1.61,8.31-1.61,8.31.72,8.31,1.61Z"/></g></svg>