<?xml version="1.0" encoding="UTF-8"?><svg id="Calque_2" xmlns="http://www.w3.org/2000/svg" viewBox="0 0 66.94 140.16"><defs><style>.cls-1{fill:#ebe6e3;}.cls-2{fill:#e7d9ce;}.cls-3{fill:#fff;}.cls-4{fill:#ffeee1;}.cls-5,.cls-6{fill:#6b6b6b;}.cls-7{fill:#848687;}.cls-8{fill:#a6a6a6;}.cls-9{fill:#d8d8d8;}.cls-10{fill:#896e4d;}.cls-6{opacity:.36;}</style></defs><g id="blancs"><path class="cls-8" d="m52.62,89.64l6.88,48.1c.21,1.43.88,2.42,1.65,2.42h0c.58,0,1.03-.98.97-2.11l-3.01-55.84-6.49,7.43Z"/><path class="cls-8" d="m6.65,81.82l-4.28,51.01c-.13,1.5.46,2.87,1.22,2.87h.04c.81,0,1.53-1.05,1.76-2.59l7.93-51.29h-6.68Z"/><path class="cls-5" d="m29.27,83.55l2.55,45.3c.08,1.34.75,2.2,1.42,1.81l.04-.02c.7-.41,1.2-1.66,1.22-3.09l.59-47.39-5.81,3.39Z"/><ellipse class="cls-10" cx="21.1" cy="78.57" rx="7.18" ry="1.59"/><path class="cls-9" d="m66.91,84.58v-11.66l-7.68,4.06c-5.72-2.81-13.2-1.23-25.76-1.23s-21.29-.33-27.01,2.48l-6.46-7.34v14.37h.03c.66,4.91,15.38,8.83,33.44,8.83s33.47-4.1,33.47-9.17c0-.11-.01-.23-.03-.34Z"/><path class="cls-5" d="m56.35,77.63c-5.35-1.32-12.32,1.71-22.89,1.71-3.16,0-6.08-.02-8.76,0v14.44c2.79.21,5.73.32,8.76.32,8.85,0,16.9-.94,22.89-2.48v-13.98Z"/><polyline class="cls-3" points="53.74 79.81 60.31 82.29 61.68 81.49 55.8 79.38"/><polyline class="cls-3" points="24.7 81.79 31.55 86.34 33.12 85.24 26.92 81.15"/><polyline class="cls-7" points="48.87 77.97 60.07 82.2 59.82 93.41 48.79 92.26"/><path class="cls-9" d="m66.91,72.58v-4.12h-4.21c-5.72-2.81-16.67-4.7-29.23-4.7s-23.51,1.9-29.23,4.7H0v4.81h.03c.66,4.91,15.38,8.83,33.44,8.83s33.47-4.1,33.47-9.17c0-.11-.01-.23-.03-.34Z"/><ellipse class="cls-3" cx="33.47" cy="68.46" rx="33.47" ry="9.17"/><path class="cls-5" d="m13.41,66.05s-.01-.08-.01-.11,0-.08.01-.11v-.86h.98c1.12-.5,3.08-.84,5.31-.84s4.19.34,5.31.84h.99v.96s0,0,0,.01,0,0,0,.01v.13h-.02c-.26.94-2.97,1.67-6.28,1.67s-6.03-.74-6.28-1.67h0v-.03Z"/><ellipse class="cls-1" cx="19.7" cy="64.82" rx="6.3" ry="1.78"/><path class="cls-6" d="m29.25,69.39s-2.58.62-2.85,1.5,10.22,3.19,13.28,3.19,20.77-6.74,20.39-6.74-2.96-1.16-7.25-.99l-9.01-.33-14.55,3.36Z"/><path class="cls-7" d="m41.38,73.29s2.5-2.11-.19-3.21l-12.91-2.74s1.21,1.76.06,2.99c-.06.06.13.18.06.24l12.99,2.72Z"/><path class="cls-1" d="m41.19,70.08s-12.88-2.7-12.91-2.74l20.25-5.7s12.51,2.37,12.68,2.53c1.93,1.8-.02,3.08-.02,3.08l-18.73,5.47s.95-.38-1.28-2.65Z"/><path class="cls-5" d="m28.4,70.27l13.35,2.66c0,.16-.36.36-.36.36l-13.14-2.69c0-.15.01-.21.08-.29"/><path class="cls-9" d="m61.33,64.31c-.74.4-19.72,5.66-20.14,5.78,1.84,2.1.19,3.21.19,3.21l19.8-6.02s1.87-1.23.14-2.96Z"/><path class="cls-5" d="m39.18,66.18c.22-.07,9.33-2.58,9.72-2.81,2.02-.36,1.14.62,1.14.62l-10.71,3.33-6.93-1.56s-.23-.05-.23-.66c0-.04,1.72.3,1.82.09l5.19.99Z"/><path class="cls-9" d="m50.14,63.37c-.09-.09-6.92-1.38-6.92-1.38l-11.05,3.11,7.04,1.49c.23-.07,10.52-3,10.92-3.22Z"/><path class="cls-3" d="m47.04,63.74c-.07-.06-5-1-5-1l-7.99,2.25,5.09,1.08c.17-.05,7.61-2.17,7.9-2.33Z"/><path class="cls-3" d="m36.22,85.24c-2.7.04-4.67-.02-6.19-.77v11.82c2.79.21,5.73.32,8.76.32,8.85,0,21.83-8.91,24.41-14.5l-1.52-.61c-5.47,2.56-16.12,3.6-25.46,3.75Z"/><polyline class="cls-7" points="24.7 81.79 31.55 86.34 31.55 97.3 24.7 93.74"/><path class="cls-9" d="m39.4,86.47c-2.7.16-5.33,0-7.85-.13v10.96c2.79.21,8.54.27,12.59,0,10.35-.7,16.54-2.79,19.06-3.46v-11.74c-5.16,2.39-10.91,3.59-23.8,4.37Z"/><ellipse class="cls-5" cx="19.7" cy="1.89" rx="11.55" ry="1.89"/><path class="cls-4" d="m3.15,36.77c0,.76,4.98,1.67,10.45,2.1L15.61,3.68c-4.69-.26-7.45-.96-7.45-1.79L3.15,36.77Z"/><path class="cls-2" d="m36.26,36.77c0,.76-4.98,1.67-10.45,2.1L23.8,3.68c4.69-.26,7.45-.96,7.45-1.79l5.01,34.88Z"/><path class="cls-5" d="m18.9,38.24v26.44s0,.01,0,.02c0,.07.36.12.8.12s.78-.05.8-.12c0,0,0,0,0,0,0,0,0-.01,0-.02v-26.44c0-.27-.3-.48-.66-.48h-.28c-.37,0-.66.21-.66.48Z"/><path class="cls-3" d="m8.15,1.89c0,1.04,4.4,1.89,11.55,1.89s11.55-.85,11.55-1.89l4.85,34.88c0,1.04-9.25,2.36-16.4,2.36s-16.55-1.32-16.55-2.36L8.15,1.89Z"/><path class="cls-1" d="m3.15,36.77c0,.76,4.98,1.67,10.45,2.1L15.61,3.68c-4.69-.26-7.45-.96-7.45-1.79L3.15,36.77Z"/><circle class="cls-7" cx="47.15" cy="90.73" r="1.37"/><path class="cls-7" d="m48.52,89.84c-.62-.33-.77-.41-1.25-.47l-1,2.42c.3.23.69.43,1.16.58l1.16-2.16"/><circle class="cls-3" cx="47.98" cy="91.1" r="1.37"/></g></svg>