<?xml version="1.0" encoding="UTF-8"?><svg id="Calque_2" xmlns="http://www.w3.org/2000/svg" viewBox="0 0 75.22 80.01"><defs><style>.cls-1{fill:#e8e8e8;}.cls-2{fill:#fafafa;}.cls-3{fill:#b1afaf;}.cls-4{fill:#c9c8c8;}.cls-5{fill:#dadada;}</style></defs><g id="blancs"><path class="cls-2" d="m61.18,45.27c6.09-.66,8.8-2.39,8.8-2.39,1.19-1.95,1.3-5.92,2.14-7.81,1.6-3.57,4.61-23.08,2.18-28.08C72.7,3.7,34.96,0,34.96,0c0,0-6.93-.33-7.81,3.53l34.02,41.73"/><path class="cls-5" d="m19.69,22.6s3.1-5.4,3.43-11.85c.33-6.45,4.01-9.01,5.99-9.52s23.43,3.36,29.49,4.39c6.07,1.04,12.3,2.17,10.39,10.25-1.6,6.81-2.87,24.56-4.39,26.73-1.52,2.16-1.14,6.24-10.59,3.3-11.89-3.7-27.77-7.08-33.61-9.06-5.84-1.98-4.14-5.36-.71-14.24"/><path class="cls-5" d="m63.83,45.14l-1.32,4.43-17.87,8.04S5.62,46.84,1.92,44.64c-3.71-2.2,3.04-4.87,7.1-6.61,4.06-1.74,4.06-2.32,6.79-2.47s7.31,1.55,7.31,1.55c0,0,12.97,5.06,23.07,5.06,8.09,0,14.72,1.93,17.64,2.97"/><polyline class="cls-3" points="28.52 42.31 28.52 53.38 10.03 47.16 9.62 41.69 16.52 42.77"/><path class="cls-3" d="m54.25,53.29s.77-5.13-.86-6.36c-.76-.57-21.74,2.53-21.74,2.53,0,0-1.82-.07-1.22,1.64s.6,5.32.6,5.32l20.34,3.35"/><path class="cls-2" d="m63.83,45.14s-.85,4.04,0,7.4c.85,3.36-.48,7.46-.48,7.46,0,0-4.74,3.26-14.05,9.52-3.4,3.26-8.88,1.1-11.02.62-16.05-3.58-26.05-6.41-30.86-7.17-4.81-.75-7.26-3.21-7.26-3.21,0,0-.66-2.78.78-7.64-.78-3.58,0-8.64,0-8.64,0,0,16.2,5.15,20.44,5.9s18.11,8.49,26.6,5c8.49-3.49,15.85-9.24,15.85-9.24Z"/><polygon class="cls-3" points="23.88 62.88 21.66 62.12 21.66 52.97 23.88 53.35 23.88 62.88"/><polygon class="cls-3" points="18.38 57.49 18.38 55.27 27.16 57.54 27.16 59.76 18.38 57.49"/><path class="cls-5" d="m63.46,48.84s-.96,4.9-3.88,5.89c-2.92.99-5.41,5.33-6.2,7.49,0,0,1.74-4.53,4.68-5.38s3.69-1.31,5.77-4.3c0,0-.49-1.72-.36-3.71"/><path class="cls-5" d="m32.4,53.63s5.78,4.99,8.13,11.55c0,0-.85-5.29-3.36-7.57-2.51-2.28-3.02-3.81-3.02-3.81l-3.12-1.01"/><path class="cls-5" d="m.93,52.12s4.03.16,6.95,1.66,5.4,1.75,5.4,1.75c0,0-1.46.44-3.43-.25-1.97-.69-2.41-1.29-4.73-1.83-2.81-.65-3.5,1.37-4.75,1.28"/><path class="cls-3" d="m17.51,36.84s-.73,3.67-.08,6.55c.65,2.88.08,4.11.08,4.11,0,0,.83-2.74.51-4.91-.32-2.17-.51-5.75-.51-5.75Z"/><path class="cls-3" d="m17.69,35.51s.13,0,.38.02c1.78.1,9.61.72,20.67,4.01,13.91,4.13,22.4,5.92,22.4,5.92l.08-.37s-.13-.03-.39-.08c-1.81-.4-9.82-2.21-21.98-5.82-12.68-3.77-21.13-4.04-21.15-4.04v.38s-.01,0-.01,0Z"/><path class="cls-3" d="m31.02,6.84s-5.87,19.81-5.78,22.64c0,0-2.8,3.58-4.84,3.87l3.76-4.35s.89-2.5,2.23-8.01c1.31-5.41,2.55-9.62,4.63-14.15Z"/><path class="cls-3" d="m31.02,21.18s-.06-.16,0-.5c.02-.08-.71-.53-.58-.58.56-.21,2.7-.07,5.33.99,5.01,2.02,4.76,1.21,10.08,1.55,5.34.34,12.74,1.41,15.32,3.4l-2.57,1.6-21.44-2.49-6.15-3.96"/><path class="cls-3" d="m39.79,23.84s-.18-1.75-.35-2.8-1.11-8.13-1.11-8.13c-.04-.27.62-.29.62-.29.83-.06,1.44-1,1.36-2.09-.08-1.09-.82-1.92-1.65-1.86s-1.44,1-1.36,2.09c.01.15.03.29.07.42h0s1.2,8.54,1.2,8.54c0,0,.17,3.51.02,3.97-.15.46-1.11,3.42-1.3,4.17-.25.98.18,1.64.18,1.64l2.33-5.66Zm-1.11-14.77c.67-.05,1.26.62,1.32,1.49.07.87-.42,1.62-1.09,1.67-.67.05-1.26-.62-1.32-1.49-.07-.87.42-1.62,1.09-1.67Z"/><path class="cls-3" d="m39.79,23.84s-.18-1.75-.35-2.8-1.11-8.13-1.11-8.13c-.04-.27.62-.29.62-.29.83-.06,1.44-1,1.36-2.09-.08-1.09-.82-1.92-1.65-1.86s-1.44,1-1.36,2.09c.01.15.03.29.07.42h0s1.2,8.54,1.2,8.54c0,0,.17,3.51.02,3.97-.15.46-1.11,3.42-1.3,4.17-.25.98.18,1.64.18,1.64l2.33-5.66Zm-1.11-14.77c.67-.05,1.26.62,1.32,1.49.07.87-.42,1.62-1.09,1.67-.67.05-1.26-.62-1.32-1.49-.07-.87.42-1.62,1.09-1.67Z"/><path class="cls-3" d="m38.68,9.07s-.13.01-.32.11c-.19.1-.45.32-.59.68-.15.36-.19.85-.03,1.34.08.24.22.49.42.68.2.19.48.32.77.3.29-.02.54-.19.71-.41.17-.22.27-.48.31-.73.08-.51-.03-.99-.23-1.33-.2-.34-.48-.52-.69-.59-.21-.06-.34-.04-.34-.06,0,0,.13-.03.35.02.22.06.52.24.74.59.21.34.34.84.26,1.38-.04.27-.14.54-.32.78-.18.23-.46.43-.78.45-.32.03-.63-.12-.84-.33-.21-.21-.35-.46-.44-.72-.16-.52-.11-1.03.05-1.4.16-.38.43-.6.64-.69.21-.09.34-.07.34-.07Z"/><path class="cls-3" d="m39.79,23.84s-.01.03-.04.1c-.03.07-.07.16-.11.29-.1.26-.26.64-.45,1.12-.4.98-.98,2.4-1.7,4.16l-.03.06-.03-.06c-.17-.3-.26-.65-.27-1.01-.01-.36.09-.73.2-1.09.22-.73.46-1.5.71-2.3.13-.4.26-.81.4-1.23.03-.1.07-.21.09-.31.01-.11.02-.22.03-.33.01-.22.01-.45.01-.68,0-.91-.04-1.86-.08-2.84h0c-.28-1.99-.59-4.15-.9-6.39-.1-.74-.21-1.46-.3-2.15l-.02-.15.1.11h0s-.08.04-.08.04c-.17-.71-.06-1.49.4-2.05.23-.28.56-.48.91-.51.36-.03.71.1.97.33.53.45.76,1.15.75,1.8,0,.33-.07.65-.2.95-.06.15-.15.28-.25.41-.1.12-.21.24-.35.32-.13.09-.28.15-.43.19-.16.03-.31.03-.45.06-.07.01-.14.03-.2.06-.06.03-.11.08-.11.13.01.13.04.29.05.43.08.57.15,1.13.23,1.67.14,1.08.28,2.08.4,2.99.12.91.23,1.73.33,2.45.05.36.09.69.14,1,.04.31.08.59.11.84.06.51.1.9.13,1.17.01.13.02.23.03.3,0,.07,0,.1,0,.1,0,0,0-.03-.02-.1,0-.07-.02-.17-.04-.3-.03-.27-.08-.66-.14-1.16-.14-1.01-.35-2.48-.61-4.29-.13-.91-.26-1.91-.41-2.99-.07-.54-.15-1.1-.23-1.67-.02-.15-.04-.28-.06-.44,0-.1.08-.17.15-.2.07-.04.15-.06.22-.07.15-.03.31-.03.45-.06.14-.03.28-.1.4-.18.12-.08.23-.19.33-.31.09-.12.17-.25.23-.39.13-.28.19-.6.19-.91,0-.63-.22-1.3-.72-1.73-.25-.21-.58-.34-.9-.31-.33.03-.64.21-.85.47-.44.53-.54,1.29-.38,1.97l.04.18-.12-.13h0s.08-.04.08-.04c.1.68.2,1.41.3,2.15.31,2.24.62,4.4.9,6.4h0c.04.98.08,1.93.08,2.85,0,.23,0,.46-.01.68,0,.11-.01.23-.03.34-.02.12-.06.22-.09.33-.14.42-.27.83-.4,1.23-.26.8-.5,1.57-.72,2.3-.11.36-.21.72-.2,1.07,0,.35.09.69.25.97h-.06c.73-1.75,1.32-3.17,1.73-4.14.2-.48.36-.86.47-1.12.05-.12.09-.22.12-.29.03-.06.04-.1.04-.1Z"/><path class="cls-3" d="m40,30.19c.02-1.87.07-5.01.04-5.63-.03-.73-.7-2.94-.99-3.9-.08-.25-.28-.42-.52-.43-.15,0-.31-.03-.42-.08-.24-.12-2.81-6.72-3.01-7.21-.05-.61-.41-1.23-1-1.6-.87-.54-1.9-.32-2.29.48-.4.8-.02,1.89.85,2.42.73.45,1.56.37,2.05-.14h0s4.02,9.59,4.22,10.1c.2.51.23,1.95.23,1.95l.35,5.36s.5-.69.5-1.33Zm-7.2-16.24c-.7-.43-1-1.3-.68-1.94.32-.64,1.14-.82,1.84-.39s1,1.3.68,1.94c-.32.64-1.14.82-1.84.39Z"/><path class="cls-3" d="m40,30.19c.02-1.87.07-5.01.04-5.63-.03-.73-.7-2.94-.99-3.9-.08-.25-.28-.42-.52-.43-.15,0-.31-.03-.42-.08-.24-.12-2.81-6.72-3.01-7.21-.05-.61-.41-1.23-1-1.6-.87-.54-1.9-.32-2.29.48-.4.8-.02,1.89.85,2.42.73.45,1.56.37,2.05-.14h0s4.02,9.59,4.22,10.1c.2.51.23,1.95.23,1.95l.35,5.36s.5-.69.5-1.33Zm-7.2-16.24c-.7-.43-1-1.3-.68-1.94.32-.64,1.14-.82,1.84-.39s1,1.3.68,1.94c-.32.64-1.14.82-1.84.39Z"/><path class="cls-3" d="m32.8,13.96s.11.06.32.13c.2.07.53.13.9,0,.18-.07.36-.19.49-.37.13-.18.21-.42.22-.67.01-.51-.29-1.06-.79-1.37-.25-.15-.53-.24-.81-.23-.27,0-.53.11-.72.27-.19.17-.3.39-.34.61-.05.22-.03.44.02.62.1.38.31.63.46.78.16.15.26.21.26.22,0,0-.03-.01-.08-.04-.05-.03-.12-.08-.21-.15-.16-.15-.39-.4-.5-.79-.06-.19-.08-.42-.04-.66.04-.24.16-.48.36-.66.2-.18.48-.3.78-.3.3-.01.6.08.86.24.53.33.84.91.83,1.46,0,.27-.09.52-.24.72-.14.2-.34.32-.53.39-.39.14-.73.05-.93-.03-.1-.04-.18-.08-.23-.11-.05-.03-.07-.05-.07-.05Z"/><path class="cls-3" d="m40,30.19s.01.13-.04.37c-.06.24-.18.58-.45.97l-.03.04v-.05c-.05-.71-.12-1.68-.2-2.86-.04-.59-.08-1.24-.13-1.93-.01-.17-.02-.35-.04-.53,0-.18-.02-.36-.02-.55-.02-.37-.05-.75-.13-1.14-.02-.1-.04-.19-.07-.28-.04-.09-.08-.18-.11-.28-.08-.19-.16-.38-.24-.57-.16-.38-.33-.78-.49-1.18-.34-.8-.69-1.64-1.05-2.51-.73-1.74-1.51-3.61-2.33-5.57v-.02s0-.02,0-.02h0s.08.04.08.04c-.25.26-.6.41-.95.44-.36.03-.73-.06-1.05-.23-.64-.34-1.12-1.03-1.14-1.79-.02-.47.18-.96.56-1.25.37-.3.88-.37,1.33-.27.91.2,1.59,1.02,1.66,1.9h0c.48,1.23.96,2.43,1.42,3.58.47,1.15.9,2.25,1.38,3.27.03.06.06.13.09.19l.05.09.03.04.02.02c.12.05.25.07.39.07.15,0,.29.07.39.17.1.1.16.24.2.36.15.51.3,1,.43,1.47.13.48.26.94.36,1.38.1.44.19.88.18,1.3,0,1.66-.03,2.99-.04,3.9,0,.45-.02.8-.02,1.05,0,.12,0,.21,0,.27,0,.06,0,.09,0,.09,0,0,0-.03,0-.09,0-.06,0-.15,0-.27,0-.24,0-.59,0-1.05,0-.91.02-2.24.02-3.9.02-.42-.08-.84-.18-1.28-.1-.44-.23-.9-.36-1.38-.13-.47-.28-.96-.44-1.47-.03-.13-.09-.24-.18-.33-.09-.09-.21-.15-.34-.15-.14,0-.28-.02-.42-.08l-.05-.05-.03-.05-.05-.09c-.03-.06-.06-.13-.1-.19-.48-1.02-.92-2.12-1.38-3.27-.46-1.15-.94-2.35-1.43-3.59h0s0-.01,0-.01c-.06-.83-.73-1.62-1.59-1.81-.42-.09-.9-.03-1.25.25-.35.27-.54.72-.52,1.17.02.72.48,1.38,1.09,1.7.31.17.65.25.99.22.34-.03.66-.17.89-.41l.14-.15-.06.2h0s0-.03,0-.03c.82,1.96,1.6,3.83,2.33,5.58.36.87.71,1.71,1.05,2.52.17.4.33.8.49,1.18.08.19.16.38.24.57.04.09.08.19.11.28.03.1.06.2.08.29.07.39.1.77.12,1.15,0,.19.02.37.02.55.01.18.02.36.03.53.04.69.08,1.34.12,1.93.07,1.18.13,2.14.18,2.86h-.03c.26-.39.4-.73.46-.97.03-.12.04-.21.05-.27,0-.06,0-.09,0-.09Z"/><path class="cls-3" d="m39.09,22.72c-.1,0-.19-.16-.2-.37-.02-.21.05-.39.15-.4.1,0,.19.16.2.37.02.21-.05.39-.15.4Z"/><path class="cls-3" d="m39.09,22.72l.05-.05s.05-.09.05-.17c0-.08,0-.17-.02-.27-.01-.05-.03-.1-.05-.15-.02-.05-.07-.09-.09-.08-.02,0-.06.05-.08.1-.02.05-.03.1-.03.15,0,.1,0,.2.03.27.02.08.05.13.08.16l.05.04s-.03.02-.08,0c-.05-.03-.09-.09-.12-.17-.03-.08-.05-.18-.05-.3,0-.06,0-.12.03-.18.02-.06.05-.14.16-.16.11,0,.15.08.18.14.03.06.05.12.06.18.02.11.01.22,0,.3-.02.08-.05.15-.1.18-.04.03-.08.02-.08.02Z"/><polyline class="cls-3" points="57.11 14.34 46.63 12.31 44.79 12.79 54.9 15.27"/><polyline class="cls-2" points="54.18 27.84 42.95 26.25 44.79 12.79 55.96 14.86 54.18 27.84"/><polyline class="cls-3" points="54.18 27.84 55.65 26.13 57.11 14.34 55.96 14.86 54.18 27.84"/><path class="cls-1" d="m43.34,23.81l-.19,1.36.61.75h10.68l.18-1.29c-.34-.05-2.31-.33-4.29-.33-.67,0-1.34.03-1.95.11-.4.05-.79.08-1.18.08-2.11,0-3.86-.69-3.86-.69"/><polyline class="cls-4" points="55.9 24.43 55.86 24.44 55.67 25.93 55.68 25.93 55.9 24.43"/><path class="cls-4" d="m55.86,24.44l-1.18.21s-.02,0-.05,0l-.18,1.29h1.23l.19-1.49"/><polyline class="cls-5" points="38.29 22.82 39.79 23.14 40.08 23.98 38.54 23.4"/><path class="cls-2" d="m61.18,26.04s-6.96-2.05-12.8-.99c-5.84,1.07-16.4-5.05-17.94-4.95,0,0-2.66,8.63-1.92,10.47.74,1.84,4.29,2.06,7.97,3.07,3.68,1.02,11.14,1.17,15.18,1.92s7.92,1.82,7.92,1.82c0,0,.92-9.53,1.6-11.34Z"/><path class="cls-3" d="m49.89,26.51s-1.85,3.68-1.37,4.83c.47,1.15,2.67,2.84,2.67,2.84,0,0-3.43-1.83-3.43-2.81s2.13-4.86,2.13-4.86Z"/><path class="cls-3" d="m42.35,24.8s.63,5.28,1.26,6.16c.63.88,1.18,2.45,1.18,2.45,0,0-1.67-2.08-1.83-2.3-.16-.22-.95-5.66-.6-6.32Z"/><rect class="cls-3" x="43.66" y="18.7" width="11.6" height="2.8" rx="1.18" ry="1.18" transform="translate(.22 40.72) rotate(-44.84)"/><rect class="cls-2" x="47.16" y="19.23" width="4.63" height="1.75" transform="translate(.21 40.74) rotate(-44.85)"/><path class="cls-2" d="m51.33,17.42s.04.09,0,.13c-.04.04-.09.04-.13,0-.04-.04-.04-.09,0-.13.04-.04.09-.04.13,0Z"/><path class="cls-2" d="m52.03,16.73s.04.09,0,.13c-.04.04-.09.04-.13,0-.04-.04-.04-.09,0-.13.04-.04.09-.04.13,0Z"/><path class="cls-2" d="m52.11,18.21s.04.09,0,.13c-.04.04-.09.04-.13,0-.04-.04-.04-.09,0-.13.04-.04.09-.04.13,0Z"/><path class="cls-2" d="m52.81,17.51s.04.09,0,.13c-.04.04-.09.04-.13,0-.04-.04-.04-.09,0-.13.04-.04.09-.04.13,0Z"/><path class="cls-2" d="m46.23,22.49s.04.09,0,.13c-.04.04-.09.04-.13,0-.04-.04-.04-.09,0-.13.04-.04.09-.04.13,0Z"/><path class="cls-2" d="m46.93,21.8s.04.09,0,.13c-.04.04-.09.04-.13,0s-.04-.09,0-.13.09-.04.13,0Z"/><path class="cls-2" d="m47.01,23.28s.04.09,0,.13c-.04.04-.09.04-.13,0s-.04-.09,0-.13c.04-.04.09-.04.13,0Z"/><path class="cls-2" d="m47.71,22.58s.04.09,0,.13c-.04.04-.09.04-.13,0-.04-.04-.04-.09,0-.13.04-.04.09-.04.13,0Z"/><path class="cls-2" d="m41.34,43.34c2.23.12,8.53.43,12.05,3.58,3.53,3.15-6.39,5.92-8.61,6.05-2.22.13-15.18-1.89-14.36-3.4.82-1.51,7.03-6.44,10.91-6.23Z"/><path class="cls-3" d="m51.12,47.38h0c-.12.15-2.36,2.76-6.91,2.76-2.16,0-4.73-.12-6.75-.32-1.01-.1-1.88-.23-2.49-.37-.3-.07-.54-.15-.69-.22-.07-.04-.12-.07-.15-.09v-.02s-.05.02-.05.02h.04v-.02s-.04.02-.04.02h.04-.04l.04.02v-.02s-.04,0-.04,0l.04.02h0s.04-.05.1-.08c.65-.39,1.82-1.15,3.19-1.81,1.37-.66,2.95-1.22,4.38-1.22.27,0,.53.02.79.06,1.37.22,2.71.34,3.69.45.49.05.9.11,1.17.16.14.03.24.06.29.08h.03s0,.02,0,.02l.04-.05-.06.03v.02s.06-.05.06-.05l-.06.03.1-.06h-.11s.01.06.01.06l.1-.06h-.11s.1,0,.1,0l-.09-.05v.05s.09,0,.09,0l-.09-.05.03.02-.03-.02h0s.03.02.03.02l-.03-.02s-.03.03-.09.06c-.38.21-.87.57-1.6.88-.73.31-1.67.57-2.93.57-.64,0-1.37-.07-2.18-.23l-.07.37c.84.17,1.59.24,2.26.24,1.31,0,2.31-.27,3.07-.6.76-.32,1.29-.7,1.64-.9.07-.04.12-.07.17-.12.05-.05.09-.12.09-.21,0-.08-.04-.15-.09-.2-.08-.08-.17-.11-.28-.15-.2-.06-.47-.1-.8-.15-1.01-.13-2.63-.25-4.3-.52-.28-.04-.56-.07-.85-.07-1.53,0-3.14.58-4.54,1.25-1.4.67-2.58,1.44-3.22,1.82-.08.05-.14.09-.19.16-.05.06-.09.14-.09.23,0,.11.06.21.13.27.13.12.3.2.54.27.81.27,2.36.47,4.16.61,1.8.14,3.86.22,5.64.22,2.43,0,4.23-.72,5.42-1.44,1.19-.72,1.78-1.45,1.79-1.46l-.29-.24h0Z"/><polygon class="cls-2" points="22.84 45.28 9.62 41.69 16.82 39.46 28.52 42.31 22.84 45.28"/></g></svg>