<?xml version="1.0" encoding="UTF-8"?><svg xmlns="http://www.w3.org/2000/svg" xmlns:xlink="http://www.w3.org/1999/xlink" viewBox="0 0 137.41 198.7"><defs><style>.cls-1{fill:#496640;}.cls-2,.cls-3{fill:#fff;}.cls-4{opacity:.26;}.cls-4,.cls-5,.cls-6{fill:#888988;}.cls-7,.cls-8{opacity:.27;}.cls-7,.cls-8,.cls-9{fill:#142b20;}.cls-10{fill:#455b3c;}.cls-3,.cls-6,.cls-11,.cls-12,.cls-8{fill-rule:evenodd;}.cls-13{fill:#95a57e;}.cls-14{stroke:#ccc;}.cls-14,.cls-15,.cls-16{stroke-linecap:round;stroke-linejoin:round;}.cls-14,.cls-15,.cls-16,.cls-17{fill:none;}.cls-14,.cls-17{stroke-width:.5px;}.cls-18{fill:#7a8467;}.cls-19{isolation:isolate;}.cls-15,.cls-17{stroke:#fff;}.cls-20{fill:#969696;}.cls-16{stroke:#c1c1c1;stroke-width:3px;}.cls-21{fill:url(#_ÂÁ_Ï_ÌÌ_È_ËÂÌÚ_45);mix-blend-mode:screen;}.cls-17{stroke-miterlimit:10;}.cls-22{fill:#ecffe2;}.cls-23,.cls-12{fill:#adafb2;}.cls-24{fill:#c1c1c1;}.cls-11{fill:#cecece;}.cls-25{fill:#243d1d;}.cls-26{fill:#687f60;}.cls-27{fill:#545454;}.cls-28{fill:#c6c6c6;}.cls-29{fill:#2f4c27;}.cls-9{opacity:.5;}</style><linearGradient id="_ÂÁ_Ï_ÌÌ_È_ËÂÌÚ_45" x1="125.71" y1="144.1" x2="125.91" y2="158.22" gradientTransform="translate(-40.9 41.23) rotate(-17.26)" gradientUnits="userSpaceOnUse"><stop offset="0" stop-color="#4c996c"/><stop offset="1" stop-color="#000"/></linearGradient></defs><g class="cls-19"><g id="Layer_2"><g id="TV_Console"><g><path class="cls-7" d="m99.45,136.36s-35.66,59.05-38.64,61.06-60.81,1.05-60.81,1.05l38.12-58.33"/><g><path class="cls-25" d="m77.73,77.9l.07,3.14,9.65,64.57s.6.91,2.43.86c.67-.02,1.29-.12,1.81-.24.9-.21,1.35-1.88,1.35-1.88l-6.28-62.19-.5-4.7-8.53.43Z"/><path class="cls-20" d="m76.37,77.97l1.08,4.84c3.68-.74,7.37-.29,9.46.85l-.66-6.19-9.88.5Z"/><path class="cls-18" d="m81.92,78.03l9.75,68.2c.9-.21,1.35-1.88,1.35-1.88l-6.78-66.88-4.33.56Z"/></g><polygon class="cls-29" points="97.43 68.67 55.72 68.21 14.45 117.09 64.17 117.09 97.43 68.67"/><polyline class="cls-9" points="78.45 72.26 46.46 111.62 19.36 111.62 53.01 70.51"/><g><g><polyline class="cls-16" points="60.13 103.8 49.89 94.82 47.21 95.12 37.42 105.38"/><polyline class="cls-15" points="61.24 103.8 50.99 94.82 48.32 95.12 38.52 105.38"/></g><polygon class="cls-4" points="54.02 96.23 51.9 98.81 49.73 96.85 52.66 95.08 54.02 96.23"/></g><g><g><polyline class="cls-16" points="75.61 79.49 65.36 70.51 62.68 70.81 52.89 81.07"/><polyline class="cls-15" points="76.71 79.49 66.46 70.51 63.79 70.81 53.99 81.07"/></g><polygon class="cls-4" points="69.49 71.92 67.37 74.5 65.2 72.54 68.13 70.77 69.49 71.92"/></g><g><path class="cls-25" d="m48.73,122.9l.07,3.14,9.65,64.57s.6.91,2.43.86c.67-.02,1.29-.12,1.81-.24.9-.21,1.49-.49,1.49-.49l-6.42-63.58-.5-4.7-8.53.43Z"/><path class="cls-20" d="m47.37,122.97l1.08,4.84c3.68-.74,7.37-.29,9.46.85l-.66-6.19-9.88.5Z"/><path class="cls-13" d="m52.92,123.03l9.75,68.2c.9-.21,1.49-.49,1.49-.49l-6.92-68.27-4.33.56Z"/></g><g><path class="cls-13" d="m33.82,122.9l-.07,3.14-9.65,64.57s-.6.91-2.43.86c-.67-.02-1.29-.12-1.81-.24-.9-.21-1.49-.49-1.49-.49l6.42-63.58.5-4.7,8.53.43Z"/><path class="cls-20" d="m35.17,122.97l-1.08,4.84c-3.68-.74-7.37-.29-9.46.85l.66-6.19,9.88.5Z"/><path class="cls-25" d="m29.62,123.03l-9.75,68.2c-.9-.21-1.49-.49-1.49-.49l6.92-68.27,4.33.56Z"/></g><rect class="cls-1" x="14.45" y="117.09" width="49.72" height="55.8"/><polyline class="cls-26" points="69.49 121.24 69.68 156.04 93.51 121.37"/><polygon class="cls-10" points="69.49 118.24 69.51 121.24 93.51 121.37 93.51 82.52 69.49 118.24"/><g><rect class="cls-5" x="39.63" y="28.38" width="2.4" height="81.95"/><g><polygon class="cls-5" points="43.13 30.59 39.63 28.38 72.96 0 76.28 0 43.13 30.59"/><polygon class="cls-24" points="42.03 110.34 76.28 67.99 76.28 0 42.03 29.49 42.03 110.34"/><polygon class="cls-2" points="73.41 6.07 45.35 31.01 45.35 101.07 73.56 66.93 73.41 6.07"/></g></g><polyline class="cls-14" points="42.03 109.85 42.03 29.49 75.88 .32"/><polygon class="cls-5" points="73.41 6.07 73.56 66.93 45.35 100.1 45.35 101.07 74.23 66.92 74.23 5.33 73.41 6.07"/><path class="cls-5" d="m61.47,84.12c-.16-.59,1.35-2.69,2.28-3.62s2.1-1.97,2.3-1.52c.25.57-.81,2-1.64,3-.71.86-2.78,2.73-2.94,2.14Z"/></g><g id="Console"><polyline class="cls-8" points="87.12 125.03 88.39 125.12 72.35 146.78 68.68 146.78"/><g><rect class="cls-23" x="66.75" y="144.17" width="5.28" height="2"/><polygon class="cls-12" points="87.95 118.47 87.95 122.49 87.41 125.22 87.41 125.22 72.04 146.17 71.32 140.2 87.95 118.47"/><polygon class="cls-6" points="87.95 116.47 87.95 122.49 72.04 144.17 71.32 138.2 87.95 116.47"/><polygon class="cls-11" points="82.61 123.78 82.61 129.8 72.04 144.17 72.04 138.2 82.61 123.78"/><polygon class="cls-6" points="81.5 127.92 81.5 128.67 73.15 140.03 73.15 139.31 81.5 127.92"/><rect class="cls-5" x="66.75" y="138.2" width="5.28" height="5.97"/><polygon class="cls-3" points="72.04 138.2 66.75 138.01 66.75 116.46 88.05 116.46 72.04 138.2"/><circle class="cls-2" cx="85.91" cy="122.07" r=".56"/></g><path class="cls-13" d="m64.17,117.09v55.8l33.22-48.66v-55.8l-33.22,48.66Zm29.34,4.28l-.1.15h0l-23.73,34.52-.18-37.8,24.01-35.72v38.85Z"/><path class="cls-7" d="m95.27,144.97h0s0,0,0,0h0m.18-2l-.59.97c.58,1.42,1.66,3.61,2.55,4.31,1.13.88,2.62,1.15,4.27,1.15,1.82,0,3.86-.33,5.92-.66,2.06-.32,4.14-.64,5.99-.64h0c.57,0,1.12.03,1.63.1.81.11,1.45.42,1.98.85.79.64,1.31,1.55,1.62,2.3.16.37.26.71.33.95.03.12.05.21.07.28l.02.07v.02s.99-.18.99-.18c0-.03-.21-1.18-.91-2.41-.35-.62-.82-1.26-1.47-1.79-.65-.53-1.47-.94-2.48-1.07-.57-.07-1.16-.11-1.76-.11-1.97,0-4.09.33-6.15.66-2.06.32-4.06.64-5.76.64h-.02c-1.54,0-2.79-.27-3.64-.93-.65-.5-1.29-1.52-1.82-2.86"/><path class="cls-17" d="m87.47,121.02c2.74.14,5.68,1.01,6.03,4.01.62,5.25,1.69,18.08,5.2,20.82s11.88-.89,17.58-.16c3.64.47,4.43,4.87,4.43,4.87"/><path class="cls-7" d="m132.73,150.96s5.36,4.87,2.83,6.36-3.07-2.61-8.55-1.17-.28,5.05-5.38,7.94-7.67-.61-10.01-2.61-1.26-5.4,1.91-8.79,9.19-6.16,9.19-6.16"/><g><path class="cls-2" d="m137.4,152.64c.07.57-.1,1.12-.66,1.57-.52.4-1.08.41-1.71.37-1.08-.06-2.13-.38-3.19-.63-.61-.15-1.23-.27-1.86-.31-.1,0-.19-.01-.29-.01-.33,0-.66.06-.99.04-.11,0-.21-.02-.32,0-.63.12-1.28.48-1.84.77-.71.37-1.38.82-2,1.33-.12.1-.24.2-.35.3-.36.32-.7.66-1.01,1.02-.11.13-.18.23-.21.4-.12.68-.26,1.35-.33,2.05-.08.82-.18,1.66-.52,2.41-.17.37-.43.64-.66.97-.2.29-.49.43-.82.56-.99.39-2.12.31-3.13,0-1.87-.56-3.5-1.59-5.14-2.64-.54-.35-.8-.68-1.11-1.22-.53-.93-.8-1.88-.85-2.83-.09-1.75.57-3.49,1.71-5.02.75-1.01,1.69-1.87,2.72-2.58.85-.58,1.76-1.06,2.7-1.47,1.36-.59,2.78-1.03,4.21-1.42,2.18-.6,4.42-1.16,6.69-.66.31.07.63.15.93.25,1.64.5,3.19,1.35,4.6,2.33.7.49,1.35,1.05,1.93,1.71.6.67,1.37,1.71,1.49,2.69Z"/><path class="cls-21" d="m129.98,153.64c-.1,0-.19-.01-.29-.01-.33,0-.66.06-.99.04-.11,0-.21-.02-.32,0-.63.12-1.28.48-1.84.77-.71.37-1.38.82-2,1.33-.82-1.75-1.75-3.46-2.99-4.94-1.1-1.3-2.46-2.42-4.01-3.09,1.36-.59,2.78-1.03,4.21-1.42,2.18-.6,4.42-1.16,6.69-.66.31.07.63.15.93.25,1.6,1.93,1.38,5.04.6,7.73Z"/><path class="cls-28" d="m115.97,155.9c.74-.07,1.51-.29,2-.5.64-.27,1.3-.75,1.32-1.32.02-.55-.71-1.14-1.36-1.19-.07,0-.14.01-.21.02-.22,0-.43.03-.65.06-.51.08-1.03.2-1.52.38-.45.16-.92.38-1.27.69-.31.28-.46.62-.37.96.06.21.19.39.35.55.38.4,1.09.41,1.71.35Z"/><path class="cls-27" d="m117.9,154.51s.05-.04.07-.06c.38-.35.6-.98.31-1.45-.16-.25-.43-.42-.72-.49-.29-.07-.59-.07-.89-.04-.5.05-1.02.15-1.44.45-.32.23-.62.58-.69.97-.06.37.12.69.41.91.52.39,1.32.31,1.92.17.37-.08.74-.22,1.04-.46Z"/><path class="cls-28" d="m137.4,152.64c.07.57-.1,1.12-.66,1.57-.52.4-1.08.41-1.71.37-1.08-.06-2.13-.38-3.19-.63-.7-.17-1.42-.31-2.15-.32-.33,0-.66.06-.99.04-.11,0-.21-.02-.32,0-.63.12-1.28.48-1.84.77-.85.45-1.64,1-2.35,1.64-.36.32-.7.66-1.01,1.02-.11.13-.18.23-.21.4-.12.68-.26,1.35-.33,2.05-.08.82-.18,1.66-.52,2.41-.17.37-.43.64-.66.97-.2.29-.49.43-.82.56-.99.39-2.12.31-3.13,0-1.87-.56-3.5-1.59-5.14-2.64-.54-.35-.8-.68-1.11-1.22-.53-.93-.8-1.88-.85-2.83.88.96,1.84,1.85,2.87,2.65,1.05.81,2.18,1.55,3.44,1.95,1.26.4,2.68.44,3.89-.12.89-.41,1.86-1.25,1.94-2.29.04-.44-.05-.88-.16-1.31-.19-.69-.45-1.4-.33-2.1.12-.71.61-1.29,1.16-1.77,1.52-1.33,3.6-2.01,5.61-1.84,1.12.09,2.21.44,3.3.73,1.09.3,2.21.55,3.34.47.67-.05,1.34-.23,1.92-.56Z"/><path class="cls-5" d="m118.91,152.51c-.09.41-.41.8-.81,1.1-.86.66-2.05.98-3.02.81-.8-.15-1.5-.65-1.5-1.37,0-.21.06-.43.18-.63.35-.65,1.18-1.21,1.94-1.46,1.01-.34,2.1-.16,2.76.39.02.01.03.03.05.04.32.29.5.69.41,1.11Z"/><g><g><path class="cls-5" d="m127,146.87c.02.07.02.13.04.19.05.24,0,.5-.24.62-.14.07-.33.05-.51,0-.13-.03-.26-.08-.36-.1-.47-.13-.89-.32-1.31-.56-.08-.05-.18-.11-.19-.2-.01-.1.03-.19.11-.26.29-.26,1.03-.38,1.26-.43.25-.05.53-.14.77,0,.26.14.36.46.42.74Z"/><path class="cls-5" d="m129.94,149.2c0,.1-.1.16-.19.21-.44.26-.88.46-1.4.61-.11.03-.25.08-.39.12-.2.05-.4.08-.57.02-.28-.11-.36-.37-.34-.62,0-.05,0-.1.01-.15.03-.31.1-.65.39-.81.02-.01.04-.02.06-.03.1-.04.21-.05.32-.05.16,0,.33.04.49.06.21.03.85.1,1.25.28.21.09.36.21.35.37Z"/><path class="cls-5" d="m126,149.33c-.38.35-.72.28-1.1,0-.2-.14-.39-.31-.55-.49-.12-.13-.23-.29-.23-.46,0-.05.01-.1.03-.13.06-.13.22-.18.38-.2.01,0,.03,0,.05,0,.67-.02,1.41-.12,2.04.12.11.04.17.09.2.14.2.32-.64.86-.82,1.02Z"/><path class="cls-5" d="m129.91,147.45c.02.39-.42.42-.71.49-.39.1-.79.18-1.19.22-.18.02-.4-.04-.47-.2-.04-.08-.03-.18,0-.27,0-.01,0-.03,0-.04.12-.53.43-1.22,1.08-1.21.21,0,.44.09.64.21.21.12.39.29.51.45,0,.01.02.03.03.05.06.09.11.2.11.31Z"/></g><path class="cls-28" d="m127,146.87c-.05.17-.14.32-.29.4-.13.07-.29.08-.45.06-.17-.02-.35-.04-.51-.09-.3-.08-.59-.22-.85-.4-.12-.08-.23-.18-.35-.28.29-.26,1.03-.38,1.26-.43.25-.05.53-.14.77,0,.26.14.36.46.42.74Z"/><path class="cls-28" d="m126.83,148.31c-.19.14-.76.61-.84.64-.32.14-.7.13-1.02-.01-.01,0-.03-.01-.04-.02-.21-.1-.39-.25-.54-.42-.07-.08-.13-.16-.21-.23,0,0-.01-.01-.02-.02.06-.13.22-.18.38-.2.01,0,.03,0,.05,0,.67-.02,1.41-.12,2.04.12.11.04.17.09.2.14Z"/><path class="cls-28" d="m129.8,147.14s0,.02-.01.03c-.14.27-.46.37-.76.43-.37.08-.74.13-1.11.16-.11,0-.23,0-.34-.04-.02,0-.04-.02-.05-.03,0-.01,0-.03,0-.04.12-.53.43-1.22,1.08-1.21.21,0,.44.09.64.21.21.12.39.29.51.45,0,.01.02.03.03.05Z"/><path class="cls-28" d="m129.59,148.83s.01.05,0,.08c-.01.1-.04.21-.14.18-.51.29-1.07.49-1.64.59-.2.03-.41.05-.57-.06-.08-.06-.13-.14-.16-.23.03-.31.1-.65.39-.81.02-.01.04-.02.06-.03.1-.02.21-.04.32-.05.16,0,.33.04.49.06.21.03.85.1,1.25.28Z"/></g><path class="cls-28" d="m118.52,149.61c.16.15.39.19.61.21.65.04,1.35-.1,1.95-.37.82-.38,1.41-1.57.05-1.59-.79,0-2.37.17-2.71,1.03-.09.23-.09.53.1.71Z"/><path class="cls-5" d="m120.38,149.4c.35-.13.89-.36,1.02-.75.11-.32,0-.71-.31-.89-.19-.11-.42-.15-.64-.15-.67,0-1.48.29-1.85.89-.27.44.1.92.56,1.05.41.11.83,0,1.22-.15Z"/><path class="cls-22" d="m123.66,146.33s-.09-.04-.13-.06c-.02-.02-.04-.03-.07-.04-.02,0-.04,0-.06-.01-.06-.01-.12-.02-.17-.02-.11,0-.21.01-.31.04-.1.02-.21.05-.3.1-.05.03-.1.06-.14.1-.04.04-.06.09-.07.15-.02.06.02.13.07.16.05.03.1.05.17.05.04,0,.08,0,.11-.01.1,0,.2-.04.3-.06.02,0,.04,0,.06-.01,0,0,0,0,0,0,0,0,0,0,0,0,.06-.01.12-.03.18-.04.04-.01.07-.02.11-.04.02,0,.04-.01.05-.02.03-.01.05-.03.07-.04.04-.02.09-.03.13-.06.07-.04.05-.14,0-.18Z"/><path class="cls-22" d="m111.28,156.46s-.02-.03-.02-.05c0,0,0-.01-.01-.02,0,0,0,0,0-.01-.02-.05-.04-.09-.07-.13-.02-.03-.04-.07-.06-.1-.02-.04-.05-.06-.08-.08-.03-.03-.09-.02-.11.02-.02.05-.04.09-.04.14,0,.04,0,.08,0,.12,0,.1.04.18.07.27.02.05.03.1.06.14.03.04.07.08.11.12.06.06.12.12.19.17.07.05.14-.04.13-.1-.02-.08-.04-.15-.06-.22,0-.04-.01-.08-.02-.12-.01-.05-.05-.09-.07-.14Z"/></g><rect class="cls-5" x="87.08" y="120.03" width=".87" height="1.74"/><path class="cls-2" d="m118.14,151.47s0,.05.01.07c.05.35-.09.71-.33.97-.24.26-.56.44-.89.55-.7.23-1.49.19-2.16-.11-.23-.1-.55-.31-.67-.57.3-.56,1.01-1.04,1.67-1.26.87-.29,1.81-.14,2.38.34Z"/><path class="cls-7" d="m92.5,131.4l.86-1.26c-.14-1.21-.25-2.29-.35-3.16-.19-1.66-1.15-2.8-2.38-3.46-.82-.44-1.76-.7-2.72-.84l-.19.98c.89.13,1.74.36,2.43.74,1.02.56,1.7,1.36,1.86,2.69.13,1.13.29,2.63.49,4.31Z"/></g></g></g></g></svg>