<?xml version="1.0" encoding="utf-8"?>
<!-- Generator: Adobe Illustrator 27.1.1, SVG Export Plug-In . SVG Version: 6.00 Build 0)  -->
<svg version="1.0" id="Layer_2_00000057129455204388167310000006957378259463808928_"
	 xmlns="http://www.w3.org/2000/svg" xmlns:xlink="http://www.w3.org/1999/xlink" x="0px" y="0px" viewBox="0 0 178 229.3"
	 style="enable-background:new 0 0 178 229.3;" xml:space="preserve">
<style type="text/css">
	.st0{fill:#7E868B;}
	.st1{fill:#FFFFFF;}
	.st2{fill:#ADACAC;}
	.st3{fill:#D6D8D8;}
	.st4{fill:none;stroke:#303740;stroke-miterlimit:10;}
	.st5{fill:#B9B9B8;}
	.st6{opacity:0.81;fill:#828282;enable-background:new    ;}
</style>
<g id="velo">
	<g>
		<path class="st0" d="M76.5,102.9L76.5,102.9c-0.3,0.2-0.5,0.7-0.2,1.2l0.2,0.5c0.1,0.3,0.1,0.6,0,0.9l-0.1,0.2
			c-0.1,0.2-0.1,0.6,0,0.9l2.1,4.8c0.1,0.3,0.4,0.5,0.6,0.6l0.1,0c0.3,0.1,0.5,0.3,0.6,0.6l0.1,0.3c0.2,0.5,0.7,0.7,1,0.6l0.1,0
			c0.3-0.2,0.5-0.7,0.2-1.2l-0.2-0.3c-0.1-0.3-0.1-0.6-0.1-0.8l0.2-0.6c0.1-0.2,0.1-0.5-0.1-0.8l-1.8-4.2c-0.1-0.3-0.3-0.5-0.5-0.6
			l-0.7-0.3c-0.2-0.1-0.4-0.3-0.5-0.6l-0.2-0.5C77.3,103,76.8,102.8,76.5,102.9L76.5,102.9z"/>
		<g>
			<g>
				
					<rect x="119.2" y="166.1" transform="matrix(0.1115 -0.9938 0.9938 0.1115 -79.3955 284.6214)" class="st1" width="0.5" height="41.1"/>
				
					<rect x="98.3" y="178.6" transform="matrix(0.9615 -0.275 0.275 0.9615 -44.5863 39.5736)" class="st1" width="41.2" height="0.5"/>
				<polygon class="st1" points="99,184.3 99.3,184.7 131.7,159.4 131.4,159 				"/>
				
					<rect x="88.9" y="166.5" transform="matrix(0.502 -0.8649 0.8649 0.502 -89.6391 177.7307)" class="st1" width="41.2" height="0.5"/>
				
					<rect x="81.6" y="163.9" transform="matrix(0.139 -0.9903 0.9903 0.139 -74.5838 242.4331)" class="st1" width="41.2" height="0.5"/>
				
					<rect x="93.9" y="144" transform="matrix(0.968 -0.2511 0.2511 0.968 -38.2923 28.9002)" class="st1" width="0.5" height="41.2"/>
				
					<rect x="86.9" y="147.2" transform="matrix(0.8047 -0.5937 0.5937 0.8047 -82.6209 84.5038)" class="st1" width="0.5" height="41.2"/>
				
					<rect x="81.4" y="153.3" transform="matrix(0.5083 -0.8612 0.8612 0.5083 -109.6446 155.7913)" class="st1" width="0.5" height="41.1"/>
				<polygon class="st1" points="99.3,184.5 99.3,184 58.5,178.9 58.5,179.3 				"/>
				
					<rect x="58.9" y="189.4" transform="matrix(0.9651 -0.262 0.262 0.9651 -46.9176 27.4411)" class="st1" width="41.2" height="0.5"/>
				
					<rect x="62.6" y="196.8" transform="matrix(0.7818 -0.6235 0.6235 0.7818 -104.6894 94.8247)" class="st1" width="41.2" height="0.5"/>
				
					<rect x="68.9" y="202.1" transform="matrix(0.4715 -0.8819 0.8819 0.4715 -131.1441 185.8259)" class="st1" width="41.2" height="0.5"/>
				
					<rect x="76.4" y="204.4" transform="matrix(0.1009 -0.9949 0.9949 0.1009 -116.3801 280.4921)" class="st1" width="41.2" height="0.5"/>
				
					<rect x="104.9" y="183.3" transform="matrix(0.955 -0.2967 0.2967 0.955 -55.7562 40.3791)" class="st1" width="0.5" height="41.2"/>
				
					<rect x="111.7" y="179.7" transform="matrix(0.7786 -0.6276 0.6276 0.7786 -100.9201 114.5821)" class="st1" width="0.5" height="41.1"/>
				
					<rect x="116.9" y="173.5" transform="matrix(0.4732 -0.881 0.881 0.4732 -109.2744 205.433)" class="st1" width="0.5" height="41.2"/>
			</g>
			<path class="st2" d="M139,163.7c-11.4-22.1-38.6-30.8-60.6-19.4C56.3,155.7,47.6,182.9,59,205c11.4,22.1,38.5,30.8,60.6,19.4
				S150.4,185.8,139,163.7z M64,202.4c-10-19.4-2.4-43.1,17-53.1c19.3-10,43.1-2.4,53.1,16.9c10,19.4,2.4,43.1-16.9,53.1
				C97.8,229.3,74,221.8,64,202.4z"/>
			<path class="st1" d="M61,204c-10.8-21-2.6-46.9,18.4-57.7c21-10.8,46.9-2.6,57.7,18.4s2.6,46.9-18.4,57.7S71.8,225,61,204L61,204
				z M136.2,165.1c-10.6-20.5-35.9-28.6-56.4-18c-20.5,10.6-28.6,35.9-18,56.5c10.6,20.5,35.9,28.6,56.5,18
				C138.8,210.9,146.9,185.6,136.2,165.1z"/>
		</g>
		<g>
			<g>
				
					<rect x="65.2" y="42.1" transform="matrix(0.1115 -0.9938 0.9938 0.1115 -4.1461 120.7659)" class="st1" width="0.5" height="41.2"/>
				
					<rect x="44.3" y="54.6" transform="matrix(0.9615 -0.275 0.275 0.9615 -12.5743 19.9449)" class="st1" width="41.1" height="0.5"/>
				<polygon class="st1" points="45,60.3 45.3,60.7 77.7,35.4 77.4,35 				"/>
				
					<rect x="34.9" y="42.5" transform="matrix(0.502 -0.8649 0.8649 0.502 -9.2884 69.2685)" class="st1" width="41.2" height="0.5"/>
				
					<rect x="27.5" y="39.9" transform="matrix(0.139 -0.9903 0.9903 0.139 1.7168 82.1909)" class="st1" width="41.1" height="0.5"/>
				<rect x="39.9" y="20" transform="matrix(0.968 -0.2511 0.2511 0.968 -8.8902 11.3739)" class="st1" width="0.5" height="41.2"/>
				
					<rect x="32.9" y="23.3" transform="matrix(0.8047 -0.5937 0.5937 0.8047 -19.5545 28.2257)" class="st1" width="0.5" height="41.2"/>
				
					<rect x="27.4" y="29.3" transform="matrix(0.5083 -0.8612 0.8612 0.5083 -29.4002 48.3043)" class="st1" width="0.5" height="41.2"/>
				<polygon class="st1" points="45.3,60.5 45.3,60 4.5,54.9 4.5,55.3 				"/>
				
					<rect x="4.9" y="65.4" transform="matrix(0.9651 -0.262 0.262 0.9651 -16.3112 8.9609)" class="st1" width="41.2" height="0.5"/>
				
					<rect x="8.6" y="72.8" transform="matrix(0.7818 -0.6235 0.6235 0.7818 -39.1583 34.106)" class="st1" width="41.2" height="0.5"/>
				
					<rect x="14.9" y="78.1" transform="matrix(0.4715 -0.8819 0.8819 0.4715 -50.3176 72.6676)" class="st1" width="41.2" height="0.5"/>
				
					<rect x="22.4" y="80.4" transform="matrix(0.1009 -0.9949 0.9949 0.1009 -41.5657 115.2865)" class="st1" width="41.1" height="0.5"/>
				
					<rect x="50.9" y="59.3" transform="matrix(0.955 -0.2967 0.2967 0.955 -21.3949 18.7727)" class="st1" width="0.5" height="41.2"/>
				
					<rect x="57.7" y="55.7" transform="matrix(0.7786 -0.6276 0.6276 0.7786 -35.0572 53.2361)" class="st1" width="0.5" height="41.2"/>
				
					<rect x="62.9" y="49.5" transform="matrix(0.4732 -0.881 0.881 0.4732 -28.4747 92.5263)" class="st1" width="0.5" height="41.1"/>
			</g>
			<path class="st2" d="M85,39.7C73.6,17.6,46.5,8.9,24.4,20.3C2.3,31.7-6.4,58.9,5,81s38.5,30.8,60.6,19.3S96.4,61.8,85,39.7
				L85,39.7z M10,78.4c-10-19.4-2.4-43.1,17-53.1s43.1-2.4,53.1,17s2.4,43.1-17,53.1S20,97.8,10,78.4z"/>
			<path class="st1" d="M6.9,80C-3.9,59,4.4,33.1,25.4,22.3s46.9-2.6,57.7,18.4s2.6,46.9-18.4,57.7S17.8,101,6.9,80z M82.2,41.1
				c-10.6-20.5-35.9-28.6-56.5-18C5.3,33.7-2.8,59,7.8,79.6c10.6,20.5,35.9,28.6,56.5,18C84.8,87,92.8,61.6,82.2,41.1L82.2,41.1z"/>
		</g>
		<path class="st3" d="M163.8,161.9c0.5-1.9,3.8-6.7,4.7-7.2s2.4-0.8,3-1.1c0.3-0.1-0.1-0.7-1-1.2c-1.4-0.8-2.4-2.4-2.1-4l0.4-2.2
			l8.5,2.2c0,0,2.5,5.3-1.5,6.2c0,0-0.1,0-0.1,0.1c-1.9,1.1-6.4,0.6-8.9,4.4c-0.8,1.1-1.4,2-1.9,2.7
			C163.9,162.9,163.5,163.2,163.8,161.9L163.8,161.9z"/>
		<path class="st1" d="M164.9,161.7c0.7-1.2,2.4-3.9,3.8-5.2c1.6-1.4,5.9-1.9,7.1-2c0,0-0.1,0-0.1,0.1c-1.9,1.1-6.4,0.6-8.9,4.4
			C166,160.1,165.4,161.1,164.9,161.7L164.9,161.7z"/>
		<path class="st0" d="M168.4,141c0,0,1.5,4.4,3.8,4.3c1.1,0,2.2-0.5,3.2-0.1s2.6,1.1,2.1,4.1s-3.7,1.5-3.9,0.8s-3.9-1.2-3.9-1.2
			s-1.3-1.9-2.6-1.9S168.1,141.3,168.4,141L168.4,141z"/>
		<path class="st3" d="M55.7,114.2c0,0,3.4-2.6,7.2-3.4c3.8-0.8,14.1-4.5,14.1-4.5s2.5-0.8,3.3,0.6c0.8,1.4-0.5,2.4-1.3,2.8
			s-9.3,4.5-10.5,4.9s-8.1,4.3-10.2,4.2S55.2,115.5,55.7,114.2L55.7,114.2z"/>
		<path class="st1" d="M49.5,71.9l0.2,0.1c0.3,0.2,0.7,0,0.8-0.3l0-0.3c0-0.3,0.4-0.5,0.7-0.4l0.2,0.1c0.3,0.2,0.7-0.1,0.7-0.4v-0.3
			c0-0.3,0.3-0.6,0.6-0.5l0.2,0.1c0.3,0.1,0.7-0.2,0.6-0.5l0-0.3c0-0.3,0.2-0.6,0.5-0.6l0.3,0c0.3,0,0.6-0.3,0.5-0.6l-0.1-0.2
			c-0.1-0.3,0.1-0.6,0.5-0.6h0.3c0.4,0,0.6-0.4,0.4-0.7l-0.1-0.2c-0.1-0.3,0-0.6,0.4-0.7l0.3-0.1c0.3-0.1,0.5-0.5,0.3-0.8l-0.1-0.2
			c-0.2-0.3,0-0.6,0.2-0.7l0.2-0.1c0.3-0.1,0.5-0.5,0.2-0.8l-0.2-0.2c-0.2-0.2-0.2-0.6,0.1-0.8l0.2-0.1c0.3-0.2,0.4-0.6,0.1-0.8
			l-0.2-0.2c-0.2-0.2-0.2-0.6,0-0.8l0.2-0.2c0.3-0.2,0.3-0.6,0-0.8L57.5,59c-0.3-0.2-0.3-0.5-0.1-0.8l0.2-0.2
			c0.2-0.2,0.2-0.7-0.2-0.8l-0.2-0.1c-0.3-0.1-0.4-0.5-0.2-0.8l0.2-0.2c0.2-0.3,0.1-0.7-0.3-0.8l-0.2-0.1c-0.3-0.1-0.5-0.4-0.3-0.7
			l0.1-0.2c0.2-0.3,0-0.7-0.4-0.7l-0.3,0c-0.3,0-0.5-0.4-0.4-0.7l0.1-0.2c0.1-0.3-0.1-0.7-0.5-0.7l-0.3,0c-0.3,0-0.6-0.3-0.5-0.6
			l0-0.3c0.1-0.3-0.2-0.7-0.6-0.6l-0.3,0c-0.3,0.1-0.6-0.2-0.6-0.5v-0.3c0-0.4-0.3-0.6-0.7-0.5l-0.2,0.1c-0.3,0.1-0.6-0.1-0.7-0.4
			l0-0.3c0-0.3-0.4-0.6-0.7-0.4l-0.2,0.1c-0.3,0.2-0.6,0-0.7-0.3L49.5,48c-0.1-0.3-0.5-0.5-0.8-0.3l-0.2,0.2
			c-0.3,0.2-0.6,0.1-0.8-0.2l-0.1-0.2c-0.1-0.3-0.6-0.4-0.8-0.2l-0.2,0.2c-0.2,0.2-0.6,0.2-0.8-0.1l-0.1-0.2c-0.2-0.3-0.6-0.3-0.8,0
			l-0.2,0.2c-0.2,0.3-0.6,0.3-0.8,0l-0.2-0.2c-0.2-0.3-0.7-0.2-0.8,0.1l-0.1,0.2c-0.1,0.3-0.5,0.4-0.8,0.2l-0.2-0.2
			c-0.3-0.2-0.7-0.1-0.8,0.2L41,48c-0.1,0.3-0.5,0.4-0.7,0.3L40,48.1c-0.3-0.2-0.7,0-0.8,0.3l0,0.3c0,0.3-0.4,0.5-0.7,0.4L38.3,49
			c-0.3-0.2-0.7,0.1-0.7,0.4v0.3c0,0.3-0.3,0.6-0.6,0.5l-0.2-0.1c-0.3-0.1-0.7,0.2-0.6,0.5l0,0.3c0,0.3-0.2,0.6-0.5,0.6l-0.3,0
			c-0.3,0-0.6,0.3-0.5,0.6l0.1,0.2c0.1,0.3-0.1,0.6-0.5,0.6h-0.3c-0.4,0-0.6,0.4-0.4,0.7l0.1,0.2c0.1,0.3,0,0.6-0.4,0.7l-0.3,0
			c-0.3,0.1-0.5,0.5-0.3,0.8l0.1,0.2c0.2,0.3,0,0.6-0.2,0.7l-0.2,0.1c-0.3,0.1-0.5,0.5-0.2,0.8l0.2,0.2c0.2,0.2,0.2,0.6-0.1,0.8
			l-0.2,0.1c-0.3,0.2-0.4,0.6-0.1,0.8l0.2,0.2c0.2,0.2,0.2,0.6,0,0.8L32,60.2c-0.3,0.2-0.3,0.6,0,0.8l0.2,0.1
			c0.3,0.2,0.3,0.5,0.1,0.8l-0.2,0.2c-0.2,0.2-0.2,0.7,0.2,0.8l0.2,0.1c0.3,0.1,0.4,0.5,0.2,0.8L32.6,64c-0.2,0.3-0.1,0.7,0.3,0.8
			l0.2,0.1c0.3,0.1,0.5,0.4,0.3,0.7l-0.1,0.2c-0.2,0.3,0,0.7,0.4,0.7l0.3,0c0.3,0,0.5,0.4,0.4,0.7l-0.1,0.2
			c-0.1,0.3,0.1,0.7,0.5,0.7l0.3,0c0.3,0,0.6,0.3,0.5,0.6l0,0.3c-0.1,0.3,0.2,0.7,0.6,0.6l0.3-0.1c0.3-0.1,0.6,0.2,0.6,0.5v0.3
			c0,0.4,0.3,0.6,0.7,0.5l0.2-0.1c0.3-0.1,0.6,0.1,0.7,0.4l0,0.3c0,0.3,0.4,0.6,0.7,0.4l0.2-0.1c0.3-0.2,0.6,0,0.7,0.3l0.1,0.2
			c0.1,0.3,0.5,0.5,0.8,0.3l0.2-0.2c0.3-0.2,0.6-0.1,0.8,0.2l0.1,0.2c0.1,0.3,0.6,0.4,0.8,0.2l0.2-0.2c0.2-0.2,0.6-0.2,0.8,0.1
			l0.1,0.2c0.2,0.3,0.6,0.3,0.8,0l0.2-0.2c0.2-0.3,0.6-0.3,0.8,0l0.2,0.2c0.2,0.3,0.7,0.2,0.8-0.1l0.1-0.2c0.1-0.3,0.5-0.4,0.8-0.2
			l0.2,0.2c0.3,0.2,0.7,0.1,0.8-0.2l0.1-0.2C48.9,71.8,49.2,71.7,49.5,71.9L49.5,71.9z"/>
		<path class="st4" d="M37,70.2c0.8,14.8,6.8,51.7,16.4,54.9c5.8,1.9,17,1.3,15.2-14l-9.6-46"/>
		<path class="st1" d="M145.7,132.1l6.8-4.5c0.9-0.6,2-0.5,2.8,0.2l10.6,9.5l-0.5,0.7c-1.1,1.7-3.4,2-4.8,0.6l-2-1.9
			c-2.3-2.3-4.4-4.9-8.8-1.6l-0.8,0.7L145.7,132.1L145.7,132.1z"/>
		<path class="st2" d="M144.5,138.9c-0.5-1-0.2-2.2,0.7-2.8c1-0.6,2.3-0.3,2.9,0.7l0,0c0,0,1.6,2.5,3.6,5c3.5,4.4,5.3,5.1,5.7,5.1
			c3.6,0.8,7.1-0.3,8.7-2.8c0.4-0.6,0.2-2.2-0.9-4.5c-1.1-2.2-2.4-3.8-2.9-4.2c-0.8-0.3-1.4-1.1-1.4-2c0-1.2,1-2.1,2.1-2.1
			c1,0,1.9,0.6,3.2,2.1c0.8,1,1.7,2.3,2.4,3.6c0,0,0,0,0,0.1c1.4,2.7,2.8,6.5,1,9.3c-2.6,4.1-7.8,5.9-13.2,4.6
			c-2.3-0.5-4.9-2.7-8.1-6.6c-2.2-2.7-3.8-5.3-3.9-5.4C144.6,138.9,144.5,138.9,144.5,138.9L144.5,138.9z"/>
		<g>
			<path class="st1" d="M97.4,187.7c-0.3-0.1-0.5-0.2-0.8-0.3l-0.1-0.1c-1-0.7-1.2-2.1-0.4-3l33-38.5l1.2,1.2l4.1,4.2l-35.2,35.9
				C98.8,187.7,98.1,187.9,97.4,187.7L97.4,187.7z"/>
			<path class="st3" d="M97.4,187.7c-0.5-0.7-0.4-1.7,0.2-2.4l32.8-38.3l4.1,4.2l-35.2,35.9C98.8,187.7,98.1,187.9,97.4,187.7
				L97.4,187.7z"/>
			<path class="st5" d="M119.1,64.1c0.2-0.2,0.4-0.5,0.5-0.8h1.7c0.2,0,0.4-0.1,0.5-0.2l2.4-3l-4-4.6l-2.8,0.6l0.3,4.3l0,0l-0.2,0.5
				c-0.3,0.1-0.6,0.2-0.8,0.4L101.1,75l2.4,2.7L119.1,64.1L119.1,64.1z"/>
			<path class="st0" d="M117.7,55.7c-0.9-2.2,1.7-4.5,1.8-4.6l0.6,0.7l0,0c-0.6,0.6-2.1,2.3-1.6,3.6c1,2.2,6,11.3,11.3,12.8
				l-0.2,0.9C123.9,67.4,118.8,58.1,117.7,55.7z"/>
			<path class="st1" d="M135.3,72.4c0.2-4.9-4.5-9.4-6.5-13.8s-3-10.3-6.3-13.6c-2.3-2.4-4-2.4-4.9,1c-1.1,4.3,1.6,13.7,4.6,16.3
				c1.2,1,2.8,1,4.2,3.1c3,4.4,4.5,8.7,5.1,12.5C133.2,77.1,135.1,76.4,135.3,72.4L135.3,72.4z"/>
			<path class="st3" d="M135.6,150c2.7-2.6,8.2-8,10-10.1c2.5-2.8,4.3-4.9,4.3-4.9s-2.3-3.6-3.3-3.2s-2.7,0.1-2.7,0.1l-0.1,0.1
				l-38.8-54.8l1.4-1.3l-2.9-3.4l-0.4-0.4l-7.1,6.3l-1.4,1.3L47,58.3c-0.6-0.3-1.9-0.8-2.9-1c-0.7-0.1-1.3-0.1-1.5,0.2l-1.4,2.2
				l1.6,2.6l12,52.8l1.2,3.6c0.5,1.4,1.6,2.4,3,2.8l68.3,18.4c3.7,1,1.1,6.2,1.1,6.2l5.7,5.2C134.1,151.5,134.7,150.9,135.6,150
				L135.6,150z M130.4,133.5l-69.3-17.3l39.3-34.8c0.2-0.2,0.6-0.2,0.8,0.1c0,0,0,0,0,0l31.9,48c0.7,1,0.5,2.2-0.1,3.1
				C132.5,133.3,131.5,133.8,130.4,133.5L130.4,133.5z M46.3,63.4l1.6-1.5l0.6,0.3l43.3,19.9l-31.3,27.7l-1.9,1.7
				C58.7,111.5,46.3,63.4,46.3,63.4z"/>
			<path class="st3" d="M139.7,146.4c2.6-2.5,5.1-5.1,6.1-6.2c1.7-1.9,3.1-3.5,3.8-4.3c0.3-0.4,0.5-0.6,0.5-0.6s-0.1-0.1-0.2-0.2
				c0,0,0,0,0-0.1c-0.6-0.9-2.3-3.2-3.1-2.9c-0.9,0.4-2.7,0.1-2.7,0.1l-0.1,0.1l-38.9-55.1l1.4-1.3l-2.5-2.9l-7,6.2
				c-0.6,0.5-1.4,0.6-2.1,0.3l-47.7-21c-0.6-0.3-1.9-0.8-2.9-1l-0.9,1.4l0.5,2.6l12.8,54.1l3,4.2l69.8,18.6c3.7,1,0.4,9.1,0.4,9.1
				l4.4,4C135.4,150.6,137.5,148.5,139.7,146.4z M46.4,63.7l1.6-1.5l0.6,0.3l1.4-1.3l42.3,19.5c0.8,0.4,1.1,1.8,0.4,2.3l-31.7,28.3
				l-1.7,1.9L46.4,63.7L46.4,63.7z M130.5,133.8l-69.3-17.3l39.3-34.8c0,0,0.1,0,0.1-0.1c1-0.7,2.4-0.3,3,0.6l31.7,46.5
				c1.2,1.8-1,4.9-3,4.9C132.2,133.7,131.6,134.1,130.5,133.8L130.5,133.8z"/>
			<path class="st1" d="M67.6,104.1c0,0,1.4,2.7,3.4,3.8c-1.9,1.8-2.7,2.4-2.7,2.4s-1.9-0.8-3.6-3.7
				C66.7,104.7,67.6,104.1,67.6,104.1L67.6,104.1z"/>
			<g>
				
					<ellipse transform="matrix(0.2083 -0.9781 0.9781 0.2083 -49.3998 191.2791)" class="st1" cx="93.4" cy="126.2" rx="0.3" ry="15.4"/>
				
					<ellipse transform="matrix(0.8156 -0.5786 0.5786 0.8156 -35.5868 87.4599)" class="st1" cx="119.4" cy="99.6" rx="0.6" ry="10.3"/>
				
					<ellipse transform="matrix(0.7361 -0.6769 0.6769 0.7361 -42.2428 81.6705)" class="st1" cx="83.6" cy="95" rx="14.2" ry="0.4"/>
				
					<ellipse transform="matrix(0.8156 -0.5786 0.5786 0.8156 -45.8624 101.1001)" class="st1" cx="135.7" cy="122.5" rx="0.5" ry="7"/>
				
					<ellipse transform="matrix(0.9711 -0.2387 0.2387 0.9711 -18.6281 14.5858)" class="st1" cx="50.9" cy="84.2" rx="0.4" ry="11"/>
				
					<ellipse transform="matrix(0.4239 -0.9057 0.9057 0.4239 -21.8554 107.9469)" class="st1" cx="73.9" cy="71.2" rx="0.2" ry="11"/>
			</g>
			
				<ellipse transform="matrix(0.6932 -0.7208 0.7208 0.6932 -86.4565 134.9174)" class="st1" cx="115.2" cy="169" rx="13.3" ry="0.5"/>
		</g>
		<path class="st0" d="M60.9,122.1c0.1,0,0.1-0.1,0.2-0.1s0.1-0.1,0.2-0.1l0.4,0.1c0.2,0.1,0.3-0.1,0.4-0.2l0.1-0.4
			c0.1-0.1,0.2-0.2,0.3-0.2l0.5,0c0.2,0,0.3-0.1,0.3-0.3v-0.4c0.1-0.1,0.2-0.2,0.2-0.3l0.5-0.1c0.2,0,0.3-0.2,0.2-0.3l-0.1-0.4
			c0.1-0.1,0.1-0.2,0.2-0.3l0,0l0.4-0.2c0.2-0.1,0.2-0.2,0.2-0.4l0,0l-0.2-0.4l0,0c0-0.1,0.1-0.2,0.1-0.4l0.4-0.3
			c0.1-0.1,0.2-0.2,0.1-0.3c0,0,0,0,0-0.1l-0.3-0.4c0-0.1,0-0.2,0-0.4l0.3-0.3c0.1-0.1,0.1-0.2,0.1-0.3c0,0,0-0.1-0.1-0.1l-0.3-0.3
			c0-0.1,0-0.2-0.1-0.4l0.2-0.4c0.1-0.1,0.1-0.2,0-0.2c0-0.1-0.1-0.1-0.1-0.1l-0.4-0.2c0-0.1-0.1-0.1-0.1-0.2s-0.1-0.1-0.1-0.2
			l0.1-0.4c0-0.1,0-0.1,0-0.2c0-0.1-0.1-0.1-0.2-0.2l-0.4-0.1c-0.1-0.1-0.2-0.2-0.2-0.3l0-0.4c0,0,0-0.1,0-0.1
			c0-0.1-0.1-0.2-0.3-0.2h-0.5c-0.1-0.1-0.2-0.2-0.3-0.2l-0.1-0.4c0,0,0-0.1,0-0.1c0-0.1-0.2-0.2-0.3-0.2l-0.5,0.1
			c-0.1-0.1-0.2-0.1-0.3-0.2l0,0l-0.2-0.4l0,0c-0.1-0.2-0.2-0.2-0.4-0.1l-0.4,0.2l0,0c-0.1,0-0.2-0.1-0.4-0.1l-0.3-0.4
			c-0.1-0.1-0.3-0.2-0.4-0.1l-0.4,0.3c-0.1,0-0.2,0-0.4,0l-0.3-0.3c-0.1-0.1-0.3-0.1-0.4,0l-0.3,0.3c-0.1,0-0.2,0-0.4,0.1l-0.4-0.2
			c-0.1-0.1-0.3,0-0.4,0.1l-0.2,0.4c-0.1,0-0.1,0.1-0.2,0.1s-0.1,0.1-0.2,0.1l-0.4-0.1c-0.2-0.1-0.3,0.1-0.4,0.2l-0.1,0.4
			c-0.1,0.1-0.2,0.2-0.3,0.2l-0.5,0c-0.2,0-0.3,0.1-0.3,0.3v0.4c-0.1,0.1-0.2,0.2-0.2,0.3l-0.5,0.1c-0.2,0-0.3,0.2-0.2,0.3l0.1,0.4
			c-0.1,0.1-0.1,0.2-0.2,0.3l0,0l-0.4,0.2c-0.2,0.1-0.2,0.2-0.2,0.4l0,0l0.2,0.4l0,0c0,0.1-0.1,0.2-0.1,0.4l-0.4,0.3
			c-0.1,0.1-0.2,0.2-0.1,0.3c0,0,0,0,0,0.1l0.3,0.4c0,0.1,0,0.2,0,0.4l-0.3,0.3c-0.1,0.1-0.1,0.2,0,0.3c0,0,0,0.1,0.1,0.1l0.3,0.3
			c0,0.1,0,0.2,0.1,0.4l-0.2,0.4c0,0.1,0,0.2,0,0.2c0,0.1,0.1,0.1,0.1,0.1l0.4,0.2c0,0.1,0,0.1,0.1,0.2s0,0.1,0.1,0.2l-0.1,0.4
			c0,0.1,0,0.1,0,0.2c0,0.1,0.1,0.1,0.2,0.2l0.4,0.1c0.1,0.1,0.2,0.2,0.2,0.3l0,0.4c0,0,0,0.1,0,0.1c0,0.1,0.1,0.2,0.3,0.2h0.5
			c0.1,0.1,0.2,0.2,0.3,0.2l0.1,0.4c0,0,0,0.1,0,0.1c0,0.1,0.2,0.2,0.3,0.2l0.5-0.1c0.1,0.1,0.2,0.1,0.3,0.2l0,0l0.2,0.4l0,0
			c0.1,0.2,0.2,0.2,0.4,0.1l0.4-0.2l0,0c0.1,0,0.2,0.1,0.4,0.1l0.3,0.4c0.1,0.1,0.3,0.2,0.4,0.1l0.4-0.3c0.1,0,0.2,0,0.4,0l0.3,0.3
			c0.1,0.1,0.3,0.1,0.4,0l0.3-0.3c0.1,0,0.2,0,0.4-0.1l0.4,0.2c0.1,0.1,0.3,0,0.4-0.1L60.9,122.1L60.9,122.1z M56.6,111.9
			c2.4-1,5.1,0,6.2,2.4s0,5.1-2.4,6.2s-5.1,0-6.2-2.4S54.2,113,56.6,111.9z"/>
		<path class="st1" d="M62.2,125.8l0.2,0.1c0.2,0.2,0.6,0,0.6-0.3l0-0.2c0-0.3,0.3-0.4,0.5-0.3l0.2,0.1c0.3,0.1,0.6-0.1,0.6-0.4
			v-0.2c0-0.3,0.3-0.4,0.5-0.4l0.2,0.1c0.3,0.1,0.5-0.2,0.5-0.4l0-0.2c0-0.3,0.2-0.5,0.4-0.4l0.2,0c0.3,0,0.5-0.2,0.4-0.5l-0.1-0.2
			c-0.1-0.2,0.1-0.5,0.4-0.5h0.2c0.3,0,0.5-0.3,0.3-0.6l-0.1-0.2c-0.1-0.2,0-0.5,0.3-0.6l0.2,0c0.3-0.1,0.4-0.4,0.3-0.6l-0.1-0.2
			c-0.1-0.2,0-0.5,0.2-0.6l0.2-0.1c0.3-0.1,0.4-0.4,0.2-0.6l-0.1-0.2c-0.2-0.2-0.1-0.5,0.1-0.6l0.2-0.1c0.2-0.1,0.3-0.5,0.1-0.7
			l-0.2-0.1c-0.2-0.2-0.2-0.5,0-0.6l0.2-0.1c0.2-0.2,0.2-0.5,0-0.7l-0.2-0.1c-0.2-0.1-0.3-0.4-0.1-0.6l0.2-0.2
			c0.2-0.2,0.1-0.5-0.1-0.7l-0.2-0.1c-0.2-0.1-0.3-0.4-0.2-0.6l0.1-0.2c0.2-0.2,0.1-0.6-0.2-0.6l-0.2-0.1c-0.2-0.1-0.4-0.3-0.2-0.6
			l0.1-0.2c0.1-0.2,0-0.6-0.3-0.6l-0.2,0c-0.3,0-0.4-0.3-0.3-0.5l0.1-0.2c0.1-0.3-0.1-0.6-0.4-0.5h-0.2c-0.3,0-0.5-0.2-0.4-0.5
			l0-0.2c0.1-0.3-0.2-0.5-0.5-0.5l-0.2,0c-0.2,0.1-0.5-0.2-0.5-0.4v-0.2c0-0.3-0.3-0.5-0.5-0.4l-0.2,0.1c-0.2,0.1-0.5-0.1-0.5-0.3
			l0-0.2c0-0.3-0.3-0.4-0.6-0.3l-0.2,0.1c-0.2,0.1-0.5,0-0.6-0.2l0-0.2c-0.1-0.3-0.4-0.4-0.6-0.2l-0.2,0.1c-0.2,0.2-0.5,0.1-0.6-0.2
			l-0.1-0.2c-0.1-0.3-0.5-0.3-0.7-0.1l-0.1,0.2c-0.2,0.2-0.5,0.2-0.6-0.1l-0.1-0.2c-0.2-0.2-0.5-0.2-0.7,0l-0.1,0.2
			c-0.2,0.2-0.5,0.2-0.6,0l-0.1-0.2c-0.2-0.2-0.5-0.2-0.7,0.1l-0.1,0.2c-0.1,0.2-0.4,0.3-0.6,0.1l-0.2-0.1c-0.2-0.2-0.5-0.1-0.6,0.2
			l-0.1,0.2c-0.1,0.2-0.4,0.3-0.6,0.2l-0.2-0.1c-0.2-0.2-0.6,0-0.6,0.3l0,0.2c0,0.3-0.3,0.4-0.5,0.3l-0.2-0.1
			c-0.3-0.1-0.6,0.1-0.6,0.4v0.2c0,0.3-0.3,0.4-0.5,0.4l-0.2-0.1c-0.3-0.1-0.5,0.2-0.5,0.4l0,0.2c0,0.3-0.2,0.5-0.4,0.4l-0.2,0
			c-0.3,0-0.5,0.2-0.4,0.5l0.1,0.2c0.1,0.2-0.1,0.5-0.4,0.5h-0.2c-0.3,0-0.5,0.3-0.3,0.6l0.1,0.2c0.1,0.2,0,0.5-0.3,0.6l-0.2,0
			c-0.3,0.1-0.4,0.4-0.3,0.6l0.1,0.2c0.1,0.2,0,0.5-0.2,0.6l-0.2,0.1c-0.3,0.1-0.4,0.4-0.2,0.6l0.1,0.2c0.2,0.2,0.1,0.5-0.1,0.6
			l-0.2,0.1c-0.2,0.1-0.3,0.5-0.1,0.7l0.2,0.1c0.2,0.2,0.2,0.5,0,0.6l-0.2,0.1c-0.2,0.2-0.2,0.5,0,0.7l0.2,0.1
			c0.2,0.1,0.3,0.4,0.1,0.6l-0.2,0.2c-0.2,0.2-0.1,0.5,0.1,0.7l0.2,0.1c0.2,0.1,0.3,0.4,0.2,0.6l-0.1,0.2c-0.2,0.2-0.1,0.6,0.2,0.6
			l0.2,0.1c0.2,0.1,0.4,0.3,0.2,0.6l-0.1,0.2c-0.1,0.2,0,0.6,0.3,0.6l0.2,0c0.3,0,0.4,0.3,0.3,0.5l-0.1,0.2
			c-0.1,0.3,0.1,0.6,0.4,0.5h0.2c0.3,0,0.5,0.2,0.4,0.5l0,0.2c-0.1,0.3,0.2,0.5,0.5,0.5l0.2,0c0.2-0.1,0.5,0.2,0.5,0.4v0.2
			c0,0.3,0.3,0.5,0.5,0.4l0.2-0.1c0.2-0.1,0.5,0.1,0.5,0.3l0,0.2c0,0.3,0.3,0.4,0.6,0.3l0.2-0.1c0.2-0.1,0.5,0,0.6,0.2l0,0.2
			c0.1,0.3,0.4,0.4,0.6,0.2l0.2-0.1c0.2-0.2,0.5-0.1,0.6,0.2l0.1,0.2c0.1,0.3,0.5,0.3,0.7,0.1l0.1-0.2c0.2-0.2,0.5-0.2,0.6,0.1
			l0.1,0.2c0.2,0.2,0.5,0.2,0.7,0l0.1-0.2c0.2-0.2,0.5-0.2,0.6,0l0.1,0.2c0.2,0.2,0.5,0.2,0.7-0.1l0.1-0.2c0.1-0.2,0.4-0.3,0.6-0.1
			l0.2,0.1c0.2,0.2,0.5,0.1,0.6-0.2l0.1-0.2C61.7,125.7,61.9,125.6,62.2,125.8z M51,113.8c-0.6-1.4,0-3.1,1.5-3.8s3.1,0,3.8,1.4
			s0,3.1-1.5,3.8S51.7,115.2,51,113.8z M59.8,112.1c-0.6-1.4,0-3.1,1.5-3.8s3.1,0,3.8,1.4s0,3.1-1.5,3.8S60.4,113.6,59.8,112.1z
			 M53.1,122.6c-0.6-1.4,0-3.1,1.5-3.8s3.1,0,3.8,1.4s0,3.1-1.5,3.8S53.7,124,53.1,122.6z M61.4,120.5c-0.6-1.4,0-3.1,1.5-3.8
			c1.4-0.6,3.1,0,3.8,1.4s0,3.1-1.4,3.8S62,122,61.4,120.5z"/>
		<path class="st3" d="M61.2,117.5c-1.2,1.4-21,7.7-21,7.7s-2.4,0.9-3.3-0.5s0.5-2.5,1.2-2.8S57,113,59,113
			C61.1,113.1,62.2,116.5,61.2,117.5L61.2,117.5z"/>
		<circle class="st1" cx="58.2" cy="116.3" r="1.8"/>
		<path class="st1" d="M56.9,118.5c-0.2-0.3-1-0.3-1-0.3c-4,1.4-8,2.8-12,4.2c-0.5,0.2-1.1,0.6-0.9,1c1.2-0.2,6.5-1.6,7.2-1.9
			C52,120.7,56.6,118.8,56.9,118.5z"/>
		<path class="st0" d="M36.6,117.6L36.6,117.6c-0.3,0.2-0.5,0.7-0.2,1.2l0.2,0.5c0.1,0.3,0.1,0.6,0,0.9l-0.1,0.2
			c-0.1,0.2-0.1,0.6,0,0.9l2.1,4.8c0.1,0.3,0.4,0.5,0.6,0.6l0.1,0c0.3,0.1,0.5,0.3,0.6,0.6l0.1,0.3c0.2,0.5,0.7,0.7,1,0.6l0.1,0
			c0.3-0.2,0.5-0.7,0.2-1.2l-0.2-0.3c-0.1-0.3-0.1-0.6,0-0.8l0.2-0.6c0.1-0.2,0.1-0.5,0-0.8l-1.8-4.2c-0.1-0.3-0.3-0.5-0.5-0.6
			l-0.7-0.3c-0.2-0.1-0.4-0.3-0.5-0.6l-0.2-0.5C37.4,117.7,37,117.5,36.6,117.6L36.6,117.6z"/>
		<circle class="st1" cx="39" cy="122.8" r="1.1"/>
		<circle class="st3" cx="44.1" cy="59.3" r="3.5"/>
		<g>
			<path class="st0" d="M150.9,140.5c-0.9-0.2-1.8-0.2-2.6,0.1c-0.7,0.3-1.5,0.8-1.6,1.6c0,0.2,0.3,0.2,0.3,0c0-0.8,1.1-1.3,1.8-1.4
				s1.3-0.1,2,0C151,140.8,151.1,140.5,150.9,140.5L150.9,140.5L150.9,140.5z"/>
			<path class="st0" d="M153.2,143.5c-0.4-0.1-0.8-0.3-1.3-0.3s-0.8,0.1-1.2,0.3c-0.8,0.4-1.4,1-1.4,1.9c0,0.2,0.3,0.2,0.3,0
				c0-0.9,0.7-1.4,1.4-1.8c0.3-0.1,0.7-0.3,1-0.2c0.4,0.1,0.7,0.2,1,0.3C153.3,143.9,153.4,143.5,153.2,143.5L153.2,143.5
				L153.2,143.5z"/>
			<path class="st0" d="M155.2,145.6c-0.8,0.3-1.6,0.7-2.1,1.5c-0.4,0.6-0.4,1.3-0.2,2c0.1,0.2,0.3,0,0.3-0.1
				c-0.6-1.6,0.9-2.5,2.1-3C155.6,145.8,155.4,145.5,155.2,145.6L155.2,145.6L155.2,145.6z"/>
			<path class="st0" d="M158.2,147.1c-0.6,0.5-1.2,1.4-1.2,2.2c0,0.7,0.4,1.6,1,2c0.2,0.1,0.4-0.2,0.2-0.3c-0.5-0.4-0.9-1.3-0.9-1.9
				s0.6-1.4,1.1-1.8C158.6,147.2,158.4,146.9,158.2,147.1L158.2,147.1L158.2,147.1z"/>
			<path class="st0" d="M161.3,147.1c-0.6,0.4-0.3,1.3,0,1.8c0.4,0.8,0.9,1.6,1.6,2.1c0.2,0.1,0.4-0.2,0.2-0.3
				c-0.6-0.4-0.9-0.9-1.2-1.4c-0.2-0.4-1-1.5-0.4-1.9C161.6,147.3,161.5,147,161.3,147.1L161.3,147.1L161.3,147.1z"/>
			<path class="st0" d="M164.2,146.1c0.3,0.8,0.7,1.5,1.5,1.9c0.7,0.4,1.6,0.4,2.4,0.4c0.2,0,0.2-0.3,0-0.3c-0.7,0-1.4,0-2.1-0.2
				c-0.8-0.3-1.2-1.1-1.5-1.8C164.4,145.8,164.1,146,164.2,146.1L164.2,146.1L164.2,146.1z"/>
			<path class="st0" d="M166.3,143.1c0.4,0.9,1,1.3,2,1.4s1.6-0.5,2.3-1.2c0.1-0.2-0.1-0.4-0.2-0.2c-0.6,0.6-1.1,1.3-2.1,1.1
				c-0.9-0.2-1.3-0.5-1.7-1.3C166.5,142.7,166.2,142.9,166.3,143.1L166.3,143.1L166.3,143.1z"/>
			<path class="st0" d="M165.7,140.3c0.8,0.2,1.6,0.3,2.4-0.1c0.6-0.3,1.3-0.8,1.3-1.6c0-0.2-0.3-0.2-0.3,0c0,0.7-0.8,1.2-1.4,1.4
				c-0.6,0.2-1.2,0.1-1.9,0C165.5,139.9,165.5,140.2,165.7,140.3L165.7,140.3z"/>
			<path class="st0" d="M163.9,137.1c0.8-0.1,2.1-0.4,2.5-1.2c0.3-0.6,0.4-1.7,0-2.4c-0.1-0.2-0.4,0-0.3,0.2
				c0.3,0.5,0.3,1.7-0.1,2.2c-0.5,0.6-1.5,0.8-2.2,0.9C163.6,136.8,163.7,137.1,163.9,137.1L163.9,137.1L163.9,137.1z"/>
			<path class="st0" d="M161.7,134.6c0.7-0.3,1.8-0.5,2.2-1.2s0-1.5-0.3-2c-0.1-0.2-0.4,0-0.3,0.2c0.3,0.6,0.8,1.5,0.1,2
				c-0.5,0.4-1.2,0.6-1.8,0.8C161.4,134.5,161.5,134.7,161.7,134.6L161.7,134.6L161.7,134.6z"/>
		</g>
	</g>
	<polyline class="st6" points="103.6,72.5 101.8,82.2 101.2,81.5 100.2,81.9 101.6,74.8 102.1,73 103.2,72.1 	"/>
	<polyline class="st1" points="50.4,25.4 51,21.4 50.6,21.3 49.9,26 	"/>
</g>
</svg>
