<?xml version="1.0" encoding="utf-8"?>
<!-- Generator: Adobe Illustrator 27.1.1, SVG Export Plug-In . SVG Version: 6.00 Build 0)  -->
<svg version="1.0" id="Layer_2_00000111159080616080660610000007135325453024812425_"
	 xmlns="http://www.w3.org/2000/svg" xmlns:xlink="http://www.w3.org/1999/xlink" x="0px" y="0px" viewBox="0 0 129.1 99.1"
	 style="enable-background:new 0 0 129.1 99.1;" xml:space="preserve">
<style type="text/css">
	.st0{fill:#A1A1A1;}
	.st1{fill:#FFFFFF;}
	.st2{fill:#D6D8D8;}
	.st3{fill:#B9B9B8;}
	.st4{fill:#898888;}
	.st5{fill:#EAEAEA;}
	.st6{fill:#CFCFCF;}
	.st7{fill:#F4F4F4;stroke:#B9B9B8;stroke-miterlimit:10;}
	.st8{fill:#666666;}
	.st9{fill:none;stroke:#8E8E8E;stroke-linecap:round;stroke-linejoin:round;}
	.st10{fill:none;stroke:#8E8E8E;stroke-width:2;stroke-linecap:round;stroke-linejoin:round;}
	.st11{opacity:0.31;fill:#405151;enable-background:new    ;}
</style>
<g id="pneus">
	<g>
		<path class="st0" d="M14.5,5c6.4-1.1,12.9-2.3,19.3-3.4V3c-5.5,1-11,2-16.4,3l-2.9,4.3c-0.9-0.4-1.9-0.7-2.8-1.1
			C12.6,7.8,13.5,6.4,14.5,5L14.5,5z"/>
		<path class="st1" d="M41.5,3.1c-2.9-1-5.8-1.9-8.8-2.9C31.2,0.1,29.6,0.1,28,0c-0.2,0.4-0.5,0.8-0.7,1.1c1-0.2,2-0.3,3-0.5
			c1.1,0.3,2.2,0.6,3.4,1l-1.2,1.6c-2.5,0.5-4.9,0.9-7.4,1.4c-0.7,1.1-1.4,2.2-2.1,3.3c-1.9,0.7-3.7,1.4-5.6,2.1
			c-0.1-0.1-5.2-2-5.3-2.1c0,0-2.6-1-2.6-1c-3,4.3-5.9,8.6-8.8,12.8c0.3,13.4,0.6,26.7,0.9,40c1.1,1,2.2,1.9,3.2,2.9
			c2.6,1.7,5.2,3.3,7.8,5c6-5.1,12.1-10.2,18.1-15.3c0.7-1.3,1.3-2.5,2-3.8C35.6,33.3,38.6,18.2,41.5,3.1L41.5,3.1z"/>
		<path class="st2" d="M44.1,5.4l-2.6-2.3c-1.6-0.1-3.3-0.2-4.9-0.2c-1.8,2.7-3.5,5.4-5.3,8.1c-3.4,0.7-6.7,1.4-10.1,2.2l-4-3.2
			c-3,4.4-6.1,8.9-9.1,13.3c0.3,13.8,0.6,27.6,1,41.4l3.3,3c8.9-3.6,17.9-7.1,26.8-10.7c0.7-1.3,1.4-2.6,2-4
			C42.3,37.1,43.2,21.3,44.1,5.4L44.1,5.4z"/>
		<path class="st3" d="M11.3,10.3c-0.1,0-0.1-0.1-0.2-0.1L6.4,7l-5.6,8.1l4.9,3.3c0,0,0,0,0,0c0,0,0,0,0,0l0,0l0,0
			c1.4,0.9,3.8-0.1,5.3-2.4C12.6,13.9,12.7,11.3,11.3,10.3L11.3,10.3z"/>
		<ellipse transform="matrix(0.5666 -0.824 0.824 0.5666 -7.5378 7.943)" class="st1" cx="3.8" cy="11.1" rx="4.9" ry="3.1"/>
		<g>
			<path class="st4" d="M40.5,17.8v-3.2c-0.5,0.7-1,1.3-1.4,2v0.6c-2.1,3.1-4.2,6.2-6.3,9.2c-0.1,4.7-0.2,9.5-0.4,14.2
				c1.7,1.6,3.4,3.1,5.1,4.7c0,0.8,0,1.5,0.1,2.3c0.5,0.4,1,0.9,1.5,1.3c0-1-0.1-2-0.1-3c-1.7-1.6-3.4-3.1-5.1-4.7L34.2,27
				C36.3,24,38.3,20.9,40.5,17.8L40.5,17.8z"/>
			<path class="st5" d="M32.4,40.6c0.1-4.7,0.2-9.5,0.4-14.2c2.1-3.1,4.2-6.2,6.3-9.2v-0.6c-2.1,2.9-4.2,5.8-6.4,8.7
				c-4.5,1-9.1,2.1-13.6,3.1c-0.3-0.3-0.6-0.5-0.8-0.8c-0.2,0-0.4,0.1-0.6,0.1c-1.8-1.6-3.5-3.2-5.3-4.9c-0.4,0.6-0.8,1.3-1.2,1.9
				c2.3,2,4.7,4,7,6c0.1,5,0.1,10.1,0.2,15.1c-1.3,1.9-2.7,3.8-4,5.8c1.3-1.8,2.7-3.7,4-5.5c4.4-1.1,8.9-2.3,13.3-3.4
				c0.3,0.3,0.6,0.5,0.9,0.8c0.2,0,0.4-0.1,0.6-0.2c1.5,1.4,3.1,2.8,4.7,4.2c0-0.8,0-1.5-0.1-2.3C35.8,43.7,34.1,42.2,32.4,40.6
				L32.4,40.6z"/>
			<path class="st4" d="M19,28.4c-2.1-2-4.3-4-6.5-5.9c-0.1,0.1-0.2,0.3-0.3,0.4c1.8,1.6,3.5,3.2,5.3,4.9C17.6,27.8,19,28.4,19,28.4
				z"/>
			<path class="st4" d="M18.2,46.2c-1.3,1.8-2.7,3.7-4,5.5c-0.8,1.2-1.6,2.3-2.4,3.5v2.4c2.6-3.6,5.3-7.2,7.9-10.8
				c4.4-1.1,8.9-2.3,13.3-3.4c-0.2-0.1-0.4-0.2-0.6-0.3c-0.3-0.1-0.5-0.2-0.8-0.3C27,43.9,22.6,45,18.2,46.2L18.2,46.2z"/>
		</g>
		<path class="st1" d="M14.5,3.5c4.2-0.8,8.4-1.6,12.8-2.3c1-0.2,2-0.3,3-0.5c1.1,0.3,2.2,0.6,3.4,1c-5.4,1-10.8,2-16.2,2.9
			l-2.9,4.3c-0.9-0.4-1.9-0.7-2.8-1.1C12.6,6.3,13.5,4.9,14.5,3.5L14.5,3.5z"/>
	</g>
	<g>
		<path class="st6" d="M126.5,52.3c-0.8-1.6-2.1-3.9-4.2-6.3c-28.9-0.3-57.8-0.6-86.7-0.9c-1.5,1.5-3.2,3.5-4.6,6.2
			c-4.8,8.7-5.1,20-0.4,28.9c1.4,2.7,3,4.6,4.1,5.8l0,0c5.6,7.7,23.1,13.3,43.9,13.3c22,0,40.3-6.3,44.7-14.6l0,0
			c0.8-1.3,2-3.4,3-6.1C127.3,75.5,131.9,63.6,126.5,52.3L126.5,52.3z"/>
		<ellipse class="st7" cx="78.5" cy="51.4" rx="45.8" ry="18.5"/>
		<g>
			<path class="st8" d="M99.3,57.1c3.9-1.9,6.2-4.3,6.2-7c0-6-12.1-10.9-27-10.9s-27,4.9-27,10.9c0,2.7,2.3,5.1,6.2,7
				c5-2.4,12.5-4,20.8-4S94.4,54.7,99.3,57.1z"/>
		</g>
		<g>
			<path class="st9" d="M80.4,73.9c-2.1,4-4.2,7.9-6.4,11.9c2.3,3.2,4.7,6.4,7,9.6"/>
			<path class="st10" d="M91.1,73.9c-2,4-4,7.9-6,11.9c2.2,3.2,4.4,6.4,6.6,9.6"/>
			<path class="st9" d="M100.5,72.3c-1.8,3.9-3.6,7.8-5.4,11.7c2,3.3,4,6.5,6,9.8"/>
			<path class="st10" d="M108.6,69.7c-1.5,4.1-2.9,8.1-4.4,12.2c1.7,3.1,3.3,6.2,5,9.3"/>
			<path class="st9" d="M116.6,65.5c-1.2,4.4-2.5,8.9-3.8,13.3c1.4,2.7,2.9,5.4,4.3,8.1"/>
			<path class="st10" d="M122.6,61.4c-1,4.4-2,8.7-3.1,13.1l3.7,8.3"/>
			<path class="st9" d="M126.5,56.7c-0.5,4.3-1,8.6-1.4,12.9c0.5,2.2,1.1,4.5,1.6,6.7"/>
			<path class="st10" d="M69.3,73.8c-1.9,4-3.9,7.9-5.8,11.9c2.1,3.2,4.3,6.4,6.4,9.6"/>
			<path class="st9" d="M59.7,72.3c-2.2,3.8-4.3,7.6-6.4,11.4c1.8,3.3,3.5,6.7,5.3,10"/>
			<path class="st10" d="M51,69.8c-2,3.4-4,6.7-6,10.1c1.4,3.8,2.8,7.5,4.2,11.3"/>
			<path class="st9" d="M41.7,88.7c-1.4-4.2-2.9-8.5-4.3-12.7c2-2.9,4.1-5.8,6.1-8.7"/>
			<path class="st10" d="M36.5,62.3c-1.7,3-3.5,6.1-5.2,9.1l3.4,12.3"/>
			<path class="st9" d="M29.8,76.6c-0.6-3.2-1.1-6.5-1.7-9.8c1.3-2.9,2.7-5.8,4-8.8"/>
		</g>
	</g>
	<path class="st11" d="M42.1,39.7l12,5.7c0,0-2.4,2.5-2.6,4.7c-0.6,4.9,11.4,9.2,11.4,9.2l-2.5,9.3c0,0-7.4-0.1-17.7,3.4
		c-3.4,1.2-4.8,3.4-7.7,5.3c-2.8,1.7-3.5,4.3-4.5,2.8c-4.2-6.1-5.6-25.9,5.2-35.5C40,40.8,42.1,39.7,42.1,39.7"/>
</g>
</svg>
