<svg width="173" height="170" viewBox="0 0 173 170" fill="none" xmlns="http://www.w3.org/2000/svg">
<path d="M0.0411089 112.086C0.596918 91.7931 9.10057 73.958 17.5211 56.0136C19.1885 52.4903 19.2443 47.3555 18.0493 43.5864C15.0479 34.0543 20.4948 28.1821 26.3586 22.6649C40.7819 9.03595 59.5406 5.07564 78.2436 1.47038C98.475 -2.43532 118.039 1.19725 132.379 15.2905C144.607 27.3081 154.139 42.412 162.754 57.3519C167.979 66.3924 169.868 77.5359 172.092 87.9693C175.982 106.16 166.784 120.581 155.723 133.527C128.906 164.963 91.9718 170.535 53.3152 169.962C38.225 169.743 25.0247 162.833 14.2142 152.7C4.68205 143.796 -0.292404 127.709 0.0132913 112.114L0.0411089 112.086Z" fill="#FAEBE6"/>
<path d="M66.234 59.8034V36.5075L85.3773 24.1923L104.521 36.5075V41.0066C104.521 41.5404 104.979 41.9979 105.514 41.9979C106.049 41.9979 106.508 41.5404 106.508 41.0066V35.9737C106.508 35.6306 106.355 35.3256 106.049 35.1349L85.9123 22.1716C85.5684 21.9428 85.1481 21.9428 84.8424 22.1716L64.7056 35.1349C64.4381 35.3256 64.2471 35.6306 64.2471 35.9737V59.8034C64.2471 60.3372 64.7056 60.7947 65.2405 60.7947C65.7755 60.7947 66.234 60.3372 66.234 59.8034Z" fill="#FF5738"/>
<path d="M114.187 56.5626C113.041 57.6683 112.124 57.9352 111.359 57.9352C110.672 57.9352 110.06 57.7064 109.525 57.3633C109.258 57.2108 109.029 57.0201 108.838 56.8676C108.647 56.7151 108.494 56.5626 108.341 56.4482C107.959 56.1813 107.462 56.1813 107.118 56.4482C106.278 57.0964 105.246 57.4777 104.176 57.4777C102.839 57.4777 101.654 56.9439 100.775 56.067C99.8964 55.19 99.3615 54.0081 99.3615 52.6736C99.3615 50.9197 100.317 49.3184 101.807 48.5177C102.189 48.2889 102.38 47.8695 102.304 47.4501C102.227 47.1451 102.227 46.8401 102.227 46.5351C102.227 44.3237 103.717 42.4554 105.781 41.9216C106.201 41.8073 106.507 41.426 106.507 41.0066C106.621 38.452 108.723 36.4313 111.283 36.4313C113.843 36.4313 115.983 38.4902 116.059 41.0066C116.059 41.426 116.365 41.8073 116.785 41.9216C118.849 42.4554 120.339 44.3237 120.339 46.5351C120.339 46.8401 120.301 47.1451 120.262 47.4501C120.186 47.8695 120.377 48.2889 120.759 48.5177C122.249 49.3565 123.205 50.9197 123.205 52.6736C123.205 54.0081 122.67 55.19 121.791 56.067C120.912 56.9439 119.728 57.4777 118.39 57.4777C117.282 57.4777 116.289 57.1345 115.448 56.4482C115.028 56.1051 114.378 56.1813 114.034 56.6007C113.69 57.0201 113.767 57.6683 114.187 58.0115C115.372 58.9265 116.824 59.4603 118.39 59.4603C122.135 59.4603 125.192 56.4101 125.192 52.6736C125.192 50.1953 123.854 47.9458 121.714 46.7638L121.218 47.6408L122.211 47.8314C122.288 47.412 122.326 46.9545 122.326 46.5351C122.326 43.4086 120.186 40.7397 117.282 39.9771L117.015 40.9303L118.008 40.8922C117.855 37.2701 114.875 34.4105 111.207 34.4105C107.538 34.4105 104.558 37.3082 104.405 40.8922L105.399 40.9303L105.131 39.9771C102.189 40.7397 100.087 43.4086 100.087 46.5351C100.087 46.9926 100.126 47.412 100.202 47.8314L101.196 47.6408L100.699 46.7638C98.5973 47.9458 97.2217 50.1953 97.2217 52.6736C97.2217 56.4101 100.278 59.4603 104.023 59.4603C105.552 59.4603 107.042 58.9646 108.226 58.0115L107.615 57.2108L107.004 58.0115C107.08 58.0496 107.271 58.2402 107.5 58.4309C108.226 59.0028 109.487 59.8797 111.245 59.9178C112.544 59.9178 114.034 59.3459 115.448 57.9733C115.83 57.5921 115.868 56.9439 115.486 56.5626C115.219 56.2195 114.607 56.1813 114.187 56.5626Z" fill="#FF5738"/>
<path d="M115.524 48.2126C116.174 48.2126 116.747 47.6789 116.747 46.9926V46.6875C116.747 46.0394 116.212 45.4675 115.524 45.4675C114.875 45.4675 114.302 46.0013 114.302 46.6875V46.9926C114.302 47.6789 114.837 48.2126 115.524 48.2126Z" fill="#FF5738"/>
<path d="M104.176 51.4535C103.526 51.4535 102.953 51.9873 102.953 52.6736V52.9786C102.953 53.6268 103.488 54.1987 104.176 54.1987C104.864 54.1987 105.399 53.6649 105.399 52.9786V52.6736C105.399 51.9873 104.864 51.4535 104.176 51.4535Z" fill="#FF5738"/>
<path d="M110.328 58.9646V70.746C110.328 71.2798 110.787 71.7374 111.322 71.7374C111.857 71.7374 112.315 71.2798 112.315 70.746V58.9646C112.315 58.4309 111.857 57.9733 111.322 57.9733C110.748 57.9733 110.328 58.3927 110.328 58.9646Z" fill="#FF5738"/>
<path d="M93.898 43.828V42.8367H78.6903V36.4313H92.9045V43.7899H93.898V42.7986V43.828H94.8914V35.44C94.8914 35.1731 94.7768 34.9062 94.5858 34.7155C94.3947 34.5249 94.1273 34.4105 93.8598 34.4105H77.6586C77.3912 34.4105 77.1237 34.5249 76.9326 34.7155C76.7416 34.9062 76.627 35.1731 76.627 35.44V43.828C76.627 44.0949 76.7416 44.3618 76.9326 44.5524C77.1237 44.7431 77.3912 44.8575 77.6586 44.8575H93.8598C94.1273 44.8575 94.3947 44.7431 94.5858 44.5524C94.7768 44.3618 94.8914 44.0949 94.8914 43.828H93.898Z" fill="#FF5738"/>
<path d="M78.6903 70.2885V53.9318H92.9045V70.2885C92.9045 70.8223 93.363 71.2798 93.898 71.2798C94.4329 71.2798 94.8914 70.8223 94.8914 70.2885V52.9405C94.8914 52.6736 94.7768 52.4067 94.5858 52.216C94.3947 52.0254 94.1273 51.911 93.8598 51.911H77.6586C77.3912 51.911 77.1237 52.0254 76.9326 52.216C76.7416 52.4067 76.627 52.6736 76.627 52.9405V70.2885C76.627 70.8223 77.0855 71.2798 77.6204 71.2798C78.2318 71.2798 78.6903 70.8223 78.6903 70.2885Z" fill="#FF5738"/>
<path d="M119.728 69.7547H54.5032C53.9683 69.7547 53.5098 70.2122 53.5098 70.746C53.5098 71.2798 53.9683 71.7373 54.5032 71.7373H119.728C120.263 71.7373 120.722 71.2798 120.722 70.746C120.722 70.2122 120.263 69.7547 119.728 69.7547Z" fill="#FF5738"/>
<path d="M71.1242 58.8883L68.4113 57.5157C68.1438 57.3632 67.8 57.3632 67.4943 57.5157L64.7813 58.8883C64.2846 59.1552 64.0936 59.7271 64.3228 60.2228C64.5903 60.7185 65.1634 60.9091 65.6602 60.6803L67.9146 59.5365L70.169 60.6803C70.6657 60.9472 71.2771 60.7185 71.5063 60.2228C71.812 59.7653 71.621 59.1552 71.1242 58.8883Z" fill="#FF5738"/>
<path d="M69.6729 59.8035V67.734C69.6729 68.2678 70.1314 68.7253 70.6663 68.7253C71.2013 68.7253 71.6598 68.2678 71.6598 67.734V59.8035C71.6598 59.2697 71.2013 58.8121 70.6663 58.8121C70.1314 58.8121 69.6729 59.2315 69.6729 59.8035Z" fill="#FF5738"/>
<path d="M65.7365 58.8883L63.0236 57.5157C62.7561 57.3632 62.4123 57.3632 62.1066 57.5157L59.3936 58.8883C58.8969 59.1552 58.7059 59.7271 58.9351 60.2228C59.2026 60.7185 59.7757 60.9091 60.2725 60.6803L62.5269 59.5365L64.7813 60.6803C65.278 60.9472 65.8894 60.7185 66.1187 60.2228C66.4243 59.7653 66.2333 59.1552 65.7365 58.8883Z" fill="#FF5738"/>
<path d="M64.2852 59.8035V67.734C64.2852 68.2678 64.7437 68.7253 65.2786 68.7253C65.8136 68.7253 66.2721 68.2678 66.2721 67.734V59.8035C66.2721 59.2697 65.8136 58.8121 65.2786 58.8121C64.7437 58.8121 64.2852 59.2315 64.2852 59.8035Z" fill="#FF5738"/>
<path d="M60.3495 58.8883L57.6366 57.5157C57.3691 57.3632 57.0252 57.3632 56.7196 57.5157L54.0066 58.8883C53.6627 59.0408 53.4717 59.4221 53.4717 59.7653V70.746C53.4717 71.2798 53.9302 71.7373 54.4651 71.7373C55.0001 71.7373 55.4586 71.2798 55.4586 70.746V60.4134L57.1399 59.5746L59.3943 60.7185C59.891 60.9854 60.5024 60.7566 60.7316 60.2609C61.0373 59.7653 60.8463 59.1552 60.3495 58.8883Z" fill="#FF5738"/>
<path d="M58.8975 59.8035V67.734C58.8975 68.2678 59.356 68.7253 59.8909 68.7253C60.4259 68.7253 60.8844 68.2678 60.8844 67.734V59.8035C60.8844 59.2697 60.4259 58.8121 59.8909 58.8121C59.356 58.8121 58.8975 59.2315 58.8975 59.8035Z" fill="#FF5738"/>
<path d="M88.2423 81.5361C88.2423 81.5361 88.2423 81.6886 88.2805 81.9555C88.3188 82.7562 88.3952 84.7388 88.3952 87.3696C88.3952 91.4493 88.2041 97.0921 87.3253 102.354C86.905 104.985 86.2936 107.539 85.4912 109.712C84.6888 111.924 83.6571 113.754 82.4344 115.012C79.9507 117.567 77.9256 119.168 75.5183 120.807C73.1111 122.447 70.3599 124.086 66.4625 126.641C66.004 126.946 65.8893 127.556 66.195 128.014C66.5007 128.471 67.1121 128.585 67.5706 128.28C71.4298 125.726 74.1428 124.086 76.6264 122.409C79.0719 120.731 81.2499 119.015 83.8482 116.385C85.3384 114.821 86.4847 112.763 87.3635 110.399C89.9618 103.345 90.4203 93.5844 90.4203 87.3696C90.4203 83.8238 90.2675 81.4217 90.2675 81.3836C90.2293 80.8498 89.7707 80.4304 89.1976 80.4685C88.6244 80.5448 88.2041 81.0023 88.2423 81.5361Z" fill="#FF5738"/>
<path d="M69.7486 71.0511C69.7486 71.0511 69.825 71.2417 69.9396 71.623C70.7802 74.2919 74.1809 85.7301 74.1809 94.9951C74.1809 97.1303 73.9899 99.1129 73.6078 100.867C73.1875 102.621 72.5761 104.069 71.6973 105.175C67.2267 110.704 64.1699 115.47 60.196 120.121C59.8521 120.541 59.8903 121.189 60.3106 121.532C60.7309 121.875 61.3805 121.837 61.7244 121.417C65.8129 116.652 68.8697 111.847 73.2639 106.433C74.4102 105.023 75.1362 103.269 75.5947 101.324C76.0532 99.3798 76.2443 97.2447 76.2443 94.9951C76.2443 89.4285 75.098 83.3281 73.9899 78.5622C72.8818 73.7962 71.7355 70.441 71.7355 70.4029C71.5444 69.8691 71.0095 69.6022 70.4746 69.7547C69.8632 69.9835 69.5575 70.5554 69.7486 71.0511Z" fill="#FF5738"/>
<path d="M61.6101 119.511L60.6931 119.931C60.7695 120.045 62.68 123.934 68.1441 126.832L68.6026 125.955L67.9148 125.23L61.7629 130.949C61.3808 131.293 61.3426 131.903 61.6865 132.322C61.7629 132.398 63.8263 134.953 63.7881 138.651C63.7881 140.329 63.3678 142.311 62.145 144.447L63.0239 144.942L63.7499 144.256L51.3698 131.864L62.3361 120.197L61.6101 119.511L60.8841 118.825L49.2682 131.216C48.8861 131.598 48.9243 132.208 49.3064 132.589L62.3743 145.628C62.6036 145.857 62.9092 145.972 63.2149 145.895C63.5206 145.857 63.7881 145.667 63.9409 145.4C65.3547 142.96 65.8896 140.634 65.8896 138.613C65.8896 134.038 63.3678 131.102 63.3296 130.987L62.5654 131.636L63.2531 132.36L69.405 126.641C69.6343 126.412 69.7489 126.107 69.7107 125.764C69.6725 125.459 69.4814 125.154 69.1757 125.001C66.6921 123.705 65.049 122.18 63.9791 120.96C63.4442 120.35 63.1003 119.854 62.871 119.511C62.7564 119.32 62.68 119.206 62.6418 119.092L62.6036 118.977V118.939C62.4507 118.634 62.1833 118.444 61.8394 118.405C61.5337 118.367 61.1898 118.482 60.9605 118.71L61.6101 119.511Z" fill="#FF5738"/>
<path d="M99.3232 127.48L98.9029 128.395C99.0175 128.433 101.348 129.577 105.246 129.577C106.392 129.577 107.653 129.462 109.029 129.234L108.838 128.242L107.844 128.09L106.545 136.363C106.469 136.897 106.812 137.393 107.309 137.507L107.386 137.164L107.347 137.469C107.386 137.469 109.105 137.85 110.939 139.223C112.735 140.596 114.646 142.807 115.219 146.734L116.212 146.582L116.327 145.59L98.9411 143.493L100.355 127.556L99.3232 127.48L98.3297 127.403L96.8395 144.294C96.8013 144.828 97.1834 145.323 97.7184 145.362L116.059 147.573C116.365 147.611 116.671 147.497 116.9 147.268C117.129 147.039 117.206 146.734 117.167 146.429C116.518 141.892 114.187 139.07 112.009 137.507C109.831 135.944 107.844 135.525 107.768 135.486L107.577 136.478L108.57 136.63L109.869 128.357C109.907 128.052 109.793 127.708 109.564 127.48C109.334 127.251 108.99 127.137 108.685 127.213C107.424 127.442 106.277 127.518 105.246 127.518C103.488 127.518 102.113 127.251 101.157 127.022C100.699 126.908 100.317 126.755 100.087 126.679L99.8199 126.565L99.7817 126.527L99.6671 126.793L99.8199 126.527L99.7053 126.793L99.8582 126.527C99.5525 126.374 99.2086 126.412 98.9411 126.565C98.6736 126.717 98.4826 127.022 98.4444 127.327L99.3232 127.48Z" fill="#FF5738"/>
<path d="M102.075 71.1273C102.075 71.1273 102.228 71.4705 102.457 72.0805C103.298 74.2156 105.438 79.7822 107.348 86.2639C109.259 92.7075 110.94 100.066 110.94 105.671C110.94 106.472 110.902 107.234 110.825 107.958C110.176 114.326 109.45 119.359 108.877 122.79C108.609 124.506 108.342 125.802 108.151 126.679C108.074 127.137 107.998 127.442 107.96 127.67C107.921 127.899 107.883 128.014 107.883 128.014C107.768 128.547 108.112 129.081 108.647 129.196C109.182 129.31 109.717 128.967 109.832 128.433C109.832 128.395 111.513 120.998 112.812 108.149C112.889 107.348 112.927 106.51 112.927 105.633C112.927 98.8079 110.672 90.0385 108.418 82.9087C106.164 75.7789 103.947 70.3648 103.947 70.3266C103.756 69.831 103.145 69.5641 102.648 69.7928C102.075 70.0216 101.846 70.6316 102.075 71.1273Z" fill="#FF5738"/>
<path d="M88.4333 82.0699L88.5479 82.2224C89.0829 83.0231 91.6048 86.8359 93.9738 91.4874C95.1583 93.8132 96.3046 96.3677 97.1452 98.846C97.9859 101.324 98.559 103.764 98.559 105.785C98.559 106.853 98.559 107.92 98.559 109.026C98.559 113.411 98.4826 118.024 98.4444 121.532C98.368 125.04 98.3298 127.442 98.3298 127.442C98.3298 127.975 98.7501 128.433 99.285 128.471C99.82 128.471 100.278 128.052 100.317 127.518C100.317 127.518 100.584 117.834 100.584 109.064C100.584 107.959 100.584 106.853 100.584 105.785C100.546 103.231 99.8582 100.486 98.8647 97.7022C95.8843 89.3904 90.0763 81.0024 90.0763 80.9642C89.7707 80.5067 89.1593 80.3923 88.7008 80.6973C88.2423 80.9642 88.1276 81.6124 88.4333 82.0699Z" fill="#FF5738"/>
</svg>
