<svg width="171" height="171" viewBox="0 0 171 171" fill="none" xmlns="http://www.w3.org/2000/svg">
<path d="M88.7073 171C71.4901 165.837 50.6229 162.838 32.4414 153.5C-6.98612 133.305 -9.3965 80.9568 19.3563 48.1206C32.8202 32.7465 49.9686 20.8647 66.6694 9.55237C101.655 -14.1352 144.457 8.7173 158.231 50.778C163.052 65.5068 168.596 80.5013 170.214 95.8375C174.071 132.546 163.947 144.769 135.125 159.194C122.109 165.724 106.751 166.635 88.7073 171Z" fill="#FAEBE6"/>
<path d="M74.3121 89.0406L72.5544 72.1883L85.3166 61.932L99.9511 69.3287L100.295 72.4552C100.371 72.989 100.83 73.4084 101.403 73.3321C101.938 73.2559 102.358 72.7983 102.282 72.2264L101.9 68.5662C101.862 68.223 101.671 67.918 101.365 67.7655L85.6987 59.835C85.3548 59.6443 84.9345 59.7206 84.6288 59.9494L70.9114 70.9301C70.6439 71.1588 70.491 71.4639 70.5292 71.807L72.3633 89.1932C72.4398 89.7269 72.8983 90.1463 73.4714 90.0701C73.9682 90.0701 74.3503 89.5744 74.3121 89.0406Z" fill="#FF5738"/>
<path d="M108.586 82.9021C108.166 83.3978 107.822 83.6647 107.478 83.8172C107.172 83.9697 106.866 84.046 106.599 84.046C106.217 84.046 105.835 83.9316 105.491 83.741C105.338 83.6647 105.185 83.5503 105.032 83.4741C104.88 83.3978 104.803 83.3216 104.65 83.2453C104.268 83.0165 103.771 83.0547 103.428 83.3597C102.893 83.8553 102.243 84.1604 101.517 84.2366H101.173C99.5301 84.2366 98.1163 82.9784 97.9253 81.3389V80.9958C97.9253 79.9282 98.422 78.975 99.3008 78.365C99.6447 78.0981 99.7976 77.6787 99.683 77.2593C99.6065 77.0686 99.5683 76.8399 99.5683 76.6492V76.3061C99.5683 74.9335 100.409 73.7515 101.67 73.294C102.09 73.1415 102.358 72.7221 102.319 72.3027V72.1121C102.319 70.4726 103.58 69.0619 105.223 68.8712H105.567C107.172 68.8712 108.548 70.0532 108.777 71.6545C108.853 72.0739 109.197 72.4171 109.618 72.4933C111.031 72.7221 112.178 73.8659 112.331 75.3529V75.696V76.0011C112.292 76.4205 112.522 76.8399 112.942 76.9924C114.012 77.4499 114.738 78.4412 114.891 79.6232V79.9663C114.891 81.6058 113.63 83.0165 111.987 83.2072H111.643C111.031 83.2072 110.42 83.0165 109.923 82.7115C109.465 82.4065 108.853 82.559 108.548 83.0165C108.242 83.4741 108.395 84.0841 108.853 84.3891C109.694 84.9229 110.649 85.1898 111.643 85.1898C111.834 85.1898 112.025 85.1898 112.178 85.1517C114.891 84.8848 116.878 82.5971 116.878 79.9282C116.878 79.7376 116.878 79.5469 116.839 79.3944C116.648 77.488 115.426 75.8486 113.706 75.1241L113.324 76.0392L114.317 76.1155C114.317 75.9629 114.356 75.8104 114.356 75.6579C114.356 75.4673 114.356 75.2766 114.317 75.1241C114.05 72.7221 112.216 70.8539 109.923 70.4726L109.77 71.4639L110.764 71.3114C110.382 68.7187 108.166 66.8505 105.567 66.8505C105.376 66.8505 105.185 66.8505 105.032 66.8886C102.319 67.1555 100.333 69.4431 100.333 72.1121V72.4552L101.326 72.379L100.982 71.4639C98.957 72.2264 97.5814 74.171 97.5814 76.3442C97.5814 76.5349 97.5814 76.7255 97.6196 76.878C97.6578 77.2211 97.7342 77.5643 97.8107 77.8693L98.7659 77.5643L98.1928 76.7636C96.8172 77.7549 95.9766 79.3182 95.9766 81.0339C95.9766 81.2245 95.9766 81.4152 96.0148 81.6058C96.2822 84.3129 98.5749 86.2955 101.25 86.2955C101.441 86.2955 101.632 86.2955 101.785 86.2574C102.969 86.143 104.039 85.6092 104.88 84.8085L104.192 84.0841L103.657 84.9229C103.695 84.961 103.848 85.0373 104.001 85.1517C104.536 85.4948 105.453 86.0286 106.675 86.0286C107.249 86.0286 107.86 85.9142 108.433 85.6092C109.044 85.3042 109.618 84.8467 110.153 84.1985C110.496 83.7791 110.458 83.1309 110.038 82.7878C109.579 82.4065 108.93 82.4827 108.586 82.9021Z" fill="#FF5738"/>
<path d="M109.121 76.8399C109.618 76.8018 109.962 76.3442 109.924 75.8867L109.886 75.6579C109.847 75.1623 109.389 74.8191 108.93 74.8573C108.434 74.8954 108.09 75.3529 108.128 75.8104L108.166 76.0392C108.204 76.5349 108.625 76.9161 109.121 76.8399Z" fill="#FF5738"/>
<path d="M101.097 80.0807C100.601 80.1188 100.257 80.5764 100.295 81.0339L100.333 81.2627C100.371 81.7583 100.83 82.1015 101.288 82.0633C101.747 82.0252 102.129 81.5677 102.091 81.1102L102.053 80.8814C102.014 80.3857 101.594 80.0426 101.097 80.0807Z" fill="#FF5738"/>
<path d="M105.874 85.1135L106.791 93.7303C106.867 94.2641 107.326 94.6835 107.899 94.6073C108.434 94.531 108.854 94.0735 108.778 93.5016L107.861 84.8848C107.784 84.351 107.326 83.9316 106.753 84.0078C106.218 84.0841 105.836 84.5797 105.874 85.1135Z" fill="#FF5738"/>
<path d="M93.0353 75.2766L92.9207 74.2853L82.069 75.4291L81.6486 71.3113L91.5069 70.2819L92.0418 75.391L93.0353 75.2766L94.0288 75.1622L93.3792 69.0618C93.3028 68.528 92.8442 68.1086 92.2711 68.1849L80.4259 69.405C79.891 69.4812 79.4707 69.9388 79.5471 70.5107L80.1967 76.6111C80.2349 76.878 80.3495 77.1067 80.5788 77.2974C80.7698 77.4499 81.0373 77.5261 81.3048 77.5261L93.1499 76.306C93.4174 76.2679 93.6467 76.1535 93.8377 75.9248C93.9906 75.7341 94.067 75.4672 94.067 75.2003L93.0353 75.2766Z" fill="#FF5738"/>
<path d="M84.2082 95.713L82.9855 84.046L92.8437 83.0165L94.0665 94.6835C94.1429 95.2173 94.6014 95.6367 95.1745 95.5605C95.7095 95.4842 96.1298 95.0267 96.0534 94.4548L94.716 81.7964C94.6396 81.2626 94.1811 80.8432 93.6079 80.9195L81.7627 82.1396C81.4953 82.1777 81.266 82.2921 81.075 82.5209C80.8839 82.7496 80.8457 82.9784 80.8457 83.2453L82.1831 95.9036C82.2595 96.4374 82.718 96.8568 83.2912 96.7805C83.8643 96.7805 84.2464 96.2849 84.2082 95.713Z" fill="#FF5738"/>
<path d="M113.821 91.9765L66.2492 96.9331C65.7142 97.0093 65.2939 97.4668 65.3703 98.0388C65.4467 98.5725 65.9053 98.9919 66.4784 98.9157L114.05 93.9591C114.585 93.8829 115.005 93.4253 114.929 92.8534C114.853 92.2815 114.356 91.9384 113.821 91.9765Z" fill="#FF5738"/>
<path d="M77.6357 87.7825L75.5723 86.9818C75.2666 86.8674 74.9609 86.9055 74.6935 87.058L72.8212 88.24C72.3626 88.545 72.2098 89.1551 72.5155 89.6126C72.8212 90.0701 73.4325 90.2226 73.8911 89.9176L75.343 89.0025L76.9479 89.6126C77.4828 89.8032 78.056 89.5363 78.247 89.0407C78.4381 88.545 78.1706 87.9731 77.6357 87.7825Z" fill="#FF5738"/>
<path d="M76.2985 88.8119L76.9099 94.6073C76.9863 95.1411 77.4448 95.5605 78.018 95.4842C78.5529 95.4079 78.9732 94.9504 78.8968 94.3785L78.2855 88.5831C78.209 88.0493 77.7505 87.6299 77.1774 87.7062C76.6424 87.7824 76.2603 88.2781 76.2985 88.8119Z" fill="#FF5738"/>
<path d="M73.7001 88.2019L71.6368 87.4012C71.3311 87.2868 71.0254 87.3249 70.7579 87.4774L68.8856 88.6594C68.4271 88.9644 68.2742 89.5745 68.5799 90.032C68.8856 90.4895 69.497 90.642 69.9555 90.337L71.4075 89.4219L73.0123 90.032C73.5473 90.2226 74.1204 89.9557 74.3115 89.4601C74.5025 88.9644 74.2351 88.3925 73.7001 88.2019Z" fill="#FF5738"/>
<path d="M72.363 89.2313L72.9743 95.0267C73.0508 95.5605 73.5093 95.9799 74.0824 95.9036C74.6174 95.8274 75.0377 95.3698 74.9613 94.7979L74.3499 89.0026C74.2735 88.4688 73.815 88.0494 73.2418 88.1256C72.7069 88.2019 72.3248 88.6975 72.363 89.2313Z" fill="#FF5738"/>
<path d="M69.7652 88.6213L67.7018 87.8206C67.3961 87.7062 67.0904 87.7443 66.823 87.8969L64.9507 89.0788C64.645 89.2694 64.4539 89.6507 64.4921 90.032L65.3328 98.0388C65.4092 98.5726 65.8677 98.992 66.4409 98.9157C66.9758 98.8395 67.3961 98.3819 67.3197 97.81L66.5555 90.4133L67.4726 89.8032L69.0774 90.4133C69.6123 90.6039 70.1855 90.337 70.3765 89.8414C70.5676 89.3838 70.3001 88.8119 69.7652 88.6213Z" fill="#FF5738"/>
<path d="M68.4274 89.6507L69.0388 95.4461C69.1152 95.9799 69.5737 96.3993 70.1469 96.323C70.6818 96.2467 71.1022 95.7892 71.0257 95.2173L70.4144 89.4219C70.3379 88.8881 69.8794 88.4687 69.3063 88.545C68.7713 88.6212 68.3892 89.0788 68.4274 89.6507Z" fill="#FF5738"/>
<path d="M91.5447 112.146L52.5702 116.226H52.3028C51.0036 116.226 49.8955 115.234 49.7427 113.938L43.4762 54.2302V53.9634C43.4762 52.667 44.4697 51.5613 45.7688 51.4088L126.469 42.9826H126.736C128.035 42.9826 129.144 43.9739 129.296 45.2703L135.563 104.978V105.245C135.563 106.541 134.569 107.647 133.27 107.799L103.963 110.85C103.428 110.926 103.008 111.383 103.084 111.955C103.161 112.489 103.619 112.908 104.192 112.832L133.5 109.782C135.83 109.515 137.588 107.571 137.588 105.245C137.588 105.092 137.588 104.94 137.55 104.787L131.283 45.0796C131.016 42.7539 129.067 41 126.736 41C126.583 41 126.431 41 126.278 41.0381L45.5778 49.4262C43.2469 49.6931 41.4893 51.6376 41.4893 53.9634C41.4893 54.1159 41.4893 54.2684 41.5275 54.4209L47.7939 114.129C48.0614 116.454 50.0101 118.208 52.341 118.208C52.4938 118.208 52.6467 118.208 52.7995 118.17L91.7357 114.09C92.2707 114.014 92.691 113.557 92.6146 112.985C92.5764 112.489 92.0796 112.108 91.5447 112.146Z" fill="#FF5738"/>
<path d="M90.2836 104.139L58.4163 107.456L53.2961 58.8055L120.661 51.79L125.781 100.441L100.027 103.11C99.4923 103.186 99.072 103.643 99.1484 104.215C99.2248 104.749 99.6834 105.169 100.257 105.092L127.004 102.309C127.539 102.233 127.959 101.775 127.883 101.203L122.533 50.57C122.495 50.3031 122.38 50.0743 122.151 49.8837C121.96 49.7312 121.692 49.6549 121.425 49.6549L52.0734 56.8991C51.5384 56.9754 51.1181 57.4329 51.1945 58.0048L56.5058 108.638C56.544 108.905 56.6586 109.134 56.8879 109.324C57.0789 109.477 57.3464 109.553 57.6139 109.553L90.4747 106.122C91.0096 106.046 91.4299 105.588 91.3535 105.016C91.3153 104.482 90.8186 104.063 90.2836 104.139Z" fill="#FF5738"/>
<path d="M137.894 153.095L132.124 142.038L133.347 130.066V129.951V129.913C133.347 126.863 132.621 123.813 131.207 121.068L131.131 120.953C129.526 117.827 126.813 115.387 123.527 114.09C121.808 113.404 119.935 113.061 118.101 113.061C116.458 113.061 114.853 113.328 113.287 113.862L113.631 114.815L113.325 113.862L106.982 115.959L101.403 105.169C100.219 102.919 97.9262 101.623 95.519 101.623C94.4873 101.623 93.4556 101.852 92.5004 102.347L92.424 102.385C90.1696 103.567 88.8704 105.855 88.8704 108.257C88.8704 109.286 89.0997 110.316 89.5964 111.269L98.4994 128.465L91.6598 128.96C89.6346 129.113 87.8387 130.257 86.8453 132.01C86.3485 132.925 86.0811 133.917 86.0811 134.946C86.0811 135.899 86.3103 136.814 86.7688 137.691L86.8071 137.768C87.6095 139.293 88.985 140.398 90.6663 140.818L107.097 145.012L111.873 154.048C112.14 154.544 112.752 154.734 113.21 154.467C113.707 154.201 113.898 153.591 113.631 153.133L108.663 143.716C108.549 143.449 108.281 143.296 108.014 143.22L91.163 138.95C90.0549 138.683 89.1379 137.92 88.6029 136.929L88.5647 136.853C88.259 136.281 88.1062 135.632 88.1062 135.022C88.1062 134.336 88.259 133.688 88.6029 133.078C89.2525 131.896 90.437 131.133 91.8126 131.057L100.181 130.447C100.525 130.409 100.83 130.218 100.983 129.951C101.136 129.646 101.136 129.303 100.983 128.998L91.3923 110.468C91.0484 109.782 90.8955 109.096 90.8955 108.371C90.8955 106.694 91.8126 105.092 93.3792 104.292L93.4556 104.254C94.1434 103.91 94.8694 103.758 95.5572 103.758C97.2384 103.758 98.8433 104.673 99.6457 106.236L105.606 117.789C105.836 118.208 106.332 118.437 106.829 118.284L113.975 115.921C115.312 115.463 116.726 115.234 118.139 115.234C119.744 115.234 121.311 115.539 122.801 116.111C125.629 117.217 127.959 119.352 129.373 122.021L129.45 122.135C130.711 124.576 131.398 127.321 131.398 130.066V130.104H132.392L131.398 129.99L130.137 142.267C130.099 142.457 130.137 142.648 130.252 142.839L136.175 154.162C136.442 154.658 137.015 154.849 137.512 154.582C137.971 154.201 138.162 153.591 137.894 153.095Z" fill="#FF5738"/>
</svg>
