<svg width="108" height="48" viewBox="0 0 108 48" fill="none" xmlns="http://www.w3.org/2000/svg">
<g clip-path="url(#clip0_124_842)">
<path d="M22.3353 17.5313C22.3353 17.5313 13.6458 20.184 12.8437 28.6064C12.8437 28.6064 2.38293 23.102 0.912406 34.4425C-0.55812 45.7829 14.0803 43.097 14.0803 43.097L24.775 44.755L36.6061 47.1756H45.095L57.2269 46.7446L78.6164 45.7166L87.6735 43.9923L97.9337 43.7934L104.651 42.6328L106.924 40.0132C106.924 40.0132 108.562 31.8229 102.446 30.8613L99.5379 30.7618C99.5379 30.7618 103.281 26.9485 95.7614 22.3062C95.7614 22.3062 90.9821 20.2171 88.0745 22.4388C88.0745 22.4388 87.8072 14.7459 79.6524 14.3148C71.5311 13.8506 29.3203 16.1054 29.3203 16.1054L22.3353 17.5313Z" fill="white"/>
<path d="M71.9655 17.6308C71.9655 17.6308 72.4334 16.9013 73.2355 16.2713C74.0376 15.6081 75.1405 15.0113 76.5776 15.0113H76.6779C76.9453 15.0113 77.1792 15.0113 77.4466 15.0113C77.881 15.0113 78.2821 15.0113 78.6832 15.0113C80.0534 15.0113 81.29 15.0776 82.4597 15.4755C83.6295 15.8734 84.7658 16.6029 85.9021 18.0619C87.4395 20.0183 87.7068 21.1126 87.7068 21.5436C87.7068 21.7426 87.6734 21.8421 87.64 21.8421L87.8405 22.0079L87.7068 21.8089L87.64 21.8421L87.8405 22.0079L87.7068 21.8089L88.1079 22.4058L88.5758 22.9363C88.5758 22.9363 89.8792 21.9084 91.9179 21.9084C93.2881 21.9084 95.026 22.3395 97.0647 23.9311C98.2679 24.8596 99.0031 25.7217 99.4376 26.4844C99.8721 27.247 100.006 27.8771 100.006 28.4076C100.006 29.0376 99.8052 29.5682 99.6381 29.8998C99.5379 30.0656 99.4376 30.2314 99.3708 30.2977L99.3039 30.3972L99.2705 30.4303C99.0366 30.6624 99.0031 31.0272 99.1702 31.2925C99.3374 31.5577 99.6716 31.6904 100.006 31.5909C100.006 31.5909 100.708 31.3919 101.577 31.3919C102.479 31.3919 103.515 31.5909 104.451 32.3536C105.353 33.1162 106.222 34.4426 106.556 36.9627C106.59 37.2943 106.623 37.5927 106.623 37.8912C106.623 39.0517 106.322 39.8807 105.788 40.5439C105.019 41.5387 103.749 42.1687 102.278 42.5666C100.808 42.9314 99.2037 43.0308 97.8668 43.0308C96.6302 43.0308 95.6945 42.9314 95.26 42.9314C95.026 42.9314 94.7253 42.8982 94.391 42.8982C92.3189 42.8982 88.5089 43.1303 83.4958 44.2909C80.8555 44.8878 76.1097 45.3188 71.3974 45.5841C66.685 45.8494 62.0395 45.9489 59.466 45.9489C59.1987 45.9489 58.9647 45.9489 58.7308 45.9489C58.6305 45.9489 58.5303 45.9489 58.43 45.9489C54.4529 45.9489 46.4318 46.612 40.2824 46.612C39.1126 46.612 37.9763 46.5789 36.9737 46.5126C30.6571 46.1478 26.8471 44.3241 23.0371 43.5946C20.0292 43.064 14.7821 42.434 10.9721 42.434C10.0363 42.434 9.20077 42.4671 8.49893 42.5666C8.36525 42.5998 8.23156 42.5998 8.09788 42.5998C6.82788 42.5998 5.08998 41.9366 3.75314 40.6765C2.38288 39.4496 1.41367 37.6922 1.41367 35.57C1.41367 34.8737 1.51393 34.1442 1.74788 33.3815C2.5834 30.6956 3.78656 29.3361 4.92288 28.6066C6.05919 27.8771 7.19551 27.7444 7.89735 27.7444C8.06446 27.7444 8.23156 27.7444 8.33183 27.7776C8.49893 27.7776 8.89998 27.8771 9.33446 28.0097C10.0029 28.2087 10.805 28.5402 11.44 28.8055C11.7408 28.9382 12.0416 29.0376 12.2421 29.1371C12.4426 29.2366 12.5429 29.2697 12.5429 29.2697C12.7434 29.3692 13.0108 29.3361 13.2113 29.2366C13.4118 29.104 13.5455 28.905 13.5455 28.6729C13.5789 28.4739 13.7795 26.3517 15.1163 23.9974C16.4531 21.6431 18.8929 19.0567 23.5384 17.7966C26.1118 17.1003 29.0863 16.835 32.1945 16.835C36.3387 16.835 40.6834 17.2993 44.6271 17.7635C48.5708 18.2277 52.08 18.7251 54.5866 18.7251C54.6868 18.7251 54.7871 18.7251 54.8874 18.7251C55.2884 18.7251 55.5892 18.3935 55.5892 17.9956C55.5892 17.5977 55.255 17.2993 54.8539 17.2993C54.7537 17.2993 54.6868 17.2993 54.5866 17.2993C52.2471 17.2993 48.7379 16.835 44.7942 16.3708C40.8505 15.9066 36.4389 15.4092 32.1945 15.4092C29.0195 15.4092 25.9447 15.6744 23.1708 16.4371C17.9905 17.8298 15.1831 20.8805 13.746 23.5332C12.3089 26.2191 12.1418 28.5071 12.1418 28.5734L12.8437 28.6066L13.1445 27.9765C13.1445 27.9765 12.3089 27.6118 11.3063 27.2139C10.805 27.0149 10.2702 26.816 9.76893 26.6833C9.26762 26.5175 8.83314 26.4181 8.43209 26.3849C8.2984 26.3849 8.1313 26.3517 7.89735 26.3517C7.02841 26.3517 5.5913 26.4844 4.15419 27.4128C2.71709 28.3413 1.27998 30.0324 0.377615 32.9504C0.110247 33.8457 -0.0234375 34.741 -0.0234375 35.57C-0.0234375 38.1233 1.17972 40.2455 2.78393 41.7045C4.38814 43.1635 6.35998 43.9925 8.09788 43.9925C8.2984 43.9925 8.46551 43.9925 8.66604 43.9593C9.30104 43.893 10.1031 43.8598 10.9721 43.8598C14.6484 43.8598 19.8621 44.4567 22.7697 44.9872C26.3124 45.6173 30.3229 47.5405 36.8734 47.9053C37.9095 47.9716 39.0458 48.0047 40.2489 48.0047C46.4987 48.0047 54.5531 47.3416 58.3966 47.3416C58.4968 47.3416 58.5971 47.3416 58.6974 47.3416C58.9313 47.3416 59.1653 47.3416 59.4326 47.3416C62.0395 47.3416 66.7184 47.2421 71.4642 46.9768C76.21 46.7115 80.9558 46.2805 83.7966 45.6173C88.676 44.4899 92.4192 44.2577 94.3576 44.2577C94.6918 44.2577 94.9592 44.2577 95.1597 44.2909C95.5274 44.2909 96.5634 44.3904 97.8334 44.3904C99.705 44.3904 102.111 44.2246 104.183 43.3293C105.219 42.8982 106.155 42.2682 106.857 41.3397C107.559 40.4113 107.96 39.2507 107.96 37.858C107.96 37.4932 107.927 37.1285 107.893 36.7306C107.526 33.9784 106.523 32.2541 105.253 31.2261C104.016 30.1982 102.579 29.9661 101.476 29.9661C100.34 29.9661 99.5045 30.2314 99.471 30.2645L99.705 30.9277L100.24 31.4251C100.24 31.4251 100.541 31.0935 100.808 30.5961C101.075 30.0987 101.343 29.3361 101.343 28.4408C101.343 27.6449 101.142 26.7496 100.607 25.8212C100.073 24.8596 99.2037 23.8979 97.9003 22.87C95.661 21.1126 93.5555 20.5489 91.8845 20.5489C89.2776 20.5489 87.7068 21.8421 87.64 21.9084C87.3392 22.1405 87.3058 22.5716 87.5397 22.87C87.7737 23.1684 88.2081 23.2348 88.5089 23.0358C88.5758 23.0026 88.7429 22.87 88.8766 22.6379C89.0103 22.4058 89.1439 22.041 89.1439 21.61C89.1439 20.6483 88.676 19.322 87.0384 17.2329C85.735 15.575 84.3647 14.6465 82.9276 14.1823C81.4905 13.7181 80.0868 13.6517 78.7166 13.6517C78.3155 13.6517 77.881 13.6517 77.48 13.6517C77.246 13.6517 77.0121 13.6517 76.7447 13.6517H76.611C74.706 13.6517 73.2355 14.4807 72.2663 15.3097C71.2971 16.1055 70.7958 16.9013 70.7958 16.9677C70.5953 17.2993 70.6955 17.7303 71.0297 17.9293C71.3639 18.0951 71.7984 17.9624 71.9655 17.6308Z" fill="white"/>
<path d="M69.8602 13.4859C70.9631 13.5522 77.2797 13.287 76.6781 15.0112C76.2102 15.9729 73.971 15.5086 73.0018 15.6413C71.3976 15.6081 70.161 16.8682 68.6236 17.1334C67.4873 17.4319 66.0502 17.2992 65.4152 16.205C64.8136 15.3428 64.1118 14.547 63.3431 13.8507C62.9754 13.6517 63.3097 13.088 63.6773 13.3201C63.9781 13.6186 64.2789 13.917 64.5797 14.2154C64.6799 13.7512 65.2147 14.0496 65.5154 14.0165C65.7494 13.9833 65.9499 13.9502 66.1504 13.917C67.3536 13.718 68.6236 13.5191 69.8602 13.4859Z" fill="#80C5AB"/>
<path d="M62.9082 13.5853C62.8413 13.6848 62.7411 13.7843 62.6074 13.7843L62.4068 13.6848L62.2397 13.6185C61.2371 13.088 60.1676 12.5242 59.2318 11.9274C57.5274 11.0652 55.7226 10.2363 53.7842 10.0041C53.1826 9.93782 52.5476 9.83835 51.9461 9.80519C51.6118 9.80519 51.2776 9.90466 50.9434 9.93782C50.7429 9.97098 50.5758 9.93782 50.3753 9.90467C50.1747 9.87151 50.0745 9.67255 50.1079 9.50675C50.3418 9.44044 50.5758 9.37412 50.8097 9.3078C50.91 9.27464 50.9768 9.24148 51.0771 9.20832L51.1774 9.17516L51.3111 9.142L51.545 9.10884C51.6787 9.10884 51.8124 9.07568 51.9126 9.07568C52.4474 9.07568 52.9487 9.17516 53.4834 9.24148L53.6505 9.27464C53.7842 9.3078 53.8845 9.3078 54.0182 9.34096C54.1518 9.37412 54.2855 9.40728 54.4192 9.44044C54.6866 9.50675 54.9539 9.57307 55.2213 9.63939L55.2882 9.67255L55.4887 9.73887L55.6558 9.80519H55.6224C56.0568 9.93782 56.4913 10.1036 56.9258 10.2363L57.0261 10.2694L57.1932 10.3689L57.4271 10.5015L57.4939 10.5347C57.6276 10.601 57.7613 10.6673 57.895 10.7336C58.0621 10.8331 58.2292 10.8994 58.3963 10.9989C58.53 11.0652 58.6303 11.1316 58.764 11.1979L58.9979 11.3305C59.1316 11.3968 59.2653 11.4632 59.3655 11.5295L59.5661 11.6289L59.6663 11.6621C59.8 11.7284 59.9003 11.7616 60.0339 11.8279L60.2679 11.9274L60.3682 11.9605L60.5018 11.9937L60.7358 12.0932L60.8026 12.1263H60.8361L60.8695 12.1595H60.9029V12.1927H60.9363C61.1703 12.3253 61.4042 12.4579 61.6382 12.5574C61.9724 12.7232 62.34 12.9222 62.6742 13.1211C62.8079 13.1874 62.8747 13.3201 62.8413 13.4527L62.8079 13.5522L62.9082 13.5853Z" fill="#2B4294"/>
<path d="M63.2097 13.718C63.1429 13.8507 63.0426 13.8838 62.9089 13.8838C62.8087 13.8507 62.7084 13.7843 62.6081 13.7512L62.4076 13.6517L62.3742 13.6185L62.3073 13.5854C61.5052 13.1543 60.77 12.7564 59.9679 12.3585C58.1297 11.43 56.2247 10.6342 54.2529 10.1368C53.785 10.0373 53.3171 9.93787 52.8492 9.87155C52.3479 9.80523 51.88 9.73891 51.4121 9.80523C50.7102 9.97103 50.5431 9.53996 50.7102 9.30784L50.8105 9.27468C50.9108 9.24152 51.0444 9.20836 51.1447 9.17521C51.4455 9.17521 51.7129 9.10889 51.9802 9.10889C52.7155 9.17521 53.4173 9.27468 54.1526 9.44048C56.4587 9.97103 58.6644 10.9326 60.77 12.0269C61.3381 12.3585 61.9397 12.6569 62.5079 12.9554C62.6081 13.0217 62.7084 13.088 62.8086 13.1543C63.0092 13.2538 63.2097 13.3533 63.2097 13.5522V13.718Z" fill="#2B4294"/>
<path d="M38.3438 9.27463C38.3438 9.27463 29.8549 8.18037 29.3201 14.8122C29.3201 14.8122 28.0501 22.2399 39.8478 22.671C39.8478 22.671 43.2567 22.9694 47.2004 22.3394C51.1441 21.6762 57.8617 21.212 57.8617 21.212C57.8617 21.212 74.5054 24.8926 78.8501 21.4441C83.1949 17.9955 80.9222 15.6412 80.9222 15.6412C80.9222 15.6412 85.2336 11.4963 79.3515 8.8104C73.4693 6.1245 44.4933 3.107 38.3438 9.27463Z" fill="#FF5738"/>
<path d="M22.7365 38.6869C22.6362 38.6537 22.5359 38.5874 22.4022 38.5542C22.2686 38.4879 22.1349 38.4548 22.0346 38.3884C21.7672 38.2226 21.5667 38.09 21.433 37.9242C21.2993 37.7916 21.1991 37.6589 21.0654 37.5263C20.9317 37.3937 20.798 37.1947 20.6309 36.9958C20.4638 36.7636 20.2967 36.5315 20.0962 36.2663V36.2331C19.4946 35.0394 19.1604 33.8788 19.1604 32.7514C19.1604 32.1545 19.1938 31.5908 19.2941 31.0934C19.3943 30.596 19.4946 30.1318 19.6283 29.7339C19.762 29.336 19.9291 29.0044 20.1296 28.7059C20.2967 28.4075 20.4972 28.1754 20.6978 27.9764C21.0654 27.6117 21.3662 27.3796 21.667 27.2469C21.9343 27.1474 22.1683 27.0811 22.4357 27.0148C22.6028 26.9817 22.703 26.9153 22.7365 26.7827C22.8033 26.6501 22.8367 26.5174 22.8367 26.3516C22.8367 26.1527 22.8033 26.0532 22.8033 26.0532C22.5693 25.8542 22.3354 25.7548 22.068 25.7548C21.7672 25.7548 21.3996 25.8874 20.9651 26.219C20.5307 26.5174 20.0628 27.0148 19.528 27.7112C19.1938 28.1422 18.893 28.7391 18.6257 29.5018C18.3583 30.2644 18.2246 31.1597 18.2246 32.2208C18.2246 32.6519 18.258 33.1493 18.2915 33.7461C18.3249 34.343 18.4586 34.973 18.6257 35.5699C18.7259 35.8683 18.8596 36.2331 19.127 36.6642C19.3943 37.0952 19.6951 37.4931 20.0628 37.8911C20.4304 38.289 20.8315 38.6537 21.2659 38.9853C21.7004 39.3169 22.1349 39.5159 22.5693 39.6153H22.6362H22.6696L22.7365 39.5822L22.8367 39.4827C22.937 39.3501 22.9704 39.1843 22.9704 39.0185C22.937 38.8858 22.8701 38.7864 22.7365 38.6869Z" fill="#1C096B"/>
<path d="M69.3589 15.8402C69.3589 15.6744 69.3589 15.5086 69.3589 15.3428C69.3589 15.177 69.3589 14.9449 69.3589 14.7128L69.3255 14.4806L69.2921 14.2485V14.0496L69.2252 13.8175L69.1249 13.6185C69.0915 13.5853 68.9913 13.5522 68.9244 13.5522H68.8242H68.6905L68.5234 13.718L68.4899 13.9501C68.4899 14.0496 68.4899 14.1822 68.4899 14.2817C68.4899 14.4143 68.4899 14.5138 68.4899 14.6133C68.4899 15.0112 68.4899 15.4091 68.4899 15.7739C68.4899 16.1386 68.4899 16.5365 68.4899 16.9676C68.4899 17.0671 68.5234 17.1334 68.657 17.1997C68.7573 17.266 68.8242 17.2992 68.9244 17.2992L69.1249 17.266L69.3589 17.1665C69.4257 17.1334 69.526 17.0339 69.5928 16.9344C69.6931 16.835 69.7934 16.6692 69.8936 16.4702C69.9939 16.3376 70.0607 16.1718 70.0942 16.0391C70.161 15.9065 70.1944 15.7407 70.2613 15.6081C70.3281 15.4423 70.3949 15.3096 70.4618 15.1438C70.5286 14.978 70.6289 14.8122 70.7626 14.6133C70.8294 14.7128 70.8963 14.8122 70.9297 14.9449C70.9631 15.0775 70.9965 15.2101 71.0299 15.3428C71.0634 15.4754 71.0634 15.6412 71.0968 15.7739C71.1302 15.9397 71.1302 16.0391 71.1971 16.1718C71.2305 16.2712 71.2305 16.4039 71.2639 16.5365C71.2973 16.6692 71.2973 16.835 71.3642 16.9344C71.3976 17.0671 71.4644 17.1665 71.5313 17.266C71.5981 17.3655 71.6984 17.3987 71.832 17.3987C71.9323 17.3987 71.9992 17.3655 72.1328 17.3323C72.2665 17.2992 72.2999 17.1997 72.2999 17.1002C72.1997 16.9013 72.1663 16.7023 72.1328 16.4702C72.0994 16.2381 72.066 16.006 72.0326 15.7739C71.9992 15.5417 71.9657 15.3096 71.9323 15.0775C71.8989 14.8454 71.832 14.6464 71.7318 14.4475C71.6984 14.348 71.6649 14.2817 71.6315 14.1491C71.5981 14.0496 71.5981 13.9501 71.5313 13.8506C71.4978 13.7511 71.4644 13.6848 71.3976 13.5853C71.3307 13.519 71.2639 13.4527 71.1302 13.4195C70.9965 13.4195 70.8628 13.4527 70.7292 13.5853C70.5955 13.6848 70.4952 13.8175 70.3615 13.9501C70.2613 14.1159 70.161 14.2485 70.0607 14.4143C69.9939 14.5801 69.927 14.7128 69.8936 14.8122L69.8602 14.8786C69.7934 15.0112 69.7599 15.177 69.6931 15.3096C69.6263 15.4754 69.5594 15.5749 69.4592 15.6744V15.6412L69.3589 15.8402ZM66.9192 15.0112C66.9192 15.1438 66.8857 15.3096 66.8523 15.4423C66.8189 15.6081 66.7855 15.7407 66.7186 15.8733C66.6852 16.006 66.6184 16.1386 66.5181 16.2381C66.4178 16.3376 66.351 16.437 66.2173 16.5034L66.0168 16.6028L65.8163 16.636L65.6157 16.5365C65.5823 16.4702 65.5155 16.3707 65.5155 16.3044C65.482 16.2049 65.4821 16.1386 65.4486 16.0391L65.4152 15.8733C65.4152 15.7407 65.4486 15.5749 65.4486 15.4091C65.4821 15.2433 65.5155 15.0775 65.6157 14.9117C65.6826 14.7459 65.7828 14.6133 65.8497 14.5138C65.9165 14.4143 66.0502 14.348 66.1839 14.348C66.351 14.348 66.5181 14.3812 66.6518 14.4806C66.7855 14.5801 66.8857 14.7128 66.8857 14.9117L66.9192 15.0112ZM65.9499 17.3987H66.0502H66.1505C66.2842 17.3987 66.3844 17.3655 66.5181 17.2992C66.6518 17.2329 66.7521 17.1334 66.8523 17.0339C66.9526 16.9344 67.0528 16.835 67.1531 16.7023C67.2534 16.6028 67.3202 16.4702 67.387 16.4039C67.4873 16.2381 67.5876 16.0723 67.6878 15.8733C67.7547 15.7075 67.8215 15.5086 67.8215 15.2765V14.8786L67.7547 14.6796C67.7213 14.5801 67.6544 14.5138 67.621 14.4143C67.5876 14.3148 67.5207 14.2485 67.4539 14.1822C67.3536 14.1159 67.2868 14.0496 67.1531 14.0164C67.0528 13.9833 66.9526 13.9169 66.8523 13.8838C66.7521 13.8506 66.6518 13.7843 66.5515 13.7511C66.4513 13.718 66.351 13.6517 66.2507 13.5853L66.0836 13.519C65.9165 13.519 65.7828 13.5522 65.6492 13.6517C65.5155 13.7511 65.3818 13.8506 65.2481 13.9833C65.1478 14.1159 65.0476 14.2485 64.9473 14.3812C64.8805 14.5138 64.8136 14.6133 64.8136 14.6796C64.7802 14.8454 64.7134 15.0444 64.6799 15.2433C64.6131 15.4423 64.6131 15.6412 64.6131 15.7739C64.6131 16.0723 64.6799 16.3376 64.7802 16.5365C64.9139 16.7355 65.081 16.9013 65.3149 17.0339C65.4152 17.1002 65.5155 17.1665 65.6157 17.2329C65.716 17.2992 65.8163 17.3323 65.9165 17.3323L65.9499 17.3987ZM63.5436 15.2433C63.5436 15.2433 63.4768 15.1438 63.4434 15.0444C63.4099 14.9449 63.3431 14.8786 63.3097 14.7791C63.2763 14.6796 63.2094 14.5801 63.2094 14.4806C63.176 14.3812 63.176 14.3148 63.176 14.2817V14.0496C63.176 13.9169 63.2094 13.7843 63.2428 13.6517C63.2763 13.519 63.3431 13.3864 63.4099 13.2869L63.5102 13.1874L63.577 13.0548L63.4768 12.8558L63.3097 12.7564H63.2428H63.176C63.0089 12.7564 62.8418 12.7895 62.7415 12.889C62.6413 12.9885 62.541 13.1211 62.4742 13.2538C62.4073 13.4195 62.3739 13.5522 62.3405 13.718C62.3071 13.8838 62.307 14.0496 62.307 14.2154C62.307 14.4143 62.3405 14.6133 62.4407 14.8122C62.541 15.0112 62.6078 15.2101 62.7415 15.4423C62.8418 15.6744 62.9755 15.9065 63.0757 16.1386C63.176 16.3707 63.2763 16.6692 63.3765 16.9676V17.0671C63.3765 17.2329 63.3431 17.3655 63.2428 17.465C63.1426 17.5645 63.0423 17.6308 62.9421 17.6308L62.7081 17.4981L62.541 17.5645L62.4742 17.6639C62.4742 17.7966 62.541 17.9292 62.6747 18.0618C62.8084 18.1613 62.942 18.2276 63.0757 18.2276C63.2428 18.2276 63.4099 18.1945 63.5436 18.1282C63.6773 18.0618 63.811 17.9624 63.9113 17.8629C64.0115 17.7634 64.0784 17.6308 64.1452 17.465C64.212 17.2992 64.2455 17.1665 64.2455 17.0007C64.2455 16.6692 64.1786 16.3707 64.0784 16.1054C63.9781 15.8402 63.8444 15.5749 63.7107 15.3096L63.5436 15.2433ZM61.5384 17.0671C61.5384 16.9676 61.5049 16.7686 61.4715 16.5697C61.4381 16.3707 61.4047 16.1054 61.3713 15.8402C61.3378 15.5749 61.3044 15.3096 61.271 15.0112C61.2376 14.7128 61.2376 14.4475 61.2376 14.1822V13.9501L61.271 13.7511L61.1373 13.5853C61.1039 13.5522 61.0036 13.4859 60.9034 13.4859L60.7028 13.519L60.5023 13.5522C60.4021 13.6185 60.3352 13.718 60.3352 13.8838C60.3352 14.2154 60.3686 14.547 60.402 14.8786C60.4355 15.177 60.4689 15.5086 60.4689 15.8733C60.4689 15.9728 60.4689 16.1054 60.5023 16.2049C60.5357 16.3044 60.5357 16.437 60.5357 16.5365C60.5357 16.7355 60.5692 16.9013 60.6026 17.0007C60.636 17.1002 60.7028 17.1997 60.7697 17.266C60.8365 17.3323 60.9368 17.3655 61.037 17.3987C61.1373 17.4318 61.2376 17.4318 61.3713 17.4318L61.5384 17.2329L61.5718 17.0671H61.5384ZM60.4689 11.5295L60.4355 11.7616L60.5023 11.8611L60.6694 11.9605L60.8699 12.06L61.0705 12.0932C61.1707 12.0932 61.271 12.06 61.3378 12.0269C61.4047 11.9937 61.4381 11.8942 61.4381 11.7616L61.3713 11.5958L61.2042 11.43L61.0036 11.3305L60.8031 11.2974C60.7028 11.2974 60.636 11.3305 60.6026 11.3305C60.5357 11.3968 60.4689 11.4632 60.4689 11.5295ZM56.7926 16.5697C56.7926 16.4039 56.826 16.2049 56.8928 16.006C56.9597 15.807 57.0265 15.6412 57.1268 15.4754C57.1602 15.4423 57.1936 15.3759 57.227 15.2101C57.2939 15.0775 57.3607 14.9449 57.4276 14.8122C57.5278 14.6796 57.6281 14.547 57.7284 14.4143C57.8286 14.3148 57.9623 14.2485 58.1294 14.2485L58.2297 14.2817L58.3299 14.3148L58.2965 14.4806L58.1963 14.7128L58.096 14.9449L57.9957 15.1438C57.9623 15.2765 57.8621 15.4423 57.7618 15.6081C57.6615 15.7739 57.5613 15.9397 57.4276 16.1054C57.3273 16.2712 57.1936 16.4039 57.0934 16.5034C56.9931 16.6028 56.8594 16.6692 56.7926 16.6692V16.636V16.5697ZM59.6334 16.9344L59.5665 16.5697C59.4997 16.2712 59.4328 15.9728 59.3994 15.7075C59.366 15.4423 59.3326 15.1107 59.2992 14.7791C59.2657 14.6133 59.2657 14.4475 59.1989 14.2817C59.1655 14.1159 59.0652 13.9833 58.9649 13.8838L58.7644 13.7511L58.5305 13.6517L58.2965 13.5853L58.096 13.5522C57.7952 13.5522 57.5278 13.6517 57.2939 13.8838C57.0265 14.1159 56.826 14.3812 56.6255 14.6796C56.4249 14.978 56.2913 15.3096 56.1576 15.6412C56.0573 15.9728 55.9905 16.2381 55.9905 16.4702C55.9905 16.5697 55.9905 16.7023 56.0239 16.8018C56.0573 16.9344 56.0907 17.0339 56.1242 17.1334C56.191 17.2329 56.2578 17.2992 56.3581 17.3655C56.4584 17.4318 56.5921 17.465 56.7592 17.465C56.9597 17.465 57.1602 17.3987 57.3607 17.2329C57.5613 17.1002 57.7618 16.9344 57.9289 16.7023C58.096 16.5034 58.2297 16.3044 58.3634 16.0723C58.4636 15.8402 58.5305 15.6744 58.5639 15.5417C58.5973 15.7407 58.6307 15.9728 58.6642 16.2381C58.6976 16.5034 58.7644 16.7355 58.7978 16.9676C58.8647 17.1997 58.9315 17.3655 59.0318 17.5313C59.132 17.6971 59.2323 17.7634 59.366 17.7634L59.4997 17.7303L59.6334 17.6971L59.7336 17.5976L59.7671 17.465L59.7336 17.2992L59.6668 17.1334L59.6334 16.9344ZM55.1215 14.4806C55.1215 14.2817 55.1215 14.1491 55.0881 14.0496C55.0547 13.9501 55.0213 13.8838 54.9878 13.8175L54.8207 13.718L54.5868 13.6185C54.4197 13.6185 54.2526 13.6848 54.1189 13.7843C53.9852 13.8838 53.8515 13.9833 53.7513 14.1159C53.651 14.2485 53.5507 14.3812 53.4839 14.547C53.4171 14.7128 53.3168 14.8454 53.2834 14.978L53.1831 15.1438C53.1497 15.2101 53.1163 15.3096 53.0828 15.3759C53.0494 15.4423 53.016 15.5417 52.9826 15.6081L52.9157 15.807C52.8823 15.6081 52.8155 15.4091 52.7486 15.1438C52.6818 14.9117 52.6484 14.6796 52.5815 14.4806C52.5481 14.3812 52.5481 14.2485 52.5147 14.1491C52.4813 14.0164 52.4813 13.9169 52.4144 13.8175C52.381 13.718 52.3142 13.6185 52.2473 13.5522C52.1471 13.4859 52.0468 13.4527 51.9131 13.4527C51.7794 13.4527 51.6457 13.519 51.5455 13.6185C51.4452 13.718 51.3449 13.8506 51.2447 13.9501C51.1778 14.0164 51.111 14.1159 51.0776 14.2154C51.0107 14.3148 50.9439 14.4143 50.9105 14.547C50.8436 14.6464 50.8102 14.7791 50.7434 14.8786C50.7099 14.978 50.6431 15.0775 50.6097 15.177L50.5763 15.0112C50.5763 14.9117 50.5763 14.8454 50.6097 14.7459C50.6097 14.6464 50.6431 14.5801 50.6431 14.4806C50.6431 14.3812 50.6431 14.3148 50.6431 14.1822C50.6431 14.0827 50.6097 13.9833 50.5763 13.8838C50.5428 13.7843 50.5094 13.718 50.4092 13.6517C50.3423 13.5853 50.242 13.5522 50.1084 13.5522C50.0081 13.5522 49.9413 13.5853 49.841 13.6517C49.7407 13.718 49.7073 13.8175 49.7073 13.8838L49.7407 14.1159L49.7742 14.348V14.4143L49.8076 14.5138C49.8076 14.5801 49.8076 14.6796 49.841 14.8454C49.841 15.0112 49.841 15.2765 49.841 15.6744V15.8402C49.8076 15.9397 49.8076 16.006 49.8076 16.1054C49.8076 16.2049 49.8076 16.2712 49.7742 16.3707V16.5365L49.7407 16.7686L49.7073 16.9676L49.7407 17.1334L49.841 17.2992L49.9747 17.4318L50.1418 17.4981C50.3089 17.4981 50.4426 17.465 50.5428 17.3655C50.6431 17.266 50.6765 17.1665 50.7099 17.0339C50.7434 16.9013 50.7768 16.7355 50.8102 16.6028C50.8436 16.4702 50.9105 16.2712 50.9773 16.1386C51.0107 16.0391 51.0442 15.9397 51.0776 15.807C51.111 15.6744 51.1778 15.5086 51.2447 15.3759C51.3115 15.2433 51.3784 15.0775 51.4452 14.9449C51.512 14.8122 51.6123 14.7128 51.7126 14.6133C51.7794 14.7128 51.8128 14.8122 51.8797 14.9449C51.9131 15.0775 51.9799 15.2101 52.0134 15.3428C52.0468 15.5086 52.0802 15.6412 52.1136 15.7739C52.147 15.9397 52.147 16.0723 52.1805 16.1718C52.2139 16.3044 52.2139 16.437 52.2473 16.5697C52.2807 16.7023 52.2807 16.8681 52.3476 17.0339C52.381 17.1665 52.4478 17.2992 52.5147 17.3987C52.5815 17.4981 52.6818 17.5313 52.8155 17.5313C52.9157 17.5313 52.9826 17.4981 53.0828 17.465C53.1497 17.3655 53.1831 17.2329 53.2165 17.1334C53.2499 17.0339 53.2834 16.9344 53.3168 16.835C53.3502 16.7355 53.3836 16.636 53.4171 16.5365C53.4505 16.437 53.4839 16.3044 53.5507 16.2049C53.5842 16.1054 53.651 15.9728 53.7178 15.8402C53.7847 15.7075 53.8515 15.5749 53.9184 15.4423C53.9852 15.3096 54.0521 15.177 54.1523 15.0444C54.2192 14.9117 54.286 14.7791 54.3528 14.6796C54.3863 14.7791 54.4197 14.9117 54.4197 15.0112C54.4197 15.1107 54.4531 15.2433 54.4531 15.3428C54.4531 15.4423 54.4865 15.5749 54.4865 15.6744C54.4865 15.7739 54.5199 15.9065 54.5868 16.006C54.6202 16.0723 54.6202 16.2049 54.6202 16.3376C54.6202 16.5034 54.6536 16.6692 54.687 16.835C54.7205 17.0007 54.7873 17.1665 54.8542 17.2992C54.921 17.4318 55.0547 17.4981 55.1884 17.4981C55.322 17.4981 55.4223 17.465 55.5226 17.3655C55.6228 17.266 55.6563 17.1665 55.6563 17.0007C55.6563 16.8681 55.6228 16.7023 55.556 16.5697C55.4892 16.437 55.4557 16.2712 55.4557 16.1718C55.4223 15.9065 55.3889 15.6412 55.3221 15.4091C55.2886 15.177 55.2552 14.9117 55.2552 14.6464V14.4806H55.1215ZM43.5578 16.5697C43.5578 16.4039 43.5913 16.2049 43.6581 16.006C43.7249 15.807 43.7918 15.6412 43.8921 15.4754C43.9255 15.4423 43.9589 15.3759 43.9923 15.2101C44.0592 15.0775 44.126 14.9449 44.1928 14.8122C44.2931 14.6796 44.3934 14.547 44.4936 14.4143C44.5939 14.3148 44.7276 14.2485 44.8947 14.2485L44.9949 14.2817L45.0952 14.3148L45.0618 14.4806L44.9615 14.7128L44.8613 14.9449L44.761 15.1438C44.7276 15.2765 44.6273 15.4423 44.527 15.6081C44.4268 15.7739 44.3265 15.9397 44.1928 16.1054C44.0926 16.2712 43.9589 16.4039 43.8586 16.5034C43.7584 16.6028 43.6247 16.6692 43.5578 16.6692V16.636V16.5697ZM46.3986 16.9344L46.3318 16.5697C46.2649 16.2712 46.1981 15.9728 46.1647 15.7075C46.1313 15.4423 46.0978 15.1107 46.0644 14.7791C46.031 14.6133 46.031 14.4475 45.9642 14.2817C45.9307 14.1159 45.8305 13.9833 45.7302 13.8838L45.5297 13.7511L45.2957 13.6517L45.0618 13.5853L44.8613 13.5522C44.5605 13.5522 44.2931 13.6517 44.0592 13.8838C43.7918 14.1159 43.5913 14.3812 43.3907 14.6796C43.1902 14.978 43.0565 15.3096 42.9228 15.6412C42.8226 15.9728 42.7557 16.2381 42.7557 16.4702C42.7557 16.5697 42.7557 16.7023 42.7892 16.8018C42.8226 16.9344 42.856 17.0339 42.8894 17.1334C42.9563 17.2329 43.0231 17.2992 43.1234 17.3655C43.2236 17.4318 43.3573 17.465 43.5244 17.465C43.7249 17.465 43.9255 17.3987 44.126 17.2329C44.3265 17.1002 44.527 16.9344 44.6942 16.7023C44.8613 16.5034 44.9949 16.3044 45.1286 16.0723C45.2289 15.8402 45.2957 15.6744 45.3292 15.5417C45.3626 15.7407 45.396 15.9728 45.4294 16.2381C45.4628 16.5034 45.5297 16.7355 45.5631 16.9676C45.6299 17.1997 45.6968 17.3655 45.7971 17.5313C45.8973 17.6971 45.9976 17.7634 46.1313 17.7634L46.2649 17.7303L46.3986 17.6971L46.4989 17.5976L46.5323 17.465L46.4989 17.2992L46.432 17.1334L46.3986 16.9344ZM39.6476 17.5645C39.7478 17.6971 39.8147 17.7303 39.9149 17.7303L40.0486 17.6971C40.2157 17.6308 40.4163 17.5313 40.6168 17.3987C40.8173 17.266 41.0178 17.1334 41.2852 16.9676L42.4884 16.1054L42.5552 15.9397L42.4884 15.7407C42.4215 15.6412 42.3213 15.5749 42.1876 15.5749L41.987 15.6081C41.8868 15.6081 41.8534 15.6412 41.8199 15.6412C41.7531 15.6744 41.6528 15.7407 41.5192 15.807C41.3855 15.8733 41.2518 15.9728 41.0847 16.1054C40.7505 16.3376 40.5165 16.4702 40.3494 16.5365V16.2381C40.3494 15.9728 40.3494 15.6412 40.3828 15.2765C40.3828 14.9117 40.4163 14.4806 40.4497 14.0164C40.4831 13.5853 40.4831 13.2206 40.5165 12.8558C40.5165 12.5242 40.5499 12.2258 40.5499 11.9605C40.5499 11.8611 40.5499 11.7947 40.5499 11.7284V11.4963C40.5165 11.2974 40.3494 11.1979 40.082 11.1979C39.9484 11.1979 39.8481 11.231 39.7478 11.3305C39.7478 11.4963 39.7813 11.6289 39.7813 11.7947C39.7813 11.9605 39.7813 12.1263 39.7813 12.2921C39.7813 12.7895 39.7478 13.6185 39.6142 14.7459C39.5807 15.2101 39.5473 15.6412 39.5139 16.006C39.4805 16.3707 39.4805 16.7355 39.4805 17.0007V17.2329L39.6476 17.5645Z" fill="white"/>
<path d="M23.4716 35.802C23.505 35.5367 23.505 35.2383 23.5384 34.9067C23.5718 34.5751 23.5718 34.2435 23.5718 33.8788V32.3535C23.5718 31.7234 23.5718 31.1266 23.6053 30.596C23.6053 30.0655 23.6721 29.6012 23.7389 29.137C23.8392 28.6065 24.3071 28.3412 25.176 28.3412H25.3766C25.8779 28.3743 26.3124 28.6065 26.7134 29.1039C27.0476 29.5349 27.2482 29.9991 27.2482 30.5629C27.2482 30.9939 27.0811 31.425 26.7468 31.8892C26.4461 32.2871 26.1118 32.5856 25.7108 32.8508L25.5103 32.9835L25.4434 33.1493L25.5103 33.3151C25.5103 33.3151 25.6105 33.4146 25.7442 33.514L26.2121 33.8788L27.7829 35.3378C28.1171 35.6362 28.3845 35.9015 28.6184 36.1668C28.8524 36.432 29.0195 36.6642 29.1532 36.8963L29.1866 37.0289C29.1866 37.261 28.9526 37.3937 28.5182 37.5263C28.0168 37.1616 27.4153 36.5647 26.6466 35.7689C26.2121 35.3046 25.8445 34.9399 25.5437 34.6414C25.2429 34.343 24.9755 34.1109 24.775 33.9119C24.7416 34.0446 24.7416 34.2435 24.7082 34.5751C24.6747 34.9067 24.6413 35.3046 24.6079 35.802C24.5745 36.5647 24.4742 37.1947 24.3405 37.6589L24.2068 37.7253L23.9729 37.7916H23.9395C23.5384 37.6921 23.3379 37.3937 23.3379 36.9294C23.3379 36.8631 23.3379 36.7636 23.3379 36.6642C23.3379 36.5647 23.3713 36.4652 23.3713 36.3657L23.4716 35.802ZM26.1787 30.1318C26.1453 29.9328 26.0784 29.767 25.9447 29.6012C25.811 29.4354 25.6105 29.3691 25.2763 29.3691C25.0424 29.3691 24.9087 29.4354 24.8418 29.5681C24.8084 29.7007 24.8084 29.8334 24.8084 29.966C24.8084 30.0986 24.775 30.2313 24.775 30.3639C24.775 30.4965 24.775 30.795 24.8084 31.2924C24.8084 31.3918 24.8084 31.4913 24.8084 31.5908V31.8229V32.055V32.254C25.5771 31.6903 26.0116 31.1266 26.1118 30.596L26.1453 30.4302V30.2644L26.1787 30.1318Z" fill="#1C096B"/>
<path d="M29.3199 33.0498C29.3533 32.9503 29.4201 32.884 29.5204 32.8177C29.6541 32.7514 29.7544 32.6519 29.7544 32.5856C29.7544 32.5524 29.7878 32.4198 29.7878 32.2208C29.8212 31.9887 29.8212 31.6903 29.8546 31.2592C29.3199 31.1597 29.0859 30.9608 29.0859 30.6623C29.0859 30.3971 29.253 30.1649 29.5873 30.0323L30.4896 29.6676C30.6567 29.5681 30.8573 29.5018 31.0912 29.4023C31.3251 29.336 31.5591 29.2365 31.8265 29.1702C32.0604 29.1039 32.2944 29.0375 32.5283 29.0044C32.7623 28.9381 32.9962 28.9049 33.2301 28.8386C33.2636 28.8386 33.297 28.8054 33.3973 28.8054C33.6646 28.8054 33.932 28.9049 34.2996 29.1039C34.2996 29.137 34.333 29.2033 34.3665 29.3028C34.3999 29.4023 34.4333 29.4686 34.4333 29.5349L34.333 29.7007C34.1659 29.767 33.932 29.8665 33.698 29.9328C33.4307 29.9992 33.1633 30.0986 32.7957 30.1981C32.4615 30.2976 32.1607 30.3639 31.8933 30.4634C31.6259 30.5297 31.4254 30.6292 31.2583 30.6955C31.2249 30.795 31.1915 30.9939 31.158 31.2592C31.1246 31.5245 31.0912 31.8892 31.0912 32.3203C31.2583 32.3866 31.4254 32.4198 31.6259 32.4198C31.6928 32.4198 31.793 32.4198 31.8933 32.3866C31.9936 32.3866 32.1273 32.3535 32.2944 32.3535C32.4615 32.3203 32.5617 32.3203 32.6954 32.3203C32.7957 32.2871 32.8959 32.2871 32.9628 32.2871C33.2301 32.2871 33.4641 32.3535 33.6312 32.4529C33.7649 32.6519 33.8317 32.7514 33.8317 32.8177L33.7315 32.9835L33.6646 33.0498L33.5309 33.1824C33.4641 33.2488 33.3638 33.2819 33.2301 33.2819C33.0296 33.3151 32.662 33.3482 32.1273 33.3814C31.6928 33.4146 31.3251 33.4477 31.0578 33.5472C30.8907 34.2104 30.7904 34.7409 30.7904 35.172C30.7904 35.4373 30.8238 35.6362 30.8907 35.802C31.2917 36.0673 31.9267 36.1999 32.7957 36.1999H32.9962L33.1967 36.1668L33.4307 36.0673L33.6312 35.9678H33.6646H33.698C33.932 35.9678 34.0657 36.1668 34.1325 36.5647V36.631V36.6973C34.1325 36.83 34.0991 36.9294 33.9988 37.0289C33.932 37.1284 33.7983 37.1947 33.698 37.1947H33.4307L33.1633 37.2279C32.2609 37.2279 31.4588 37.1284 30.7236 36.9294C30.4562 36.8631 30.2223 36.7305 29.9883 36.4984C29.7544 36.2663 29.6541 36.0341 29.6207 35.7357C29.5873 35.5368 29.5873 35.3378 29.5873 35.1388C29.5873 34.9399 29.5538 34.7741 29.5538 34.5751C29.5538 34.3762 29.5538 34.2104 29.5873 34.0446C29.5873 33.8788 29.6207 33.713 29.6207 33.5472C29.3867 33.3814 29.2865 33.2156 29.3199 33.0498Z" fill="#1C096B"/>
<path d="M50.7428 33.7462C50.6091 34.0778 50.442 34.3763 50.2414 34.6415C50.0409 34.9068 49.8404 35.1721 49.6064 35.371C49.3725 35.57 49.1385 35.7358 48.8712 35.8353C48.6038 35.9347 48.3364 36.0011 48.0356 36.0011C47.8351 36.0011 47.6346 35.9679 47.3672 35.8353C47.1333 35.7358 46.8993 35.57 46.6654 35.371C46.4314 35.1721 46.2643 34.9068 46.0972 34.6084C45.9301 34.3099 45.8633 33.9783 45.8633 33.5804C45.8633 33.282 45.9301 32.9172 46.0304 32.5193C46.1306 32.1214 46.2978 31.7235 46.4983 31.3588C46.6988 30.994 46.8993 30.6956 47.1667 30.4303C47.4341 30.165 47.668 30.0656 47.9688 30.0656L48.1359 30.0987L48.2696 30.165L48.4701 30.2645C48.537 30.2977 48.6372 30.364 48.7709 30.4303C48.8712 30.4635 48.938 30.4966 49.0717 30.5629C49.172 30.5961 49.3057 30.6624 49.4728 30.6956C49.7735 30.7951 49.9741 30.9277 50.1746 31.1598C50.3751 31.3588 50.5088 31.5909 50.6425 31.823C50.7428 32.0551 50.843 32.2872 50.8764 32.5193C50.9099 32.7515 50.9433 32.9173 50.9433 33.083C50.8764 33.3152 50.843 33.5473 50.7428 33.7462ZM49.6064 32.8841C49.573 32.5193 49.4728 32.2209 49.3725 31.9888C49.2722 31.7567 49.1051 31.6572 48.938 31.6572C48.8712 31.6572 48.8043 31.6904 48.7041 31.7567C48.6038 31.823 48.537 31.9225 48.4367 31.9888C48.3364 32.0551 48.2696 32.1546 48.1693 32.2209L48.0356 32.3204C47.9688 32.3204 47.8685 32.2872 47.7683 32.2209C47.668 32.1546 47.6012 32.1214 47.5678 32.1214C47.4675 32.1214 47.4006 32.1546 47.3338 32.2872C47.267 32.4199 47.2001 32.5193 47.1667 32.6188C47.1333 32.7183 47.0664 32.9172 47.0664 33.0499C47.033 33.2157 47.033 33.3483 47.033 33.4478C47.033 33.6799 47.0664 33.912 47.1333 34.111C47.2001 34.3099 47.3004 34.4757 47.4007 34.6084C47.5009 34.741 47.6012 34.8405 47.7014 34.94C47.8017 35.0394 47.902 35.0394 47.9354 35.0394C48.1025 35.0394 48.303 34.9731 48.5035 34.8405C48.7041 34.7078 48.8712 34.5421 49.0383 34.3763C49.2054 34.1773 49.3391 33.9783 49.4393 33.7462C49.5396 33.5141 49.6064 33.282 49.6064 33.083V32.8841Z" fill="#1C096B"/>
<path d="M51.9797 37.3605C51.9463 36.83 51.9463 36.2994 51.9463 35.7357C51.9463 34.7409 52.0131 33.514 52.1134 32.0219L52.4142 28.2749C52.4142 28.0759 52.6147 27.9764 52.9489 27.9764C53.0158 27.9764 53.116 28.0096 53.2497 28.0759C53.3834 28.1422 53.5171 28.2086 53.6842 28.3412C53.8513 28.6396 54.0184 29.0044 54.1855 29.4686C54.386 29.9328 54.5866 30.4634 54.7871 31.1266C55.021 31.7234 55.2216 32.3203 55.4221 32.884C55.6226 33.4477 55.8231 33.9451 55.9902 34.343L56.5584 28.2749C56.5918 28.0759 56.7255 27.9764 56.9594 27.9764C57.0597 27.9764 57.1266 27.9764 57.2602 28.0096L57.5276 28.0759C57.6279 28.1091 57.6947 28.1754 57.6947 28.2749L57.3271 32.0219C57.2602 32.7845 57.1934 33.4477 57.16 34.0777C57.1266 34.7078 57.0931 35.2383 57.0931 35.7689V36.2331C57.0931 36.3989 57.0931 36.5647 57.1266 36.7305C57.1266 36.8631 57.0597 36.9958 56.9594 37.0952C56.8592 37.1947 56.7255 37.261 56.5584 37.261C56.2576 37.261 56.0237 37.0621 55.8231 36.6642C55.656 36.3657 55.5223 36.001 55.3218 35.6031C55.1547 35.172 54.9542 34.7078 54.7537 34.1772C54.5531 33.6798 54.3526 33.1161 54.1187 32.5193C53.8847 31.9224 53.6842 31.3255 53.4502 30.6955L53.3834 30.596C53.3166 30.596 53.2831 30.6623 53.2497 30.795C53.2163 31.1266 53.1829 31.4913 53.1494 31.8892C53.116 32.2871 53.116 32.6851 53.116 33.083C53.116 33.4809 53.116 33.912 53.116 34.3099V35.4704C53.116 35.8352 53.116 36.1999 53.116 36.5315C53.116 36.8631 53.1494 37.261 53.1494 37.6258V37.6921C53.1494 37.9574 53.0826 38.1232 52.9155 38.1895L52.715 38.289C52.6481 38.289 52.5479 38.2558 52.4476 38.1895L52.1802 38.0569C52.0466 38.0237 51.9797 37.8911 51.9463 37.7253L51.9797 37.3605Z" fill="#1C096B"/>
<path d="M58.7981 37.3605C58.7646 36.83 58.7646 36.2994 58.7646 35.7357C58.7646 34.7409 58.8315 33.514 58.9318 32.0219L59.2325 28.2749C59.2325 28.0759 59.4331 27.9764 59.7673 27.9764C59.8341 27.9764 59.9344 28.0096 60.0681 28.0759C60.2018 28.1422 60.3354 28.2086 60.5025 28.3412C60.6696 28.6396 60.8368 29.0044 61.0039 29.4686C61.2044 29.9328 61.4049 30.4634 61.6054 31.1266C61.8394 31.7234 62.0399 32.3203 62.2404 32.884C62.441 33.4477 62.6415 33.9451 62.8086 34.343L63.3767 28.2749C63.4102 28.0759 63.5439 27.9764 63.7778 27.9764C63.8781 27.9764 63.9449 27.9764 64.0786 28.0096L64.346 28.0759C64.4462 28.1091 64.5131 28.1754 64.5131 28.2749L64.1454 32.0219C64.0786 32.7845 64.0118 33.4477 63.9783 34.0777C63.9449 34.6746 63.9115 35.2383 63.9115 35.7689V36.2331C63.9115 36.3989 63.9115 36.5647 63.9449 36.7305C63.9449 36.8631 63.8781 36.9958 63.7778 37.0952C63.6775 37.1947 63.5439 37.261 63.3767 37.261C63.076 37.261 62.842 37.0621 62.6415 36.6642C62.4744 36.3657 62.3407 36.001 62.1402 35.6031C61.9731 35.172 61.7725 34.7078 61.572 34.1772C61.3715 33.6798 61.171 33.1161 60.937 32.5193C60.7031 31.9224 60.5025 31.3255 60.2686 30.6955L60.2017 30.596C60.1349 30.596 60.1015 30.6623 60.0681 30.795C60.0346 31.1266 60.0012 31.4913 59.9678 31.8892C59.9344 32.2871 59.9344 32.6851 59.9344 33.083C59.9344 33.4809 59.9344 33.912 59.9344 34.3099V35.4704C59.9344 35.8352 59.9344 36.1999 59.9678 36.5315C59.9678 36.8963 60.0012 37.261 60.0012 37.6258V37.6921C60.0012 37.9574 59.9344 38.1232 59.7673 38.1895L59.5668 38.289C59.4999 38.289 59.3996 38.2558 59.2994 38.1895L59.032 38.0569C58.8983 38.0237 58.8315 37.8911 58.7981 37.7253V37.3605Z" fill="#1C096B"/>
<path d="M65.4146 33.0498C65.448 32.9503 65.5149 32.884 65.6151 32.8177C65.7488 32.7514 65.8491 32.6519 65.8491 32.5856C65.8491 32.5524 65.8825 32.4198 65.8825 32.2208C65.9159 31.9887 65.9159 31.6903 65.9493 31.2592C65.4146 31.1597 65.1807 30.9608 65.1807 30.6623C65.1807 30.3971 65.3478 30.1649 65.682 30.0323L66.5843 29.6676C66.7515 29.5681 66.952 29.5018 67.1859 29.4023C67.4199 29.336 67.6538 29.2365 67.9212 29.1702C68.1551 29.1039 68.3891 29.0375 68.623 29.0044C68.857 28.9381 69.0909 28.9049 69.3249 28.8386C69.3583 28.8386 69.3917 28.8054 69.492 28.8054C69.7593 28.8054 70.0267 28.9049 70.3943 29.1039C70.3943 29.137 70.4278 29.2033 70.4612 29.3028C70.4946 29.4023 70.528 29.4686 70.528 29.5349L70.4278 29.7007C70.2607 29.767 70.0267 29.8665 69.7928 29.9328C69.5254 29.9992 69.258 30.0986 68.8904 30.1981C68.5562 30.2976 68.2554 30.3639 67.988 30.4634C67.7207 30.5297 67.5201 30.6292 67.353 30.6955C67.3196 30.795 67.2862 30.9939 67.2528 31.2592C67.2193 31.5245 67.1859 31.8892 67.1859 32.3203C67.353 32.3866 67.5201 32.4198 67.7207 32.4198C67.7875 32.4198 67.8878 32.4198 67.988 32.3866C68.0883 32.3866 68.222 32.3535 68.3891 32.3535C68.5562 32.3535 68.6565 32.3203 68.7901 32.3203C68.8904 32.2871 68.9907 32.2871 69.0575 32.2871C69.3249 32.2871 69.5588 32.3535 69.7259 32.4529C69.8596 32.6519 69.9265 32.7514 69.9265 32.8177L69.8262 32.9835L69.7593 33.0498L69.6257 33.1824C69.5588 33.2488 69.4586 33.2819 69.3249 33.2819C69.1243 33.3151 68.7567 33.3482 68.222 33.3814C67.7875 33.4146 67.4199 33.4477 67.1525 33.5472C66.9854 34.2104 66.8851 34.7409 66.8851 35.172C66.8851 35.4373 66.9186 35.6362 66.9854 35.802C67.3865 36.0673 68.0215 36.1999 68.8904 36.1999H69.0909L69.2915 36.1668L69.5254 36.0673L69.7259 35.9678H69.7593H69.7928C70.0267 35.9678 70.1604 36.1668 70.2272 36.5647V36.631V36.6973C70.2272 36.83 70.1938 36.9294 70.0936 37.0289C70.0267 37.1284 69.893 37.1947 69.7928 37.1947H69.5254L69.258 37.2279C68.3557 37.2279 67.5536 37.1284 66.8183 36.9294C66.5509 36.8631 66.317 36.7305 66.083 36.4984C65.8491 36.2663 65.7488 36.0341 65.7154 35.7357C65.682 35.5368 65.682 35.3378 65.682 35.1388C65.682 34.9399 65.6486 34.7741 65.6486 34.5751C65.6486 34.3762 65.6486 34.2104 65.682 34.0446C65.7154 33.8788 65.7154 33.713 65.7154 33.5472C65.4815 33.3814 65.3812 33.2156 65.4146 33.0498Z" fill="#1C096B"/>
<path d="M22.7365 38.6869C22.6362 38.6537 22.5359 38.5874 22.4022 38.5542C22.2686 38.4879 22.1349 38.4548 22.0346 38.3884C21.7672 38.2226 21.5667 38.09 21.433 37.9242C21.2993 37.7916 21.1991 37.6589 21.0654 37.5263C20.9317 37.3937 20.798 37.1947 20.6309 36.9958C20.4638 36.7636 20.2967 36.5315 20.0962 36.2663V36.2331C19.4946 35.0394 19.1604 33.8788 19.1604 32.7514C19.1604 32.1545 19.1938 31.5908 19.2941 31.0934C19.3943 30.596 19.4946 30.1318 19.6283 29.7339C19.762 29.336 19.9291 29.0044 20.1296 28.7059C20.2967 28.4075 20.4972 28.1754 20.6978 27.9764C21.0654 27.6117 21.3662 27.3796 21.667 27.2469C21.9343 27.1474 22.1683 27.0811 22.4357 27.0148C22.6028 26.9817 22.703 26.9153 22.7365 26.7827C22.8033 26.6501 22.8367 26.5174 22.8367 26.3516C22.8367 26.1527 22.8033 26.0532 22.8033 26.0532C22.5693 25.8542 22.3354 25.7548 22.068 25.7548C21.7672 25.7548 21.3996 25.8874 20.9651 26.219C20.5307 26.5174 20.0628 27.0148 19.528 27.7112C19.1938 28.1422 18.893 28.7391 18.6257 29.5018C18.3583 30.2644 18.2246 31.1597 18.2246 32.2208C18.2246 32.6519 18.258 33.1493 18.2915 33.7461C18.3249 34.343 18.4586 34.973 18.6257 35.5699C18.7259 35.8683 18.8596 36.2331 19.127 36.6642C19.3943 37.0952 19.6951 37.4931 20.0628 37.8911C20.4304 38.289 20.8315 38.6537 21.2659 38.9853C21.7004 39.3169 22.1349 39.5159 22.5693 39.6153H22.6362H22.6696L22.7365 39.5822L22.8367 39.4827C22.937 39.3501 22.9704 39.1843 22.9704 39.0185C22.937 38.8858 22.8701 38.7864 22.7365 38.6869Z" fill="#1C096B"/>
<path d="M37.1074 37.7253C37.4416 37.2943 37.7424 36.6974 38.0098 35.9347C38.2771 35.1721 38.4108 34.2768 38.4108 33.2157C38.4108 32.7846 38.3774 32.2872 38.344 31.6904C38.3106 31.0935 38.1769 30.4635 38.0098 29.8666C37.9429 29.5682 37.7758 29.2034 37.5085 28.7723C37.2411 28.3413 36.9403 27.9434 36.5727 27.5454C36.205 27.1475 35.804 26.7828 35.3695 26.4512C34.935 26.1196 34.5006 25.9206 34.0661 25.8212H33.9992H33.9658L33.899 25.8543L33.7987 25.9538C33.6985 26.0864 33.665 26.2522 33.665 26.418C33.665 26.5838 33.7319 26.6833 33.8656 26.7828C33.9658 26.8159 34.0661 26.8823 34.1998 26.9154C34.3335 26.9817 34.4671 27.0149 34.5674 27.0812C34.8348 27.247 35.0353 27.3797 35.169 27.5454C35.3027 27.6781 35.4029 27.8107 35.5366 27.9434C35.6703 28.076 35.804 28.275 35.9711 28.4739C36.1382 28.706 36.3053 28.9381 36.5058 29.2034V29.2366C37.1074 30.4303 37.4416 31.5909 37.4416 32.7183C37.4416 33.3152 37.4082 33.8789 37.3079 34.3763C37.2077 34.8736 37.1074 35.3379 36.9737 35.7358C36.84 36.1337 36.6729 36.4653 36.4724 36.7637C36.3053 37.0622 36.1048 37.2943 35.9042 37.4932C35.5366 37.858 35.2358 38.0901 34.935 38.2227C34.6677 38.3222 34.4337 38.3885 34.1664 38.4548C33.9992 38.488 33.899 38.5543 33.8656 38.687C33.7987 38.8196 33.7653 38.9522 33.7653 39.118C33.7653 39.317 33.7987 39.4165 33.7987 39.4165C34.0327 39.6154 34.2666 39.7149 34.534 39.7149C34.8348 39.7149 35.2024 39.5823 35.6369 39.2507C36.0714 38.9191 36.5727 38.4217 37.1074 37.7253Z" fill="#1C096B"/>
<path d="M80.4882 36.8963V37.0621L80.4547 37.1948C80.4213 37.3274 80.3211 37.3937 80.154 37.3937C79.8866 37.3937 79.6526 37.2611 79.4855 37.0621C79.3184 36.83 79.2182 36.5979 79.1848 36.3326C79.1513 36.001 79.1513 35.6363 79.1513 35.2384C79.1513 34.6415 79.1847 33.6467 79.285 32.3204C79.3184 31.7566 79.3519 31.2593 79.3853 30.8282C79.4187 30.3971 79.4187 29.9992 79.4187 29.6676V29.4023H79.2516C79.1513 29.4023 79.0176 29.4023 78.8505 29.4023C78.7169 29.4023 78.5497 29.4355 78.3826 29.4687C78.2824 29.5018 78.2155 29.5018 78.1487 29.5018C78.0819 29.535 78.015 29.535 77.9147 29.535C77.4469 29.535 77.0792 29.4023 76.7784 29.1702C76.6782 28.9381 76.6113 28.8055 76.6113 28.8055L76.7116 28.6065C76.8787 28.5734 77.0458 28.507 77.2463 28.4739C77.4469 28.4407 77.6808 28.4076 77.9816 28.3744C78.7837 28.2749 79.3853 28.1423 79.8198 27.9102C80.1874 28.0096 80.555 28.076 80.9561 28.076C81.3571 28.076 81.7582 28.0428 82.1592 27.9102C82.2261 27.9102 82.2929 27.877 82.4266 27.8439C82.5603 27.8107 82.6605 27.7775 82.7942 27.7444C83.0282 27.6781 83.2287 27.6449 83.4626 27.6449H83.5629L83.6632 27.6781C83.7969 27.6781 83.8637 27.7112 83.8637 27.8439V27.9102C84.1311 27.9102 84.2313 28.0096 84.2313 28.1754C84.1311 28.507 83.9974 28.706 83.7634 28.7723C83.4626 28.8386 83.095 28.9381 82.6271 29.0044C82.1592 29.0707 81.5576 29.2034 80.789 29.3029C80.6887 30.4634 80.6219 31.5245 80.5884 32.4862C80.555 33.4478 80.5216 34.3099 80.5216 35.1057C80.5216 35.4042 80.5216 35.7026 80.5216 35.9679C80.5216 36.2331 80.5216 36.5316 80.555 36.83L80.4882 36.8963Z" fill="#1C096B"/>
<path d="M82.5933 33.0498C82.6267 32.9503 82.6936 32.884 82.7938 32.8177C82.9275 32.7514 83.0278 32.6519 83.0278 32.5856C83.0278 32.5524 83.0612 32.4198 83.0612 32.2208C83.0946 31.9887 83.0946 31.6903 83.1281 31.2592C82.5933 31.1597 82.3594 30.9608 82.3594 30.6623C82.3594 30.3971 82.5265 30.1649 82.8607 30.0323L83.7631 29.6676C83.9302 29.5681 84.1307 29.5018 84.3646 29.4023C84.5986 29.336 84.8325 29.2365 85.0999 29.1702C85.3338 29.1039 85.5678 29.0375 85.8017 29.0044C86.0357 28.9381 86.2696 28.9049 86.5036 28.8386C86.537 28.8386 86.5704 28.8054 86.6707 28.8054C86.9381 28.8054 87.2054 28.9049 87.5731 29.1039C87.5731 29.137 87.6065 29.2033 87.6399 29.3028C87.6733 29.4023 87.7067 29.4686 87.7067 29.5349L87.6065 29.7007C87.4394 29.767 87.2054 29.8665 86.9715 29.9328C86.7041 29.9992 86.4367 30.0986 86.0691 30.1981C85.7349 30.2976 85.4341 30.3639 85.1667 30.4634C84.8994 30.5297 84.6988 30.6292 84.5317 30.6955C84.4983 30.795 84.4649 30.9939 84.4315 31.2592C84.3981 31.5245 84.3646 31.8892 84.3646 32.3203C84.5317 32.3866 84.6988 32.4198 84.8994 32.4198C84.9662 32.4198 85.0665 32.4198 85.1667 32.3866C85.267 32.3866 85.4007 32.3535 85.5678 32.3535C85.7349 32.3203 85.8352 32.3203 85.9688 32.3203C86.0691 32.2871 86.1694 32.2871 86.2362 32.2871C86.5036 32.2871 86.7375 32.3535 86.9046 32.4529C87.0383 32.6519 87.1052 32.7514 87.1052 32.8177L87.0049 32.9835L86.9381 33.0498L86.8044 33.1824C86.7375 33.2488 86.6373 33.2819 86.5036 33.2819C86.3031 33.3151 85.9354 33.3482 85.4007 33.3814C84.9662 33.4146 84.5986 33.4477 84.3312 33.5472C84.1641 34.2104 84.0638 34.7409 84.0638 35.172C84.0638 35.4373 84.0973 35.6362 84.1641 35.802C84.5652 36.0673 85.2002 36.1999 86.0691 36.1999H86.2696L86.4702 36.1668L86.7041 36.0673L86.9046 35.9678H86.9381H86.9715C87.2054 35.9678 87.3391 36.1668 87.4059 36.5647V36.631L87.4394 36.6973C87.4394 36.83 87.4059 36.9294 87.3057 37.0289C87.2054 37.1284 87.1052 37.1947 87.0049 37.1947H86.7375L86.4702 37.2279C85.5678 37.2279 84.7323 37.1284 84.0304 36.9294C83.7631 36.8631 83.5291 36.7305 83.2952 36.4984C83.0612 36.2663 82.9609 36.0341 82.9275 35.7357C82.8941 35.5368 82.8941 35.3378 82.8941 35.1388C82.8607 34.9399 82.8607 34.7741 82.8607 34.5751C82.8607 34.3762 82.8607 34.2104 82.8941 34.0446C82.8941 33.8788 82.9275 33.713 82.9275 33.5472C82.6936 33.3814 82.5933 33.2156 82.5933 33.0498Z" fill="#1C096B"/>
<path d="M88.3082 33.0498C88.3416 32.9503 88.4084 32.884 88.5087 32.8177C88.6424 32.7514 88.7426 32.6519 88.7426 32.5856C88.7426 32.5524 88.7761 32.4198 88.7761 32.2208C88.8095 31.9887 88.8095 31.6903 88.8429 31.2592C88.3082 31.1597 88.0742 30.9608 88.0742 30.6623C88.0742 30.3971 88.2413 30.1649 88.5755 30.0323L89.4779 29.6676C89.645 29.5681 89.8455 29.5018 90.0795 29.4023C90.3134 29.336 90.5474 29.2365 90.8147 29.1702C91.0487 29.1039 91.2826 29.0375 91.5166 29.0044C91.7505 28.9381 91.9845 28.9049 92.2184 28.8386C92.2519 28.8386 92.2853 28.8054 92.3855 28.8054C92.6529 28.8054 92.9203 28.9049 93.2879 29.1039C93.2879 29.137 93.3213 29.2033 93.3548 29.3028C93.3882 29.4023 93.4216 29.4686 93.4216 29.5349L93.3213 29.7007C93.1542 29.767 92.9203 29.8665 92.6863 29.9328C92.419 29.9992 92.1516 30.0986 91.784 30.1981C91.4497 30.2976 91.149 30.3639 90.8816 30.4634C90.6142 30.5297 90.4137 30.6292 90.2466 30.6955C90.2132 30.795 90.1797 30.9939 90.1463 31.2592C90.1129 31.5245 90.0795 31.8892 90.0795 32.3203C90.2466 32.3866 90.4137 32.4198 90.6142 32.4198C90.6811 32.4198 90.7813 32.4198 90.8816 32.3866C90.9819 32.3866 91.1155 32.3535 91.2826 32.3535C91.4497 32.3535 91.55 32.3203 91.6837 32.3203C91.784 32.2871 91.8842 32.2871 91.9511 32.2871C92.2184 32.2871 92.4524 32.3535 92.6195 32.4529C92.7532 32.6519 92.82 32.7514 92.82 32.8177L92.7198 32.9835L92.6529 33.0498L92.5192 33.1824C92.4524 33.2488 92.3521 33.2819 92.2184 33.2819C92.0179 33.3151 91.6503 33.3482 91.1155 33.3814C90.6811 33.4146 90.3134 33.4477 90.0461 33.5472C89.879 34.2104 89.7787 34.7409 89.7787 35.172C89.7787 35.4373 89.8121 35.6362 89.879 35.802C90.28 36.0673 90.915 36.1999 91.784 36.1999H91.9845L92.185 36.1668L92.419 36.0673L92.6195 35.9678H92.6529H92.6863C92.9203 35.9678 93.054 36.1668 93.1208 36.5647V36.631V36.6973C93.1208 36.83 93.0874 36.9294 92.9871 37.0289C92.9203 37.1284 92.7866 37.1947 92.6863 37.1947H92.419L92.1516 37.2279C91.2492 37.2279 90.4137 37.1284 89.7119 36.9294C89.4445 36.8631 89.2105 36.7305 88.9766 36.4984C88.7426 36.2663 88.6424 36.0341 88.609 35.7357C88.5755 35.5368 88.5755 35.3378 88.5755 35.1388C88.5421 34.9399 88.5421 34.7741 88.5421 34.5751C88.5421 34.3762 88.5421 34.2104 88.5755 34.0446C88.5755 33.8788 88.609 33.713 88.609 33.5472C88.375 33.3814 88.2747 33.2156 88.3082 33.0498Z" fill="#1C096B"/>
<path d="M43.8255 28.7391C41.72 29.7008 39.8818 31.7235 40.3831 34.1773C40.851 36.5979 43.0902 37.5927 45.3629 37.7585C46.2986 37.8248 46.2986 36.3989 45.3629 36.2995C43.6918 36.1668 41.8536 35.4373 41.7868 33.5141C41.6865 31.7566 43.1236 30.5961 44.5942 29.966C45.3963 29.6013 44.661 28.3412 43.8255 28.7391Z" fill="#1C096B"/>
<path d="M75.04 29.4024C73.0014 30.2314 71.0629 31.8562 71.3971 34.2768C71.7314 36.6974 74.2045 37.5596 76.3769 37.7254C77.2793 37.7917 77.2458 36.4321 76.3769 36.3658C74.8729 36.2663 72.8677 35.7026 72.7674 33.8789C72.6672 32.2872 74.1043 31.2593 75.4077 30.7288C76.2098 30.3972 75.8422 29.0708 75.04 29.4024Z" fill="#1C096B"/>
<path d="M86.103 27.877C86.7046 27.5123 87.2727 27.1475 87.8743 26.7828C88.409 26.4512 87.9077 25.6222 87.373 25.9538C86.7714 26.3185 86.2032 26.6833 85.6017 27.048C85.0669 27.3796 85.5682 28.2086 86.103 27.877Z" fill="#1C096B"/>
<path d="M23.4718 35.802C23.5052 35.5367 23.5052 35.2383 23.5386 34.9067C23.5721 34.5751 23.5721 34.2435 23.5721 33.8788V32.3535C23.5721 31.7234 23.5721 31.1266 23.6055 30.596C23.6389 30.0655 23.6723 29.6012 23.7392 29.137C23.8394 28.6065 24.3073 28.3412 25.1763 28.3412H25.3768C25.8781 28.3743 26.3126 28.6065 26.7136 29.1039C27.0478 29.5349 27.2484 29.9991 27.2484 30.5629C27.2484 30.9939 27.0813 31.425 26.7471 31.8892C26.4463 32.2871 26.1121 32.5856 25.711 32.8508L25.5105 32.9835L25.4436 33.1493L25.5105 33.3151C25.5105 33.3151 25.6107 33.4146 25.7444 33.514L26.2123 33.8788L27.7831 35.3378C28.1173 35.6362 28.3847 35.9015 28.6186 36.1668C28.8526 36.432 29.0197 36.6642 29.1534 36.8963L29.1868 37.0289C29.1868 37.261 28.9528 37.3937 28.5184 37.5263C28.0171 37.1616 27.4155 36.5647 26.6468 35.7689C26.2123 35.3046 25.8447 34.9399 25.5439 34.6414C25.2431 34.343 25.0092 34.1109 24.7752 33.9119C24.7418 34.0446 24.7418 34.2435 24.7084 34.5751C24.6749 34.9067 24.6415 35.3046 24.6081 35.802C24.5747 36.5647 24.4744 37.1947 24.3407 37.6589L24.2071 37.7253L23.9731 37.7916H23.9397C23.5386 37.6921 23.3047 37.3937 23.3047 36.9294C23.3047 36.8631 23.3047 36.7636 23.3047 36.6642C23.3047 36.5647 23.3381 36.4652 23.3381 36.3657L23.4718 35.802ZM26.1789 30.1318C26.1455 29.9328 26.0786 29.767 25.945 29.6012C25.8113 29.4354 25.6107 29.3691 25.2765 29.3691C25.0426 29.3691 24.9089 29.4354 24.8421 29.5681C24.8086 29.7007 24.8086 29.8334 24.8086 29.966C24.8086 30.0986 24.7752 30.2313 24.7752 30.3639C24.7752 30.4965 24.7752 30.795 24.8086 31.2924C24.8086 31.3918 24.8086 31.4913 24.8086 31.5908V31.8229V32.055V32.254C25.5773 31.6903 26.0118 31.1266 26.1121 30.596L26.1455 30.4302V30.2644L26.1789 30.1318Z" fill="#1C096B"/>
<path d="M29.3199 33.0498C29.3533 32.9503 29.4201 32.884 29.5204 32.8177C29.6541 32.7514 29.7544 32.6519 29.7544 32.5856C29.7544 32.5524 29.7878 32.4198 29.7878 32.2208C29.8212 31.9887 29.8212 31.6903 29.8546 31.2592C29.3199 31.1597 29.0859 30.9608 29.0859 30.6623C29.0859 30.3971 29.253 30.1649 29.5873 30.0323L30.4896 29.6676C30.6567 29.5681 30.8573 29.5018 31.0912 29.4023C31.3251 29.336 31.5591 29.2365 31.8265 29.1702C32.0604 29.1039 32.2944 29.0375 32.5283 29.0044C32.7623 28.9381 32.9962 28.9049 33.2301 28.8386C33.2636 28.8386 33.297 28.8054 33.3973 28.8054C33.6646 28.8054 33.932 28.9049 34.2996 29.1039C34.2996 29.137 34.333 29.2033 34.3665 29.3028C34.3999 29.4023 34.4333 29.4686 34.4333 29.5349L34.333 29.7007C34.1659 29.767 33.932 29.8665 33.698 29.9328C33.4307 29.9992 33.1633 30.0986 32.7957 30.1981C32.4615 30.2976 32.1607 30.3639 31.8933 30.4634C31.6259 30.5297 31.4254 30.6292 31.2583 30.6955C31.2249 30.795 31.1915 30.9939 31.158 31.2592C31.1246 31.5245 31.0912 31.8892 31.0912 32.3203C31.2583 32.3866 31.4254 32.4198 31.6259 32.4198C31.6928 32.4198 31.793 32.4198 31.8933 32.3866C31.9936 32.3866 32.1273 32.3535 32.2944 32.3535C32.4615 32.3203 32.5617 32.3203 32.6954 32.3203C32.7957 32.2871 32.8959 32.2871 32.9628 32.2871C33.2301 32.2871 33.4641 32.3535 33.6312 32.4529C33.7649 32.6519 33.8317 32.7514 33.8317 32.8177L33.7315 32.9835L33.6646 33.0498L33.5309 33.1824C33.4641 33.2488 33.3638 33.2819 33.2301 33.2819C33.0296 33.3151 32.662 33.3482 32.1273 33.3814C31.6928 33.4146 31.3251 33.4477 31.0578 33.5472C30.8907 34.2104 30.7904 34.7409 30.7904 35.172C30.7904 35.4373 30.8238 35.6362 30.8907 35.802C31.2917 36.0673 31.9267 36.1999 32.7957 36.1999H32.9962L33.1967 36.1668L33.4307 36.0673L33.6312 35.9678H33.6646H33.698C33.932 35.9678 34.0657 36.1668 34.1325 36.5647V36.631V36.6973C34.1325 36.83 34.0991 36.9294 33.9988 37.0289C33.932 37.1284 33.7983 37.1947 33.698 37.1947H33.4307L33.1633 37.2279C32.2609 37.2279 31.4588 37.1284 30.7236 36.9294C30.4562 36.8631 30.2223 36.7305 29.9883 36.4984C29.7544 36.2663 29.6541 36.0341 29.6207 35.7357C29.5873 35.5368 29.5873 35.3378 29.5873 35.1388C29.5873 34.9399 29.5538 34.7741 29.5538 34.5751C29.5538 34.3762 29.5538 34.2104 29.5873 34.0446C29.6207 33.8788 29.6207 33.713 29.6207 33.5472C29.3867 33.3814 29.2865 33.2156 29.3199 33.0498Z" fill="#1C096B"/>
<path d="M50.7428 33.7462C50.6091 34.0778 50.442 34.3763 50.2414 34.6415C50.0409 34.9068 49.8404 35.1721 49.6064 35.371C49.3725 35.57 49.1385 35.7358 48.8712 35.8353C48.6038 35.9347 48.3364 36.0011 48.0356 36.0011C47.8351 36.0011 47.6346 35.9679 47.3672 35.8353C47.1333 35.7358 46.8993 35.57 46.6654 35.371C46.4314 35.1721 46.2643 34.9068 46.0972 34.6084C45.9301 34.3099 45.8633 33.9783 45.8633 33.5804C45.8633 33.282 45.9301 32.9172 46.0304 32.5193C46.1306 32.1214 46.2978 31.7235 46.4983 31.3588C46.6988 30.994 46.8993 30.6956 47.1667 30.4303C47.4341 30.165 47.668 30.0656 47.9688 30.0656L48.1359 30.0987L48.2696 30.165L48.4701 30.2645C48.537 30.2977 48.6372 30.364 48.7709 30.4303C48.8712 30.4635 48.938 30.4966 49.0717 30.5629C49.172 30.5961 49.3057 30.6624 49.4728 30.6956C49.7735 30.7951 49.9741 30.9277 50.1746 31.1598C50.3751 31.3588 50.5088 31.5909 50.6425 31.823C50.7428 32.0551 50.843 32.2872 50.8764 32.5193C50.9099 32.7515 50.9433 32.9173 50.9433 33.083C50.9099 33.3152 50.843 33.5473 50.7428 33.7462ZM49.6064 32.8841C49.573 32.5193 49.4728 32.2209 49.3725 31.9888C49.2722 31.7567 49.1051 31.6572 48.938 31.6572C48.8712 31.6572 48.8043 31.6904 48.7041 31.7567C48.6038 31.823 48.537 31.9225 48.4367 31.9888C48.3364 32.0551 48.2696 32.1546 48.1693 32.2209L48.0356 32.3204C47.9688 32.3204 47.8685 32.2872 47.7683 32.2209C47.668 32.1546 47.6012 32.1214 47.5678 32.1214C47.4675 32.1214 47.4006 32.1546 47.3338 32.2872C47.267 32.4199 47.2001 32.5193 47.1667 32.6188C47.1333 32.7183 47.0664 32.9172 47.0664 33.0499C47.033 33.2157 47.033 33.3483 47.033 33.4478C47.033 33.6799 47.0664 33.912 47.1333 34.111C47.2001 34.3099 47.3004 34.4757 47.4007 34.6084C47.5009 34.741 47.6012 34.8405 47.7014 34.94C47.8017 35.0394 47.902 35.0394 47.9354 35.0394C48.1025 35.0394 48.303 34.9731 48.5035 34.8405C48.7041 34.7078 48.8712 34.5421 49.0383 34.3763C49.2054 34.1773 49.3391 33.9783 49.4393 33.7462C49.5396 33.5141 49.6064 33.282 49.6064 33.083V32.8841Z" fill="#1C096B"/>
<path d="M51.9797 37.3605C51.9463 36.83 51.9463 36.2994 51.9463 35.7357C51.9463 34.7409 52.0131 33.514 52.1134 32.0219L52.4142 28.2749C52.4142 28.0759 52.6147 27.9764 52.9489 27.9764C53.0158 27.9764 53.116 28.0096 53.2497 28.0759C53.3834 28.1422 53.5171 28.2086 53.6842 28.3412C53.8513 28.6396 54.0184 29.0044 54.1855 29.4686C54.386 29.9328 54.5866 30.4634 54.7871 31.1266C55.021 31.7234 55.2216 32.3203 55.4221 32.884C55.6226 33.4477 55.8231 33.9451 55.9902 34.343L56.5584 28.2749C56.5918 28.0759 56.7255 27.9764 56.9594 27.9764C57.0597 27.9764 57.1266 27.9764 57.2602 28.0096L57.5276 28.0759C57.6279 28.1091 57.6947 28.1754 57.6947 28.2749L57.3271 32.0219C57.2602 32.7845 57.1934 33.4477 57.16 34.0777C57.1266 34.7078 57.0931 35.2383 57.0931 35.7689V36.2331C57.0931 36.3989 57.0931 36.5647 57.1266 36.7305C57.1266 36.8631 57.0597 36.9958 56.9594 37.0952C56.8592 37.1947 56.7255 37.261 56.5584 37.261C56.2576 37.261 56.0237 37.0621 55.8231 36.6642C55.656 36.3657 55.5223 36.001 55.3218 35.6031C55.1547 35.172 54.9542 34.7078 54.7537 34.1772C54.5531 33.6798 54.3526 33.1161 54.1187 32.5193C53.8847 31.9224 53.6842 31.3255 53.4502 30.6955L53.3834 30.596C53.3166 30.596 53.2831 30.6623 53.2497 30.795C53.2163 31.1266 53.1829 31.4913 53.1494 31.8892C53.116 32.2871 53.116 32.6851 53.116 33.083C53.116 33.4809 53.116 33.912 53.116 34.3099V35.4704C53.116 35.8352 53.116 36.1999 53.1494 36.5315C53.1494 36.8963 53.1829 37.261 53.1829 37.6258V37.6921C53.1829 37.9574 53.116 38.1232 52.9489 38.1895L52.7484 38.289C52.6816 38.289 52.5813 38.2558 52.481 38.1895L52.2137 38.0569C52.08 38.0237 52.0131 37.8911 51.9797 37.7253V37.3605Z" fill="#1C096B"/>
<path d="M58.7981 37.3605C58.7646 36.83 58.7646 36.2994 58.7646 35.7357C58.7646 34.7409 58.8315 33.514 58.9318 32.0219L59.2325 28.2749C59.2325 28.0759 59.4331 27.9764 59.7673 27.9764C59.8341 27.9764 59.9344 28.0096 60.0681 28.0759C60.2018 28.1422 60.3354 28.2086 60.5025 28.3412C60.6696 28.6396 60.8368 29.0044 61.0039 29.4686C61.2044 29.9328 61.4049 30.4634 61.6054 31.1266C61.8394 31.7234 62.0399 32.3203 62.2404 32.884C62.441 33.4477 62.6415 33.9451 62.8086 34.343L63.3767 28.2749C63.4102 28.0759 63.5439 27.9764 63.7778 27.9764C63.8781 27.9764 63.9449 27.9764 64.0786 28.0096L64.346 28.0759C64.4462 28.1091 64.5131 28.1754 64.5131 28.2749L64.1454 32.0219C64.0786 32.7845 64.0118 33.4477 63.9783 34.0777C63.9449 34.6746 63.9115 35.2383 63.9115 35.7689V36.2331C63.9115 36.3989 63.9115 36.5647 63.9449 36.7305C63.9449 36.8631 63.8781 36.9958 63.7778 37.0952C63.6775 37.1947 63.5439 37.261 63.3767 37.261C63.076 37.261 62.842 37.0621 62.6415 36.6642C62.4744 36.3657 62.3407 36.001 62.1402 35.6031C61.9731 35.172 61.7725 34.7078 61.572 34.1772C61.3715 33.6798 61.171 33.1161 60.937 32.5193C60.7031 31.9224 60.5025 31.3255 60.2686 30.6955L60.2017 30.596C60.1349 30.596 60.1015 30.6623 60.0681 30.795C60.0346 31.1266 60.0012 31.4913 59.9678 31.8892C59.9344 32.2871 59.9344 32.6851 59.9344 33.083C59.9344 33.4809 59.9344 33.912 59.9344 34.3099V35.4704C59.9344 35.8352 59.9344 36.1999 59.9678 36.5315C59.9678 36.8963 60.0012 37.261 60.0012 37.6258V37.6921C60.0012 37.9574 59.9344 38.1232 59.7673 38.1895L59.5668 38.289C59.4999 38.289 59.3996 38.2558 59.2994 38.1895L59.032 38.0569C58.8983 38.0237 58.8315 37.8911 58.7981 37.7253V37.3605Z" fill="#1C096B"/>
<path d="M65.4146 33.0498C65.448 32.9503 65.5149 32.884 65.6151 32.8177C65.7488 32.7514 65.8491 32.6519 65.8491 32.5856C65.8491 32.5524 65.8825 32.4198 65.8825 32.2208C65.9159 31.9887 65.9159 31.6903 65.9493 31.2592C65.4146 31.1597 65.1807 30.9608 65.1807 30.6623C65.1807 30.3971 65.3478 30.1649 65.682 30.0323L66.5843 29.6676C66.7515 29.5681 66.952 29.5018 67.1859 29.4023C67.4199 29.336 67.6538 29.2365 67.9212 29.1702C68.1551 29.1039 68.3891 29.0375 68.623 29.0044C68.857 28.9381 69.0909 28.9049 69.3249 28.8386C69.3583 28.8386 69.3917 28.8054 69.492 28.8054C69.7593 28.8054 70.0267 28.9049 70.3943 29.1039C70.3943 29.137 70.4278 29.2033 70.4612 29.3028C70.4946 29.4023 70.528 29.4686 70.528 29.5349L70.4278 29.7007C70.2607 29.767 70.0267 29.8665 69.7928 29.9328C69.5254 29.9992 69.258 30.0986 68.8904 30.1981C68.5562 30.2976 68.2554 30.3639 67.988 30.4634C67.7207 30.5297 67.5201 30.6292 67.353 30.6955C67.3196 30.795 67.2862 30.9939 67.2528 31.2592C67.2193 31.5245 67.1859 31.8892 67.1859 32.3203C67.353 32.3866 67.5201 32.4198 67.7207 32.4198C67.7875 32.4198 67.8878 32.4198 67.988 32.3866C68.0883 32.3866 68.222 32.3535 68.3891 32.3535C68.5562 32.3535 68.6565 32.3203 68.7901 32.3203C68.8904 32.2871 68.9907 32.2871 69.0575 32.2871C69.3249 32.2871 69.5588 32.3535 69.7259 32.4529C69.8596 32.6519 69.9265 32.7514 69.9265 32.8177L69.8262 32.9835L69.7593 33.0498L69.6257 33.1824C69.5588 33.2488 69.4586 33.2819 69.3249 33.2819C69.1243 33.3151 68.7567 33.3482 68.222 33.3814C67.7875 33.4146 67.4199 33.4477 67.1525 33.5472C66.9854 34.2104 66.8851 34.7409 66.8851 35.172C66.8851 35.4373 66.9186 35.6362 66.9854 35.802C67.3865 36.0673 68.0215 36.1999 68.8904 36.1999H69.0909L69.2915 36.1668L69.5254 36.0673L69.7259 35.9678H69.7593H69.7928C70.0267 35.9678 70.1604 36.1668 70.2272 36.5647V36.631V36.6973C70.2272 36.83 70.1938 36.9294 70.0936 37.0289C70.0267 37.1284 69.893 37.1947 69.7928 37.1947H69.5254L69.258 37.2279C68.3557 37.2279 67.5201 37.1284 66.8183 36.9294C66.5509 36.8631 66.317 36.7305 66.083 36.4984C65.8491 36.2663 65.7488 36.0341 65.7154 35.7357C65.682 35.5368 65.682 35.3378 65.682 35.1388C65.682 34.9399 65.6486 34.7741 65.6486 34.5751C65.6486 34.3762 65.6486 34.2104 65.682 34.0446C65.7154 33.8788 65.7154 33.713 65.7154 33.5472C65.4815 33.3814 65.3812 33.2156 65.4146 33.0498Z" fill="#1C096B"/>
<path d="M37.1074 37.7253C37.4416 37.2943 37.7424 36.6974 38.0098 35.9347C38.2771 35.1721 38.4108 34.2768 38.4108 33.2157C38.4108 32.7846 38.3774 32.2872 38.344 31.6904C38.3106 31.0935 38.1769 30.4635 38.0098 29.8666C37.9095 29.5682 37.7758 29.2034 37.5085 28.7723C37.2411 28.3413 36.9403 27.9434 36.5727 27.5454C36.205 27.1475 35.804 26.7828 35.3695 26.4512C34.935 26.1196 34.5006 25.9206 34.0661 25.8212H33.9992H33.9658L33.899 25.8543L33.7987 25.9538C33.6985 26.0864 33.665 26.2522 33.665 26.418C33.665 26.5838 33.7319 26.6833 33.8656 26.7828C33.9658 26.8159 34.0661 26.8823 34.1998 26.9154C34.3335 26.9817 34.4671 27.0149 34.5674 27.0812C34.8348 27.247 35.0353 27.3797 35.169 27.5454C35.3027 27.6781 35.4029 27.8107 35.5366 27.9434C35.6703 28.076 35.804 28.275 35.9711 28.4739C36.1382 28.706 36.3053 28.9381 36.5058 29.2034V29.2366C37.1074 30.4303 37.4416 31.5909 37.4416 32.7183C37.4416 33.3152 37.4082 33.8789 37.3079 34.3763C37.2077 34.8736 37.1074 35.3379 36.9737 35.7358C36.84 36.1337 36.6729 36.4653 36.4724 36.7637C36.3053 37.0622 36.1048 37.2943 35.9042 37.4932C35.5366 37.858 35.2358 38.0901 34.935 38.2227C34.6677 38.3222 34.4337 38.3885 34.1664 38.4548C33.9992 38.488 33.899 38.5543 33.8656 38.687C33.7987 38.8196 33.7653 38.9522 33.7653 39.118C33.7653 39.317 33.7987 39.4165 33.7987 39.4165C34.0327 39.6154 34.2666 39.7149 34.534 39.7149C34.8348 39.7149 35.2024 39.5823 35.6369 39.2507C36.0714 38.9191 36.5727 38.4217 37.1074 37.7253Z" fill="#1C096B"/>
<path d="M80.4882 36.8963V37.0621L80.4547 37.1948C80.4213 37.3274 80.3211 37.3937 80.154 37.3937C79.8866 37.3937 79.6526 37.2611 79.4855 37.0621C79.3184 36.83 79.2182 36.5979 79.1848 36.3326C79.1513 36.001 79.1513 35.6363 79.1513 35.2384C79.1513 34.6415 79.1847 33.6467 79.285 32.3204C79.3184 31.7566 79.3519 31.2593 79.3853 30.8282C79.4187 30.3971 79.4187 29.9992 79.4187 29.6676V29.4023H79.2516C79.1513 29.4023 79.0176 29.4023 78.8505 29.4023C78.7169 29.4023 78.5497 29.4355 78.3826 29.4687C78.2824 29.5018 78.2155 29.5018 78.1487 29.5018C78.0819 29.535 78.015 29.535 77.9147 29.535C77.4469 29.535 77.0792 29.4023 76.7784 29.1702C76.6782 28.9381 76.6113 28.8055 76.6113 28.8055L76.7116 28.6065C76.8787 28.5734 77.0458 28.507 77.2463 28.4739C77.4469 28.4407 77.6808 28.4076 77.9816 28.3744C78.7837 28.2749 79.3853 28.1423 79.8198 27.9102C80.1874 28.0096 80.555 28.076 80.9561 28.076C81.3571 28.076 81.7582 28.0428 82.1592 27.9102C82.2261 27.9102 82.2929 27.877 82.4266 27.8439C82.5603 27.8107 82.6605 27.7775 82.7942 27.7444C83.0282 27.6781 83.2287 27.6449 83.4626 27.6449H83.5629L83.6632 27.6781C83.7969 27.6781 83.8637 27.7112 83.8637 27.8439V27.9102C84.1311 27.9102 84.2313 28.0096 84.2313 28.1754C84.1311 28.507 83.9974 28.706 83.7634 28.7723C83.4626 28.8386 83.095 28.9381 82.6271 29.0044C82.1592 29.0707 81.5576 29.2034 80.789 29.3029C80.6887 30.4634 80.6219 31.5245 80.5884 32.4862C80.555 33.4478 80.5216 34.3099 80.5216 35.1057C80.5216 35.4042 80.5216 35.7026 80.5216 35.9679C80.5216 36.2331 80.5216 36.5316 80.555 36.83L80.4882 36.8963Z" fill="#1C096B"/>
<path d="M82.5933 33.0498C82.6267 32.9503 82.6936 32.884 82.7938 32.8177C82.9275 32.7514 83.0278 32.6519 83.0278 32.5856C83.0278 32.5524 83.0612 32.4198 83.0612 32.2208C83.0946 31.9887 83.0946 31.6903 83.1281 31.2592C82.5933 31.1597 82.3594 30.9608 82.3594 30.6623C82.3594 30.3971 82.5265 30.1649 82.8607 30.0323L83.7631 29.6676C83.9302 29.5681 84.1307 29.5018 84.3646 29.4023C84.5986 29.336 84.8325 29.2365 85.0999 29.1702C85.3338 29.1039 85.5678 29.0375 85.8017 29.0044C86.0357 28.9381 86.2696 28.9049 86.5036 28.8386C86.537 28.8386 86.5704 28.8054 86.6707 28.8054C86.9381 28.8054 87.2054 28.9049 87.5731 29.1039C87.5731 29.137 87.6065 29.2033 87.6399 29.3028C87.6733 29.4023 87.7067 29.4686 87.7067 29.5349L87.6065 29.7007C87.4394 29.767 87.2054 29.8665 86.9715 29.9328C86.7041 29.9992 86.4367 30.0986 86.0691 30.1981C85.7349 30.2976 85.4341 30.3639 85.1667 30.4634C84.8994 30.5297 84.6988 30.6292 84.5317 30.6955C84.4983 30.795 84.4649 30.9939 84.4315 31.2592C84.3981 31.5245 84.3646 31.8892 84.3646 32.3203C84.5317 32.3866 84.6988 32.4198 84.8994 32.4198C84.9662 32.4198 85.0665 32.4198 85.1667 32.3866C85.267 32.3866 85.4007 32.3535 85.5678 32.3535C85.7349 32.3203 85.8352 32.3203 85.9688 32.3203C86.0691 32.2871 86.1694 32.2871 86.2362 32.2871C86.5036 32.2871 86.7375 32.3535 86.9046 32.4529C87.0383 32.6519 87.1052 32.7514 87.1052 32.8177L87.0049 32.9835L86.9381 33.0498L86.8044 33.1824C86.7375 33.2488 86.6373 33.2819 86.5036 33.2819C86.3031 33.3151 85.9354 33.3482 85.4007 33.3814C84.9662 33.4146 84.5986 33.4477 84.3312 33.5472C84.1641 34.2104 84.0638 34.7409 84.0638 35.172C84.0638 35.4373 84.0973 35.6362 84.1641 35.802C84.5652 36.0673 85.2002 36.1999 86.0691 36.1999H86.2696L86.4702 36.1668L86.7041 36.0673L86.9046 35.9678H86.9381H86.9715C87.2054 35.9678 87.3391 36.1668 87.4059 36.5647V36.631L87.4394 36.6973C87.4394 36.83 87.4059 36.9294 87.3057 37.0289C87.2054 37.1284 87.1052 37.1947 87.0049 37.1947H86.7375L86.4702 37.2279C85.5678 37.2279 84.7323 37.1284 84.0304 36.9294C83.7631 36.8631 83.5291 36.7305 83.2952 36.4984C83.0612 36.2663 82.9609 36.0341 82.9275 35.7357C82.8941 35.5368 82.8941 35.3378 82.8941 35.1388C82.8941 34.9399 82.8607 34.7741 82.8607 34.5751C82.8607 34.3762 82.8607 34.2104 82.8941 34.0446C82.8941 33.8788 82.9275 33.713 82.9275 33.5472C82.6936 33.3814 82.5933 33.2156 82.5933 33.0498Z" fill="#1C096B"/>
<path d="M88.3082 33.0498C88.3416 32.9503 88.4084 32.884 88.5087 32.8177C88.6424 32.7514 88.7426 32.6519 88.7426 32.5856C88.7426 32.5524 88.7761 32.4198 88.7761 32.2208C88.8095 31.9887 88.8095 31.6903 88.8429 31.2592C88.3082 31.1597 88.0742 30.9608 88.0742 30.6623C88.0742 30.3971 88.2413 30.1649 88.5755 30.0323L89.4779 29.6676C89.645 29.5681 89.8455 29.5018 90.0795 29.4023C90.3134 29.336 90.5474 29.2365 90.8147 29.1702C91.0487 29.1039 91.2826 29.0375 91.5166 29.0044C91.7505 28.9381 91.9845 28.9049 92.2184 28.8386C92.2519 28.8386 92.2853 28.8054 92.3855 28.8054C92.6529 28.8054 92.9203 28.9049 93.2879 29.1039C93.2879 29.137 93.3213 29.2033 93.3548 29.3028C93.3882 29.4023 93.4216 29.4686 93.4216 29.5349L93.3213 29.7007C93.1542 29.767 92.9203 29.8665 92.6863 29.9328C92.419 29.9992 92.1516 30.0986 91.784 30.1981C91.4497 30.2976 91.149 30.3639 90.8816 30.4634C90.6142 30.5297 90.4137 30.6292 90.2466 30.6955C90.2132 30.795 90.1797 30.9939 90.1463 31.2592C90.1129 31.5245 90.0795 31.8892 90.0795 32.3203C90.2466 32.3866 90.4137 32.4198 90.6142 32.4198C90.6811 32.4198 90.7813 32.4198 90.8816 32.3866C90.9819 32.3866 91.1155 32.3535 91.2826 32.3535C91.4497 32.3535 91.55 32.3203 91.6837 32.3203C91.784 32.2871 91.8842 32.2871 91.9511 32.2871C92.2184 32.2871 92.4524 32.3535 92.6195 32.4529C92.7532 32.6519 92.82 32.7514 92.82 32.8177L92.7198 32.9835L92.6529 33.0498L92.5192 33.1824C92.4524 33.2488 92.3521 33.2819 92.2184 33.2819C92.0179 33.3151 91.6503 33.3482 91.1155 33.3814C90.6811 33.4146 90.3134 33.4477 90.0461 33.5472C89.879 34.2104 89.7787 34.7409 89.7787 35.172C89.7787 35.4373 89.8121 35.6362 89.879 35.802C90.28 36.0673 90.915 36.1999 91.784 36.1999H91.9845L92.185 36.1668L92.419 36.0673L92.6195 35.9678H92.6529H92.6863C92.9203 35.9678 93.054 36.1668 93.1208 36.5647V36.631L93.1542 36.6973C93.1542 36.83 93.1208 36.9294 93.0205 37.0289C92.9537 37.1284 92.82 37.1947 92.7198 37.1947H92.4524L92.185 37.2279C91.2826 37.2279 90.4471 37.1284 89.7453 36.9294C89.4779 36.8631 89.244 36.7305 89.01 36.4984C88.7761 36.2663 88.6758 36.0341 88.6424 35.7357C88.609 35.5368 88.609 35.3378 88.609 35.1388C88.5755 34.9399 88.5755 34.7741 88.5755 34.5751C88.5755 34.3762 88.5755 34.2104 88.609 34.0446C88.609 33.8788 88.6424 33.713 88.6424 33.5472C88.4084 33.3814 88.3082 33.2156 88.3082 33.0498Z" fill="#1C096B"/>
<path d="M43.8255 28.7391C41.72 29.7008 39.8818 31.7235 40.3831 34.1773C40.851 36.5979 43.0902 37.5927 45.3629 37.7585C46.2986 37.8248 46.2986 36.3989 45.3629 36.2995C43.6918 36.1668 41.8536 35.4373 41.7868 33.5141C41.6865 31.7566 43.1236 30.5961 44.5942 29.966C45.3963 29.6013 44.661 28.3412 43.8255 28.7391Z" fill="#1C096B"/>
<path d="M75.04 29.4024C73.0014 30.2314 71.0629 31.8562 71.3971 34.2768C71.7314 36.6974 74.2045 37.5596 76.3769 37.7254C77.2793 37.7917 77.2458 36.4321 76.3769 36.3658C74.8729 36.2663 72.8677 35.7026 72.7674 33.8789C72.6672 32.2872 74.1043 31.2593 75.4077 30.7288C76.2098 30.3972 75.8422 29.0708 75.04 29.4024Z" fill="#1C096B"/>
<path d="M85.835 27.4459C86.4365 27.0812 87.0047 26.7164 87.6063 26.3517L85.835 27.4459Z" fill="#1C096B"/>
<path d="M100.474 16.5033C100.207 17.0671 100.307 16.8349 99.672 18.1281C99.2375 18.9903 98.9367 19.4877 98.7696 19.6203C98.4688 19.8193 98.0009 19.5208 97.9675 19.0234C97.9341 18.5261 98.402 17.0007 98.8365 16.3707C99.2709 15.7407 99.7054 15.4754 100.006 15.6412C100.34 15.7738 100.741 15.9396 100.474 16.5033Z" fill="white"/>
<path d="M105.787 24.0637C105.152 24.0969 105.554 23.7321 104.116 23.7653C102.646 23.7984 102.579 24.0637 102.211 23.9974C101.844 23.9311 101.977 23.4337 102.412 23.1684C102.846 22.9031 104.551 22.6047 105.32 22.7042C106.088 22.8036 106.289 22.8036 106.322 23.2347C106.356 23.5995 106.422 24.0305 105.787 24.0637Z" fill="white"/>
<path d="M104.451 18.3602C104.451 18.3602 103.716 17.3655 103.081 17.9623C102.178 18.7913 100.708 20.2835 100.708 20.2835C100.708 20.2835 99.9724 20.9798 100.407 21.3446C100.741 21.6098 100.607 21.8751 101.376 21.1788C102.145 20.4824 103.548 20.0514 104.183 19.7529C104.785 19.4876 104.785 18.8576 104.451 18.3602Z" fill="white"/>
<path d="M27.2486 7.25197C27.5828 7.78252 27.4491 7.58356 28.2178 8.7773C28.7526 9.57312 29.1202 10.0373 29.2873 10.1368C29.6215 10.3026 30.0226 9.97103 30.0226 9.47364C30.0226 8.97625 29.3541 7.51724 28.8194 6.92038C28.3181 6.32351 27.8502 6.12455 27.5494 6.32351C27.3155 6.52247 26.881 6.72142 27.2486 7.25197Z" fill="white"/>
<path d="M23.472 9.53991C23.472 9.53991 24.0736 8.47881 24.7754 8.9762C25.7781 9.70571 27.3823 10.9989 27.3823 10.9989C27.3823 10.9989 28.2178 11.6289 27.8167 12.0269C27.516 12.3253 27.6831 12.5906 26.8475 11.9937C26.012 11.3968 24.5749 11.1316 23.9065 10.8994C23.3049 10.7005 23.2046 10.0705 23.472 9.53991Z" fill="white"/>
</g>
<defs>
<clipPath id="clip0_124_842">
<rect width="108" height="48" fill="white"/>
</clipPath>
</defs>
</svg>
