<svg width="180" height="171" viewBox="0 0 180 171" fill="none" xmlns="http://www.w3.org/2000/svg">
<path d="M68.1967 170.908C46.2614 171.748 26.0785 167.096 11.5154 145.972C-3.80304 123.763 -4.01454 80.2558 11.9384 57.138C26.7432 35.6989 42.5753 14.7845 66.4745 6.60057C80.4635 1.80914 92.0093 -0.900915 110.177 0.27247C126 6.60057 137.024 21.6043 137.024 21.6043C133.489 18.072 136.873 25.2066 137.024 21.6043C155.605 40.0706 170.441 61.7894 177.057 89.3839C184.369 119.881 178.326 127.401 155.877 143.699C129.38 162.969 99.1962 169.579 68.1665 170.908H68.1967Z" fill="#FAEBE6"/>
<path d="M74.5682 58.2161V39.8386L89.5467 30.1923L104.525 39.8386V43.3082C104.525 43.842 104.984 44.2995 105.519 44.2995C106.053 44.2995 106.512 43.842 106.512 43.3082V39.3048C106.512 38.9617 106.359 38.6566 106.053 38.466L90.0434 28.1716C89.6995 27.9428 89.2792 27.9428 88.9735 28.1716L72.9634 38.466C72.6959 38.6566 72.5049 38.9617 72.5049 39.3048V58.2542C72.5049 58.788 72.9634 59.2455 73.4983 59.2455C74.1097 59.2455 74.5682 58.788 74.5682 58.2161Z" fill="#FF5738"/>
<path d="M112.32 55.5471C111.441 56.3859 110.753 56.5766 110.218 56.5766C109.722 56.5766 109.263 56.3859 108.881 56.1572C108.69 56.0428 108.499 55.9284 108.346 55.7759C108.193 55.6615 108.079 55.5471 107.964 55.4327C107.582 55.1658 107.085 55.1658 106.741 55.4327C106.13 55.9284 105.328 56.1953 104.525 56.1953C103.532 56.1953 102.653 55.7759 101.965 55.1277C101.315 54.4796 100.895 53.5645 100.895 52.5732C100.895 51.2387 101.621 50.0568 102.729 49.4467C103.111 49.218 103.302 48.7986 103.226 48.3791C103.188 48.1504 103.15 47.9216 103.15 47.6929C103.15 46.0152 104.296 44.6045 105.824 44.2233C106.245 44.1089 106.55 43.7276 106.55 43.3082C106.627 41.4018 108.232 39.8767 110.142 39.8767C112.091 39.8767 113.657 41.4018 113.734 43.3082C113.734 43.7276 114.039 44.1089 114.46 44.2233C115.988 44.6427 117.134 46.0152 117.134 47.6929C117.134 47.9216 117.096 48.1504 117.058 48.3791C116.982 48.7986 117.173 49.218 117.555 49.4467C118.663 50.0568 119.389 51.2387 119.389 52.5732C119.389 53.5645 118.969 54.4414 118.319 55.1277C117.669 55.7759 116.752 56.1953 115.759 56.1953C114.918 56.1953 114.154 55.9284 113.543 55.4327C113.122 55.0896 112.473 55.1658 112.129 55.5853C111.785 56.0047 111.861 56.6528 112.282 56.996C113.275 57.7585 114.46 58.1779 115.721 58.1779C118.816 58.1779 121.338 55.6615 121.338 52.5732C121.338 50.5143 120.23 48.6842 118.472 47.6929L117.975 48.5698L118.969 48.7604C119.045 48.4173 119.083 48.036 119.083 47.6929C119.083 45.1002 117.326 42.9269 114.918 42.2787L114.651 43.2319L115.644 43.1938C115.53 40.2199 113.046 37.856 110.027 37.856C107.009 37.856 104.563 40.2199 104.41 43.1938L105.404 43.2319L105.328 42.3169C102.92 42.965 101.163 45.1383 101.163 47.731C101.163 48.1123 101.201 48.4554 101.277 48.7986L102.271 48.6079L101.774 47.731C100.016 48.7223 98.9082 50.5524 98.9082 52.6113C98.9082 55.6996 101.43 58.216 104.525 58.216C105.786 58.216 107.009 57.7966 107.964 57.0341L107.353 56.2334L106.741 57.0341C106.78 57.0722 106.932 57.1866 107.123 57.3391C107.697 57.7966 108.766 58.5592 110.218 58.5592C111.327 58.5592 112.549 58.1017 113.696 56.9578C114.078 56.5766 114.116 55.9284 113.734 55.5471C113.352 55.1658 112.74 55.1277 112.32 55.5471Z" fill="#FF5738"/>
<path d="M113.542 49.0274C114.077 49.0274 114.498 48.608 114.498 48.0742V47.8454C114.498 47.3116 114.077 46.8922 113.542 46.8922C113.008 46.8922 112.587 47.3116 112.587 47.8454V48.0742C112.549 48.608 113.008 49.0274 113.542 49.0274Z" fill="#FF5738"/>
<path d="M104.525 51.62C103.99 51.62 103.569 52.0394 103.569 52.5732V52.802C103.569 53.3357 103.99 53.7551 104.525 53.7551C105.06 53.7551 105.48 53.3357 105.48 52.802V52.5732C105.48 52.0394 105.06 51.62 104.525 51.62Z" fill="#FF5738"/>
<path d="M109.187 57.5679V66.9472C109.187 67.481 109.645 67.9385 110.18 67.9385C110.715 67.9385 111.173 67.481 111.173 66.9472V57.5679C111.173 57.0341 110.715 56.5765 110.18 56.5765C109.645 56.5765 109.187 56.9959 109.187 57.5679Z" fill="#FF5738"/>
<path d="M96.3481 45.5577V44.5664H84.4647V39.9148H95.3546V45.5577H96.3481H97.3416V38.8854C97.3416 38.6185 97.2269 38.3516 97.0359 38.161C96.8448 37.9703 96.5774 37.856 96.3099 37.856H83.433C83.1656 37.856 82.8981 37.9703 82.7071 38.161C82.516 38.3516 82.4014 38.6185 82.4014 38.8854V45.5196C82.4014 45.7865 82.516 46.0534 82.7071 46.244C82.8981 46.4346 83.1656 46.549 83.433 46.549H96.3099C96.5774 46.549 96.8448 46.4346 97.0359 46.244C97.2269 46.0534 97.3416 45.7865 97.3416 45.5196H96.3481V45.5577Z" fill="#FF5738"/>
<path d="M84.4647 66.566V53.7933H95.3546V66.566C95.3546 67.0998 95.8132 67.5573 96.3481 67.5573C96.8831 67.5573 97.3416 67.0998 97.3416 66.566V52.802C97.3416 52.5351 97.2269 52.2682 97.0359 52.0775C96.8448 51.8869 96.5774 51.7725 96.3099 51.7725H83.433C83.1656 51.7725 82.8981 51.8869 82.7071 52.0775C82.516 52.2682 82.4014 52.5351 82.4014 52.802V66.566C82.4014 67.0998 82.8599 67.5573 83.3948 67.5573C84.0444 67.5573 84.4647 67.0998 84.4647 66.566Z" fill="#FF5738"/>
<path d="M116.867 65.9559H65.054C64.5191 65.9559 64.0605 66.4135 64.0605 66.9473C64.0605 67.481 64.5191 67.9386 65.054 67.9386H116.867C117.402 67.9386 117.861 67.481 117.861 66.9473C117.861 66.3753 117.402 65.9559 116.867 65.9559Z" fill="#FF5738"/>
<path d="M78.351 57.3391L76.2112 56.2715C75.9437 56.119 75.5998 56.119 75.2942 56.2715L73.1544 57.3391C72.6577 57.606 72.4666 58.1779 72.6959 58.6736C72.9633 59.1692 73.5365 59.3599 74.0332 59.1311L75.7145 58.2923L77.3957 59.1311C77.8925 59.398 78.5038 59.1692 78.7331 58.6736C79.0388 58.1779 78.8477 57.5679 78.351 57.3391Z" fill="#FF5738"/>
<path d="M76.8994 58.216V64.5071C76.8994 65.0409 77.3579 65.4984 77.8929 65.4984C78.4278 65.4984 78.8863 65.0409 78.8863 64.5071V58.216C78.8863 57.6823 78.4278 57.2247 77.8929 57.2247C77.3579 57.2247 76.8994 57.6823 76.8994 58.216Z" fill="#FF5738"/>
<path d="M74.0717 57.3391L71.9319 56.2715C71.6644 56.119 71.3205 56.119 71.0149 56.2715L68.8751 57.3391C68.3784 57.606 68.1873 58.1779 68.4166 58.6736C68.684 59.1692 69.2572 59.3599 69.7539 59.1311L71.4352 58.2923L73.1164 59.1311C73.6132 59.398 74.2245 59.1692 74.4538 58.6736C74.7595 58.1779 74.5684 57.5679 74.0717 57.3391Z" fill="#FF5738"/>
<path d="M72.6191 58.216V64.5071C72.6191 65.0409 73.0777 65.4984 73.6126 65.4984C74.1476 65.4984 74.6061 65.0409 74.6061 64.5071V58.216C74.6061 57.6823 74.1476 57.2247 73.6126 57.2247C73.0777 57.2247 72.6191 57.6823 72.6191 58.216Z" fill="#FF5738"/>
<path d="M69.7921 57.3391L67.6523 56.2715C67.3848 56.119 67.0409 56.119 66.7353 56.2715L64.5955 57.3391C64.2516 57.4916 64.0605 57.8729 64.0605 58.216V66.9091C64.0605 67.4429 64.5191 67.9004 65.054 67.9004C65.589 67.9004 66.0475 67.4429 66.0475 66.9091V58.8261L67.1938 58.2542L68.875 59.093C69.3718 59.3599 69.9831 59.1311 70.2124 58.6355C70.4799 58.1779 70.2888 57.5679 69.7921 57.3391Z" fill="#FF5738"/>
<path d="M68.3398 58.216V64.5071C68.3398 65.0409 68.7984 65.4984 69.3333 65.4984C69.8683 65.4984 70.3268 65.0409 70.3268 64.5071V58.216C70.3268 57.6823 69.8683 57.2247 69.3333 57.2247C68.7984 57.2247 68.3398 57.6823 68.3398 58.216Z" fill="#FF5738"/>
<path d="M110.639 60.0843C117.746 60.7325 123.898 61.7238 128.254 62.8676C130.432 63.4395 132.113 64.0877 133.221 64.6977C133.756 65.0027 134.138 65.3078 134.367 65.5365C134.597 65.7653 134.597 65.9178 134.597 65.9559C134.597 66.0322 134.597 66.1084 134.52 66.2228C134.367 66.4516 133.947 66.871 133.259 67.2904C131.998 68.0148 129.935 68.7392 127.26 69.3874C119.198 71.3319 105.633 72.6282 90.3108 72.6282C77.8543 72.6282 66.5441 71.7894 58.4435 70.4168C54.3932 69.7305 51.1071 68.9299 48.9291 68.0529C47.8592 67.6335 47.0186 67.176 46.5601 66.7566C46.3308 66.566 46.178 66.3753 46.1016 66.261C46.0251 66.1084 46.0251 66.0703 46.0251 65.9941C46.0251 65.9178 46.0634 65.8034 46.178 65.6128C46.4072 65.2696 47.095 64.774 48.1267 64.2783C49.6551 63.5539 51.9859 62.8676 54.8899 62.2194C57.7939 61.6094 61.3092 61.0375 65.2449 60.5799C65.7798 60.5037 66.2002 60.008 66.1237 59.4743C66.0473 58.9405 65.5506 58.5211 65.0156 58.5973C58.902 59.2836 53.8582 60.2368 50.2283 61.3425C48.4324 61.9144 46.9804 62.5245 45.9105 63.2107C45.3756 63.5539 44.917 63.9352 44.5732 64.3927C44.2293 64.8502 44 65.384 44 65.9559C44 66.4135 44.1528 66.871 44.3821 67.2523C44.8406 67.9767 45.4902 68.5105 46.369 69.0061C47.8974 69.8831 50.1136 70.6075 52.8648 71.2938C61.1946 73.3145 74.8357 74.6109 90.2726 74.6109C102.844 74.6109 114.192 73.7339 122.484 72.3614C126.611 71.6751 129.973 70.8363 132.38 69.8831C133.603 69.3874 134.558 68.8917 135.284 68.2817C135.666 67.9767 135.972 67.6335 136.201 67.2523C136.431 66.871 136.583 66.4135 136.583 65.9559C136.583 65.2696 136.278 64.6977 135.857 64.2021C135.093 63.3633 133.985 62.7532 132.495 62.1432C130.279 61.2281 127.222 60.4274 123.554 59.7411C119.886 59.0548 115.568 58.4829 110.868 58.0635C110.333 58.0254 109.836 58.4067 109.798 58.9786C109.683 59.5505 110.104 60.0462 110.639 60.0843Z" fill="#FF5738"/>
<path d="M134.558 67.2523V96.6486C134.558 96.7249 134.558 96.8011 134.482 96.9155C134.329 97.1443 133.909 97.5637 133.221 97.9831C131.96 98.7075 129.897 99.4319 127.222 100.08C119.16 102.025 105.595 103.321 90.2726 103.321C77.8161 103.321 66.5058 102.482 58.4053 101.11C54.355 100.423 51.0689 99.6225 48.8909 98.7456C47.821 98.3262 46.9804 97.8687 46.5219 97.4493C46.2926 97.2586 46.1398 97.068 46.0634 96.9536C45.9869 96.8011 45.9869 96.763 45.9869 96.6867V67.2904C45.9869 66.7566 45.5284 66.2991 44.9935 66.2991C44.4585 66.2991 44 66.7566 44 67.2904V96.6867C44 97.1443 44.1528 97.6018 44.3821 97.9831C44.8406 98.7075 45.4902 99.2413 46.369 99.7369C47.8974 100.614 50.1136 101.338 52.8648 102.025C61.1946 104.045 74.8357 105.342 90.2726 105.342C102.844 105.342 114.192 104.465 122.484 103.092C126.611 102.406 129.973 101.567 132.38 100.614C133.603 100.118 134.558 99.6226 135.284 99.0125C135.666 98.7075 135.972 98.3643 136.201 97.9831C136.431 97.6018 136.583 97.1443 136.583 96.6867V67.2904C136.583 66.7566 136.125 66.2991 135.59 66.2991C135.017 66.261 134.558 66.6804 134.558 67.2523Z" fill="#FF5738"/>
<path d="M108.537 132.793V135.767H108.881L108.575 135.577L108.537 135.767H108.881L108.575 135.577C108.575 135.577 108.423 135.729 108.155 135.882C107.658 136.149 106.78 136.454 105.671 136.721C102.271 137.521 96.5774 138.055 90.1581 138.055C84.8468 138.055 80.0323 137.674 76.6316 137.102C74.9122 136.797 73.5366 136.454 72.696 136.111C72.2757 135.958 71.97 135.767 71.8171 135.653L71.7407 135.577L71.4732 135.767H71.7789L71.7407 135.577L71.4732 135.767H71.7789V132.793C71.7789 132.26 71.3204 131.802 70.7855 131.802C70.2505 131.802 69.792 132.26 69.792 132.793V135.767C69.792 136.072 69.9066 136.377 70.0213 136.606C70.2887 137.064 70.6708 137.331 71.0911 137.559C71.8171 137.979 72.8106 138.284 74.0333 138.589C77.6633 139.466 83.5095 140 90.1581 140.038C95.5457 140.038 100.437 139.656 104.028 139.046C105.824 138.741 107.276 138.398 108.384 137.941C108.919 137.712 109.378 137.483 109.798 137.178C109.989 137.026 110.18 136.835 110.295 136.606C110.448 136.377 110.524 136.072 110.524 135.767V132.793C110.524 132.26 110.066 131.802 109.531 131.802C108.958 131.802 108.537 132.26 108.537 132.793Z" fill="#FF5738"/>
<path d="M71.7791 132.527H71.4352L71.7408 132.717L71.7791 132.527H71.4352L71.7408 132.717L71.6644 132.679L71.7408 132.755L71.6644 132.717L71.7408 132.793L71.8173 132.717C72.0465 132.527 72.6961 132.222 73.6131 131.955C76.4407 131.116 81.7901 130.468 87.9802 130.353C88.5151 130.353 88.9737 129.896 88.9737 129.324C88.9737 128.79 88.5151 128.333 87.942 128.333C83.0511 128.409 78.7333 128.828 75.5619 129.4C73.957 129.705 72.6961 130.048 71.7026 130.468C71.2059 130.696 70.7856 130.925 70.4417 131.23C70.2506 131.383 70.0978 131.573 69.9832 131.802C69.8685 132.031 69.7539 132.298 69.7539 132.603C69.7539 133.137 70.2124 133.594 70.7474 133.594C71.3205 133.518 71.7791 133.06 71.7791 132.527Z" fill="#FF5738"/>
<path d="M92.6803 130.277C97.3802 130.391 101.545 130.773 104.487 131.345C105.939 131.612 107.124 131.955 107.85 132.26C108.194 132.412 108.461 132.565 108.538 132.641L108.576 132.679L108.729 132.565L108.538 132.641L108.576 132.679L108.729 132.565L108.538 132.641L108.92 132.488H108.538L108.576 132.641L108.958 132.488H108.576C108.576 133.022 109.034 133.48 109.569 133.48C110.104 133.48 110.563 133.022 110.563 132.488C110.563 132.183 110.486 131.917 110.372 131.688C110.142 131.268 109.799 131.001 109.416 130.773C108.767 130.353 107.926 130.048 106.856 129.781C103.723 128.943 98.6411 128.371 92.7567 128.256C92.2218 128.256 91.7633 128.676 91.7251 129.248C91.6869 129.781 92.1072 130.239 92.6803 130.277Z" fill="#FF5738"/>
<path d="M89.1266 129.095V104.236C89.1266 103.702 88.6681 103.245 88.1331 103.245C87.5982 103.245 87.1396 103.702 87.1396 104.236V129.095C87.1396 129.629 87.5982 130.086 88.1331 130.086C88.6681 130.086 89.1266 129.629 89.1266 129.095Z" fill="#FF5738"/>
<path d="M91.3809 104.236V129.095C91.3809 129.629 91.8394 130.086 92.3743 130.086C92.9093 130.086 93.3678 129.629 93.3678 129.095V104.236C93.3678 103.702 92.9093 103.245 92.3743 103.245C91.8394 103.207 91.3809 103.664 91.3809 104.236Z" fill="#FF5738"/>
<path d="M106.397 98.6693V97.678H74.2626C73.4984 97.678 72.8106 97.373 72.3139 96.8773C71.8172 96.3817 71.5115 95.6954 71.5115 94.9328V81.7407C71.5115 80.9782 71.8172 80.2919 72.3139 79.7962C72.8106 79.3006 73.4984 78.9955 74.2626 78.9955H106.397C107.162 78.9955 107.849 79.3006 108.346 79.7962C108.843 80.2919 109.149 80.9782 109.149 81.7407V94.9328C109.149 95.6954 108.843 96.3817 108.346 96.8773C107.849 97.373 107.162 97.678 106.397 97.678V98.6693V99.6606C109.034 99.6606 111.174 97.5255 111.174 94.8947V81.7026C111.174 79.0718 109.034 76.9366 106.397 76.9366H74.2626C71.6261 76.9366 69.4863 79.0718 69.4863 81.7026V94.8947C69.4863 97.5255 71.6261 99.6606 74.2626 99.6606H106.397V98.6693Z" fill="#FF5738"/>
<path d="M66.0096 82.5033H65.0161C65.0161 83.0752 64.5576 83.5327 63.9844 83.5327C63.4113 83.5327 62.9528 83.0752 62.9528 82.5033C62.9528 81.9314 63.4113 81.4738 63.9844 81.4738C64.5576 81.4738 65.0161 81.9314 65.0161 82.5033H66.0096H67.003C67.003 80.8257 65.6657 79.4912 63.9844 79.4912C62.3032 79.4912 60.9658 80.8257 60.9658 82.5033C60.9658 84.1809 62.3032 85.5154 63.9844 85.5154C65.6657 85.5154 67.003 84.1809 67.003 82.5033H66.0096Z" fill="#FF5738"/>
<path d="M66.0096 90.0144H65.0161C65.0161 90.5863 64.5576 91.0438 63.9844 91.0438C63.4113 91.0438 62.9528 90.5863 62.9528 90.0144C62.9528 89.4425 63.4113 88.9849 63.9844 88.9849C64.5576 88.9849 65.0161 89.4425 65.0161 90.0144H66.0096H67.003C67.003 88.3368 65.6657 87.0023 63.9844 87.0023C62.3032 87.0023 60.9658 88.3368 60.9658 90.0144C60.9658 91.692 62.3032 93.0265 63.9844 93.0265C65.6657 93.0265 67.003 91.692 67.003 90.0144H66.0096Z" fill="#FF5738"/>
</svg>
